<svg xmlns="http://www.w3.org/2000/svg" viewBox="0 0 48 48"><path fill="#f9d9c0" d="M10.737 24.835s-2.209-1.14-1.522 1.638 1.302 4.46 2.234 3.589M36.965 24.857s2.52-1.162 1.834 1.616c-.687 2.777-1.643 4.336-2.575 3.465"/><path fill="#464747" d="M23.707 6.99s-11.972-.443-13.464 11.818a10.09 10.09 0 0 0 .023 2.574l1.957 14.366 5.072 5.263h13.35l4.833-5.215 2.211-14.717a10.875 10.875 0 0 0-.462-5.186c-1.255-3.616-4.612-8.87-13.52-8.902z"/><path fill="#f9d9c0" d="M34.016 34.6v.01c0 .09-.01.14-.01.14l-2.21 2.47-2.07 2.33-3.69-3.18h-4.72l-3.1 3.18-2.34-2.34-.15-.16-1.99-1.99c-.03-.13-.06-.28-.08-.44-.18-1.43.08-3.72.08-3.72.05-.28.12-.52.23-.72.64-1.35 2.23-1.14 2.23-1.14 2.88.03 6.15-1.36 7.3-1.9.28-.13.43-.21.43-.21.1.09.21.18.32.26 1.9 1.38 5.82 1.81 6.98 1.81 1.23 0 2.15.47 2.15.47.2.11.34.35.45.66.04.13.08.27.11.4.03.12.05.25.07.37.2 1.34.06 3.17.01 3.7z"/><path fill="#d6b6a1" d="M34.016 34.6v.01c0 .09-.01.14-.01.14l-2.21 2.47s-.23-.52 0-3.54c.24-3.02 2.03-3.55 2.03-3.55.04.13.08.27.11.4.03.12.05.25.07.37.2 1.34.06 3.17.01 3.7zM15.876 37.21l-.15-.16-1.99-1.99c-.03-.13-.06-.28-.08-.44-.18-1.43.08-3.72.08-3.72.05-.28.12-.52.23-.72.4.18 1.71.95 1.9 3.5.21 2.77.04 3.44.01 3.53zM23.823 32.652a.367.367 0 0 1-.098-.013l-1.815-.487a.376.376 0 0 1 .194-.725l1.731.465 1.747-.347a.376.376 0 0 1 .146.736l-1.833.364a.362.362 0 0 1-.072.007zM27.803 35.893a.378.378 0 0 1-.254-.099l-.95-.874h-5.705l-1 .88a.375.375 0 1 1-.495-.565l1.107-.972a.377.377 0 0 1 .247-.093h5.992c.095 0 .185.035.254.099l1.057.973a.376.376 0 0 1-.253.651zM24.246 27.19l-.15 3c-.01.2-.17.36-.37.36h-.02a.372.372 0 0 1-.36-.39l.15-3.02c.28-.13.43-.21.43-.21.1.09.21.18.32.26z"/><g><path fill="#333" d="M22.082 22.645a.376.376 0 0 1-.374-.347c-.007-.093-.205-2.3-2.734-3.61a.375.375 0 0 1 .345-.666c2.916 1.51 3.13 4.113 3.137 4.222a.374.374 0 0 1-.346.4h-.028z"/></g><g><path fill="#333" d="M25.667 22.835h-.024a.375.375 0 0 1-.351-.398c.008-.118.214-2.903 3.13-4.415a.375.375 0 0 1 .345.666c-2.543 1.318-2.725 3.771-2.726 3.796a.376.376 0 0 1-.374.351z"/></g><path fill="#e6e6e6" d="M13.598 18.546c1.366.104 6.202.668 8.662 3.517.139.16.168.386.088.582-.544 1.331-2.92 6.178-7.797 3.517a.758.758 0 0 1-.071-.044c-.396-.276-3.699-2.762-1.424-7.265a.563.563 0 0 1 .542-.307zM34.145 18.546c-1.367.104-6.203.668-8.663 3.517a.564.564 0 0 0-.088.582c.544 1.331 2.92 6.178 7.797 3.517a.746.746 0 0 0 .072-.044c.395-.276 3.698-2.762 1.424-7.265a.563.563 0 0 0-.542-.307z"/></svg>