<?xml version="1.0" ?><svg style="enable-background:new 0 0 48 48;" version="1.1" viewBox="0 0 48 48" xml:space="preserve" xmlns="http://www.w3.org/2000/svg" xmlns:xlink="http://www.w3.org/1999/xlink"><g id="Icons"><g><path d="M19.7729,27.76001c0,0-3.6499,0.722-6.8158,1.8342c-3.166,1.1122-5.9091,2.9109-6.8158,6.0308    h35.7174c0,0-2.3944-5.2149-7.8385-6.2919l-5.6982-1.5465C28.322,27.78661,23.7986,30.68371,19.7729,27.76001z" style="fill:#1D97FF;"/><path d="M30.9962,16.74601c0,0,0.5719-1.3161,0.1776-3.1895c-0.3945-1.8733,0.0435-3.309-3.4096-5.293    c0,0-0.4544-0.3938-3.7467-0.2362c-3.8035,0.1822-4.9342,0.3059-5.7051,1.4035c-0.7709,1.0975-1.0535,2.2897-1.0535,2.2897    s-0.716,0.0804-0.5719,1.9331c0.1442,1.8527-0.0438,3.3394-0.0438,3.3394s-1.0496-1.076-0.96-0.0476    c0.0896,1.0283,0.6467,1.4314,0.7397,2.9182c0.0929,1.4868-0.3162,2.0057,1.0155,2.2862c0,0,0.0154,2.4586,2.3892,4.2979    c0.0874,0.0677,0.1604,0.1156,0.244,0.1784l-0.1483-0.2021l-0.1504,1.336c0,0,1.7778,2.4613,4.2207,2.5038    c2.476,0.0431,4.3283-2.4772,4.3283-2.4772l-0.3278-1.6834l-0.0165,0.1535c0.6463-0.5148,1.1789-1.0027,1.4017-1.2815    c0.631-0.7898,0.802-2.9377,0.802-2.9377s0.7161,0.4626,0.9789-1.2835c0.2628-1.7459,0.4641-2.4211,0.6111-3.0153    C31.9184,17.14451,32.2385,15.87331,30.9962,16.74601z" style="fill:#BC8C77;"/><path d="M28.1489,26.87351c-1.02,0.96-2.5,2-4.13,1.98h-0.37c-1.47,0.02-2.81-0.83-3.81-1.7l0.07-0.64    c0.99,0.85,2.31,1.66,3.74,1.64h0.37c1.57,0.02,2.9889-0.9989,3.9989-1.9288L28.1489,26.87351z" style="opacity:0.1;"/><g><path d="M25.482,24.44451l-0.8007,0.2598c-0.4932,0.1582-1.0137,0.1582-1.5059,0l-0.8018-0.2598     c-0.1826-0.0596-0.3808,0.042-0.4409,0.2256c-0.0595,0.1836,0.041,0.3809,0.2251,0.4404l0.8023,0.2598     c0.3164,0.1025,0.6421,0.1533,0.9677,0.1533c0.3257,0,0.6519-0.0508,0.9688-0.1533l0.8013-0.2598     c0.184-0.0595,0.2846-0.2568,0.2251-0.4414C25.8639,24.48651,25.6661,24.38591,25.482,24.44451z" style="fill:#9E6D5C;"/><path d="M22.8629,22.56951c0,0,0.0376,0.0068,0.1265,0.0654c0.4228,0.2803,0.6904,0.3526,0.854,0.3526     c0.0078,0,0.0132-0.0015,0.0205-0.0018c0.0073,0.0003,0.0126,0.0018,0.0205,0.0018c0.1636,0,0.4311-0.0723,0.854-0.3526     c0.0884-0.0595,0.1274-0.0644,0.1328-0.0566c0.1826,0.0713,0.4087,0.1084,0.7051-0.1738     c0.4184-0.3975,0.2221-0.9903-0.1377-1.3731c-0.1323-0.1377-0.3511-0.1455-0.4932-0.0156     c-0.1406,0.1318-0.1484,0.3525-0.0176,0.4941c0.0718,0.0782,0.2022,0.2764,0.1402,0.3956     c-0.1797-0.0586-0.3955-0.0674-0.7163,0.1455c-0.294,0.1953-0.439,0.2295-0.4698,0.2353     c-0.0014-0.0001-0.0024,0.0013-0.0039,0.0013c-0.0089,0.001-0.0167-0.002-0.0258-0.0003c-0.0015,0-0.1436-0.0156-0.4766-0.2363     c-0.3223-0.2139-0.5371-0.2061-0.7319-0.1397c-0.001-0.0039-0.0039-0.0088-0.0098-0.0146     c-0.0674-0.0635,0.0859-0.2998,0.166-0.3868c0.1314-0.1406,0.1245-0.3613-0.0161-0.4931     c-0.1406-0.1319-0.3628-0.126-0.4946,0.0146c-0.3599,0.3828-0.5562,0.9756-0.1377,1.3731     C22.4483,22.68671,22.6744,22.64861,22.8629,22.56951z" style="fill:#9E6D5C;"/><path d="M29.0421,16.07341c-0.917-0.6924-1.563-0.5049-2.1865-0.3262     c-0.1021,0.0293-0.2071,0.0596-0.3174,0.087c-0.8262,0.2099-1.3316,0.167-1.3394,0.163     c-0.1806-0.0214-0.3344,0.0977-0.375,0.2666c-0.1621,0.6739-0.124,1.2081,0.1138,1.5879     c0.1821,0.2891,0.4277,0.3975,0.5361,0.4327c0.0454,0.0185,0.0904,0.0253,0.1387,0.0253c0.0645,0,0.1348-0.0117,0.2183-0.0273     c0.3281-0.0596,1.0952-0.2002,2.2788,0.0195c0.1855,0.0362,0.3725-0.0918,0.4072-0.2812     c0.0347-0.1904-0.0908-0.3731-0.2812-0.4082c-1.3072-0.2393-2.1641-0.085-2.5293-0.0186l-0.0552,0.0088     c-0.1362-0.0722-0.2876-0.3262-0.2007-0.9023c0.272-0.0078,0.7056-0.0469,1.2588-0.1866     c0.1186-0.0302,0.2309-0.0625,0.3398-0.0937c0.5816-0.1689,0.9327-0.2695,1.5723,0.2119     c0.1543,0.1172,0.3745,0.085,0.4897-0.0683C29.2276,16.40941,29.1969,16.18961,29.0421,16.07341z" style="fill:#9E6D5C;"/><path d="M20.7643,16.42011c0.1089,0.0312,0.2216,0.0635,0.3403,0.0937     c0.96,0.2422,1.5576,0.1836,1.5815,0.1797c0.1914-0.0195,0.3301-0.1904,0.3111-0.3828     c-0.0191-0.1914-0.1905-0.3252-0.3823-0.3135c-0.0064,0.003-0.5127,0.0459-1.3394-0.163     c-0.1104-0.0274-0.2158-0.0577-0.3174-0.087c-0.6235-0.1787-1.2685-0.3662-2.186,0.3262     c-0.1548,0.1162-0.1856,0.336-0.0689,0.4903c0.0684,0.0908,0.1734,0.1386,0.2798,0.1386c0.0733,0,0.147-0.0224,0.21-0.0703     C19.8312,16.15151,20.1837,16.25021,20.7643,16.42011z" style="fill:#9E6D5C;"/><path d="M22.2013,18.30971c0.0708,0,0.1347-0.0146,0.2026-0.0585c0.1621-0.1045,0.209-0.3213,0.104-0.4834     c-0.0713-0.1114-0.1963-0.1622-0.3164-0.1602l-0.084-0.0137c-0.3657-0.0664-1.2212-0.2207-2.5293,0.0186     c-0.1904,0.0351-0.3159,0.2178-0.2812,0.4082c0.0346,0.1894,0.2226,0.3174,0.4072,0.2812     c1.1831-0.2197,1.9507-0.0791,2.2788-0.0195C22.0665,18.29801,22.1368,18.30971,22.2013,18.30971z" style="fill:#9E6D5C;"/></g><path d="M28.9205,27.82441c0.0601-0.1846-0.04-0.3818-0.2236-0.4424    c-0.1846-0.0596-0.3809,0.0401-0.4414,0.2236c-0.021,0.0635-2.0484,6.1807-4.5923,8.1055    c-0.7383-0.6533-3.3662-3.2851-3.8135-7.9844c-0.0185-0.1914-0.1889-0.332-0.3818-0.3154    c-0.1924,0.0186-0.3335,0.1895-0.3154,0.3818c0.498,5.2317,3.4797,7.9761,4.1469,8.5295v0.9256H22.38    c-0.1934,0-0.3501,0.1563-0.3501,0.3496c0,0.1934,0.1567,0.3496,0.3501,0.3496h0.9194v1.7129    c0,0.1934,0.1568,0.3496,0.3501,0.3496c0.1934,0,0.3501-0.1562,0.3501-0.3496v-1.7129h0.8648    c0.1933,0,0.3501-0.1562,0.3501-0.3496c0-0.1933-0.1568-0.3496-0.3501-0.3496h-0.8648v-0.9271    C26.7632,34.31811,28.8324,28.09351,28.9205,27.82441z" style="fill:#CCCCCC;"/><path d="M16.6432,16.99301l-0.0172,0.0096c-0.0129,0.0235-1.5121,2.7811-2.2871,3.5642    c0,0,2.6734-1.3429,4.1987-3.9204c1.5253-2.5774,3.1935-4.1067,3.1935-4.1067s0.1096-0.0676,0.3553-0.173l-0.07-0.0057    c-1.4045-0.0474-2.7908,0.0115-3.5959,0.7328C16.8878,14.46711,16.6432,16.99301,16.6432,16.99301z" style="fill:#E6E6E6;"/><path d="M22.0992,10.77431l-0.0003-0.0001c-0.256,0.0978-0.5201,0.1675-0.786,0.193    c-1.0694,0.1023-4.4392,0.7538-4.4392,0.7538s-0.6393,0.0292-0.6161,1.6879c0.0231,1.6586,0.2515,3.1064,0.2515,3.1064    l0.118,0.4851l-0.0011,0.0022l0.0172-0.0096c0,0,1.2948-4.7696,5.3732-4.632l0.07,0.0057    c0.2863-0.1229,0.7598-0.2978,1.4964-0.4875c1.3689-0.3525,2.2504,0,2.2504,0c-0.383-0.4435-0.4255-0.7489-0.8473-0.9356    C23.7202,10.38331,22.0992,10.77431,22.0992,10.77431z" style="fill:#F4F4F4;"/><path d="M25.1296,9.74531c-1.5964,0.2895-1.7251,0.2597-2.3327,0.9381    c0.4311-0.0267,1.044-0.0203,1.6374,0.2051c0.4763,0.1809,0.9644,0.4874,1.3989,0.9907c0,0,1.4714,0.861,2.4457,1.8158    s2.7173,3.051,2.7173,3.051s0.4625-0.7296,0.3818-1.9128c0,0-0.0858-1.5041-0.2116-2.1275    c-0.1286-0.6368-0.2566-0.8265-0.2566-0.8265s-1.4487-1.0766-3.0242-1.5274C26.8983,10.06941,25.7555,9.63191,25.1296,9.74531z" style="fill:#E6E6E6;"/><path d="M34.0202,14.03591c0,0-1.1605-2.8989-4.0512-4.4762c-2.8906-1.5774-5.3447-0.5217-5.9462-0.015    c-0.4519,0.3806-1.1509,0.9342-1.9239,1.2295l0.0003,0.0001c0,0,0.2456-0.0194,0.6885-0.0469    c0.6077-0.6784,0.7866-0.0472,2.3831-0.3367c1.6247-0.2944,5.739,1.4885,5.739,1.4885S33.2866,12.60961,34.0202,14.03591z" style="fill:#F4F4F4;"/></g></g></svg>