<?xml version="1.0" ?><svg style="enable-background:new 0 0 48 48;" version="1.1" viewBox="0 0 48 48" xml:space="preserve" xmlns="http://www.w3.org/2000/svg" xmlns:xlink="http://www.w3.org/1999/xlink"><g id="Icons"><g><path d="M19.2649,32.69452c0,0-2.4628,0.83-5.7828,1.3514c-3.3201,0.5214-6.4794,1.5633-7.4878,4.4874    h36.0114c0,0-0.3171-2.4616-4.7537-3.7852c-4.4366-1.3236-7.3191-1.3349-8.3645-2.0536c0,0-2.0278,2.1619-4.7133,2.152    C21.4887,34.83672,19.2649,32.69452,19.2649,32.69452z" style="fill:#D5D5D5;"/><path d="M19.2649,30.42612v2.2684c0,0,2.0223,3.6009,5.0401,3.591c3.0177-0.0098,4.5825-3.591,4.5825-3.591    l0.1106-2.4316c0,0-2.9117,2.9699-4.8249,2.5811C22.26,32.45511,20.1011,31.62251,19.2649,30.42612z" style="fill:#D6B6A1;"/><path d="M29.914,29.95911c0.1308,0.4184,1.1957,0.6042,1.1957,0.6042    c-0.4421-0.2788-0.786-1.1154-0.0492-1.6266c0.7369-0.5112,1.6211-2.3237,1.6211-2.8349c0-0.5113,0.4422-2.0915,0.6877-1.8126    c0.2457,0.2789,0.9334,0.3253,0.9334,0.3253s-0.7368-0.79-0.786-1.1154c-0.0492-0.3252,0.8351-1.4407,0.9825-2.4167    c0.1473-0.9759-0.786-2.4631-0.8842-4.9262c-0.0983-2.4632-1.6702-3.4392-2.9474-5.1587c-1.0324-1.39-3.3026-1.5066-4.9296-1.4966    c-0.401,0.0024-0.7902,0.045-1.1729,0.164c-0.1894,0.0589-0.3748,0.1336-0.5714,0.1644    c-0.3189,0.0498-0.5689-0.0931-0.8528-0.2048c-0.6916-0.2723-1.7007-0.1277-2.4295-0.0417    c-0.9063,0.1068-1.8621,0.318-2.6144,0.8323c-0.2368,0.1619-0.4501,0.3557-0.6185,0.5824    c-1.2772,1.7195-2.8491,2.6955-2.9473,5.1587c-0.0983,2.4631-1.0316,3.9503-0.8843,4.9262    c0.1474,0.976,1.0317,2.0915,0.9825,2.4167c-0.0491,0.3254-0.7859,1.1154-0.7859,1.1154s0.6877-0.0464,0.9333-0.3253    c0.2457-0.2789,0.6877,1.3013,0.6877,1.8126c0,0.5112,0.8842,2.3237,1.6211,2.8349c0.7368,0.5112,0.3929,1.3478-0.0491,1.6266    c0,0,1.065-0.1858,1.1956-0.6042" style="fill:#564A3A;"/><path d="M23.9838,33.68671c0.644,0,1.8398-0.2175,4.3234-2.0451c2.4836-1.8275,2.3456-5.6132,2.3916-6.2659    c0.0357-0.5065,0.1268-2.1629,0.1658-2.8794c0.0099-0.1836-0.0447-0.3539-0.1425-0.5096    c-0.3311-0.5271-0.6509-1.9946-0.8081-2.613c-0.1825-0.7183-3.5817-2.1847-3.7082-4.1599    c-0.1266-1.9752-1.5537-2.3941-1.5537-2.3941s0.0002,0.4603-1.2204,1.4346c-1.2205,0.9742-1.9786,2.3986-1.9453,3.8251    c0,0-0.5813-0.9758-0.2673-2.4192c0,0-1.7975,1.2385-1.8003,2.5376c-0.0028,1.2991-0.6378,1.7046-0.6378,1.7046    s0.1636-0.8486-0.5489-1.1373c-0.6371-0.2582-0.4568,2.3409-0.7949,3.0976c-0.0824,0.1843-0.1343,0.3724-0.1238,0.5739    c0.0401,0.7676,0.1286,2.4416,0.1637,2.9391c0.0459,0.6527-0.092,4.4384,2.3915,6.2659c2.4837,1.8276,3.6795,2.0451,4.3234,2.0451    " style="fill:#F9D9C0;"/><g><path d="M23.1201,26.95611c0,0,0.0396,0.0087,0.1304,0.0761c0.4439,0.3282,0.7276,0.4141,0.9024,0.4141     c0.0081,0,0.0136-0.0018,0.0212-0.0021c0.0076,0.0003,0.0131,0.0021,0.0212,0.0021c0.1753,0,0.459-0.0859,0.9024-0.4141     c0.0932-0.0674,0.1299-0.0742,0.1274-0.0664c0.2779,0.1211,0.5005,0.0625,0.7476-0.2002     c0.4653-0.4931,0.1274-1.1728-0.1948-1.5449l-0.1294-0.1035v-3.3262c0-0.1933-0.1568-0.3496-0.3501-0.3496     c-0.1934,0-0.3501,0.1563-0.3501,0.3496v3.4951c0,0.1065,0.0488,0.2071,0.1318,0.2735l0.2109,0.1591     c0.0811,0.0977,0.2618,0.3877,0.146,0.5782c-0.1865-0.0655-0.4204-0.0762-0.7553,0.1728     c-0.3037,0.2246-0.4556,0.2676-0.4898,0.2754c-0.0043,0.0001-0.0081,0.0039-0.0124,0.0042     c-0.0058,0.0008-0.0096-0.0043-0.0154-0.0032c-0.0015,0-0.1504-0.0195-0.4971-0.2764c-0.3354-0.249-0.5722-0.2383-0.7715-0.166     c-0.0009-0.0049-0.0044-0.0107-0.0107-0.0185c-0.1206-0.128,0.0845-0.46,0.1728-0.5665     c0.1231-0.1484,0.1031-0.3691-0.0449-0.4931c-0.147-0.1231-0.3672-0.1045-0.4912,0.043c-0.2729,0.3242-0.6108,1.0039-0.146,1.497     C22.6231,27.02831,22.8462,27.08891,23.1201,26.95611z" style="fill:#E8C5AF;"/><path d="M26.628,28.75781c-0.0743,0-0.1451,0.0176-0.2525,0.044     c-0.2168,0.0546-0.5786,0.1445-1.0098,0.0849c-0.2592-0.0364-0.677-0.0705-0.9635-0.0018     c-0.2869-0.0687-0.7045-0.0346-0.9637,0.0018c-0.4268,0.0596-0.792-0.0303-1.0093-0.0849     c-0.1074-0.0264-0.1787-0.044-0.2529-0.044c-0.1934,0-0.3618,0.1553-0.3618,0.3486c0,0.1934,0.145,0.3497,0.3384,0.3497     c0.0253,0.0039,0.0615,0.0136,0.1069,0.0253c0.1894,0.0469,0.5029,0.125,0.8906,0.125c0.1211,0,0.25-0.0078,0.3843-0.0263     c0.3181-0.0438,0.5851-0.0439,0.6592-0.0384c0.0567,0.0403,0.1193,0.0677,0.187,0.0677c0.0261,0,0.0517-0.0159,0.0779-0.0226     c0.0217-0.0036,0.0415-0.0105,0.0621-0.018c0.0105-0.0051,0.0216-0.0029,0.0319-0.0092     c0.0727-0.0225,0.3701-0.0264,0.7168,0.0205c0.5678,0.0801,1.0268-0.0371,1.2753-0.0987     c0.0425-0.0107,0.0762-0.0205,0.1011-0.0244c0.1851-0.0097,0.3321-0.1621,0.3321-0.3496     C26.9781,28.91411,26.8213,28.75781,26.628,28.75781z" style="fill:#E8C5AF;"/></g><g><g><path d="M29.3345,20.99021c-0.083,0-0.1665-0.0293-0.2334-0.0888      c-1.1089-0.9932-2.9312-0.2725-2.9493-0.2657l-0.4443,0.209c-0.1758,0.085-0.3838,0.0078-0.4658-0.1679      c-0.082-0.1748-0.0068-0.3828,0.168-0.4649l0.4619-0.2168c0.1079-0.0459,2.2651-0.8965,3.6963,0.3848      c0.144,0.1289,0.1562,0.3506,0.0273,0.4941C29.5264,20.95121,29.4307,20.99021,29.3345,20.99021z" style="fill:#564A3A;"/></g><g><path d="M18.7812,20.99021c-0.0961,0-0.1914-0.039-0.2607-0.1162      c-0.1289-0.1435-0.1167-0.3652,0.0273-0.4941c1.4312-1.2813,3.5884-0.4297,3.6788-0.3926l0.4794,0.2246      c0.1749,0.0821,0.25,0.2901,0.168,0.4649c-0.0815,0.1757-0.2895,0.2539-0.4658,0.1679l-0.4619-0.2168l0,0      c-0.001,0-1.8272-0.7129-2.9317,0.2735C18.9477,20.96091,18.8642,20.99021,18.7812,20.99021z" style="fill:#564A3A;"/></g></g><g><g><path d="M28.6216,23.07571c-0.1314,0-0.2574-0.0742-0.3169-0.2012      c-0.0821-0.1748-0.0064-0.3838,0.1684-0.4658l1.9976-0.9351c0.1743-0.082,0.3833-0.0058,0.4653,0.169      c0.0821,0.1748,0.0064,0.3838-0.1684,0.4658l-1.9976,0.9351C28.7221,23.06591,28.6714,23.07571,28.6216,23.07571z" style="fill:#4D4D4D;"/></g><g><path d="M19.3635,23.17381c-0.0567,0-0.1148-0.0136-0.168-0.0429l-1.8649-1.0332      c-0.1695-0.0928-0.2315-0.3057-0.1382-0.4756c0.0923-0.168,0.3047-0.2315,0.4751-0.1377l1.8649,1.0332      c0.1695,0.0928,0.2315,0.3056,0.1382,0.4756C19.6071,23.10841,19.487,23.17381,19.3635,23.17381z" style="fill:#4D4D4D;"/></g><g><path d="M22.5576,22.14061c-0.125,0-0.2456-0.0664-0.3086-0.1836      c-0.0918-0.1709-0.0278-0.3828,0.1426-0.4746c1.8716-1.0078,3.3086-0.0205,3.3691,0.0225      c0.1577,0.1113,0.1953,0.3301,0.0835,0.4883c-0.1108,0.1582-0.3281,0.1933-0.4863,0.0849      c-0.0508-0.0351-1.1548-0.7744-2.6353,0.0215C22.6699,22.12791,22.6133,22.14061,22.5576,22.14061z" style="fill:#4D4D4D;"/></g><polygon points="22.3916,21.48241 21.6055,21.94491 22.1451,22.39581 22.7226,22.09961 22.821,21.70691         " style="fill:#4D4D4D;"/><polygon points="25.7064,21.46931 26.5796,21.98461 26.0385,22.49641 25.3579,22.07811 25.5083,21.78981         " style="fill:#4D4D4D;"/></g><ellipse cx="20.74255" cy="22.51309" rx="1.9615" ry="1.85575" style="fill:#D0F7F0;"/><ellipse cx="27.37285" cy="22.51309" rx="1.9615" ry="1.85575" style="fill:#D0F7F0;"/></g></g></svg>