<svg xmlns="http://www.w3.org/2000/svg" viewBox="0 0 48 48"><path fill="#eac93f" d="M38.783 19.377l-1.832-.252v-.01c0 .003-.005.007-.005.01-.03 2.304-2.672.696-3.37 2.403l-2.212 3.443 4.451 3.192 1.692-.287s2.399-2.03 1.276-8.5zM16.2 24.682c-.7-1.706-4.943-3.253-4.973-5.557l-1.838.252s-1.664 4.64 1.26 8.5l1.707.286.001-.001 3.843-3.48z"/><path fill="#b0a9df" d="M34.87 28.78l-1.41 3.15-1.93 5.78-3.04 3.35h-8.81l-3.03-3.56-1.79-5.48-1.44-2.91c-1.82-2.39 1.18-9.86 1.18-9.86 1.63.1 9.09 2.08 9.09 2.08l1.11-.27c2.53-1.76 8.78-1.81 8.78-1.81 1.27 5.48 1.29 9.53 1.29 9.53z"/><path fill="#1d97ff" d="M13.898 11.22c4.064-6.007 17.957-5.078 20.376.287 0 0 .573 3.571-2.249 5.54-2.82 1.968-16.598 0-16.598 0s-1.529-.108-1.529-5.828z"/><path fill="#fff" d="M16.31 22.364l4.232 1.562s-2.835 3.183-4.232-1.562zM31.364 22.45l-4.232 1.562s2.834 3.183 4.232-1.562z"/><path fill="#9591c6" d="M29.042 34.592a.374.374 0 0 1-.294-.142l-.604-.761h-7.842l-1.016.82a.375.375 0 1 1-.47-.584l1.119-.903a.375.375 0 0 1 .235-.083h8.155c.114 0 .222.052.293.141l.717.904a.375.375 0 0 1-.293.608zM25.347 35.801h-2.61a.375.375 0 0 1 0-.75h2.61a.375.375 0 0 1 0 .75zM24.16 38.65v2.41h-.75v-2.41c0-.2.17-.37.38-.37s.37.17.37.37zM20.67 23.57l-4.23-1.56a.378.378 0 0 0-.39.08c-.1.1-.14.24-.1.38.49 1.66 1.23 2.61 2.19 2.83.14.03.28.05.41.05 1.21 0 2.22-1.12 2.27-1.17.08-.1.12-.22.09-.34a.404.404 0 0 0-.24-.27zm-2.37 1c-.54-.12-1.01-.66-1.38-1.58l2.91 1.07c-.38.3-.96.64-1.53.51zM31.62 22.18a.37.37 0 0 0-.39-.08L27 23.66a.377.377 0 0 0-.15.6c.05.05 1.06 1.17 2.27 1.17.14 0 .28-.01.42-.04.96-.22 1.69-1.17 2.18-2.83.04-.14 0-.29-.1-.38zm-2.25 2.47c-.57.14-1.15-.2-1.53-.5l2.91-1.07c-.37.91-.84 1.45-1.38 1.57zM30.28 31.01a.374.374 0 0 1-.34-.218c-.304-.656-1.189-1.423-1.931-1.975-.038.239-.12.457-.203.61a.374.374 0 0 1-.352.193c-.007 0-.915-.042-2.12.547-1.507.735-2.777-.107-2.935-.342-.016.013-.557-.217-1.37-.33-.443-.061-.607-.316-.666-.462a.723.723 0 0 1-.04-.138c-.704.547-1.306 1.09-1.401 1.329a.375.375 0 1 1-.697-.275c.292-.739 2.253-2.114 2.644-2.382a.375.375 0 1 1 .506.542c-.17.216-.318.514-.316.63.01 0 .035.007.073.013.523.072 1.671.327 1.89.656v-.001c.02-.001.884.62 1.983.086.994-.485 1.815-.595 2.222-.618.067-.205.117-.521-.134-.684a.375.375 0 0 1 .4-.634c.102.061 2.487 1.536 3.128 2.92a.375.375 0 0 1-.34.533z"/><path fill="#9591c6" d="M23.032 27.575a.375.375 0 0 1-.375-.375v-2.66a.375.375 0 0 1 .75 0v2.66a.375.375 0 0 1-.375.375z"/><path fill="#ffd24a" d="M36.95 19.11v.01c-.03 2.31-.65 4.45-1.35 6.16l.22 2.88.22 3.02-4.51 6.53v-5.92l1.469-1.976a5.15 5.15 0 0 0 1.013-2.605c.357-3.997-.432-7.959-.432-7.959-3.08.72-7.9 3.02-8.67 3.4h-.01c-.07.03-.1.05-.1.05h-1.43l-8.77-3.45s-.805 4.929-.59 8.34c.162 2.565 2.64 4.2 2.64 4.2v5.71l-4.51-6.32.22-3.02.21-2.88c-.7-1.71-1.31-3.85-1.34-6.15-.36-7 2.38-11.31 2.38-11.31-.8 5.51 4.17 7.86 4.17 7.86.49-.99 4.03-2.2 4.03-2.2l-1.7-5.98c3.68-1.23 7.59-.05 7.59-.05l-1.78 6.28c.82.14 2.603.586 4.12 2.09l.01.01c.13-.05.25-.11.37-.17a.3.3 0 0 1 .08-.04c5.02-2.49 4.14-7.4 4.07-7.78 3.14 4.02 2.39 11.16 2.38 11.27z"/><path fill="#eac93f" d="M23.368 22.697v-2.295l-2.747-3.854c-1.108-.2-2.05-.501-2.843-.87.057-.155.206-.309.42-.465l2.801.963 2.853 4.09-.484 2.431zM30.04 15.82c-.68.3-1.48.57-2.38.73l-2.75 3.85v2.3l-.01-.05-.47-2.38 2.85-4.09 2.26-.81c.337.222.44.42.5.45z"/></svg>