<?xml version="1.0" ?><svg style="enable-background:new 0 0 48 48;" version="1.1" viewBox="0 0 48 48" xml:space="preserve" xmlns="http://www.w3.org/2000/svg" xmlns:xlink="http://www.w3.org/1999/xlink"><g id="Icons"><g><g><path d="M10.73667,24.83456c0,0-2.2086-1.1391-1.5217,1.6384s1.3017,4.4597,2.2338,3.5887" style="fill:#F9D9C0;"/><path d="M36.96487,24.85736c0,0,2.5209-1.1619,1.834,1.6156c-0.6869,2.7775-1.643,4.3363-2.575,3.4653" style="fill:#F9D9C0;"/><path d="M23.70687,6.99086c0,0-11.9723-0.4434-13.4639,11.8171     c-0.1038,0.8532-0.0926,1.7226,0.0234,2.5741l1.9569,14.3657l5.072,5.2634h13.3497l4.8327-5.2156l2.2117-14.7162     c0.2619-1.7424,0.1153-3.5219-0.4625-5.1864C35.97177,12.27696,32.61547,7.02226,23.70687,6.99086z" style="fill:#464747;"/><g><path d="M34.01557,34.60026v0.01c0,0.09-0.01,0.14-0.01,0.14l-2.21,2.47l-2.07,2.33l-3.69-3.18h-4.72      l-3.1,3.18l-2.34-2.34l-0.15-0.16l-1.99-1.99c-0.03-0.13-0.06-0.28-0.08-0.44c-0.18-1.43,0.08-3.72,0.08-3.72      c0.05-0.28,0.12-0.52,0.23-0.72c0.64-1.35,2.23-1.14,2.23-1.14c2.88,0.03,6.15-1.36,7.3-1.9c0.28-0.13,0.43-0.21,0.43-0.21      c0.1,0.09,0.21,0.18,0.32,0.26c1.9,1.38,5.82,1.81,6.98,1.81c1.23,0,2.15,0.47,2.15,0.47c0.2,0.11,0.34,0.35,0.45,0.66      c0.04,0.13,0.08,0.27,0.11,0.4c0.03,0.12,0.05,0.25,0.07,0.37C34.20557,32.24026,34.06557,34.07026,34.01557,34.60026z" style="fill:#F9D9C0;"/><path d="M34.01557,34.60026v0.01c0,0.09-0.01,0.14-0.01,0.14l-2.21,2.47c0,0-0.23-0.52,0-3.54      c0.24-3.02,2.03-3.55,2.03-3.55c0.04,0.13,0.08,0.27,0.11,0.4c0.03,0.12,0.05,0.25,0.07,0.37      C34.20557,32.24026,34.06557,34.07026,34.01557,34.60026z" style="fill:#D6B6A1;"/><path d="M15.87557,37.21026l-0.15-0.16l-1.99-1.99c-0.03-0.13-0.06-0.28-0.08-0.44      c-0.18-1.43,0.08-3.72,0.08-3.72c0.05-0.28,0.12-0.52,0.23-0.72c0.4,0.18,1.71,0.95,1.9,3.5      C16.07557,36.45026,15.90557,37.12026,15.87557,37.21026z" style="fill:#D6B6A1;"/></g><g><g><path d="M23.82267,32.65176c-0.0328,0-0.0655-0.004-0.0972-0.0127l-1.8159-0.4873       c-0.2002-0.0538-0.3189-0.2598-0.2652-0.46c0.0542-0.1983,0.2569-0.3164,0.4595-0.2647l1.7314,0.4649l1.7471-0.3467       c0.1978-0.04,0.3999,0.0918,0.4404,0.2949c0.0406,0.2032-0.0918,0.4004-0.2949,0.4414l-1.8325,0.3633       C23.87147,32.64976,23.84707,32.65176,23.82267,32.65176z" style="fill:#D6B6A1;"/></g><g><path d="M27.80257,35.89296c-0.0908,0-0.1816-0.0332-0.2539-0.0987l-0.9497-0.874h-5.7046       l-1.0009,0.8799c-0.1553,0.1367-0.3921,0.1221-0.5293-0.0352c-0.1368-0.1552-0.1216-0.3925,0.0341-0.5293l1.1075-0.9726       c0.0683-0.0596,0.1562-0.0928,0.2475-0.0928h5.9922c0.0942,0,0.1846,0.0352,0.2539,0.0986l1.0571,0.9727       c0.1524,0.1406,0.1621,0.3779,0.022,0.5303C28.00477,35.85186,27.90367,35.89296,27.80257,35.89296z" style="fill:#D6B6A1;"/></g><g><path d="M24.24557,27.19026l-0.15,3c-0.01,0.2-0.17,0.36-0.37,0.36c-0.01,0-0.01,0-0.02,0       c-0.21-0.01-0.37-0.18-0.36-0.39l0.15-3.02c0.28-0.13,0.43-0.21,0.43-0.21       C24.02557,27.02026,24.13557,27.11026,24.24557,27.19026z" style="fill:#D6B6A1;"/></g></g><g><path d="M22.08187,22.64486c-0.1938,0-0.3584-0.1504-0.3735-0.3467      c-0.0073-0.0927-0.2056-2.2998-2.7339-3.6103c-0.1841-0.0957-0.2559-0.3213-0.1606-0.5059      c0.0962-0.1845,0.3217-0.2529,0.5053-0.1601c2.9156,1.5107,3.1294,4.1132,3.1372,4.2226      c0.0147,0.2061-0.1406,0.3848-0.3466,0.3994C22.10047,22.64486,22.09117,22.64486,22.08187,22.64486z" style="fill:#333333;"/></g><g><path d="M25.66687,22.83526c-0.0078,0-0.0161,0-0.0239-0.0009      c-0.2066-0.0127-0.3638-0.1905-0.3511-0.3975c0.0078-0.1182,0.2139-2.9033,3.1308-4.415      c0.1846-0.0938,0.4097-0.0244,0.5054,0.1601c0.0952,0.1846,0.0235,0.4102-0.1606,0.5059      c-2.5435,1.3183-2.7251,3.7715-2.7266,3.7959C26.02817,22.68196,25.86317,22.83526,25.66687,22.83526z" style="fill:#333333;"/></g><path d="M13.59767,18.54586c1.3668,0.1042,6.2026,0.6682,8.6628,3.5169     c0.1383,0.1601,0.1679,0.3867,0.0878,0.5826c-0.5438,1.3311-2.9194,6.1781-7.7975,3.5165     c-0.0252-0.0138-0.0475-0.0276-0.0712-0.0441c-0.3952-0.276-3.6985-2.7615-1.4239-7.2649     C13.15727,18.65176,13.37297,18.52876,13.59767,18.54586z" style="fill:#E6E6E6;"/><path d="M34.14467,18.54586c-1.3669,0.1042-6.2026,0.6682-8.6628,3.5169     c-0.1383,0.1601-0.1679,0.3867-0.0878,0.5826c0.5438,1.3311,2.9193,6.1781,7.7974,3.5165     c0.0252-0.0138,0.0476-0.0276,0.0712-0.0441c0.3952-0.276,3.6985-2.7615,1.424-7.2649     C34.58507,18.65176,34.36937,18.52876,34.14467,18.54586z" style="fill:#E6E6E6;"/></g></g></g></svg>