<svg xmlns="http://www.w3.org/2000/svg" viewBox="0 0 48 48"><path fill="#c2733a" d="M13.38 19.818l-.702-1.683s-.467-1.192-.514-1.286c-.047-.093-.678-1.636-.678-1.636l-.771.117v.865l1.081 3.333.425.849s-.35.262-.35.374c0 .112-.173.55.176.7.349.149.898 2.896.998 2.92.1.025.599 4.72.599 4.72l-.25.873s0 1.573.125 1.623c.125.05.475.2.475.2s.3 3.126.599 3.42c.3.296.274 1.399.274 1.399l.874.849s.25.824.55 1.023c.3.2 1.048.75 1.448 1.1.4.349 1.997 1.098 2.197 1.098s1.059.324 1.548.699c.49.374 3.096 1.123 4.195.574 1.098-.55 2.397-1.223 2.97-1.223.575 0 1.3-.674 1.549-.824.25-.15 2.696-1.823 2.921-1.898.225-.075.824-1.473.824-2.047 0-.575.175-1.274.175-1.274l.574-.799s.524-1.323.524-1.423-.2-.924-.2-.924l1-3.52.224-1.673 1.373-3.496V21.25l1.424-3.07-.2-.35h-.524l-.775-.125-1.448 1.648-.3-.674s-.124-1.324.1-1.648c.225-.325-.15-.724-.15-.724l-.05-.3s.3-1.024.475-1.198c.175-.175.325-.75.125-1.124-.2-.374-.674-1.448-.674-1.448l-.799.849s-.524 1.148-.624 1.398c-.1.25-.3.799-.3.899 0 .1-1.198 1.423-1.198 1.423s-.4-.175.05-.999c.45-.824.724-2.172.724-2.172l-.9-.724-.074-1.273-.474.224.074-2.446-.44-.95s-.883-.349-1.232-.349c-.35 0-.974.35-.974.35s-.224.568-.225.724c0 .155-1.198 3.096-1.198 3.096l-.325 1.698-.6 1.148-.773.025-.35.65s-.125.674-.324.674-.575.074-.65-.874c-.074-.95-.128-2.597-.128-2.597s-.42-.949-.446-1.024c-.025-.075-.175-.5-.374-.2-.2.3-.325.924-.375 1.024-.05.1-.574.35-.599.15-.025-.2-.025-1.997.025-2.172.05-.175-.175-.674-.175-.774s.075-1.174.075-1.174l-.924-.849-1.623-.973-.948-.325-.35.325.574 1.722-.924.999.375 3.92.45.75-.317 2.271s-.433.025-.533-.025c-.1-.05-.35-.025-.424.075-.075.1-.125.225-.2.525-.075.3-.874.674-.874.674s-.924-1-.948-1.199c-.026-.2-.725-.924-.725-.924l-1.123-2.247-.774-.25s-1.199.45-1.224.75c-.025.3.025.674.025.674l.45.699.41 4.385z"/><path fill="#c2733a" d="M39.04 18.178l-1.43 3.07v1.6l-1.37 3.5-.22 1.67-1 3.52s.2.82.2.92-.53 1.43-.53 1.43l-.57.8s-.18.69-.18 1.27c0 .57-.6 1.97-.82 2.05-.23.07-2.67 1.74-2.92 1.89-.25.15-.98.83-1.55.83-.4 0-1.13.32-1.92.7h-.01c-.31.16-.63.32-.94.47-.03.02-.07.03-.1.05-1.1.55-3.71-.2-4.2-.57-.03-.02-.06-.05-.1-.07-.04-.03-.08-.05-.12-.08a5.29 5.29 0 0 0-.75-.38h-.01c-.26-.11-.47-.17-.56-.17-.2 0-1.8-.75-2.2-1.1-.4-.35-1.15-.9-1.45-1.1-.3-.2-.55-1.02-.55-1.02l-.87-.85s.02-1.11-.28-1.4c-.2-.2-.4-1.63-.51-2.58-.05-.41-.08-.73-.09-.82v-.02l-.47-.2c-.13-.05-.13-1.62-.13-1.62l.25-.88s-.5-4.69-.6-4.72c-.1-.02-.64-2.77-.99-2.92-.35-.15-.18-.58-.18-.7 0-.11.35-.37.35-.37l-.42-.85-1.09-3.33v-.87l.78-.11s.63 1.54.67 1.63c.05.09.52 1.29.52 1.29l.22.53.48 1.15-.11-1.21-.3-3.18-.45-.69s-.05-.38-.02-.68c.02-.3 1.22-.75 1.22-.75l.77.25 1.13 2.25s.7.72.72.92c.02.16.64.85.87 1.11l.01.01c.04.05.07.08.07.08s.35-.16.61-.37c.13-.09.24-.2.26-.3.08-.3.13-.43.2-.53.06-.07.2-.1.31-.1.05 0 .09.01.12.03.1.05.53.02.53.02l.04-.31v-.01l.28-1.95-.45-.75-.38-3.92.93-1-.58-1.72.35-.32.95.32 1.62.97.93.85s-.08 1.08-.08 1.18.23.6.18.77c-.03.11-.04.86-.04 1.45 0 .35 0 .64.01.72.03.2.55-.05.6-.15.02-.04.06-.18.1-.34l.01-.02c.07-.22.15-.49.27-.66.2-.3.35.12.37.2l.45 1.02s.05 1.65.12 2.6c.01.12.03.21.05.3v.01c.12.62.43.56.6.56.04 0 .08-.03.11-.07.14-.17.22-.6.22-.6l.35-.65.77-.02.6-1.15.33-1.7s1.19-2.94 1.19-3.1c0-.15.23-.72.23-.72s.62-.35.97-.35 1.23.35 1.23.35l.45.95-.04 1.24-.04 1.2.3-.14.18-.08.07 1.27.9.73s-.28 1.35-.73 2.17c-.25.47-.23.73-.16.87.04.1.11.13.11.13s.41-.45.74-.85v-.01c.26-.28.46-.53.46-.57 0-.09.2-.64.3-.89s.63-1.4.63-1.4l.8-.85s.47 1.07.67 1.45c.2.37.05.95-.12 1.12-.18.18-.48 1.2-.48 1.2l.05.3s.38.4.15.72c-.22.33-.1 1.65-.1 1.65l.14.3v.01l.16.36.42-.47 1.03-1.17.77.12h.53l.2.35z"/><circle cx="21.852" cy="22.623" r=".457" fill="#303030"/><circle cx="24.513" cy="39.675" r=".457" fill="#303030"/><circle cx="28.562" cy="24.876" r=".323" fill="#303030"/><path fill="#a05828" d="M26.832 37.42c-.395 0-1.353-.04-2.54-.09a97.946 97.946 0 0 0-1.176-.046c-.171-.007-.386-.001-.624.004-.709.013-1.591.03-2.184-.157-.669-.211-1.34-.414-2.01-.618l-.624-.19c-.13-.04-.273-.052-.397-.113-.108-.054-.153-.172-.194-.28-.029-.072-.046-.154-.017-.23.136-.357.597-.163.848-.087l1.057.322c.521.16 1.043.318 1.563.482.476.149 1.324.133 1.943.12.253-.004.481-.01.66-.003.217.006.667.025 1.187.047.991.042 2.35.109 2.602.087.351-.017 2.058-.278 2.73-.483.695-.213 1.51-.573 1.689-.72a.375.375 0 0 1 .697.257c-.113.515-1.688 1.033-2.168 1.18-.71.217-2.466.493-2.912.516a4.165 4.165 0 0 1-.13.002z"/><path fill="#d59b4a" d="M29.08 31.362s1.717.458 2.812 0c0 0-.517 2.21-1.931 1.315-1.414-.897-.88-1.315-.88-1.315z"/><ellipse cx="31.711" cy="30.359" fill="#fff" rx=".482" ry=".737"/><path fill="#fff" d="M30.437 28.498s-1.664-.065-1.81 1.343c-.145 1.407.826 1.197 1.392.614.566-.582.613-1.726.418-1.957z"/><path fill="#303030" d="M28.408 30.734c.089 1.287 1.068 2.268 2.187 2.19 1.12-.076 1.956-1.182 1.867-2.469-.088-1.287-1.067-2.267-2.187-2.19l-.033.002c-.012.002-.064.006-.144.022a.289.289 0 0 0-.044.01c-.01-.016-.209.06-.229.068-.1.038-.197.084-.29.138-.247.145-.46.346-.63.576a2.498 2.498 0 0 0-.497 1.653zm3.26.102c-.178 0-.323-.187-.323-.418s.145-.417.323-.417.323.187.323.417-.145.418-.323.418zm-2.4.93c.835.722 2.335 0 2.335 0-1.234 1.69-2.336 0-2.336 0zm-.535-1.587l.02-.096c.344-1.155 1.169-1.441 1.43-1.504.05.146.08.304.08.472 0 .703-.472 1.272-1.054 1.272a.9.9 0 0 1-.476-.144z"/><path fill="#303030" d="M31.918 34.243h-.019c-2.624-.127-3.466-2.366-3.49-3.509-.005-.206.26-.332.466-.337.23.023.378.158.385.365 0 .04.015.417.169.879.042.127-.321.08-.255.216s.563.453.658.586c.385.533 1.028.998 2.103 1.05a.376.376 0 0 1-.017.75z"/><path fill="#d59b4a" d="M18.995 32.677c-1.414.896-1.932-1.315-1.932-1.315 1.095.458 2.812 0 2.812 0s.534.418-.88 1.315z"/><ellipse cx="17.244" cy="30.359" fill="#fff" rx=".482" ry=".737"/><path fill="#fff" d="M18.936 30.455c.567.583 1.537.793 1.391-.614-.145-1.408-1.809-1.343-1.809-1.343-.195.23-.148 1.375.418 1.957z"/><path fill="#303030" d="M20.484 29.978a1 1 0 0 0-.028-.096 3.454 3.454 0 0 0-.162-.394 2.55 2.55 0 0 0-.39-.585 1.987 1.987 0 0 0-.805-.547c-.018-.006-.19-.07-.198-.057a.289.289 0 0 0-.043-.01c-.08-.016-.133-.02-.144-.022l-.034-.002c-1.12-.077-2.098.903-2.187 2.19-.088 1.287.748 2.393 1.867 2.47 1.12.077 2.099-.904 2.187-2.191a2.481 2.481 0 0 0-.015-.401c-.011-.12-.02-.239-.048-.355zm-3.52.44c0-.23.145-.417.323-.417s.323.187.323.417-.144.418-.323.418-.323-.187-.323-.418zm.388 1.349s1.5.721 2.336 0c0 0-1.101 1.69-2.336 0zm2.394-1.444c-.582 0-1.054-.57-1.054-1.272 0-.168.031-.326.081-.472.26.063 1.085.349 1.43 1.504l.02.096a.9.9 0 0 1-.477.144z"/><path fill="#303030" d="M16.664 33.885a.376.376 0 0 1 .356-.392c1.075-.052 1.718-.517 2.103-1.05.096-.133.592-.45.658-.586.067-.135-.297-.089-.254-.216.153-.462.168-.839.169-.879.006-.207.155-.342.384-.365.207.005.472.13.467.337-.025 1.143-.867 3.382-3.49 3.509h-.02a.375.375 0 0 1-.373-.358z"/><g fill="#c2733a"><path d="M38.804 15.882h-1.05l1.405-1.368a.375.375 0 1 0-.524-.537l-1.842 1.796a.38.38 0 0 0-.068.09l-1.21 2.228-.669 1.235a.374.374 0 1 0 .66.357l.669-1.234.986-1.817h1.643a.375.375 0 0 0 0-.75zM12.894 20.312l-2.139-.901-.58-.702a.374.374 0 0 0-.267-.135l-.782-.047c-.2-.025-.384.144-.397.352a.375.375 0 0 0 .352.396l.62.037.535.648a.383.383 0 0 0 .143.106l2.224.938a.375.375 0 0 0 .291-.691zM17.18 13.931l-.299-3.742a.376.376 0 0 0-.166-.282l-.173-.115.72-1.37a.376.376 0 0 0-.664-.35l-.685 1.302-1.494-.994a.377.377 0 0 0-.52.105.376.376 0 0 0 .105.52l2.144 1.426.29 3.645c.006.054.022.11.05.157l1.92 3.327a.375.375 0 1 0 .65-.375l-1.878-3.254zM26.187 6.301a.375.375 0 0 0-.737-.138l-.378 2.015a.377.377 0 0 0 .01.183l.912 2.869-1.953 4.124a.375.375 0 1 0 .678.32l2.016-4.256a.373.373 0 0 0 .019-.274l-.928-2.92.36-1.923z"/></g><g fill="#a05828"><path d="M21.3 40.968v-.02l-.35-1.38v-1.26c0-.21-.17-.38-.37-.38a.38.38 0 0 0-.38.38l.01 1.35.29 1.19h.01c.24.1.51.23.75.38.04.03.08.05.12.08l-.08-.32v-.02zM26.98 39.468c-.2-.07-.41.04-.47.24l-.73 2.19c.31-.15.63-.31.94-.47h.01l.49-1.49a.37.37 0 0 0-.24-.47zM15.16 32.208l-1.17-.4c.01.09.04.41.09.82l.84.29a.38.38 0 0 0 .48-.23c.07-.2-.04-.41-.24-.48z"/></g><circle cx="21.852" cy="22.623" r=".457" fill="#a05828"/><circle cx="24.513" cy="39.675" r=".457" fill="#a05828"/><circle cx="28.562" cy="24.876" r=".323" fill="#a05828"/><g><path fill="#a05828" d="M15.42 26.198c.02.2-.12.39-.32.42h-.06c-.18 0-.34-.13-.37-.32l-.48-3.49-1.4-3.71a.371.371 0 0 1 .11-.43l.48 1.15-.11-1.21c.1.04.18.11.21.21l1.43 3.79.51 3.59zM19.27 22.598c.01.2-.14.38-.35.4h-.03c-.19 0-.35-.15-.37-.35l-.17-2.15-1.13-2.65c.04.05.07.08.07.08s.35-.16.61-.37l1.14 2.63c.03.05.05.11.05.16l.18 2.25zM20.2 19.218c.04.21-.09.4-.29.44-.03.01-.05.01-.07.01-.18 0-.34-.12-.37-.3l-.8-2.74c.05 0 .09.01.12.03.1.05.53.02.53.02l.04-.31.84 2.85zM23.78 12.468l-.16 3.23c0 .04-.01.07-.01.11l-.41 1.69c-.04.17-.19.29-.36.29-.03 0-.06 0-.09-.01a.37.37 0 0 1-.27-.45l.38-1.64.18-3.29c0-.05.01-.11.03-.16 0 .35 0 .64.01.72.03.2.55-.05.6-.15.02-.04.06-.18.1-.34zM18.893 25.603a.375.375 0 0 1-.375-.375v-1.205a.375.375 0 0 1 .75 0v1.205a.375.375 0 0 1-.375.375zM25.76 16.408l-.14 2.31-.18 5.32c-.01.2-.18.36-.38.36h-.01a.372.372 0 0 1-.36-.39l.18-5.38.18-2.71c.12.62.43.56.6.56.04 0 .08-.03.11-.07zM32.32 11.718l-1.14 2.39-.66 2.66-.23 4.98c-.01.2-.18.35-.38.35h-.01a.372.372 0 0 1-.36-.39l.24-5.04.69-2.79.03-.09 1.44-3c.03-.05.07-.1.12-.13l-.04 1.2.3-.14zM32.67 20.048l.69 3.91c.04.2-.1.4-.3.43-.02.01-.04.01-.07.01-.17 0-.33-.13-.36-.31l-.71-3.97a.205.205 0 0 1 0-.11l.66-3.33c.04.1.11.13.11.13s.41-.45.74-.85c.02.06.03.12.02.18l-.78 3.91zM33.135 26.865a.375.375 0 0 1-.375-.368l-.019-1.058a.375.375 0 0 1 .369-.382h.006c.204 0 .372.164.375.368l.019 1.058a.376.376 0 0 1-.37.382h-.005zM36.59 19.338l-1.09 2.02-.12 1.43c-.02.19-.18.34-.37.34h-.04a.38.38 0 0 1-.34-.41l.13-1.51c.01-.05.02-.1.05-.14l1.12-2.08.16.36.42-.47c.13.12.16.31.08.46z"/></g></svg>