<?xml version="1.0" ?><svg id="Layer_1" style="enable-background:new 0 0 48 48;" version="1.1" viewBox="0 0 48 48" xml:space="preserve" xmlns="http://www.w3.org/2000/svg" xmlns:xlink="http://www.w3.org/1999/xlink"><g><path d="M33.00525,38.51583c-0.1435,0-0.2802-0.083-0.3427-0.2216   c-0.5635-1.2618-0.4483-7.8555-0.4336-8.6036c0.0039-0.2041,0.1709-0.3671,0.375-0.3671c0.0019,0,0.0048,0,0.0078,0   c0.207,0.0039,0.3711,0.1757,0.3672,0.3828c-0.0577,2.8681-0.0069,7.4414,0.3691,8.2812c0.084,0.1895-0.001,0.4111-0.1895,0.4961   C33.10875,38.50513,33.05704,38.51583,33.00525,38.51583z" style="fill:#464747;"/></g><g><path d="M14.66275,38.07523c-0.0371,0-0.0752-0.0049-0.1123-0.0166   c-0.1972-0.0615-0.3076-0.2715-0.247-0.4687c0.0039-0.0108,0.3125-1.0489-0.1963-2.1504c-0.6006-1.3027-0.459-5.4063-0.4414-5.8701   c0.0078-0.2071,0.1738-0.3672,0.3896-0.3604c0.207,0.0088,0.3682,0.1826,0.3604,0.3897c-0.0469,1.2099-0.0723,4.5615,0.373,5.5263   c0.6328,1.3741,0.2471,2.6358,0.2305,2.6895C14.96945,37.97373,14.82195,38.07523,14.66275,38.07523z" style="fill:#464747;"/></g><path d="M32.96944,30.34746c0,0,1.86871,0.37547,2.28821-3.01513c0,0,0.4118-1.9329-0.2498-3.373  l-2.1242-0.2836L32.96944,30.34746z" style="fill:#F9D9C0;"/><path d="M14.08395,30.34923c0,0-2.2651-0.5152-2.6846-3.9058l2.6846,0.8889V30.34923z" style="fill:#F9D9C0;"/><path d="M35.75714,20.43563c-0.03,1.18-0.04,4.32-2.09,3.81l-20.11,2.84c-2.66,1.48-2.64-2.79-2.09-3.37  c0.11-0.12,0.2-0.29,0.28-0.47c-0.87-3.04,0.08-8.18,0.08-8.18c0.27-2.38,2.49-4.3,4.19-5.42c0.22-0.16,0.43-0.29,0.63-0.41  c0.37-0.23,0.69-0.41,0.92-0.53c0.24-0.13,0.39-0.2,0.39-0.2c0.1-0.1,0.2-0.19,0.31-0.28c1.7-1.34,5.02-1.05,5.02-1.05  s6.41-0.52,8.8,3.67c0.06,0.08,0.11,0.16,0.15,0.24c0,0,0.13,0.12,0.33,0.34c0.18,0.2,0.43,0.49,0.68,0.86  c0.14,0.2,0.29,0.43,0.43,0.68c0.58,0.99,1.13,2.35,1.21,3.99v0.01c0.01,0.05,0.01,0.11,0.01,0.16c0,0,0.15,0.34,0.31,0.83  C35.46715,18.67563,35.77715,19.72563,35.75714,20.43563z" style="fill:#464747;"/><path d="M33.41475,26.43343l-0.5965,5.2429c-0.1256,2.7626-1.9779,4.7091-1.9779,4.7091l-2.4802,2.1348  c-1.9778,1.7895-4.9603,1.6953-4.9603,1.6953c-2.6999,0.0314-4.3638-1.5383-4.3638-1.5383s-1.1302-0.879-2.6686-2.4174  c-1.5383-1.5383-1.8424-3.1494-1.8424-3.1494l-0.9633-6.0294c0,0-0.2486-2.5083,0-3.5922c0.2487-1.0839,0.3073-4.6284,0.8932-5.2729  c0.5858-0.6444,1.3182-2.5485,1.3182-2.9586s2.4313-2.2263,7.7921-1.7869c5.3606,0.4394,7.3819,1.9041,7.9678,2.9294  c0.5858,1.0252,0.5273,1.7282,0.996,2.2263c0.4687,0.4979,1.1424,2.8121,1.201,3.5151  C33.78855,22.84433,33.59735,25.89193,33.41475,26.43343z" style="fill:#F9D9C0;"/><g><path d="M19.47345,33.95303l2.6844-0.8676c0.1968-0.0637,0.4103-0.0526,0.5995,0.031l0.7996,0.3535   l0.7091-0.3366c0.1984-0.0941,0.4257-0.107,0.6335-0.0361l2.5038,0.8558l-3.9649,0.2865L19.47345,33.95303z" style="fill:#D6B6A1;"/><path d="M21.50155,34.95543c0,0,2.179,1.1097,3.6467,0   C25.14825,34.95543,23.65375,37.24633,21.50155,34.95543z" style="fill:#D6B6A1;"/></g><path d="M17.85325,24.60513c0,0-0.4017,1.0378,0.7794,1.3934c0,0,1.3917,0.289,1.3879-1.1507" style="fill:#464747;"/><path d="M29.47155,24.60513c0,0,0.4018,1.0378-0.7793,1.3934c0,0-1.3917,0.289-1.388-1.1507" style="fill:#464747;"/><g><path d="M13.16695,39.78153c-0.0215,0-0.0429-0.002-0.0654-0.0059   c-0.2041-0.0361-0.3398-0.2305-0.3037-0.4346c0.123-0.6963,0.0498-2.1015-0.5244-3.956c-0.6338-2.0489-0.2393-2.9707,0.3047-4.2481   l0.0634-0.1465c0.4278-1.0058,0.1123-4.8183-0.0459-6.2031c-0.0234-0.2051,0.125-0.3916,0.3311-0.415   c0.2061-0.0127,0.3906,0.126,0.415,0.331c0.02534,0.22504,0.16189,1.19847,0.232,2.35127   c0.00176,0.02894,0.00084,0.08838,0.00255,0.11754c0.00161,0.02739,0.0778,3.35369-0.24525,4.11129l-0.0625,0.1485   c-0.5186,1.2128-0.8311,1.9453-0.2783,3.7314c0.7724,2.4951,0.6133,3.9287,0.5459,4.3086   C13.50385,39.65353,13.34565,39.78153,13.16695,39.78153z" style="fill:#464747;"/></g><g><path d="M10.43985,32.37813c-0.0234,0-0.0469,0-0.0713-0.0009c-0.207-0.0078-0.3682-0.1817-0.3613-0.3887   c0.0078-0.2022,0.1738-0.3613,0.375-0.3613c0.0136,0,0.0371,0.0009,0.0556,0.0009c0.2823,0,0.5245-0.1045,0.7383-0.3173   c0.916-0.9122,1.043-3.4825,1.0147-4.3965c-0.0059-0.2071,0.1562-0.3799,0.3633-0.3867c0.1728-0.0254,0.3798,0.1562,0.3867,0.3632   c0.0049,0.1475,0.0967,3.625-1.2354,4.9512C11.34805,32.19853,10.92225,32.37813,10.43985,32.37813z" style="fill:#464747;"/></g><g><path d="M34.40855,40.85083c-0.0136,0-0.0283-0.001-0.0439-0.0029c-0.2051-0.0235-0.3525-0.21-0.3281-0.416   c0.1611-1.3819,0.2051-3.5313-0.2041-3.9825c-0.8252-0.9131-0.6758-2.3974-0.2901-5.4013   c0.23121-1.79866,0.13733-4.84048,0.12479-6.8025c-0.00058-0.09016,0.11786-0.15195,0.11714-0.23745   c-0.00816-0.96925-0.02447-1.62417-0.02513-1.64365c-0.0049-0.2071,0.1582-0.3789,0.3653-0.3848c0.0039,0,0.0068,0,0.0097,0   c0.2032,0,0.3701,0.1611,0.375,0.3652c0.0059,0.2403,0.1465,5.9239-0.2226,8.7989c-0.3467,2.6972-0.5,4.1357,0.1025,4.8027   c0.7813,0.8633,0.4639,3.9609,0.3916,4.5732C34.75915,40.71023,34.59705,40.85083,34.40855,40.85083z" style="fill:#464747;"/></g><g><path d="M37.21815,35.05983c-0.4785,0-0.9365-0.1807-1.3457-0.5332c-0.874-0.752-1.3066-2.124-1.2207-3.0147   c0.0967-0.998-0.585-4.4375-0.8555-5.6787c-0.0439-0.2021,0.084-0.4023,0.2862-0.4463c0.206-0.0439,0.4023,0.085,0.4463,0.2862   c0.041,0.1875,0.998,4.5927,0.8691,5.9111c-0.0664,0.6855,0.2832,1.7881,0.9639,2.374c0.3593,0.3106,0.7519,0.418,1.165,0.3115   c0.1973-0.0439,0.4053,0.0723,0.4551,0.2735s-0.0723,0.4043-0.2735,0.4551C37.54335,35.03933,37.38025,35.05983,37.21815,35.05983z   " style="fill:#464747;"/></g><g><path d="M22.50625,17.81763c-0.0908,0-0.1816-0.0322-0.2539-0.0986   c-0.1523-0.1397-0.1621-0.377-0.0225-0.5303c0.4707-0.5127,1.0801-0.5557,1.7862-0.6055c0.6591-0.0459,1.4052-0.0986,2.3047-0.5263   c1.5605-0.7432,0.9775-2.0381,0.9521-2.0928c-0.0879-0.1875-0.0068-0.4102,0.1816-0.4981   c0.1846-0.0859,0.4102-0.0068,0.4981,0.1817c0.3252,0.6963,0.4707,2.2383-1.3096,3.0869   c-1.0273,0.4883-1.8847,0.5488-2.5742,0.5976c-0.6689,0.0469-1.0293,0.084-1.2861,0.3643   C22.70835,17.77663,22.60785,17.81763,22.50625,17.81763z" style="fill:#464747;"/></g><path d="M16.35715,14.65563c-0.39,0.26-0.58,0.48-0.58,0.6c0,0.16-0.13,0.58-0.31,1.05  c-0.82,0.65-1.86,1.39-2.48,1.58c-0.04,0.01-0.08,0.02-0.11,0.02c-0.16,0-0.31-0.11-0.36-0.27c-0.06-0.2,0.05-0.41,0.25-0.47  c0.45-0.14,1.27-0.71,2.02-1.29c-0.23,0.04-0.48,0.06-0.72,0.06c-0.4,0-0.8-0.06-1.14-0.23c-0.18-0.1-0.25-0.32-0.16-0.51  c0.09-0.18,0.32-0.25,0.5-0.16c0.85,0.43,2.48-0.12,3.03-0.37C16.31715,14.65563,16.33715,14.65563,16.35715,14.65563z" style="fill:#303030;"/><g><path d="M35.21002,17.96002c-0.09003,0.12-0.22003,0.22998-0.37,0.32001   c-0.38,0.22998-0.86005,0.31995-1.25,0.29999c0.26996,0.19,0.57996,0.33997,0.82996,0.31   c0.22003-0.01001,0.39001,0.14001,0.41003,0.34998c0.01996,0.20001-0.14001,0.38-0.34003,0.40002   c-0.03998,0.01001-0.08997,0.01001-0.13,0.01001c-0.57001,0-1.1387-0.30039-1.5787-0.63041   c-0.08002-0.15997-0.1813-0.3096-0.25125-0.38961c-0.23004-0.25-0.34003-0.53998-0.45001-0.91003   c0.17999,0.02002,0.37,0.08002,0.45001,0.10004c0.31995,0.09998,1.37,0.15997,1.92999-0.17999   c0.22998-0.14001,0.37-0.35999,0.42999-0.67004c0.01001,0.05005,0.01001,0.11005,0.01001,0.16003   C34.90002,17.13,35.04999,17.46997,35.21002,17.96002z" style="fill:#303030;"/></g><g><g><path d="M21.43715,13.40563c-0.26,0.01-0.52,0.02-0.76,0.04c-0.26-0.93-1.15-3.73-3.11-4.74    c0.24-0.13,0.39-0.2,0.39-0.2c0.1-0.1,0.2-0.19,0.31-0.28C20.37715,9.58563,21.23715,12.59563,21.43715,13.40563z" style="fill:#303030;"/></g><g><path d="M33.67715,12.96563c-0.94,0.15-2.54,1.31-3.56,2.14c-0.31-0.18-0.68-0.36-1.11-0.52    c0.6-1.55,2.35-3.13,3.08-3.74c0.06,0.08,0.11,0.16,0.15,0.24c0,0,0.13,0.12,0.33,0.34c-0.72,0.6-1.88,1.7-2.54,2.78    c0.92-0.71,2.2-1.62,3.22-1.92C33.38715,12.48563,33.53715,12.71563,33.67715,12.96563z" style="fill:#303030;"/></g><g><path d="M19.80715,13.53563c-0.26,0.04-0.51,0.08-0.75,0.13c-0.18-0.46-0.54-1.28-1.03-1.77    c-0.15-0.15-0.15-0.38,0-0.53s0.38-0.15,0.53,0C19.19715,12.00563,19.62715,13.05563,19.80715,13.53563z" style="fill:#303030;"/></g><g><path d="M17.66715,10.97563c-0.07,0.06-0.16,0.09-0.24,0.09c-0.11,0-0.21-0.04-0.29-0.13l-1.12-1.29    c0.22-0.16,0.43-0.29,0.63-0.41l1.06,1.21C17.84715,10.59563,17.82715,10.83563,17.66715,10.97563z" style="fill:#303030;"/></g><g><path d="M26.40715,11.25563c-0.19,0.38-0.49,1.67-0.66,2.47c-0.24-0.04-0.49-0.07-0.75-0.11    c0.16-0.71,0.49-2.19,0.74-2.69c0.09-0.19,0.32-0.26,0.5-0.17C26.42715,10.84563,26.50715,11.06563,26.40715,11.25563z" style="fill:#303030;"/></g><g><path d="M26.47695,10.20333c-0.0449,0-0.0898-0.0078-0.1348-0.0254    c-0.1933-0.0742-0.29-0.291-0.2148-0.4843l0.3769-0.9805c0.0743-0.1934,0.2901-0.29,0.4844-0.2148    c0.1934,0.0742,0.2901,0.291,0.2149,0.4843l-0.377,0.9805C26.76995,10.11153,26.62735,10.20333,26.47695,10.20333z" style="fill:#303030;"/></g></g><g><g><path d="M26.48185,25.83813c-0.0977,0-0.1963-0.0381-0.2695-0.1143    c-0.1436-0.1494-0.1397-0.3867,0.0087-0.5302c1.7354-1.6768,3.711-0.9473,4.5127-0.3291    c0.1641,0.1259,0.1944,0.3603,0.0684,0.5244c-0.124,0.164-0.3604,0.1963-0.5244,0.0703    c-0.0742-0.0576-1.8389-1.3682-3.5352,0.2734C26.66935,25.80293,26.57555,25.83813,26.48185,25.83813z" style="fill:#D6B6A1;"/></g><g><g><g><g><g><path d="M23.54435,31.19453c-0.041,0-0.082-0.0068-0.1211-0.0205l-1.7422-0.5947        c-0.1963-0.0664-0.3008-0.2793-0.2334-0.4756c0.0664-0.1963,0.2783-0.3008,0.4756-0.2334l1.6123,0.5498l1.4033-0.5449        c0.1953-0.0762,0.4102,0.0205,0.4854,0.2139c0.0752,0.1933-0.0205,0.4101-0.2139,0.4853l-1.5303,0.5948        C23.63615,31.18583,23.59025,31.19453,23.54435,31.19453z" style="fill:#D6B6A1;"/></g></g></g></g><g><path d="M25.60295,24.09303c-0.1319,0-0.2608-0.0703-0.3281-0.1944     c-0.1006-0.1816-0.0342-0.4091,0.1474-0.5087c0.166-0.0918,4.0801-2.2159,6.582-1.1553c0.1905,0.081,0.2793,0.3017,0.1993,0.4922     c-0.083,0.1904-0.3018,0.2773-0.4922,0.1992c-2.1709-0.9238-5.8906,1.0996-5.9278,1.1201     C25.72595,24.07833,25.66445,24.09303,25.60295,24.09303z" style="fill:#D6B6A1;"/></g><g><path d="M20.77185,25.83813c-0.0937,0-0.1875-0.0352-0.2607-0.1055     c-1.708-1.6513-3.46-0.331-3.5342-0.2744c-0.1621,0.127-0.3994,0.0977-0.5254-0.0683c-0.1269-0.1641-0.0957-0.3995,0.0684-0.5254     c0.8017-0.6182,2.7773-1.3487,4.5127,0.3291c0.1484,0.1435,0.1523,0.3808,0.0088,0.5302     C20.96815,25.80003,20.86955,25.83813,20.77185,25.83813z" style="fill:#D6B6A1;"/></g><g><path d="M22.80115,28.81953c-0.0166,0-0.0322-0.0009-0.0478-0.0029     c-0.2051-0.0264-0.3506-0.2139-0.3252-0.4189c0.1191-0.9502,0.1992-3.5879-0.8516-4.3799l0,0     c-0.0078,0-3.7236-2.0098-5.8838-1.0918c-0.1914,0.0781-0.4101-0.0088-0.4922-0.1992c-0.08-0.1905,0.0088-0.4112,0.1993-0.4922     c2.5029-1.0586,6.4179,1.0644,6.583,1.1543c1.6572,1.2451,1.2089,4.9453,1.1894,5.1025     C23.14785,28.68093,22.98675,28.81953,22.80115,28.81953z" style="fill:#D6B6A1;"/></g></g></g><path d="M11.74255,23.24113c0,0,0.6362-0.7156,0.4649-1.9721c0,0-0.1139,0.9164-0.6353,1.2292  C11.57215,22.49823,11.69175,23.11423,11.74255,23.24113z" style="fill:#303030;"/><g><path d="M31.0263,19.51536c-0.1651,0-0.3155-0.1093-0.3614-0.2754   c-0.1494-0.5429-0.0996-1.0254,0.1475-1.4336c0.4189-0.6933,1.2598-0.8837,1.2949-0.8916c0.207-0.0439,0.4024,0.083,0.4463,0.2862   c0.0439,0.2021-0.083,0.4013-0.2842,0.4463c-0.0088,0.0019-0.5693,0.1347-0.8174,0.5507c-0.1367,0.2276-0.1572,0.504-0.0644,0.8428   c0.0547,0.2002-0.0625,0.4063-0.2617,0.461C31.0927,19.51146,31.0585,19.51536,31.0263,19.51536z" style="fill:#464747;"/></g></svg>