<?xml version="1.0" ?><svg style="enable-background:new 0 0 48 48;" version="1.1" viewBox="0 0 48 48" xml:space="preserve" xmlns="http://www.w3.org/2000/svg" xmlns:xlink="http://www.w3.org/1999/xlink"><g id="Icons"><g><path d="M14.4049,33.8162c-8.2632,0-6.3832-7.5636-5.8148-8.4186c0.5684-0.8549,1.5303-3.9543,1.88-6.0092    c0.3497-2.0548,2.1422-6.0333,4.9404-9.9682c2.7981-3.9349,8.889-1.6176,8.889-1.6176s6.588-2.3609,9.6921,2.0985    c3.1042,4.4595,2.8418,5.2465,3.3665,7.2576c0.5247,2.0112,0.5684,4.4595,1.7489,6.9078c1.1804,2.4484,2.268,9.5311-4.2655,9.4" style="fill:#AA9771;"/><g><g><g><path d="M34.1042,32.2466c-0.1738,0-0.3301-0.1211-0.3672-0.2978       c-0.042-0.2032,0.0879-0.4014,0.29-0.4444c0.0176-0.0039,2.2189-0.6035,2.9689-1.8457       c0.373-0.6191,0.4394-1.3662,0.1972-2.2207c-0.0566-0.1992,0.0586-0.4062,0.2579-0.4629       c0.1962-0.0586,0.4052,0.0576,0.4628,0.2578c0.3028,1.0645,0.209,2.0118-0.2783,2.8174       c-0.9228,1.5225-3.3702,2.1709-3.4551,2.1885C34.155,32.24369,34.1296,32.2466,34.1042,32.2466z" style="fill:#998664;"/></g><g><path d="M17.3582,10.9536c-0.0674,0-0.1348-0.0175-0.1963-0.0556       c-0.1758-0.1074-0.2315-0.3389-0.1231-0.5156c1.6622-2.7149,6.8663-1.1358,7.087-1.0684       c0.1972,0.0615,0.3085,0.2715,0.247,0.4697c-0.0605,0.1973-0.2705,0.3047-0.4697,0.2471       c-0.0479-0.0147-4.8652-1.4775-6.2256,0.7441C17.6072,10.8902,17.4842,10.9536,17.3582,10.9536z" style="fill:#998664;"/></g><g><path d="M15.6082,13.9214c-0.0655,0-0.1309-0.0166-0.1914-0.0527       c-0.1778-0.1055-0.2364-0.335-0.1309-0.5137l0.9063-1.5312c0.1045-0.1778,0.3349-0.2373,0.5136-0.1309       c0.1778,0.1055,0.2364,0.335,0.1309,0.5137l-0.9063,1.5312C15.8611,13.856,15.7361,13.9214,15.6082,13.9214z" style="fill:#998664;"/></g><g><path d="M14.6945,32.0288c-0.1739,0-3.5668-0.0371-4.265-2.5468       c-0.0557-0.1993,0.0615-0.4063,0.2607-0.4619c0.1963-0.0567,0.4072,0.0605,0.4619,0.2607       c0.5508,1.9785,3.5033,1.998,3.5433,1.998l0,0h0.001c0.207,0,0.374,0.167,0.375,0.3741c0.001,0.207-0.167,0.375-0.374,0.3759       C14.6964,32.0288,14.6954,32.0288,14.6945,32.0288z" style="fill:#998664;"/></g><g><path d="M10.4617,28.1109c-0.1787,0-0.3369-0.128-0.3691-0.3096l-0.1885-1.0576       c-0.0362-0.2031,0.0996-0.3985,0.3037-0.4346c0.2031-0.0371,0.3984,0.1006,0.4346,0.3037l0.1884,1.0576       c0.0362,0.2032-0.0996,0.3985-0.3037,0.4346C10.5056,28.1089,10.4832,28.1109,10.4617,28.1109z" style="fill:#998664;"/></g></g><path d="M8.5901,25.3976c0,0,1.6573-0.8276,2.4271-3.5219c0,0-0.9011,1.2976-1.6342,1.6688L8.5901,25.3976     z" style="fill:#998664;"/><path d="M23.3326,24.0247c0,0,2.0609-1.1626,3.1435-3.9628c0,0-0.8544,3.6631-2.9749,4.538l-0.4954-0.054     L23.3326,24.0247z" style="fill:#998664;"/></g><g><path d="M14.419,22.7381v10.3c0,0.8348,0.3159,1.6387,0.8843,2.2501l4.407,4.7406     c0.5017,0.5398,1.2055,0.8464,1.9424,0.8464h5.2967c0.751,0,1.4667-0.3183,1.9697-0.876l4.7483-5.2651     c0.5169-0.5733,0.817-1.3095,0.848-2.0808l0.3401-8.4649c0,0-5.3967-1.4373-5.4405-5.1536c0,0-1.119,6.2981-6.4092,5.5111     c0,0,2.2121-3.194,1.9061-6.1232c0,0-1.7006,5.1745-8.5255,4.7656c0,0,1.4864-1.5303,1.1367-2.6233L14.419,22.7381z" style="fill:#F9D9C0;"/><g><g><g><g><g><path d="M24.1258,31.8755c-0.0411,0-0.0821-0.0068-0.1211-0.0205l-1.8506-0.6328          c-0.1963-0.0664-0.3008-0.2803-0.2334-0.4756c0.0664-0.1963,0.2773-0.3008,0.4756-0.2334l1.7216,0.5879l1.5-0.583          c0.1963-0.0771,0.4112,0.0215,0.4854,0.2139c0.0752,0.1933-0.0205,0.4101-0.2139,0.4853l-1.6279,0.6328          C24.2176,31.8667,24.1717,31.8755,24.1258,31.8755z" style="fill:#D6B6A1;"/></g></g></g></g><g><g><path d="M27.3787,35.771c-0.1026,0-0.2051-0.042-0.2793-0.125l-0.3945-0.4404h-5.1377l-0.5411,0.4023        c-0.165,0.1231-0.4003,0.0918-0.5244-0.0771c-0.124-0.166-0.0888-0.4014,0.0772-0.5244l0.6406-0.4766        c0.0645-0.0478,0.1426-0.0742,0.2236-0.0742h5.4297c0.1065,0,0.208,0.0459,0.2793,0.125l0.5059,0.5654        c0.1387,0.1543,0.125,0.3916-0.0293,0.5293C27.5574,35.7398,27.4676,35.771,27.3787,35.771z" style="fill:#D6B6A1;"/></g><g><path d="M25.2654,37.20459h-2.5303c-0.207,0-0.375-0.1679-0.375-0.375c0-0.207,0.168-0.375,0.375-0.375        h2.5303c0.207,0,0.375,0.168,0.375,0.375C25.6404,37.0367,25.4724,37.20459,25.2654,37.20459z" style="fill:#D6B6A1;"/></g></g></g></g></g></g></svg>