<?xml version="1.0" ?><svg style="enable-background:new 0 0 48 48;" version="1.1" viewBox="0 0 48 48" xml:space="preserve" xmlns="http://www.w3.org/2000/svg" xmlns:xlink="http://www.w3.org/1999/xlink"><g id="Icons"><g><path d="M31.85415,20.29585c2.7358,2.2647,4.4842,5.68,4.4842,9.5119    c0,6.8124-5.526,12.3384-12.3384,12.3384c-6.8123,0-12.3383-5.526-12.3383-12.3384c0-4.6925,2.6271-8.7781,6.4862-10.8617" style="fill:#F4F4F4;"/><polygon points="19.74875,22.52315 14.52035,30.10365 15.90095,33.68315 27.10495,34.05865     29.60145,30.54605 23.99995,22.52315   " style="fill:#E0E0E0;"/><path d="M14.52035,37.70305c9.9136-7.8046,15.279,2.9962,15.279,2.9962    c0.8956-0.4304,1.615-0.9035,2.303-1.5889c0,0-1.9265-5.634-8.3795-6.6264c-6.453-0.9926-10.7033,2.955-10.7033,2.955    C13.41405,36.35435,13.93205,37.13415,14.52035,37.70305z" style="fill:#FFA001;"/><path d="M19.77205,19.65805l-1.6242-0.712l-1.12,0.6845c0,0,1.3069,7.2793-5.3662,10.1772    c0.003,0.8943,0.0918,1.7866,0.292,2.6762C21.17395,28.54985,19.77205,19.65805,19.77205,19.65805z" style="fill:#FFA001;"/><path d="M26.11935,20.27185c0,0-0.1945,9.5215,10.2136,9.9031c-0.0535,0.9604-0.1877,1.9997-0.4401,2.9257    c-13.5724-0.9928-12.5827-13.2272-12.5827-13.2272" style="fill:#FFA001;"/><circle cx="31.14665" cy="34.05865" r="0.5898" style="fill:#303030;"/><circle cx="20.93737" cy="28.72305" r="0.58978" style="fill:#303030;"/><g><g><path d="M33.63745,25.82575c-0.1699,0-0.3232-0.1152-0.3642-0.2871      c-0.3584-1.4824-2.7129-4.543-2.7364-4.5732c-0.1269-0.1641-0.0966-0.3995,0.0674-0.5264      c0.1641-0.127,0.4004-0.0957,0.5264,0.0674c0.1006,0.1308,2.4756,3.2187,2.8711,4.8564      c0.0488,0.2012-0.0752,0.4033-0.2764,0.4522C33.69605,25.82285,33.66675,25.82575,33.63745,25.82575z" style="fill:#FFFFFF;"/></g><g><path d="M34.04565,27.92245c-0.1816,0-0.3408-0.1309-0.3701-0.3154l-0.1367-0.8438      c-0.0332-0.2041,0.1055-0.3965,0.3105-0.4297c0.2022-0.0283,0.3975,0.1065,0.4297,0.3106l0.1367,0.8437      c0.0332,0.2041-0.1054,0.3965-0.3105,0.4297C34.08575,27.92045,34.06525,27.92245,34.04565,27.92245z" style="fill:#FFFFFF;"/></g></g><g><path d="M24.04275,40.73135c-3.6895,0-6.46-2.1231-6.6035-2.2354     c-0.1631-0.1279-0.1924-0.3633-0.0654-0.5263c0.1279-0.1631,0.3642-0.1905,0.5263-0.0655     c0.042,0.0332,4.1543,3.1709,8.8155,1.6543c0.2031-0.0654,0.4091,0.044,0.4726,0.2403c0.0645,0.1972-0.043,0.4082-0.2402,0.4726     C25.94025,40.59945,24.96265,40.73135,24.04275,40.73135z" style="fill:#FFFFFF;"/></g><polygon points="32.57765,19.27855 25.67065,17.37265 17.43425,17.72265 18.47155,19.51185     31.38485,20.96395   " style="fill:#C9C9C9;"/><g><g><path d="M24.54475,11.61905c-0.0079,0-0.0166,0-0.0245-0.001c-0.207-0.0137-0.3632-0.1924-0.3496-0.3984      l0.1602-2.4073c0.0127-0.206,0.1914-0.3818,0.3984-0.3496c0.2071,0.0137,0.3633,0.1924,0.3496,0.3985l-0.1601,2.4072      C24.90605,11.46665,24.74095,11.61905,24.54475,11.61905z" style="fill:#999999;"/></g><g><path d="M23.19025,11.83975c-0.0059,0-0.0127,0-0.0186,0c-0.207-0.0108-0.3662-0.1865-0.3564-0.3936      l0.2246-4.4961c0.0107-0.206,0.1914-0.3525,0.3935-0.3564c0.2071,0.0107,0.3662,0.1865,0.3565,0.3935l-0.2246,4.4961      C23.55445,11.68345,23.38945,11.83975,23.19025,11.83975z" style="fill:#999999;"/></g><circle cx="24.73363" cy="8.40238" r="0.70655" style="fill:#808080;"/><circle cx="23.43495" cy="6.56045" r="0.7066" style="fill:#808080;"/></g><path d="M32.57765,19.27855c0,0,1.2187-7.6755-6.2752-8.972c0,0-7.1049-1.4003-8.8682,7.4161" style="fill:#F4F4F4;"/><circle cx="25.76135" cy="14.44333" r="2.73793" style="fill:#464747;"/><circle cx="25.76138" cy="14.44333" r="1.3436" style="fill:#707070;"/><circle cx="20.9374" cy="15.57325" r="0.804" style="fill:#303030;"/></g></g></svg>