<?xml version="1.0" ?><svg id="svg8" style="enable-background:new 0 0 48 48;" version="1.1" viewBox="0 0 48 48" xml:space="preserve" xmlns="http://www.w3.org/2000/svg" xmlns:cc="http://creativecommons.org/ns#" xmlns:dc="http://purl.org/dc/elements/1.1/" xmlns:inkscape="http://www.inkscape.org/namespaces/inkscape" xmlns:rdf="http://www.w3.org/1999/02/22-rdf-syntax-ns#" xmlns:sodipodi="http://sodipodi.sourceforge.net/DTD/sodipodi-0.dtd" xmlns:svg="http://www.w3.org/2000/svg"><style id="style4700" type="text/css">
	.st0{fill:none;stroke:#000000;stroke-width:2;stroke-linecap:round;stroke-linejoin:round;}
	.st1{fill:none;stroke:#000000;stroke-linecap:round;}
	.st2{fill:none;stroke:#000000;stroke-width:2;stroke-linecap:round;}
	.st3{fill:none;stroke:#000000;stroke-linecap:round;stroke-linejoin:round;}
</style><defs id="defs4706"/><g id="g5080"><path d="m 19.119214,12.387098 -9.088359,5.18373 -0.134642,5.318373 4.106592,7.136045 -2.154278,12.925666 H 36.353435 L 33.997194,30.227209 36.151472,29.68864 35.949508,12.117813 Z" id="path5766" style="fill:#008000;stroke:none;stroke-width:1px;stroke-linecap:butt;stroke-linejoin:miter;stroke-opacity:1;fill-opacity:1"/><path class="st0" d="m 27,6 v 0 c 1.7,0 3,1.3 3,3 v 6 c 0,1.7 -1.3,3 -3,3 v 0 c -1.7,0 -3,-1.3 -3,-3 V 9 c 0,-1.7 1.3,-3 3,-3 z" id="rect5082" style="fill:#008000;stroke:#000000;stroke-width:2;stroke-linecap:round;stroke-linejoin:round;fill-opacity:1"/><path class="st0" d="m 33,7 v 0 c 1.7,0 3,1.3 3,3 v 6 c 0,1.7 -1.3,3 -3,3 v 0 c -1.7,0 -3,-1.3 -3,-3 v -6 c 0,-1.7 1.3,-3 3,-3 z" id="rect5084" style="fill:#008000;stroke:#000000;stroke-width:2;stroke-linecap:round;stroke-linejoin:round;fill-opacity:1"/><path class="st0" d="m 21,6 v 0 c 1.7,0 3,1.3 3,3 v 6 c 0,1.7 -1.3,3 -3,3 v 0 c -1.7,0 -3,-1.3 -3,-3 V 9 c 0,-1.7 1.3,-3 3,-3 z" id="rect5086" style="fill:#008000;stroke:#000000;stroke-width:2;stroke-linecap:round;stroke-linejoin:round;fill-opacity:1"/><path class="st0" d="m 15.5,17.9 c 1.4,-0.2 2.5,-1.5 2.5,-3 V 9 C 18,7.4 16.7,6 15,6 13.3,6 12,7.3 12,9 v 2.8" id="path4713" style="fill:#008000;stroke:#000000;stroke-width:2;stroke-linecap:round;stroke-linejoin:round;fill-opacity:1"/><path class="st1" d="m 18,20 c 0,0 1,-1 6,-1 5,0 6,1 6,1" id="path5090" style="fill:#008000;stroke:#000000;stroke-linecap:round;fill-opacity:1"/><path class="st2" d="m 13,20 c 0,0 3.7,-2.3 3.7,-4.3 0,-2 -1.7,-4.7 -2.8,-4.5 C 12.5,11.4 7,14 7,15 v 7 c 0,0 2,6 6,8 h 3" id="path5092" style="fill:#008000;stroke:#000000;stroke-width:2;stroke-linecap:round"/><path class="st0" d="M 36,13 V 30 H 33" id="path5094" style="fill:#008000;stroke:#000000;stroke-width:2;stroke-linecap:round;stroke-linejoin:round;fill-opacity:1"/><path class="st2" d="M 14,30 12,42" id="path5096" style="fill:#008000;stroke:#000000;stroke-width:2;stroke-linecap:round;fill-opacity:1"/><path class="st2" d="m 34,30 2,12" id="path5098" style="fill:#008000;stroke:#000000;stroke-width:2;stroke-linecap:round;fill-opacity:1"/><path class="st3" d="m 20,30 h 3 l 1,-2 v -2" id="path5100" style="fill:#008000;stroke:#000000;stroke-linecap:round;stroke-linejoin:round;fill-opacity:1"/><path class="st3" d="M 28,30 H 25 L 24,28 V 26" id="path5104" style="fill:#008000;stroke:#000000;stroke-linecap:round;stroke-linejoin:round;fill-opacity:1"/><path class="st1" d="m 26,30 v 4" id="path5106" style="fill:#008000;stroke:#000000;stroke-linecap:round;fill-opacity:1"/><path class="st1" d="m 22,30 v 4" id="path5108" style="fill:#008000;stroke:#000000;stroke-linecap:round;fill-opacity:1"/></g></svg>