<?xml version="1.0" ?><svg style="enable-background:new 0 0 48 48;" version="1.1" viewBox="0 0 48 48" xml:space="preserve" xmlns="http://www.w3.org/2000/svg" xmlns:xlink="http://www.w3.org/1999/xlink"><g id="Icons"><g><path d="M38.18099,37.57591v0.01c0.01,0.5-0.03,0.86-0.03,0.86c-0.08-0.26-0.38-0.61-0.81-0.92h-0.01    c-0.69-0.5-1.72-0.93-2.73-0.79c-0.93,0.13-1.79-0.39-2.35-0.86c0,0-0.01,0-0.01-0.01c-0.36-0.3-0.6-0.58-0.66-0.65    c0.18,0.31,0.18,0.75,0.07,1.2c0,0.01,0,0.01,0,0.01c-0.17,0.68-0.57,1.37-0.91,1.67c-0.57,0.48-0.22,2.41-0.22,2.41    c-1.15,0-2.29-0.95-2.83-1.47h-0.01c-0.2-0.19-0.32-0.33-0.32-0.33c-0.18,0.2-0.3,0.46-0.38,0.7c0,0.01,0.01,0.01,0,0.02    c-0.14,0.55-0.06,1.08-0.06,1.08c-0.83,0.09-2.5-2.98-2.5-2.98c-0.04,0.92-0.83,1.23-2.15,1.88c-0.09,0.05-0.18,0.1-0.25,0.16    c-0.44,0.32-0.63,0.82-0.71,1.27v0.05c-0.09,0.58,0,1.07,0,1.07c-0.88-0.57-0.57-1.49-0.49-2.68c0.05-0.66-0.3-1.27-0.62-1.67    c0-0.01-0.01-0.02-0.01-0.02c-0.24-0.31-0.46-0.5-0.46-0.5c0.02,0.34-0.06,0.63-0.2,0.87c-0.52,1-2,1.28-2.22,1.31    c1.42-0.63,0.58-2.66-0.03-3.32c-0.26-0.29-0.46-0.68-0.58-1.02c-0.18-0.45-0.26-0.82-0.26-0.82c-0.07,0.46-0.31,0.85-0.64,1.18    c-0.79,0.79-2.09,1.17-2.74,1.01c-0.92-0.22-3.24,0.74-3.24,0.74s-0.18-1.14,2.01-1.66c0.88-0.21,1.38-0.61,1.6-1.16v-0.01    c0.16-0.39,0.17-0.85,0.08-1.37c0,0,0,0,0-0.01c-0.1-0.56-0.32-1.18-0.62-1.84c-0.97-2.15,0.62-4.58,0.62-4.58    c0.26-0.42,0.33-1.09,0.3-1.79c-0.01-0.42-0.07-0.84-0.14-1.23c-0.02-0.08-0.03-0.16-0.05-0.26c-0.16-1.11-0.14-3.2,0.05-3.72    c0.2-0.56,0.25-2.25,0.4-3.93c0.16-1.69,1.28-4.65,2.05-5.11c0.51-0.31,1.09-1.13,1.42-1.63c0.16-0.25,0.26-0.42,0.26-0.42    c0.07-0.14,0.16-0.27,0.25-0.39c1.93-2.76,6.7-1.44,6.7-1.44c3.45-1.21,5.86,0.33,7.1,1.45c0.46,0.41,0.76,0.76,0.9,0.9    c0.01,0.01,0.01,0.01,0.02,0.02c0.55,0.54,2.27,2.05,2.22,2.75c-0.04,0.7,0.66,2.5,1.27,3.33c0.62,0.83,0.44,5.13,0.44,6.14    s-0.22,2.89,0.26,4.16c0.49,1.27,0.49,5.01,0.05,6.02c-0.44,1-0.53,2.58,0.44,3.59    C38.05099,35.48592,38.17099,36.73592,38.18099,37.57591z" style="fill:#B26632;"/><path d="M20.02339,18.34151c0,0,1.2151-0.3392,2.5176,0.6109c0.1851,0.1349,0.21,0.4004,0.0734,0.5844    c-0.3278,0.4417-1.0061,1.091-1.9349,0.6095C20.67949,20.14631,18.76499,19.36642,20.02339,18.34151z" style="fill:#FFFFFF;"/><path d="M29.03099,27.27592c-0.03,0.99-1.05,1.28-1.88,1.28c-0.23,0-0.46-0.03-0.64-0.07    c-0.11-0.02-0.23-0.05-0.36-0.07c-0.65-0.11-1.57-0.18-2.25-0.11c-0.22,0.01-0.42,0.05-0.57,0.1c-0.14,0.05-0.28,0.07-0.42,0.08    c-0.6,0.04-1.22-0.2-1.65-0.64c-0.53-0.53,0-1.4,0-1.4c0.14-0.31,0.45-0.51,0.81-0.63c0.32-0.11,0.68-0.16,1-0.18    c0.07-0.01,0.14-0.01,0.2-0.01c0.32,0,0.58,0.02,0.73,0.05c0.06,0.01,0.1,0.01,0.16,0.01c0.03,0,0.07,0,0.1-0.01    c0.34-0.02,0.66-0.17,0.79-0.24c0.04-0.02,0.06-0.03,0.06-0.03c0.01,0.01,0.02,0.02,0.03,0.02c0.14,0.1,0.45,0.17,0.81,0.22    c0.03,0,0.06,0,0.09,0.01c0.29,0.03,0.61,0.05,0.88,0.06c0.1,0.01,0.2,0.01,0.28,0.01h0.19c0.21,0,0.51,0.04,0.8,0.17    C28.64099,26.09591,29.05099,26.50591,29.03099,27.27592z" style="fill:#72401F;"/><path d="M30.12669,18.34151c0,0-1.2151-0.3392-2.5176,0.6109c-0.1851,0.1349-0.21,0.4004-0.0734,0.5844    c0.3278,0.4417,1.0061,1.091,1.9349,0.6095C29.47059,20.14631,31.38509,19.36642,30.12669,18.34151z" style="fill:#FFFFFF;"/><g><ellipse cx="24.00382" cy="22.98311" rx="0.59395" ry="0.4372" style="fill:#72401F;"/><ellipse cx="26.00822" cy="22.98311" rx="0.59395" ry="0.4372" style="fill:#72401F;"/></g><g><path d="M23.07099,25.63591c-0.01,0.39-0.07,1.28-0.45,1.36c-0.43,0.09-0.53-0.88-0.55-1.18     C22.39099,25.70591,22.75099,25.65591,23.07099,25.63591z" style="fill:#303030;"/><path d="M23.90099,28.30591c-0.22,0.01-0.42,0.05-0.57,0.1c-0.14,0.05-0.28,0.07-0.42,0.08     c0-0.3,0.03-1.23,0.45-1.31C23.76099,27.09591,23.87099,27.97591,23.90099,28.30591z" style="fill:#303030;"/><path d="M24.26099,25.67591c0,0.12-0.01,0.29-0.04,0.47c-0.05,0.35-0.16,0.73-0.41,0.78     c-0.4,0.08-0.51-0.89-0.54-1.3c0.32,0,0.58,0.02,0.73,0.05c0.06,0.01,0.1,0.01,0.16,0.01     C24.19099,25.68591,24.23099,25.68591,24.26099,25.67591z" style="fill:#303030;"/><path d="M25.14099,25.42591c0,0.16-0.01,0.36-0.03,0.56v0.01c-0.05,0.44-0.16,0.88-0.41,0.93     c-0.27,0.05-0.4-0.37-0.48-0.78c-0.02-0.17-0.04-0.33-0.06-0.46c0.03,0,0.07,0,0.1-0.01c0.34-0.02,0.66-0.17,0.79-0.24     c0.04-0.02,0.06-0.03,0.06-0.03C25.12099,25.41591,25.13099,25.42591,25.14099,25.42591z" style="fill:#303030;"/><path d="M26.04099,25.65591c0,0.11-0.01,0.27-0.03,0.45v0.04c-0.05,0.34-0.17,0.72-0.42,0.78     c-0.27,0.05-0.41-0.45-0.48-0.93v-0.01c-0.03-0.21-0.05-0.41-0.06-0.55c0.04-0.02,0.06-0.03,0.06-0.03     c0.01,0.01,0.02,0.02,0.03,0.02c0.14,0.1,0.45,0.17,0.81,0.22C25.98099,25.64591,26.01099,25.64591,26.04099,25.65591z" style="fill:#303030;"/><path d="M26.92099,25.71591c0,0.37-0.07,1.13-0.44,1.21c-0.26,0.05-0.4-0.36-0.47-0.78v-0.04     c-0.03-0.16-0.05-0.33-0.06-0.46c0.03,0,0.06,0,0.09,0.01C26.33099,25.68591,26.65099,25.70591,26.92099,25.71591z" style="fill:#303030;"/><path d="M27.15099,28.55591c-0.23,0-0.46-0.03-0.64-0.07c-0.11-0.02-0.23-0.05-0.36-0.07     c0.02-0.3,0.12-1.27,0.54-1.18S27.15099,28.25591,27.15099,28.55591z" style="fill:#303030;"/><path d="M28.19099,25.89591c-0.02,0.35-0.15,1.18-0.54,1.1s-0.44-0.93-0.45-1.27h0.19     C27.60099,25.72591,27.90099,25.76591,28.19099,25.89591z" style="fill:#303030;"/></g><g><path d="M26.27729,30.81181c-0.0479,0-0.0967-0.0088-0.1426-0.0283     c-1.1689-0.4824-2.5859,0.0019-2.6006,0.0068c-0.1972,0.0684-0.4101-0.0342-0.4775-0.2295     c-0.0684-0.1953,0.0342-0.4092,0.2285-0.4775c0.0693-0.0244,1.6992-0.5869,3.1348,0.0068     c0.1923,0.0791,0.2832,0.2979,0.2041,0.4903C26.56439,30.72491,26.42469,30.81181,26.27729,30.81181z" style="fill:#72401F;"/></g><g><g><path d="M32.53099,27.84591c0.01,0.21-0.14,0.39-0.35,0.41h-0.03c-0.19,0-0.35-0.15-0.37-0.34      c-0.06-0.77-1.3-2.56-1.87-2.7c-0.57-0.15-1.45-1.05-2.07-1.76c-0.09,0.18-0.21,0.33-0.38,0.45c-0.07,0.06-0.15,0.08-0.22,0.08      c-0.12,0-0.23-0.05-0.3-0.15c-0.13-0.16-0.1-0.4,0.07-0.52c0.15-0.12,0.21-0.25,0.2-0.42c-0.01-0.32-0.25-0.61-0.35-0.67      c-0.4-0.24-0.77-0.8-0.81-0.87c-0.03-0.04-0.05-0.08-0.06-0.13c-0.12-0.62-0.78-0.65-0.81-0.65c-0.94-0.07-1.05,0.36-1.11,0.63      c-0.1,0.38-0.73,1-1,1.25c-0.15,0.14-0.22,0.29-0.22,0.43c0.01,0.24,0.21,0.45,0.22,0.45c0.15,0.14,0.16,0.38,0.02,0.53      c-0.14,0.15-0.38,0.16-0.53,0.02c-0.04-0.03-0.26-0.25-0.38-0.58c-0.53,0.44-1.3,1.06-1.73,1.22c-0.52,0.2-2.65,1.72-2.82,5.16      c-0.11,2.07-0.55,3.96-0.93,5.24c-0.18-0.45-0.26-0.82-0.26-0.82c-0.07,0.46-0.31,0.85-0.64,1.18c0.4-1.22,0.96-3.33,1.08-5.63      c0.2-3.89,2.66-5.59,3.31-5.83c0.39-0.15,1.45-1.03,2.04-1.56c0.02-0.01,0.21-0.24,0.32-0.35c0.38-0.35,0.75-0.77,0.79-0.9      c0.04-0.16,0.11-0.28,0.18-0.41c0-0.01,0-0.01,0-0.01c0-0.02,0.34-1.72-0.47-3.37c-0.49-0.2-2.45-0.91-3.74-0.37      c-0.2,0.08-0.42-0.01-0.49-0.2c-0.08-0.19,0.01-0.41,0.2-0.49c1.06-0.45,2.4-0.23,3.33,0.03c-1.46-1.49-4.21-1.33-4.24-1.33      c-0.19,0.03-0.38-0.14-0.4-0.35c-0.01-0.2,0.15-0.38,0.35-0.4c0.15-0.01,3.54-0.21,5.14,1.92c1.06,1.41,1.18,2.96,1.14,3.89      c0.26-0.08,0.54-0.13,0.88-0.1c0.14,0.01,0.31,0.04,0.5,0.11c-0.04-0.77,0.04-1.96,0.67-3.15v-0.01c0-0.01,0.01-0.02,0.02-0.02      c0.13-0.24,0.27-0.48,0.44-0.72c1.61-2.13,5-1.93,5.14-1.92c0.21,0.02,0.37,0.2,0.35,0.4c-0.01,0.21-0.2,0.38-0.4,0.35      c-0.02,0-2.69-0.16-4.16,1.26c0.39-0.08,0.84-0.11,1.31-0.03c0.2,0.03,0.34,0.22,0.31,0.42c-0.03,0.21-0.22,0.35-0.43,0.32      c-0.99-0.16-1.76,0.24-1.95,0.36c-0.45,0.9-0.56,1.81-0.56,2.47c0,0.55,0.08,0.92,0.08,0.93c0.07,0.12,0.13,0.25,0.17,0.41      c0.13,0.18,0.37,0.47,0.54,0.57c0.2,0.12,0.4,0.37,0.54,0.66c0.69,0.87,1.86,2.14,2.3,2.25      C31.10099,24.73591,32.45099,26.89591,32.53099,27.84591z" style="fill:#72401F;"/><path d="M33.06439,30.88111l-0.2685-1.2841c-0.042-0.2022-0.2354-0.3252-0.4444-0.2901      c-0.2021,0.043-0.332,0.2412-0.29,0.4444l0.2686,1.2841c0.0371,0.1768,0.1933,0.2979,0.3671,0.2979      c0.0254,0,0.0508-0.0029,0.0772-0.0078C32.97649,31.28251,33.10639,31.08431,33.06439,30.88111z" style="fill:#72401F;"/></g><g><path d="M15.76099,27.11591c-0.34,0.62-0.9,2.28-0.69,3.47c0.18,1.07-0.76,2.47-1.59,3.56      c-0.02,0.02-0.03,0.04-0.05,0.06c0.16-0.39,0.17-0.85,0.08-1.37c0,0,0,0,0-0.01c0.45-0.67,0.92-1.53,0.82-2.11      c-0.25-1.47,0.41-3.31,0.78-3.97c0.1-0.18,0.33-0.24,0.51-0.14C15.80099,26.70591,15.86099,26.93591,15.76099,27.11591z" style="fill:#72401F;"/></g><g><g><path d="M15.66099,19.14591c-0.16,0.41-0.36,1.2-0.2,1.57c0.2,0.45-0.15,1.03-0.63,1.83       c-0.38,0.62-0.82,1.36-1.02,2.07c-0.01-0.42-0.07-0.84-0.14-1.23c-0.02-0.08-0.03-0.16-0.05-0.26       c0.19-0.34,0.39-0.67,0.57-0.97c0.25-0.42,0.59-0.99,0.58-1.16c-0.33-0.75,0.14-1.99,0.19-2.13c0.08-0.19,0.29-0.28,0.49-0.21       C15.64099,18.73591,15.74099,18.95591,15.66099,19.14591z" style="fill:#72401F;"/></g><g><path d="M15.55949,17.95341c-0.0107,0-0.0215,0-0.0322-0.001       c-0.2061-0.0185-0.3594-0.2002-0.3418-0.4062l0.123-1.4229c0.0186-0.206,0.1973-0.3662,0.4063-0.3418       c0.206,0.0186,0.3594,0.2002,0.3418,0.4063l-0.1231,1.4228C15.91599,17.80591,15.75289,17.95341,15.55949,17.95341z" style="fill:#72401F;"/></g><g><path d="M26.43059,13.20051c-0.0947,0-0.1904-0.0362-0.2637-0.1084       c-0.1474-0.1455-0.1484-0.3828-0.0029-0.5303c0.0391-0.0391,0.9697-0.9717,2.2275-1.2305       c0.2149-0.04,0.4024,0.0899,0.4434,0.292c0.042,0.2022-0.0889,0.4004-0.291,0.4424c-1.0381,0.2139-1.8389,1.0147-1.8467,1.0234       C26.62399,13.16341,26.52729,13.20051,26.43059,13.20051z" style="fill:#72401F;"/></g><g><path d="M35.06639,25.78351c-0.1348,0-0.2647-0.0733-0.3321-0.2012       c-0.3535-0.6748-0.2314-1.9824-0.1133-3.2471c0.0225-0.2402,0.044-0.4755,0.0616-0.6972       c0.0937-1.1963-0.5508-2.8926-0.5567-2.9092c-0.0742-0.1934,0.0215-0.4102,0.2149-0.4844       c0.1953-0.0752,0.4111,0.0225,0.4843,0.2149c0.0293,0.0761,0.712,1.8701,0.6055,3.2373       c-0.0176,0.2256-0.04,0.4638-0.0635,0.708c-0.0976,1.0478-0.2197,2.3515,0.0313,2.8301       c0.0967,0.1826,0.0254,0.4101-0.1582,0.5058C35.18449,25.76981,35.12489,25.78351,35.06639,25.78351z" style="fill:#72401F;"/></g><g><path d="M21.65099,9.38591c-0.08,0.07-0.17,0.1-0.27,0.1c-0.09,0-0.19-0.04-0.26-0.11       c-0.81-0.84-2.64-0.78-3.58-0.64c0.16-0.25,0.26-0.42,0.26-0.42c0.07-0.14,0.16-0.27,0.25-0.39c1.05-0.07,2.7-0.01,3.6,0.93       C21.80099,9.00591,21.79099,9.23591,21.65099,9.38591z" style="fill:#72401F;"/></g><g><path d="M32.77099,8.85591c-1.47-0.46-2.77,0.14-2.79,0.15c-0.19,0.09-0.41,0.01-0.5-0.18       c-0.09-0.18-0.01-0.4,0.18-0.49c0.06-0.03,0.97-0.46,2.19-0.4c0.46,0.41,0.76,0.76,0.9,0.9       C32.76099,8.84591,32.76099,8.84591,32.77099,8.85591z" style="fill:#72401F;"/></g></g><g><g><path d="M31.58099,35.21592c0.18,0.31,0.18,0.75,0.07,1.2c-0.26-0.68-1.18-3.21-1.18-4.17       c0-1-0.12-3.34-0.12-3.37c-0.01-0.2,0.15-0.38,0.36-0.39c0.21,0.01,0.38,0.15,0.39,0.35c0.01,0.1,0.12,2.39,0.12,3.41       c0,0.67,0.64,2.56,1.02,3.62C31.88099,35.56591,31.64099,35.28592,31.58099,35.21592z" style="fill:#72401F;"/></g><g><path d="M27.70099,36.01591c-0.32,0.7-0.18,2.09-0.02,3.02c-0.2-0.19-0.32-0.33-0.32-0.33       c-0.18,0.2-0.3,0.46-0.38,0.7c-0.16-0.86-0.43-2.69,0.04-3.7c0.09-0.19,0.31-0.27,0.5-0.18       C27.71099,35.60592,27.79099,35.83591,27.70099,36.01591z" style="fill:#72401F;"/></g><g><path d="M20.19099,37.58591c-0.24-0.31-0.46-0.5-0.46-0.5c0.02,0.34-0.06,0.63-0.2,0.87       c-0.32-0.84-0.91-2.68-0.31-3.41c0.13-0.16,0.37-0.18,0.53-0.05s0.18,0.37,0.05,0.53       C19.57099,35.31591,19.80099,36.50591,20.19099,37.58591z" style="fill:#72401F;"/></g><g><path d="M19.91889,33.89091c-0.0371,0-0.0742-0.0059-0.1113-0.0176       c-0.1983-0.0615-0.3086-0.2715-0.2471-0.4687c0.1396-0.4453,0.2715-1.0293,0.2471-1.1895       c-0.0303-0.2051,0.1103-0.3965,0.3144-0.4277c0.211-0.0352,0.3965,0.1103,0.4277,0.3144       c0.0616,0.4092-0.1933,1.2715-0.2724,1.5264C20.22649,33.78841,20.07899,33.89091,19.91889,33.89091z" style="fill:#72401F;"/></g><g><path d="M38.18099,37.57591v0.01c0.01,0.5-0.03,0.86-0.03,0.86c-0.08-0.26-0.38-0.61-0.81-0.92h-0.01       c-0.33-0.69-0.9-1.66-1.64-2.23c-1.33-1.03-1.76-1.68-1.76-2.67c0-0.21,0.16-0.38,0.37-0.38s0.38,0.17,0.38,0.38       c0,0.55,0.1,1.02,1.47,2.07C37.16099,35.47591,37.86099,36.83591,38.18099,37.57591z" style="fill:#72401F;"/></g><g><path d="M22.83099,37.14592c-0.61,0.6-0.78,1.6-0.81,2.42c-0.44,0.32-0.63,0.82-0.71,1.27       c-0.08-0.73-0.23-3.03,0.99-4.23c1.13-1.1,0.62-2.6,0.6-2.66c-0.07-0.2,0.04-0.41,0.23-0.48c0.19-0.06,0.41,0.03,0.48,0.23       C23.64099,33.77591,24.30099,35.70591,22.83099,37.14592z" style="fill:#72401F;"/></g></g></g></g></g></svg>