<?xml version="1.0" ?><svg style="enable-background:new 0 0 48 48;" version="1.1" viewBox="0 0 48 48" xml:space="preserve" xmlns="http://www.w3.org/2000/svg" xmlns:xlink="http://www.w3.org/1999/xlink"><g id="Icons"><g><path d="M37.125,22.58805c-0.09,2.34-0.57,7.26-2.89,10.85c0,0-4.99,8.35-10.23,8.15    c-5.25,0.21-10.23-8.15-10.23-8.15c-2.34-3.6-2.81-8.56-2.9-10.88c-0.04-0.82-0.02-1.31-0.02-1.31c0.03-0.79,0.08-1.54,0.17-2.25    c1.21-9.87,7.9-12.02,11.34-12.47c0.49-0.07,0.92-0.1,1.25-0.11c0,0,0.12-0.01,0.32-0.01h0.14c0.2,0,0.32,0.01,0.32,0.01    c0.37,0.01,0.85,0.05,1.42,0.13c3.48,0.49,9.98,2.74,11.16,12.46c0.08,0.71,0.14,1.45,0.17,2.24    C37.145,21.24805,37.165,21.74805,37.125,22.58805z" style="fill:#F4F4F4;"/><path d="M13.755,18.56805v2.42c0,0.21-0.12,0.39-0.31,0.48l-2.57,1.09c-0.04-0.82-0.02-1.31-0.02-1.31    c0.03-0.79,0.08-1.54,0.17-2.25l2-0.9C13.375,17.94806,13.755,18.19806,13.755,18.56805z" style="fill:#844A23;"/><path d="M37.125,22.58805l-2.57-1.12c-0.19-0.09-0.31-0.27-0.31-0.48v-2.42c0-0.37,0.39-0.62,0.73-0.47    l2,0.91c0.08,0.71,0.14,1.45,0.17,2.24C37.145,21.24805,37.165,21.74805,37.125,22.58805z" style="fill:#844A23;"/><path d="M25.815,6.54805v4.36h-3.45v-4.38c0.49-0.07,0.92-0.1,1.25-0.11c0,0,0.12-0.01,0.32-0.01h0.14    c0.2,0,0.32,0.01,0.32,0.01C24.765,6.42805,25.245,6.46805,25.815,6.54805z" style="fill:#844A23;"/><path d="M17.6222,20.30585c0,0,2.0429-0.2612,3.4009,0.9925c0,0,0.7574,0.914-0.2873,2.4288    c0,0-1.4364,1.8282-3.5518,0.1567c0,0-1.0992-0.7879-0.5485-2.3244C16.6355,21.55945,17.0089,20.28325,17.6222,20.30585z" style="fill:#303030;"/><ellipse cx="12.3475" cy="20.13543" rx="0.3514" ry="0.77555" style="fill:#303030;"/><circle cx="21.86085" cy="16.94425" r="0.5056" style="fill:#303030;"/><circle cx="22.19335" cy="32.71661" r="0.5056" style="fill:#303030;"/><circle cx="22.19335" cy="35.90395" r="0.5056" style="fill:#303030;"/><circle cx="18.37913" cy="16.15421" r="0.50563" style="fill:#303030;"/><circle cx="18.37913" cy="13.5937" r="0.50563" style="fill:#303030;"/><circle cx="18.37913" cy="11.0332" r="0.50563" style="fill:#303030;"/><circle cx="15.36125" cy="14.0993" r="0.5056" style="fill:#303030;"/><circle cx="15.36125" cy="16.94425" r="0.5056" style="fill:#303030;"/><ellipse cx="13.31443" cy="26.17175" rx="0.35695" ry="0.6094" style="fill:#303030;"/><ellipse cx="14.4026" cy="29.09683" rx="0.3569" ry="0.60935" style="fill:#303030;"/><ellipse cx="17.46608" cy="34.11985" rx="0.35694" ry="0.60941" style="fill:#303030;" transform="matrix(0.80923 -0.58749 0.58749 0.80923 -16.71306 16.77008)"/><ellipse cx="22.0565" cy="38.41296" rx="0.35695" ry="0.60938" style="fill:#303030;" transform="matrix(0.70711 -0.70711 0.70711 0.70711 -20.70186 26.84719)"/><ellipse cx="19.5742" cy="32.84451" rx="0.35691" ry="0.60939" style="fill:#303030;" transform="matrix(0.86604 -0.49998 0.49998 0.86604 -13.7994 14.1867)"/><ellipse cx="15.37763" cy="27.65166" rx="0.35695" ry="0.6094" style="fill:#303030;"/><path d="M15.5891,30.77955c0,0,1.1749-3.1705,2.5634-4.6078c0,0-1.2176,3.433-1.2817,4.9923    C16.8708,31.16405,15.9737,31.16405,15.5891,30.77955z" style="fill:#F43735;"/><path d="M30.3807,20.30585c0,0-2.0427-0.2612-3.4009,0.9925c0,0-0.7573,0.914,0.2873,2.4288    c0,0,1.4365,1.8282,3.5519,0.1567c0,0,1.0991-0.7879,0.5485-2.3244C31.3675,21.55945,30.9942,20.28325,30.3807,20.30585z" style="fill:#303030;"/><ellipse cx="35.65543" cy="20.13543" rx="0.35145" ry="0.77555" style="fill:#303030;"/><circle cx="26.14215" cy="16.94425" r="0.5056" style="fill:#303030;"/><circle cx="25.80965" cy="32.71661" r="0.5056" style="fill:#303030;"/><circle cx="25.80965" cy="35.90395" r="0.5056" style="fill:#303030;"/><circle cx="29.62383" cy="16.15421" r="0.50563" style="fill:#303030;"/><circle cx="29.62383" cy="13.5937" r="0.50563" style="fill:#303030;"/><circle cx="29.62383" cy="11.0332" r="0.50563" style="fill:#303030;"/><circle cx="32.64172" cy="14.0993" r="0.50563" style="fill:#303030;"/><circle cx="32.64172" cy="16.94425" r="0.50563" style="fill:#303030;"/><ellipse cx="34.68858" cy="26.17175" rx="0.35685" ry="0.6094" style="fill:#303030;"/><ellipse cx="33.6004" cy="29.09683" rx="0.3569" ry="0.60935" style="fill:#303030;"/><ellipse cx="30.53692" cy="34.11985" rx="0.60938" ry="0.3569" style="fill:#303030;" transform="matrix(0.58756 -0.80918 0.80918 0.58756 -15.01445 38.78255)"/><ellipse cx="25.94647" cy="38.41296" rx="0.60935" ry="0.35695" style="fill:#303030;" transform="matrix(0.70711 -0.70711 0.70711 0.70711 -19.56251 29.59782)"/><ellipse cx="28.4288" cy="32.84451" rx="0.60939" ry="0.35691" style="fill:#303030;" transform="matrix(0.49998 -0.86604 0.86604 0.49998 -14.2296 41.04324)"/><ellipse cx="32.6254" cy="27.65166" rx="0.3569" ry="0.6094" style="fill:#303030;"/><path d="M32.4138,30.77955c0,0-1.1748-3.1705-2.5633-4.6078c0,0,1.2176,3.433,1.2817,4.9923    C31.1322,31.16405,32.0293,31.16405,32.4138,30.77955z" style="fill:#F43735;"/><ellipse cx="24.08377" cy="29.79763" rx="0.99745" ry="0.37955" style="fill:#303030;"/><path d="M19.5142,18.24805c0,0,3.1024,0.1656,4.5553,0.5918c0,0,2.6814-0.5918,4.2201-0.5918    c0,0-3.677,1.5834-4.2201,2.2657C24.0695,20.51375,22.4495,18.86366,19.5142,18.24805z" style="fill:#F43735;"/><circle cx="24.0916" cy="9.27075" r="0.57725" style="fill:#303030;"/></g></g></svg>