<?xml version="1.0" ?><svg id="svg8" style="enable-background:new 0 0 48 48;" version="1.1" viewBox="0 0 48 48" xml:space="preserve" xmlns="http://www.w3.org/2000/svg" xmlns:cc="http://creativecommons.org/ns#" xmlns:dc="http://purl.org/dc/elements/1.1/" xmlns:inkscape="http://www.inkscape.org/namespaces/inkscape" xmlns:rdf="http://www.w3.org/1999/02/22-rdf-syntax-ns#" xmlns:sodipodi="http://sodipodi.sourceforge.net/DTD/sodipodi-0.dtd" xmlns:svg="http://www.w3.org/2000/svg"><style id="style4728" type="text/css">
	.st0{fill:none;stroke:#000000;stroke-width:2;stroke-linecap:round;stroke-linejoin:round;}
	.st1{fill:none;stroke:#000000;stroke-width:1.9782;stroke-linecap:round;stroke-linejoin:round;}
	.st2{fill:none;stroke:#000000;}
	.st3{fill:none;stroke:#000000;stroke-linecap:round;}
</style><defs id="defs4734"/><g id="g5136"><path class="st1" d="m 17,38.1 2,4.9 h 10 l 2,-4.9" id="path5140" style="fill:#502d16;stroke:#000000;stroke-width:1.97819996;stroke-linecap:round;stroke-linejoin:round"/><path class="st0" d="m 8.7,6 h 30.8 c 1.5,0 2.7,1.2 2.7,2.7 v 26.8 c 0,1.5 -1.2,2.7 -2.7,2.7 H 8.7 C 7.2,38.2 6,37 6,35.5 V 8.7 C 6,7.2 7.2,6 8.7,6 Z" id="rect5138" style="fill:#b3b3b3;stroke:#000000;stroke-width:2;stroke-linecap:round;stroke-linejoin:round"/><path class="st0" d="m 10.1,9 h 27.8 c 0.6,0 1.1,0.5 1.1,1.1 v 18.6 c 0,0.6 -0.5,1.1 -1.1,1.1 H 10.1 C 9.5,29.8 9,29.3 9,28.7 V 10.1 C 9,9.5 9.5,9 10.1,9 Z" id="rect5142" style="fill:none;stroke:#000000;stroke-width:2;stroke-linecap:round;stroke-linejoin:round"/><path class="st0" d="M 9,27 V 38" id="path5144" style="fill:none;stroke:#000000;stroke-width:2;stroke-linecap:round;stroke-linejoin:round"/><path class="st0" d="M 39,27 V 38" id="path5146" style="fill:none;stroke:#000000;stroke-width:2;stroke-linecap:round;stroke-linejoin:round"/><path class="st2" d="m 6.2,28 3,2 -3,2" id="path5148" style="fill:none;stroke:#000000"/><path class="st2" d="m 41.8,28 -3,2 3,2" id="path5150" style="fill:none;stroke:#000000"/><path class="st2" d="M 9,6 V 9 H 6" id="path5156" style="fill:none;stroke:#000000"/><path class="st2" d="m 39,6 v 3 h 3" id="path5160" style="fill:none;stroke:#000000"/><ellipse class="st0" cx="24" cy="17" id="path5162" rx="7.6999998" ry="3.7" style="fill:#666666;stroke:#000000;stroke-width:2;stroke-linecap:round;stroke-linejoin:round"/><path class="st3" d="m 12,11 v 7" id="path5164" style="fill:none;stroke:#000000;stroke-linecap:round"/><path class="st3" d="M 37,24 34,21" id="path5166" style="fill:none;stroke:#000000;stroke-linecap:round"/><path class="st3" d="m 35.5,25.5 -3,-3" id="path5168" style="fill:none;stroke:#000000;stroke-linecap:round"/><path class="st0" d="M 9.2,30 H 38.8" id="path5170" style="fill:none;stroke:#000000;stroke-width:2;stroke-linecap:round;stroke-linejoin:round"/><path class="st3" d="M 12,33 H 23" id="path5172" style="fill:none;stroke:#000000;stroke-linecap:round"/><path class="st3" d="m 12,35 h 5" id="path5174" style="fill:none;stroke:#000000;stroke-linecap:round"/></g></svg>