<?xml version="1.0" ?><svg style="enable-background:new 0 0 48 48;" version="1.1" viewBox="0 0 48 48" xml:space="preserve" xmlns="http://www.w3.org/2000/svg" xmlns:xlink="http://www.w3.org/1999/xlink"><g id="Icons"><g><path d="M22.34074,9.93993c0,0-6.5202,0.0399-10.9027,6.9637c0,0-3.3104,3.1862-4.2761,6.6594    c-0.9658,3.4732-2.4181,7.4495,1.0001,9.701c3.4181,2.2514,6.9928,0.9442,8.133-0.0445c0,0,1.9999-3.3515,4.7061-1.5089    s5.4703,1.5885,7.0517-0.4765s2.4866,2.3316,5.3835,2.878c2.8969,0.5465,6.9582,0.1799,8.1407-3.0166    c1.1825-3.1964-0.3665-7.8231-2.4882-10.7476s-6.2378-9.612-13.4459-10.408H22.34074z" style="fill:#72502A;"/><path d="M22.25614,20.73303c0,0-3.7525-1.1043-4.4979,2.7408l1.9854,8.3883c0,0,1.9834,2.1874,4.2482,2.192    c2.2771,0.0046,4.2482-2.0878,4.2482-2.0878l1.7488-8.9068c0,0-0.4283-2.5669-3.8729-2.4461S22.25614,20.73303,22.25614,20.73303z    " style="fill:#F9D9C0;"/><path d="M17.50644,19.54613c0,0,0.4212-4.4309,3.3964-6.4876c0,0-0.0459-2.6688,2.8604-4.2809    c0,0,2.6102,0.6711,3.2195,4.2228c0,0,3.2875,2.2142,3.5256,6.4179l-0.6926,3.7357c0,0-0.6121-2.4224-3.0912-2.4211    c-1.7186,0.0009-3.9936,0.02-5.2276,0.0317c-0.7271,0.0068-1.4407,0.2492-1.9778,0.7395    c-0.5408,0.4937-1.0713,1.243-1.0276,2.2644L17.50644,19.54613z" style="fill:#FFD24A;"/><path d="M22.02324,39.63103c-0.8076-0.4141-1.0477-0.1132-1.7104-0.7454    c-2.8901-2.7574-4.3892-6.9452-4.3892-6.9452s-3.3652-3.448-4.078-4.8804c-0.7127-1.4324-0.1326-2.8446,1.3594-4.0381    c1.4919-1.1936,1.4919-4.7742,1.4919-4.7742c0.1327-3.9454-3.5475-4.3764-3.5475-4.3764    c-0.9595-3.3112,0.4311-6.1666,0.4311-6.1666s4.3813,3.2813,5.8596,11.2475c1.2035,6.4852,2.1205,15.3186,4.3565,20.1855    C22.02324,39.63103,21.76785,39.22583,22.02324,39.63103z" style="fill:#FFD24A;"/><path d="M26.22954,39.63103c0.6773-0.284,0.0578,0.3199,0.68-0.0539    c2.3213-1.3948,4.4358-3.6238,5.1505-7.6367c0,0,3.3651-3.448,4.0779-4.8804c0.7128-1.4324,0.1327-2.8446-1.3593-4.0381    c-1.4919-1.1936-1.4919-4.7742-1.4919-4.7742c-0.1327-3.9454,3.5474-4.3764,3.5474-4.3764    c0.9596-3.3112-0.431-6.1666-0.431-6.1666c-4.5748,5.583-5.6707,11.0673-6.5454,15.953    c-1.0549,5.8917-1.409,11.0296-3.8052,15.451C25.79885,39.57682,26.53224,39.17903,26.22954,39.63103z" style="fill:#FFD24A;"/><path d="M25.72754,20.73303c0.2321-3.6815-0.9283-4.9719-0.9283-4.9719    c-0.0331-2.3539-0.8074-3.4505-0.8074-3.4505s-0.7743,1.0966-0.8074,3.4505c0,0-1.1604,1.2904-0.9283,4.9719" style="fill:#F43735;"/><path d="M11.58054,7.70473c0,0,4.3467,2.5721,6.4319,13.0283c0,0,1.8566,11.7047,1.956,12.7325    c0,0,1.5583,6.1998,2.9177,6.8297c0,0-3.0171,0.0664-3.8128-4.741c0,0-1.9923-12.6649-2.2877-14.19    c-0.2952-1.5251-2.3832-9.8986-5.6987-12.1862C11.18894,8.61893,11.34654,8.12033,11.58054,7.70473z" style="fill:#F43735;"/><path d="M36.40314,7.70473c0,0-4.8405,4.5394-6.4319,13.0283c0,0-1.8566,11.7047-1.956,12.7325    c0,0-1.5583,6.1998-2.9177,6.8297c0,0,3.0171,0.0664,3.8128-4.741c0,0,1.9923-12.6649,2.2877-14.19    c0.2952-1.5251,2.3822-9.9029,5.6977-12.1905C36.77954,8.66723,36.60754,8.18023,36.40314,7.70473z" style="fill:#F43735;"/><g><g><path d="M23.95124,29.61173c-0.0469,0-0.0937-0.0088-0.1387-0.0264l-0.9716-0.3867      c-0.1924-0.0767-0.2862-0.2949-0.21-0.4873c0.0772-0.1924,0.292-0.2866,0.4873-0.21l0.834,0.3321l0.7666-0.3028      c0.1914-0.0761,0.4111,0.0186,0.4863,0.211c0.0762,0.1924-0.0185,0.4106-0.2109,0.4863l-0.9053,0.3574      C24.04504,29.60293,23.99814,29.61173,23.95124,29.61173z" style="fill:#D6B6A1;"/></g><polygon points="21.86765,30.95173 23.36914,30.46643 23.91825,30.70913 24.42964,30.46643      25.84974,30.95173 23.85864,31.09553    " style="fill:#D6B6A1;"/><path d="M22.88614,31.45503c0,0,1.0942,0.5573,1.8311,0     C24.71725,31.45503,23.96684,32.60543,22.88614,31.45503z" style="fill:#D6B6A1;"/></g><circle cx="23.95154" cy="22.60355" r="0.87028" style="fill:#72502A;"/></g></g></svg>