<svg xmlns="http://www.w3.org/2000/svg" viewBox="0 0 48 48"><path fill="#f43735" d="M11.26 20.124s1.646-10.078 12.495-9.897c10.964.184 13.008 9.449 13.008 9.449v12.719l-5.646 4.772-1.031 4.016H17.914l-1.448-4.016-4.499-3.735-.707-12.787"/><path fill="#707070" d="M18.36 36.982l-5.882-4.4s-1.663-10.792-1.339-21.097c0 0 2.19-3.489-.365-4.666 0 0-2.272-.243-1.055 4.544l.284 12.861s-3.164 3.733 1.055 8.439l.316 2.19 6.54 6.33.447-4.2zM29.64 36.982l5.882-4.4s1.663-10.792 1.339-21.097c0 0-2.191-3.489.365-4.666 0 0 2.272-.243 1.055 4.544l-.284 12.861s3.164 3.733-1.055 8.439l-.316 2.19-6.54 6.33-.447-4.2z"/><path fill="#d32424" d="M23.919 34.154a.384.384 0 0 1-.157-.035l-1.501-.693a.376.376 0 0 1 .314-.682l1.352.625 1.511-.63a.374.374 0 1 1 .288.691l-1.663.694a.368.368 0 0 1-.144.03zM21.673 26.19c-.03-.386-.344-.779-.494-1.179-.15-.408-.354-.8-.61-1.158-.5-.729-1.022-1.358-1.85-1.747.87.272 1.708.753 2.35 1.455.325.346.605.739.83 1.163.228.43.406.86.519 1.378.015.07-.146.178-.168.242-.042.12.013.178-.12.207a.377.377 0 0 1-.455-.338l-.002-.024zM26.328 26.19c.03-.386.344-.703.494-1.104.15-.408.354-.8.61-1.158.5-.728 1.022-1.433 1.85-1.822-.87.272-1.708.753-2.35 1.455a5.379 5.379 0 0 0-.83 1.163 5.28 5.28 0 0 0-.519 1.378c-.015.07.146.178.168.242.042.12-.013.178.12.207a.377.377 0 0 0 .455-.338l.002-.024z"/><path fill="#565555" d="M10.003 24.224l.27 4.375-.805-3.511s.158-.42.535-.864zM37.997 24.224l-.14 3.843.67-2.988a3.86 3.86 0 0 0-.53-.855z"/><path fill="#fff" d="M13.938 22.317s6.451.325 8.48 3.774c0 0-.893 5.436-6.573 3.367 0 0-4.787-1.866-1.907-7.14zM34.062 22.317s-6.451.325-8.48 3.774c0 0 .893 5.436 6.573 3.367 0 0 4.787-1.866 1.907-7.14z"/></svg>