<?xml version="1.0" ?><svg style="enable-background:new 0 0 48 48;" version="1.1" viewBox="0 0 48 48" xml:space="preserve" xmlns="http://www.w3.org/2000/svg" xmlns:xlink="http://www.w3.org/1999/xlink"><g id="Icons"><g><polygon points="16.8376,35.014 18.0646,37.3417 30.3283,37.3417 31.4448,34.7523   " style="fill:#CCCCCC;"/><g><g><polygon points="21.7883,37.3389 20.9283,37.3389 19.6483,34.9689 20.4883,34.9489     " style="fill:#B5B5B5;"/></g><g><polygon points="28.7983,34.7989 27.4383,37.3389 26.5883,37.3389 27.9483,34.8089     " style="fill:#B5B5B5;"/></g></g><g><rect height="13.4061" style="fill:#DBDBDB;" transform="matrix(-1 -1.224647e-16 1.224647e-16 -1 69.6961 62.5959)" width="3.0759" x="33.3101" y="24.5949"/><path d="M37.0729,17.8089v6.98c0,0.43-0.36,0.79-0.8,0.79h-3.46c-0.44,0-0.79-0.36-0.79-0.79v-6.98     c0-0.44,0.35-0.79,0.79-0.79h3.46C36.7129,17.0189,37.0729,17.3689,37.0729,17.8089z" style="fill:#E6E6E6;"/><g><path d="M34.8629,17.0189v3.63c0,0.21-0.17,0.38-0.37,0.38c-0.21,0-0.38-0.17-0.38-0.38v-3.63H34.8629z" style="fill:#DBDBDB;"/></g><polyline points="36.386,37.0183 38.1128,41.446 31.5833,41.446 33.3101,37.0183    " style="fill:#F4F4F4;"/></g><g><rect height="14.2307" style="fill:#DBDBDB;" width="3.0759" x="11.6139" y="24.1826"/><path d="M15.9745,17.8089v6.98c0,0.43-0.3501,0.79-0.7901,0.79h-3.4599c-0.44,0-0.7901-0.36-0.7901-0.79     v-6.98c0-0.44,0.3501-0.79,0.7901-0.79h3.4599C15.6244,17.0189,15.9745,17.3689,15.9745,17.8089z" style="fill:#E6E6E6;"/><g><path d="M13.8845,17.0189v3.63c0,0.21-0.17,0.38-0.37,0.38c-0.21,0-0.38-0.17-0.38-0.38v-3.63H13.8845z" style="fill:#DBDBDB;"/></g><polyline points="11.6139,37.0183 9.8872,41.446 16.4165,41.446 14.6898,37.0183    " style="fill:#F4F4F4;"/></g><path d="M15.9021,13.7329c0-4.4648,3.6157-8.0905,8.0905-8.0905c4.4648,0,8.1157,3.6257,8.1157,8.0905" style="fill:#F4F4F4;"/><circle cx="23.59662" cy="9.6876" r="1.49843" style="fill:#F43735;"/><path d="M29.7751,35.4669H18.21c-1.2746,0-2.3079-1.0333-2.3079-2.3081v-17.487h16.1811v17.487    C32.0832,34.4336,31.0498,35.4669,29.7751,35.4669z" style="fill:#F4F4F4;"/><rect height="5.1581" style="fill:#50ABFE;" width="2.6768" x="22.4183" y="25.5693"/><rect height="1.9389" style="fill:#50ABFE;" width="16.2062" x="15.9021" y="13.7329"/><g><rect height="2.2406" style="fill:#50ABFE;" width="10.7759" x="18.6047" y="17.6455"/><rect height="2.2405" style="fill:#50ABFE;" width="10.7759" x="18.6047" y="21.2895"/></g><circle cx="27.1708" cy="11.7195" r="0.8049" style="fill:#CCCCCC;"/><circle cx="23.75668" cy="33.23948" r="0.92505" style="fill:#CCCCCC;"/><g><g><path d="M19.964,27.3002h-2.0352c-0.207,0-0.375-0.1679-0.375-0.375c0-0.207,0.168-0.375,0.375-0.375      h2.0352c0.207,0,0.375,0.168,0.375,0.375C20.339,27.1323,20.171,27.3002,19.964,27.3002z" style="fill:#DBDBDB;"/></g><g><path d="M19.964,29.2338h-2.0352c-0.207,0-0.375-0.1679-0.375-0.375c0-0.207,0.168-0.375,0.375-0.375      h2.0352c0.207,0,0.375,0.168,0.375,0.375C20.339,29.0659,20.171,29.2338,19.964,29.2338z" style="fill:#DBDBDB;"/></g><g><path d="M19.964,31.1669h-2.0352c-0.207,0-0.375-0.1679-0.375-0.375c0-0.207,0.168-0.375,0.375-0.375      h2.0352c0.207,0,0.375,0.168,0.375,0.375C20.339,30.999,20.171,31.1669,19.964,31.1669z" style="fill:#DBDBDB;"/></g></g></g></g></svg>