<?xml version="1.0" ?><svg id="svg8" style="enable-background:new 0 0 48 48;" version="1.1" viewBox="0 0 48 48" xml:space="preserve" xmlns="http://www.w3.org/2000/svg" xmlns:cc="http://creativecommons.org/ns#" xmlns:dc="http://purl.org/dc/elements/1.1/" xmlns:inkscape="http://www.inkscape.org/namespaces/inkscape" xmlns:rdf="http://www.w3.org/1999/02/22-rdf-syntax-ns#" xmlns:sodipodi="http://sodipodi.sourceforge.net/DTD/sodipodi-0.dtd" xmlns:svg="http://www.w3.org/2000/svg"><style id="style4805" type="text/css">
	.st0{fill:none;stroke:#000000;stroke-width:2;stroke-linecap:round;stroke-linejoin:round;}
	.st1{fill:none;stroke:#000000;stroke-width:2;}
	.st2{fill:none;stroke:#000000;stroke-linecap:round;}
	.st3{stroke:#000000;stroke-linecap:round;stroke-linejoin:round;}
	.st4{fill:none;stroke:#000000;stroke-linecap:round;stroke-linejoin:round;}
	.st5{fill:#FFFFFF;stroke:#000000;stroke-linecap:round;stroke-linejoin:round;}
</style><defs id="defs4811"/><g id="g4933"><path class="st1" d="M 6,27 C 6,27 3,27 3,24 3,21 6,21 6,21" id="path4993" style="fill:#ffccaa;stroke:#000000;stroke-width:2"/><path class="st1" d="m 42,27 c 0,0 3,0 3,-3 0,-3 -3,-3 -3,-3" id="path4995" style="fill:#ffccaa;stroke:#000000;stroke-width:2"/><path class="st0" d="M6,13.7v20.9   c0,4.1,3.3,7.3,7.4,7.3h21.2c4.1,0,7.4-3.3,7.4-7.3V13.7C42,9.7,39.1,5,35,5l1,3c0,0-2-3-13-3l1,3c0,0-5-3-13-3l3,3   C8.6,8.1,6,9,6,13.7z" id="rect4989" style="fill:#5e2600;fill-opacity:1"/><path class="st4" d="M24,15c0,0-2.6-3-9.6-3H9l1,2   c0,0-1,11,0,15l2,3c0,0,2-3,4-3s8,0,8,0" id="path2630" style="fill:#ffccaa;fill-opacity:1"/><path class="st4" d="M24,15c0,0,2.6-3,9.6-3H39l-1,2   c0,0,1,11,0,15l-2,3c0,0-2-3-4-3c-2,0-8,0-8,0" id="path2632" style="fill:#ffccaa;fill-opacity:1"/><path class="st2" d="M23.9,27c0,0,1.1,0,1.1-0.9   c0-1-1.8-1.3-1.8-1.3" id="path5036"/><path class="st2" d="M23,19c0,0,0,2,1,2c1,0,1-2,1-2" id="path5038"/><path class="st2" d="M26.6,21c0,0,3.7-1.9,7.4-2.9" id="path5040"/><path class="st2" d="M21.4,21c0,0-3.7-1.9-7.4-2.9" id="path5042"/><circle class="st3" cx="31" cy="21" id="path5044" r="1"/><circle class="st3" cx="17" cy="21" id="circle5046" r="1"/><g id="g1108" style="fill:#ffffff"><path class="st4" d="M24,31.8c0,0,3.2,0,5.5,0.8    c0,0,2.4,1.5,1.6,3c-0.8,1.5-3.2,2.3-7.1,2.3" id="path5020" style="fill:#ffffff"/><path class="st4" d="M24,31.8c0,0-3.2,0-5.5,0.8    c0,0-2.4,1.5-1.6,3c0.8,1.5,3.2,2.3,7.1,2.3" id="path5022" style="fill:#ffffff"/><path class="st5" d="M17,34c0,0,3,1,7,1s7-1,7-1" id="path2295" style="fill:#ffffff"/></g></g></svg>