<?xml version="1.0" ?><svg style="enable-background:new 0 0 48 48;" version="1.1" viewBox="0 0 48 48" xml:space="preserve" xmlns="http://www.w3.org/2000/svg" xmlns:xlink="http://www.w3.org/1999/xlink"><g id="Icons"><g><path d="M34.55446,39.0193c-7.06-0.48-7.81,2.45-7.81,2.45c-3.72,0.44-7.67-2.03-7.67-2.03l-4.67,0.5    c-2.47-2.5-4.01-10.71-4.01-10.71l2.02-1.17c-0.01-0.04-0.02-0.08-0.03-0.13c-0.07-0.26-0.12-0.55-0.16-0.85    c-0.25-2.47,0.66-6,0.88-6.79c0.03-0.11,0.05-0.17,0.05-0.17c0.49-0.26,0.83-0.65,1.06-1.1c0.84-1.6,0.3-3.94,0.3-3.94l2.72-2.41    c-2.45-3.59,1.18-6,1.18-6c0.53-0.43,1.45,0,1.45,0c0.16,1.1,0.51,1.8,0.95,2.23c0,0,0.01,0.01,0.01,0.02    c0.46,0.46,0.99,0.63,1.48,0.67h0.01c0.75,0.07,1.36-0.16,1.36-0.16c3.51-0.88,6.49,0.7,6.49,0.7c-0.09,1.39,0.58,2.88,1.02,3.7    c0.22,0.4,0.38,0.64,0.38,0.64l0.59,0.28c0.03,0.01,0.05,0.01,0.05,0.01l1.25,0.6c1.49,1.07,2.54,5.68,2.54,5.9    c0,0.18-0.43,3.23-0.57,4.19v0.01c-0.03,0.18-0.04,0.28-0.04,0.28c-0.03,0.56,0.16,1.1,0.43,1.57c0.04,0.05,0.07,0.09,0.1,0.13    s0.05,0.07,0.07,0.09c0.01,0.02,0.02,0.03,0.03,0.04c0.62,0.97,1.56,1.62,1.56,1.62    C37.96446,33.8293,34.55446,39.0193,34.55446,39.0193z" style="fill:#96592F;"/><g><path d="M19.98446,18.1893l-1.19,2.86c-0.54,1.84-5.06,5.73-6.41,6.88c-0.07-0.26-0.12-0.55-0.16-0.85     c1.95-1.66,5.45-4.86,5.87-6.28l1.2-2.9c0.08-0.19,0.3-0.28,0.49-0.2S20.06446,17.9993,19.98446,18.1893z" style="fill:#562E13;"/></g><g><path d="M28.31186,18.5906c-0.0547,0-0.1094-0.0118-0.1612-0.0362     c-1.4521-0.6924-7.0166-1.0576-7.0732-1.0615c-0.206-0.0127-0.3633-0.1914-0.3496-0.3984     c0.0137-0.2061,0.1611-0.378,0.3984-0.3497c0.2344,0.0147,5.7657,0.378,7.3467,1.1319c0.1875,0.0898,0.2666,0.3135,0.1777,0.5     C28.58626,18.5114,28.45146,18.5906,28.31186,18.5906z" style="fill:#562E13;"/></g><g><path d="M16.97446,18.2693c-0.48,0.63-2.77,1.59-3.87,2.02c0.03-0.11,0.05-0.17,0.05-0.17     c0.49-0.26,0.83-0.65,1.06-1.1c1.03-0.47,1.96-0.94,2.16-1.2c0.13-0.17,0.36-0.2,0.53-0.07     C17.06446,17.8693,17.09446,18.1093,16.97446,18.2693z" style="fill:#562E13;"/></g><g><path d="M17.76396,17.4939c-0.0888,0-0.1767-0.0313-0.248-0.0938     c-0.1553-0.1377-0.1699-0.375-0.0332-0.5293l1-1.1308c0.1377-0.1573,0.375-0.17,0.5293-0.0332     c0.1553,0.1377,0.1699,0.375,0.0332,0.5293l-1,1.1308C17.97106,17.4509,17.86746,17.4939,17.76396,17.4939z" style="fill:#562E13;"/></g><g><path d="M32.15446,14.7493c-0.52-0.09-4.66-0.8-6.18-0.68c-0.2,0.02-0.39-0.13-0.41-0.34     c-0.01-0.21,0.14-0.39,0.35-0.4c1.18-0.11,3.76,0.26,5.27,0.5c0.22,0.4,0.38,0.64,0.38,0.64L32.15446,14.7493z" style="fill:#562E13;"/></g><g><path d="M35.81446,27.3093c-0.68-0.91-2.84-3.93-3.2-5.76c-0.04-0.2,0.1-0.4,0.3-0.44     c0.21-0.04,0.4,0.09,0.44,0.3c0.22,1.11,1.23,2.79,2.07,4.04v0.01c-0.03,0.18-0.04,0.28-0.04,0.28     C35.35446,26.2993,35.54446,26.8393,35.81446,27.3093z" style="fill:#562E13;"/></g><path d="M30.44446,29.4793c-0.03-0.02-0.07-0.04-0.13-0.05c-0.02-0.01-0.05-0.01-0.08-0.02    c-0.02-0.01-0.03-0.01-0.05-0.01c-0.03-0.01-0.06-0.01-0.09-0.02c-0.3-0.05-0.78-0.05-1.38,0.23c-0.07,0.04-0.14,0.07-0.21,0.11    c-0.09,0.04-0.19,0.1-0.29,0.17c-0.61,0.4-1.32,1.06-2.08,2.17c0,0,3.56,3.29,4.36-2.56    C30.49446,29.4993,30.47446,29.4893,30.44446,29.4793z M22.22446,31.2893c-0.09-0.12-0.18-0.23-0.28-0.33    c-0.09-0.11-0.18-0.2-0.27-0.28c-0.08-0.09-0.18-0.18-0.26-0.26c-0.17-0.16-0.34-0.29-0.5-0.41c-0.16-0.12-0.31-0.21-0.46-0.29    c-0.08-0.04-0.15-0.08-0.23-0.11c-0.14-0.07-0.27-0.12-0.4-0.15c-0.13-0.04-0.25-0.06-0.36-0.08c-0.12-0.02-0.22-0.03-0.32-0.03    c-0.08,0.01-0.16,0.01-0.22,0.03c-0.16,0.01-0.29,0.04-0.37,0.08c-0.02,0-0.04,0.01-0.05,0.02c-0.01,0-0.02,0-0.02,0.01    c-0.02,0.01-0.03,0.01-0.03,0.01c0.79,5.85,4.35,2.56,4.35,2.56C22.60446,31.7693,22.41446,31.5193,22.22446,31.2893z     M32.71446,28.5993c-0.08-0.41-0.19-0.53-0.19-0.53l-6.28-5.72l-0.11-0.1c0,0-0.42-0.08-1.06-0.13c-0.76-0.07-1.82-0.08-2.84,0.16    h-0.01c-0.49,0.12-0.96,0.29-1.39,0.55h-0.01c-0.25,0.14-0.49,0.31-0.7,0.52c0,0-3.2,4.43-3.93,6c0,0-1.2,4.2,0.81,6.29    c0.02,0.04,0.05,0.07,0.08,0.11c0.16,0.15,0.34,0.29,0.54,0.42c0,0,0.57,0.28,1.38,0.57c0.01,0.02,0.01,0.02,0.02,0.01    c1.24,0.48,3.02,1,4.09,0.67l1.46,1.74l1.25-1.4c0,0,6-0.04,6.7-4.48c0.19-1.2,0.28-2.15,0.3-2.87v-0.01    C32.85446,29.5093,32.79446,28.9493,32.71446,28.5993z" style="fill:#562E13;"/><g><path d="M20.14386,24.6452c-0.083,0-0.166-0.0273-0.2353-0.083     c-0.1612-0.1308-0.1866-0.3662-0.0567-0.5273l2.5723-3.1846c0.1308-0.1611,0.3662-0.1855,0.5273-0.0566     c0.1612,0.1308,0.1866,0.3662,0.0567,0.5273l-2.5723,3.1846C20.36166,24.5974,20.25326,24.6452,20.14386,24.6452z" style="fill:#562E13;"/></g><g><path d="M27.50126,24.8161c-0.1074,0-0.2138-0.0459-0.2881-0.1347l-2.7939-3.3555     c-0.1328-0.1592-0.1113-0.3955,0.0479-0.5283c0.1582-0.1338,0.3955-0.1123,0.5283,0.0478l2.7939,3.3555     c0.1328,0.1592,0.1113,0.3955-0.0478,0.5283C27.67126,24.7878,27.58626,24.8161,27.50126,24.8161z" style="fill:#562E13;"/></g><g><path d="M21.06866,38.5827c-0.0273,0-0.0556-0.0029-0.083-0.0097     c-3.2832-0.7471-4.6445-4.1074-4.7012-4.25c-0.0761-0.1924,0.0186-0.4102,0.211-0.4864c0.1914-0.0732,0.4101,0.0186,0.4863,0.21     c0.0127,0.0322,1.2783,3.1377,4.1699,3.7959c0.2022,0.0459,0.3282,0.2461,0.2823,0.4482     C21.39486,38.4646,21.24056,38.5827,21.06866,38.5827z" style="fill:#562E13;"/></g><g><path d="M33.45446,34.5603c-0.0391,0-0.0782-0.0059-0.1172-0.0186     c-0.1963-0.0644-0.3037-0.2763-0.2393-0.4736c0.9131-2.7774-1.3994-5.5977-1.4228-5.626     c-0.1328-0.1592-0.1114-0.3955,0.0478-0.5283c0.1592-0.1338,0.3945-0.1113,0.5283,0.0478     c0.1065,0.128,2.6006,3.1729,1.5596,6.3409C33.75906,34.4607,33.61166,34.5603,33.45446,34.5603z" style="fill:#562E13;"/></g><g><path d="M31.34996,37.5085c-0.1592,0-0.3067-0.1015-0.3575-0.2617     c-0.0625-0.1973,0.0469-0.4082,0.2442-0.4707c0.3789-0.1201,0.998-0.8145,1.2998-1.2236     c0.123-0.1661,0.3564-0.2032,0.5244-0.0791c0.166,0.123,0.2022,0.3574,0.0791,0.5244c-0.0937,0.1279-0.9434,1.2607-1.6768,1.4931     C31.42516,37.5027,31.38706,37.5085,31.34996,37.5085z" style="fill:#562E13;"/></g><g><path d="M24.25036,13.9665c-0.0098,0-0.0196,0-0.0293-0.0009l-0.958-0.0762     c-0.2071-0.0166-0.3614-0.1973-0.3448-0.4033c0.0166-0.2061,0.2012-0.3643,0.4033-0.3448l0.9581,0.0762     c0.207,0.0166,0.3613,0.1973,0.3447,0.4033C24.60876,13.8171,24.44466,13.9665,24.25036,13.9665z" style="fill:#562E13;"/></g><g><path d="M24.76446,10.7093c0.03,0.21-0.12,0.4-0.32,0.43c-0.14,0.02-0.28,0.03-0.41,0.03     c-1.69,0-2.81-1.58-3.21-2.25c0.46,0.46,0.99,0.63,1.48,0.67h0.01c0.52,0.51,1.21,0.92,2.02,0.8     C24.54446,10.3593,24.73446,10.5093,24.76446,10.7093z" style="fill:#562E13;"/></g><path d="M22.80436,32.0565c0,0-3.56,3.29-4.35-2.56C18.45436,29.4965,20.31436,28.4365,22.80436,32.0565z" style="fill:#FFD24A;"/><path d="M30.49436,29.4965c-0.8,5.85-4.36,2.56-4.36,2.56    C28.63436,28.4365,30.49436,29.4965,30.49436,29.4965z" style="fill:#FFD24A;"/></g></g></svg>