<?xml version="1.0" ?><svg id="svg8" style="enable-background:new 0 0 48 48;" version="1.1" viewBox="0 0 48 48" xml:space="preserve" xmlns="http://www.w3.org/2000/svg" xmlns:cc="http://creativecommons.org/ns#" xmlns:dc="http://purl.org/dc/elements/1.1/" xmlns:inkscape="http://www.inkscape.org/namespaces/inkscape" xmlns:rdf="http://www.w3.org/1999/02/22-rdf-syntax-ns#" xmlns:sodipodi="http://sodipodi.sourceforge.net/DTD/sodipodi-0.dtd" xmlns:svg="http://www.w3.org/2000/svg"><style id="style4834" type="text/css">
	.st0{fill:none;stroke:#000000;stroke-width:2;stroke-linejoin:round;}
	.st1{fill:none;stroke:#000000;stroke-width:2;stroke-linecap:round;stroke-linejoin:round;}
	.st2{fill:none;stroke:#000000;stroke-linecap:round;stroke-linejoin:round;}
</style><defs id="defs4840"/><g id="g1224" transform="translate(0,4.2333334)"><path class="st0" d="M41,7.8c3.8,7-0.9,25-0.9,25   s-4.7,6-16,6H24c-11.3,0-16-6-16-6s-4.7-18-0.9-25C14.1-1.7,37,1.2,41,7.8z" id="path1190" style="fill:#ff0000"/><ellipse class="st0" cx="24" cy="21.8" id="ellipse1192" rx="1.7" ry="1.6"/><g id="g1200" transform="translate(0.03077624)"/><g id="g1287" transform="matrix(1,0,0,1.1592654,-0.08615209,0.04799687)"><path class="st1" d="M21.4,18.8c0,0-4.9-7.9-12-9.7    c-1.3,4.4-0.2,8.2,1.3,10.4C13.7,20.1,17.7,20.2,21.4,18.8z" id="path1281" style="fill:#ffffff"/><path class="st1" d="M26.8,18.8c0,0,4.9-7.9,12-9.7    c1.3,4.4,0.2,8.2-1.3,10.4C34.5,20.1,30.5,20.2,26.8,18.8z" id="path1283" style="fill:#ffffff"/></g><g id="g1327"><path class="st2" d="M24,19.8v-18" id="path1289"/><path class="st2" d="M11,4.8c0,0,6.9,4.9,11.7,15.7" id="path1291"/><path class="st2" d="M22.9,23.5c0,0-4,8.2-4.5,14.9" id="path1295"/><path class="st2" d="M20.8,21.9c0,0-6.9,3.1-12.5,11.2" id="path1297"/><path class="st2" d="M8.8,19.3l-2.6,0.1" id="path1299"/><path class="st2" d="M9.8,22.1c0,0,2.4,2.6,1.6,7.1    c0,0,4.6,1.1,8.2,3.6" id="path1310"/><path class="st2" d="M21.6,26.2c0,0-1.4-1.8-4.2-2.2" id="path1312"/><path class="st2" d="M24,13.3c0,0-0.3,2.2-4.6,1.1L18,16.2" id="path1314"/><path class="st2" d="M23.8,6.9c0,0-2.7,1.7-8.3,1.7c0,0-0.7,2.2-2.9,3.4" id="path1316"/></g><g id="g1347" transform="matrix(-1,0,0,1,12.707213,0)"><path class="st2" d="M-24.3,4.8c0,0,6.9,4.9,11.7,15.7" id="path1331"/><path class="st2" d="M-12.4,23.5c0,0-4,8.2-4.5,14.9" id="path1333"/><path class="st2" d="M-14.6,21.9c0,0-6.9,3.1-12.5,11.2" id="path1335"/><path class="st2" d="M-26.6,19.3l-2.6,0.1" id="path1337"/><path class="st2" d="M-25.5,22.1c0,0,2.4,2.6,1.6,7.1    c0,0,4.6,1.1,8.2,3.6" id="path1339"/><path class="st2" d="M-13.7,26.2c0,0-1.4-1.8-4.2-2.2" id="path1341"/><path class="st2" d="M-11.3,13.3c0,0-0.3,2.2-4.6,1.1l-1.5,1.7" id="path1343"/><path class="st2" d="M-11.5,6.9c0,0-2.7,1.7-8.3,1.7c0,0-0.7,2.2-2.9,3.4" id="path1345"/></g><path class="st2" d="M21.6,26.2c0,0,2.6-1.5,4.9,0.1" id="path1349"/><path class="st2" d="M19.6,32.8c0,0,4-1.8,8.8,0" id="path1351"/></g></svg>