<?xml version="1.0" ?><svg style="enable-background:new 0 0 48 48;" version="1.1" viewBox="0 0 48 48" xml:space="preserve" xmlns="http://www.w3.org/2000/svg" xmlns:xlink="http://www.w3.org/1999/xlink"><g id="Icons"><g><g><path d="M39.85752,28.24603c0,0,1.4218-1.9229,0.8973-3.3015l-0.7592-1.965l-0.9155-1.2728l-0.9602-1.8324     c0,0-1.5685-2.1711-3.2154-5.2461c-0.4873-0.9098-1.7324-2.2227-2.3173-2.9276c-1.3918-1.6773-3.3269-2.6324-4.7987-3.1499     c-2.4912-0.8759-6.5765-0.9099-9.7585,0.99c0,0-1.3556,0.7855-2.5048,2.1599c-0.6895,0.8247-1.0951,1.7986-1.6759,3.1179     c-1.5489,3.518-3.7083,4.6776-3.7083,4.6776l-1.3174,2.1213l-0.4689,1.2951c0,0-1.0223,1.8523-0.9825,3.1038     c0.0399,1.2516,0.9099,2.9385,2.1441,4.5556l0.6671,0.7692c0,0-1.6303-1.7704-2.3795-2.6578     c-0.7492-0.8873-2.6753,0.1701-2.3835,1.0665c0.2919,0.8964-1.6014,0.6053-0.9751,2.0404c0.6263,1.4352,6.9,5.0656,9.2019,5.9098     c2.3018,0.8443,8.1026,3.231,14.8649,1.9628s9.1685-3.4783,10.4037-3.9012c1.2353-0.423,4.4611-2.7313,4.7205-3.8367     c0.2595-1.1054-0.6426-2.4971-0.991-2.1751c-0.3485,0.322-0.7585-1.9332-1.7564-0.8056     C39.89102,30.07183,39.85752,28.24603,39.85752,28.24603z" style="fill:#E9C996;"/><path d="M15.52522,11.70063c0,0-3.4366,6.0603-3.959,8.7403l-1.504,1.3614l-0.0397,1.4207     c0,0-1.9962,1.1941-2.0512,2.4013c-0.0551,1.2072,0.3008,3.7972,1.9922,5.3845c0,0-3.644-1.1446-3.5998-4.6436     c0.0443-3.4991,2.3481-7.6494,3.5244-9.3358C11.07482,15.32813,15.40652,11.58483,15.52522,11.70063z" style="fill:#767C60;"/><path d="M19.16132,20.85203l3.1405-2.1965c0,0,0.5968-0.0656,0.7279,0.3934     c0,0,0.2296,0.7212-0.295,0.8851l-3.2783,1.1147C19.45642,21.04873,18.60442,21.24143,19.16132,20.85203z" style="fill:#303030;"/><path d="M29.07142,20.85203l-3.1405-2.1965c0,0-0.5968-0.0656-0.7279,0.3934     c0,0-0.2296,0.7212,0.2949,0.8851l3.2784,1.1147C28.77632,21.04873,29.62832,21.24143,29.07142,20.85203z" style="fill:#303030;"/><path d="M35.32752,25.24503c0,0-2.7538-0.2295-5.6861-1.8687c-2.7519-1.5383-5.3934-1.5752-5.7082-1.574     c-0.3146-0.0012-2.9562,0.0357-5.7081,1.574c-2.9323,1.6392-5.6861,1.8687-5.6861,1.8687s-0.459,0.2295,0.3279,0.2622     c0.7867,0.0329,3.9824,0,6.1055-1.049c1.9944-0.9854,4.6464-1.0741,4.9608-1.0812c0.3146,0.0071,2.9665,0.0958,4.9609,1.0812     c2.123,1.049,5.3187,1.0819,6.1055,1.049C35.78652,25.47453,35.32752,25.24503,35.32752,25.24503z" style="fill:#AA8757;"/><g><path d="M26.45762,29.83053c-1.1211,0-2.1299-0.4009-2.54-0.5884      c-2.1729,1.1832-4.6787-0.1416-5.5176-0.5849c-0.7314-0.3853-1.1924-0.3233-1.2129-0.3203      c-0.2031,0.0219-0.3945-0.1089-0.4267-0.3125c-0.0313-0.2027,0.1025-0.3931,0.3046-0.4278      c0.0713-0.0122,0.7266-0.1069,1.625,0.3653c0.9102,0.4814,3.17,1.6728,5.0157,0.5371c0.1123-0.0689,0.2539-0.0733,0.3711-0.0127      c0.0195,0.0102,1.9824,1.022,3.5654,0.3784c1.7021-0.6943,4.8037-1.5444,5.9639-1.2734      c0.2011,0.0478,0.3261,0.2495,0.2793,0.4511c-0.0479,0.2022-0.2471,0.3233-0.4512,0.2793      c-0.8652-0.2041-3.7227,0.5093-5.5088,1.2373C27.44102,29.75633,26.93912,29.83053,26.45762,29.83053z" style="fill:#CEAC7A;"/></g><g><g><path d="M21.55422,15.83823c0.001-0.0132,0.0518-1.3276-0.7773-2.2114       c-0.5029-0.5357-1.2373-0.8155-2.1836-0.8325c-0.207-0.004-0.3721-0.1749-0.3682-0.3819       c0.0039-0.206,0.1533-0.3721,0.3819-0.3681c1.1601,0.0209,2.0761,0.3828,2.7226,1.0751       c1.0449,1.1207,0.9761,2.6712,0.9722,2.7371c-0.0008,0.016-0.2699-0.0161-0.2826-0.0036       C21.87342,15.99643,21.54542,16.04473,21.55422,15.83823z" style="fill:#CEAC7A;"/></g><g><path d="M26.02372,15.96423l-0.15-0.0157c-0.1666-0.0003-0.1792,0.0702-0.2281-0.0796       c-0.0118-0.0364-0.3781,0.0283-0.3781-0.012c0-0.0337,0.0332-3.3565,3.2832-3.8091c0.2158-0.0293,0.3955,0.1157,0.4229,0.3198       c0.0293,0.2051-0.1143,0.3946-0.3194,0.4234c-2.5967,0.3613-2.6367,2.9555-2.6367,3.0659       C26.01652,16.06343,26.22982,15.96423,26.02372,15.96423z" style="fill:#CEAC7A;"/></g><g><path d="M31.41562,13.50733c-0.0791,0-0.1572-0.0244-0.2256-0.0752       c-0.5322-0.3999-1.4453-0.648-1.4541-0.6504c-0.2002-0.0537-0.3193-0.2593-0.2656-0.4595       c0.0537-0.1997,0.2617-0.3178,0.459-0.2651c0.043,0.0117,1.0615,0.2871,1.7119,0.7754       c0.1651,0.1245,0.1983,0.3594,0.0742,0.5249C31.64222,13.45553,31.52892,13.50733,31.41562,13.50733z" style="fill:#CEAC7A;"/></g></g><g><path d="M24.53872,26.31443c-1.7569,0-3.4512-0.2021-3.5576-0.2153      c-0.2061-0.0249-0.3526-0.2114-0.3272-0.4175c0.0244-0.2051,0.2168-0.354,0.417-0.3267      c0.0391,0.0039,3.8779,0.4615,5.8897,0.0064c0.2041-0.0469,0.4023,0.0815,0.4492,0.2827      c0.0449,0.2021-0.0811,0.4028-0.2832,0.4487C26.39222,26.25923,25.45662,26.31443,24.53872,26.31443z" style="fill:#CEAC7A;"/></g><g><g><path d="M41.72362,28.24573c-0.1,0.23-0.22,0.46-0.36,0.67c-2.55,4.02-10.68,5.46-11.09,5.54       c-0.02,0-0.04,0-0.06,0c-0.18,0-0.34-0.13-0.37-0.31c-0.03-0.2,0.1-0.4,0.31-0.43c0.07-0.01,5.03-0.89,8.33-3.06       c1.71-1.12,2.98-2.59,2.88-4.47c-0.01-0.21,0.15-0.38,0.36-0.39l-0.4978,2.354L41.72362,28.24573z" style="fill:#CEAC7A;"/></g><g><path d="M20.14222,34.45803c-0.0088,0-0.0176-0.0005-0.0264-0.001       c-5.6972-0.4004-9.9355-2.6895-10.1123-2.7866c-1.623-0.7036-2.8086-1.7036-3.4931-2.958       c-0.0997-0.1817-0.0323-0.4097,0.1494-0.5088c0.1787-0.0991,0.4092-0.0332,0.5088,0.1494       c0.6035,1.1045,1.6679,1.9941,3.164,2.6445c0.0723,0.0376,4.3096,2.3228,9.836,2.7114       c0.206,0.0147,0.3623,0.1939,0.3476,0.4004C20.50252,34.30713,20.33752,34.45803,20.14222,34.45803z" style="fill:#CEAC7A;"/></g><g><path d="M18.71352,37.12303c-0.0215,0-0.044-0.0019-0.0664-0.0059       c-3.9756-0.7104-5.709-1.5644-7.7158-2.5532c-0.4463-0.2197-0.9073-0.4468-1.4112-0.6816       c-2.8125-1.3081-4.5683-2.9414-4.4736-4.1612c0.0947-1.2333,1.6221-1.5869,1.6875-1.6015       c0.2041-0.0435,0.4014,0.083,0.4463,0.2837c0.0459,0.2016-0.0811,0.4023-0.2832,0.4482       c-0.0098,0.0025-1.0508,0.2481-1.1026,0.9273c-0.0556,0.7221,1.3418,2.1674,4.042,3.4238       c0.5098,0.2368,0.9756,0.4663,1.4258,0.6885c1.9561,0.9638,3.6455,1.7964,7.5176,2.4878       c0.2031,0.0366,0.3389,0.2314,0.3027,0.435C19.05042,36.99563,18.89222,37.12303,18.71352,37.12303z" style="fill:#CEAC7A;"/></g><g><path d="M26.45272,37.56983c-0.1953,0-0.3593-0.1504-0.374-0.3477       c-0.0146-0.2065,0.1406-0.3862,0.3467-0.4013c5.1836-0.3775,8.0527-1.7867,10.584-3.0298       c0.4179-0.2051,0.8213-0.4033,1.2197-0.5884c2.7002-1.2564,4.0977-2.7017,4.042-3.4238       c-0.0518-0.6748-1.0918-0.9248-1.1016-0.9268c-0.2021-0.0449-0.33-0.2456-0.2851-0.4477       c0.0449-0.2017,0.2422-0.3252,0.4472-0.2847c0.0655,0.0146,1.5928,0.3682,1.6875,1.6015       c0.0948,1.2198-1.6611,2.8531-4.4736,4.1612c-0.3935,0.1831-0.792,0.3789-1.2051,0.582       c-2.4648,1.21-5.5312,2.7163-10.8603,3.1045C26.47032,37.56933,26.46152,37.56983,26.45272,37.56983z" style="fill:#CEAC7A;"/></g><g><path d="M23.62852,34.81983c-0.206,0-0.374-0.166-0.375-0.3726c-0.001-0.207,0.1651-0.376,0.3721-0.3774       c0.0234,0,2.3271-0.0181,3.9863-0.1792c0.2012-0.0269,0.3887,0.1308,0.4092,0.3369c0.0205,0.2061-0.1309,0.3892-0.3369,0.4092       c-1.6924,0.165-4.0293,0.1831-4.0527,0.1831C23.63052,34.81983,23.62952,34.81983,23.62852,34.81983z" style="fill:#CEAC7A;"/></g><g><path d="M22.60802,37.60883c-1.0693,0-1.874-0.2006-1.916-0.2114       c-0.2002-0.0508-0.3213-0.2544-0.2705-0.4551c0.0508-0.2002,0.2558-0.3183,0.4551-0.2719       c0.0117,0.0029,1.1601,0.2876,2.4726,0.1513c0.2031-0.0219,0.3897,0.1285,0.4112,0.3345       c0.0214,0.2061-0.1289,0.3901-0.335,0.4116C23.14222,37.59713,22.86782,37.60883,22.60802,37.60883z" style="fill:#CEAC7A;"/></g></g><path d="M32.58722,11.70063c0,0,3.4365,6.0603,3.959,8.7403l1.5039,1.3614l0.0397,1.4207     c0,0,1.9963,1.1941,2.0513,2.4013c0.055,1.2072-0.3008,3.7972-1.9923,5.3845c0,0,3.6441-1.1446,3.5998-4.6436     c-0.0442-3.4991-2.7995-7.4643-3.9758-9.1507C36.58612,15.51323,32.70592,11.58483,32.58722,11.70063z" style="fill:#767C60;"/><g><path d="M14.72782,15.85653c0,0,3.1979-3.5766,7.574,0      C22.30182,15.85653,18.51482,19.55943,14.72782,15.85653z" style="fill:#C78D12;"/><g><ellipse cx="18.43682" cy="15.88455" rx="1.9806" ry="1.59755" style="fill:#F4AA27;"/><path d="M18.39212,14.40903c0,0-0.9179,1.6768,0,2.9512       C18.39212,17.36023,19.67072,16.04873,18.39212,14.40903z" style="fill:#303030;"/></g></g><g><path d="M32.84142,15.85653c0,0-3.1979-3.5766-7.5739,0      C25.26752,15.85653,29.05442,19.55943,32.84142,15.85653z" style="fill:#C78D12;"/><g><ellipse cx="29.26032" cy="15.91083" rx="1.8886" ry="1.5838" style="fill:#F4AA27;"/><path d="M29.33672,14.47423c0,0,0.8753,1.6624,0,2.9257       C29.33672,17.39993,28.11752,16.09983,29.33672,14.47423z" style="fill:#303030;"/></g></g></g></g></g></svg>