<?xml version="1.0" ?><svg id="svg8" style="enable-background:new 0 0 48 48;" version="1.1" viewBox="0 0 48 48" xml:space="preserve" xmlns="http://www.w3.org/2000/svg" xmlns:cc="http://creativecommons.org/ns#" xmlns:dc="http://purl.org/dc/elements/1.1/" xmlns:inkscape="http://www.inkscape.org/namespaces/inkscape" xmlns:rdf="http://www.w3.org/1999/02/22-rdf-syntax-ns#" xmlns:sodipodi="http://sodipodi.sourceforge.net/DTD/sodipodi-0.dtd" xmlns:svg="http://www.w3.org/2000/svg"><style id="style4583" type="text/css">
	.st0{fill:none;stroke:#000000;stroke-width:2;stroke-linejoin:round;}
	.st1{fill:none;stroke:#000000;stroke-linejoin:round;}
	.st2{fill:none;stroke:#000000;stroke-linecap:round;}
</style><defs id="defs4589"/><g id="g1688" transform="translate(0,4.2333334)"><path class="st0" d="M6,14.8c-3,0-3,3-3,3l0.6,4.4   c0,0-0.2,1.6,1.8,1.6" id="path1662" style="fill:#000080"/><path class="st0" d="M41,7.8c3.8,7-0.9,25-0.9,25   s-4.7,6-16,6H24c-11.3,0-16-6-16-6s-4.7-18-0.9-25C14.1-1.7,37,1.2,41,7.8z" id="path1674" style="fill:#0000ff"/><g id="g1435" style="fill:#ffffff" transform="translate(0.03077624)"><path class="st1" d="M20.1,17.2c0,0,1.9,2.4-0.1,2.8    c-2,0.4-6.9,1-8.4-0.5c-1.4-1.5-0.4-4.3,1.9-5.2S20.1,17.2,20.1,17.2z" id="path1700" style="fill:#ffffff"/><path class="st1" d="M27.9,17.2c0,0-1.9,2.4,0.1,2.8    c2,0.4,6.9,1,8.4-0.5c1.4-1.5,0.4-4.3-1.9-5.2C32.1,13.3,27.9,17.2,27.9,17.2z" id="path1704" style="fill:#ffffff"/></g><g id="g943" style="fill:#ffffff" transform="translate(-0.10748685)"><path d="M23.7,4.8v2h1.2l0.5,2h-1.7v2h2.2l0.5,2.2h2.1l-1.8-7.4    c-0.1-0.4-0.5-0.8-1-0.8H23.7z" id="path916" style="fill:#ffffff"/><path d="M24.5,4.8v2h-1.2l-0.5,2h1.7v2h-2.2l-0.5,2.2h-2.1l1.8-7.4    c0.1-0.4,0.5-0.8,1-0.8L24.5,4.8z" id="path931" style="fill:#ffffff"/></g><g id="g939" style="fill:#ffccaa" transform="matrix(1.0013686,0,0,0.9581034,-0.0372619,0.26642007)"><path class="st1" d="m 20.4,36.6 c 0,0 -7.6,-1.5 -9.1,-3.6 C 9.9,31 9.4,23.5 9.4,23.5 L 13.2,25 H 23.75 34.7 l 3.8,-1.5 c 0,0 -0.5,7.5 -1.9,9.5 -1.5,2.1 -9.1,3.6 -9.1,3.6 z" id="path1702" style="fill:#ffccaa;stroke:#000000;stroke-linejoin:round"/></g><g id="g947" transform="translate(0.0484721)"><path class="st1" d="M5.8,13.6c0,0,4.5-3.8,10.1-4.8    c0,0-0.6-4.1-3.2-5.1" id="path1708"/><path class="st1" d="M42.2,13.6c0,0-4.5-3.8-10.1-4.8    c0,0,0.6-4.1,3.2-5.1" id="path951"/></g><path class="st2" d="M18,27.8l2,2h4h4l2-2" id="path949"/><path class="st0" d="M42,14.8c3,0,3,3,3,3l-0.6,4.4   c0,0,0.2,1.6-1.8,1.6" id="path1431" style="fill:#000080"/><ellipse class="st1" cx="24" cy="24.8" id="path1690" rx="3" ry="2" style="fill:#ffccaa"/><path class="st0" d="M19,38.8c0,0,0-5,5-5s5,5,5,5" id="path1692" style="fill:#000080"/><path class="st0" d="M41,7.8c3.8,7-0.9,25-0.9,25   s-4.7,6-16,6H24c-11.3,0-16-6-16-6s-4.7-18-0.9-25C14.1-1.7,37,1.2,41,7.8z" id="path11368" style="fill:none"/></g></svg>