<?xml version="1.0" ?><svg style="enable-background:new 0 0 48 48;" version="1.1" viewBox="0 0 48 48" xml:space="preserve" xmlns="http://www.w3.org/2000/svg" xmlns:xlink="http://www.w3.org/1999/xlink"><g id="Icons"><g><path d="M12.59658,34.45383c0,0,0.0896,0.6133-0.1421,1.5473c-0.2316,0.934-0.4758,1.962,0.2784,2.1154    c0.7541,0.1534,0.8726,0.0656,0.8726,0.0656s0.102,0.965,0.8298,1.0436c0.7277,0.0786,1.2615-0.2505,1.5457-1.5186    c0,0,1.059-0.3242,0.6246-0.9675s-1.9829-1.0095-1.7553-2.313l-0.8589-0.2361L12.59658,34.45383z" style="fill:#464747;"/><path d="M35.38518,34.46373c0,0-0.1503,0.5641,0.0814,1.4981c0.2317,0.934,0.4758,1.9621-0.2784,2.1154    c-0.7541,0.1534-0.8726,0.0656-0.8726,0.0656s-0.102,0.9651-0.8298,1.0436c-0.7277,0.0786-1.2615-0.2504-1.5457-1.5186    c0,0-1.059-0.3242-0.6246-0.9675c0.4344-0.6432,2.0417-0.9823,1.8142-2.2858l1.4639-0.5879L35.38518,34.46373z" style="fill:#464747;"/><path d="M25.08648,39.27963c-0.0133,0.0508,0,1.8644,0,1.8644l0.3587,0.0634    c0,0,0.7308,0.6854,1.9399,0.5204c1.2092-0.165,1.1029-0.2538,1.1029-0.2538s0.0664-1.0789-0.4784-1.3327    c-0.5447-0.2539-0.5584-0.5092-0.5318-0.8265" style="fill:#464747;"/><path d="M22.75478,39.27963c0.0133,0.0508-0.0552,1.8644-0.0552,1.8644l-0.3587,0.0634    c0,0-0.7308,0.6854-1.9399,0.5204c-1.2092-0.165-1.1029-0.2538-1.1029-0.2538s-0.0664-1.0789,0.4784-1.3327    c0.5447-0.2539,0.5906-0.4975,0.564-0.8148" style="fill:#464747;"/><path d="M29.44788,36.16693c0,0-1.0231,1.9856-1.3154,2.9069c-0.0663,0.209-0.2505,0.3579-0.4698,0.3579    h-2.138c0,0-1.1182,0.1686-0.9417-0.7871c0.1766-0.9557-0.5703-1.8841-0.5703-1.8841" style="fill:#3D9BE2;"/><path d="M18.45248,36.00513c0,0,1.0313,2.1729,1.2975,3.1051c0.0551,0.1931,0.2361,0.3215,0.4369,0.3215    h2.1558c0,0,1.1182,0.1686,0.9416-0.7871c-0.1765-0.9557,0.484-1.931,0.484-1.931" style="fill:#3D9BE2;"/><path d="M13.66318,24.67233c0,0-2.3829,4.6169-1.0675,9.7914l2.2546-0.0371l0.1585-0.4229    c0,0-0.8331-1.1541-0.6541-2.9551c0,0,3.4909,1.2517,4.0054-0.1491c0.5145-1.4008-0.2726-3.9256-0.2726-3.9256L13.66318,24.67233z    " style="fill:#FFD24A;"/><path d="M34.46968,24.67233c0,0,2.2309,4.6169,0.9155,9.7914l-2.2546-0.0371l-0.1585-0.4229    c0,0,0.8331-1.1541,0.6541-2.9551c0,0-2.9034,1.0652-3.4179-0.3356c-0.5145-1.4009,0.7651-3.1285,0.7651-3.1285L34.46968,24.67233    z" style="fill:#FFD24A;"/><path d="M14.28868,23.14483l1.2817,2.0461l2.9642,2.0983l11.8183-0.6969l3.5283-3.5638v-6.9857    c0-5.4103-4.3859-9.7963-9.7963-9.7963l0,0c-5.4103,0-9.7962,4.386-9.7962,9.7963V23.14483z" style="fill:#FFD24A;"/><path d="M31.34868,15.86003c0.1737,0.0461,0.357,0.0738,0.4342,0.0738h2.3298    c0.193,0,0.357-0.1567,0.357-0.341v-1.3455c0-0.1843-0.164-0.341-0.357-0.341h-2.3298c-0.0869,0-0.2991,0.0368-0.5017,0.0921" style="fill:#464747;"/><path d="M16.29818,14.00773c-0.0675-0.0646-0.1544-0.1014-0.2508-0.1014h-1.4903h-0.3666    c-0.2026,0-0.357,0.1567-0.357,0.341v1.3455c0,0.1843,0.1544,0.341,0.357,0.341h0.1736h1.6833    c0.0675,0,0.135-0.0185,0.1833-0.0553" style="fill:#464747;"/><ellipse cx="28.07358" cy="15.08473" rx="3.3965" ry="3.296" style="fill:#FFFFFF;"/><ellipse cx="19.96758" cy="15.08473" rx="3.3965" ry="3.296" style="fill:#FFFFFF;"/><path d="M28.07418,10.64593c-1.74,0-3.25,0.91-4.05,2.26c-0.8-1.35-2.32-2.26-4.05-2.26    c-2.57,0-4.65,1.99-4.65,4.44s2.08,4.44,4.65,4.44c1.73,0,3.25-0.91,4.05-2.26c0.8,1.35,2.31,2.26,4.05,2.26    c2.57,0,4.65-1.99,4.65-4.44S30.64418,10.64593,28.07418,10.64593z M19.96418,18.26593c-1.83,0-3.32-1.43-3.32-3.18    c0-1.76,1.49-3.18,3.32-3.18c1.84,0,3.33,1.42,3.33,3.18C23.29418,16.83593,21.80418,18.26593,19.96418,18.26593z     M28.07418,18.26593c-1.84,0-3.33-1.43-3.33-3.18c0-1.76,1.49-3.18,3.33-3.18s3.33,1.42,3.33,3.18    C31.40418,16.83593,29.91418,18.26593,28.07418,18.26593z" style="fill:#D5D5D5;"/><ellipse cx="27.38951" cy="15.35073" rx="1.13645" ry="1.0856" style="fill:#30302F;"/><ellipse cx="20.64498" cy="15.35073" rx="1.1364" ry="1.0856" style="fill:#30302F;"/><g><path d="M23.64238,23.38323c-1.1753,0-2.4922-0.167-3.7998-0.666     c-0.1807-0.0694-0.271-0.2715-0.2022-0.4522c0.0689-0.1807,0.2725-0.2715,0.4522-0.2021     c3.5869,1.3701,7.4003,0.0117,7.4384-0.002c0.1797-0.0615,0.3824,0.0273,0.4488,0.209c0.0664,0.1816-0.0269,0.3828-0.2085,0.4492     C27.66238,22.75823,25.91868,23.38323,23.64238,23.38323z" style="fill:#EFBC3F;"/></g><g><g><path d="M33.53518,31.44563c-0.1733,0-0.3242-0.1289-0.3467-0.3057      c-0.0502-0.3935-0.2641-1.5195-0.6464-1.9971c-0.1206-0.1513-0.0962-0.371,0.0547-0.4921      c0.1503-0.1202,0.3706-0.0948,0.4921,0.0546c0.5738,0.7178,0.773,2.1817,0.794,2.3467      c0.0244,0.1914-0.1113,0.3672-0.3032,0.3906C33.56498,31.44463,33.54988,31.44563,33.53518,31.44563z" style="fill:#EFBC3F;"/></g><g><path d="M14.63898,31.44563c-0.0097,0-0.0195,0-0.0298-0.001c-0.1924-0.0156-0.3354-0.1846-0.3193-0.3779      c0.0137-0.1651,0.1509-1.6377,0.7295-2.3614c0.1211-0.1494,0.3413-0.1748,0.4922-0.0546      c0.1509,0.1211,0.1753,0.3408,0.0547,0.4921c-0.378,0.4727-0.5459,1.5909-0.5791,1.9825      C14.97198,31.30793,14.81918,31.44563,14.63898,31.44563z" style="fill:#EFBC3F;"/></g></g><g><path d="M32.66418,31.04863c-1.2264,0.081-1.6142-1.4561-1.6142-1.4561v-1.8953l-0.7457,0.0188     l-0.4762-0.6991l0.2256-0.8778h-11.8273l-0.03,0.6853l-0.4154,0.7903l-0.7727-0.0882l-0.0294,2.148     c-0.4707,1.8419-2.6693,1.2319-2.6693,1.2319c-0.1173,1.5616,0.3391,2.5167,0.3391,2.5167     c2.0988,4.0509,9.245,3.5463,9.245,3.5463c11.2419,0.4459,9.9875-5.9208,9.9875-5.9208H32.66418z" style="fill:#50ABFE;"/><polygon points="18.93318,26.63693 18.22638,26.13913 14.28868,23.14483 13.66318,24.67233      17.00828,27.52653 17.88128,28.19293    " style="fill:#3D9BE2;"/><polygon points="30.20208,28.36053 31.04998,27.69723 34.46968,24.67233 33.88118,23.02853      30.05368,26.13913 29.09598,26.94463    " style="fill:#3D9BE2;"/><g><ellipse cx="30.85071" cy="26.59233" rx="0.35275" ry="0.337" style="fill:#30302F;"/><ellipse cx="17.33161" cy="26.63701" rx="0.35275" ry="0.33695" style="fill:#30302F;"/></g></g></g></g></svg>