<?xml version="1.0" ?><svg id="svg8" style="enable-background:new 0 0 48 48;" version="1.1" viewBox="0 0 48 48" xml:space="preserve" xmlns="http://www.w3.org/2000/svg" xmlns:cc="http://creativecommons.org/ns#" xmlns:dc="http://purl.org/dc/elements/1.1/" xmlns:inkscape="http://www.inkscape.org/namespaces/inkscape" xmlns:rdf="http://www.w3.org/1999/02/22-rdf-syntax-ns#" xmlns:sodipodi="http://sodipodi.sourceforge.net/DTD/sodipodi-0.dtd" xmlns:svg="http://www.w3.org/2000/svg"><style id="style4524" type="text/css">
	.st0{fill:none;stroke:#000000;stroke-width:2;}
	.st1{fill:none;stroke:#000000;stroke-width:2;stroke-linejoin:round;}
	.st2{fill:none;stroke:#000000;}
	.st3{stroke:#000000;}
	.st4{fill:none;stroke:#000000;stroke-linejoin:round;}
</style><defs id="defs4530"/><g id="g1574" transform="translate(0,4.2333334)"><path class="st0" d="M10,5.8V1.1   c0-1.3,0.8-2.3,1.7-2.3H38c1,0,1.7,1,1.7,2.3v4.6" id="path1542" style="fill:#ff7f2a;fill-opacity:1"/><path class="st0" d="M9,4.7h33.2   c1.8,0,2.8,1.2,2.8,3.5s0,3.2,0,8.1c0,2.3-1.8,4.6-3.7,4.6h-0.9" id="path1544" style="fill:#ff7f2a;fill-opacity:1"/><path class="st1" d="M10,5.4L9,37c0,0,6.2,3.4,16,3.6   c9.8,0.2,16-3.6,16-3.6L40,5.4" id="path1572" style="fill:#ff7f2a"/><path class="st1" d="M21.3,29h7l2.6,3.5l9.1,0" id="path1546"/><path class="st2" d="M16.9,4.9v-6.1" id="path1552"/><path class="st2" d="M32.9-1.5v6.1" id="path1556"/><ellipse class="st2" cx="24.8" cy="20.6" id="ellipse1558" rx="3.5" ry="5.2"/><path class="st2" d="m 16.082312,10.529526 c 0,1.278631 -0.785455,2.324784 -1.745455,2.324784 v 0 c -0.96,0 -1.745455,-1.046153 -1.745455,-2.324784 v 0 c 0,-1.2786316 0.785455,-2.3247845 1.745455,-2.3247845 0.96,0 1.745455,1.0461529 1.745455,2.3247845 z" id="path1560" style="fill:#ff0000;stroke:#000000;stroke-width:1.00719976"/><path class="st2" d="m 23.064131,10.529526 c 0,1.278631 -0.785455,2.324784 -1.745455,2.324784 v 0 c -0.96,0 -1.745455,-1.046153 -1.745455,-2.324784 v 0 c 0,-1.2786316 0.785455,-2.3247845 1.745455,-2.3247845 0.96,0 1.745455,1.0461529 1.745455,2.3247845 z" id="path1562" style="fill:#ffff00;stroke:#000000;stroke-width:1.00719976"/><path class="st2" d="m 30.045949,10.529526 c 0,1.278631 -0.785454,2.324784 -1.745454,2.324784 v 0 c -0.96,0 -1.745455,-1.046153 -1.745455,-2.324784 v 0 c 0,-1.2786316 0.785455,-2.3247845 1.745455,-2.3247845 0.96,0 1.745454,1.0461529 1.745454,2.3247845 z" id="path1564" style="fill:#008000;stroke:#000000;stroke-width:1.00719976"/><path class="st2" d="m 37.027768,10.529526 c 0,1.278631 -0.785454,2.324784 -1.745454,2.324784 0,0 0,0 0,0 -0.96,0 -1.745455,-1.046153 -1.745455,-2.324784 0,-1.2786316 0.785455,-2.3247845 1.745455,-2.3247845 0.96,0 1.745454,1.0461529 1.745454,2.3247845 0,0 0,0 0,0 z" id="path1566" style="fill:#0000ff;stroke:#000000;stroke-width:1.00719976"/><path class="st3" d="M40,17.5l5-3.5" id="path1570"/><path class="st4" d="M18.2,32.5v7" id="path1578"/><path class="st4" d="M31,32.5v8.1" id="path1580"/><path class="st1" d="M28,29h-7l-2.6,3.5l-9.1,0" id="path1582"/><path class="st4" d="M25-1.2v6" id="path1592"/></g></svg>