<?xml version="1.0" ?><svg style="enable-background:new 0 0 48 48;" version="1.1" viewBox="0 0 48 48" xml:space="preserve" xmlns="http://www.w3.org/2000/svg" xmlns:xlink="http://www.w3.org/1999/xlink"><g id="Icons"><g><g><rect height="1.4306" style="fill:#E6E6E6;" width="16.7529" x="15.6834" y="30.53731"/><g><path d="M15.6834,32.63591c-0.1933,0-0.3501-0.1563-0.3501-0.3496v-2.0674      c0-0.1934,0.1568-0.3496,0.3501-0.3496c0.1934,0,0.3501,0.1562,0.3501,0.3496v2.0674      C16.0335,32.47961,15.8768,32.63591,15.6834,32.63591z" style="fill:#E6E6E6;"/></g><g><path d="M32.4245,32.63591c-0.1933,0-0.3501-0.1563-0.3501-0.3496v-2.0674      c0-0.1934,0.1568-0.3496,0.3501-0.3496c0.1934,0,0.3501,0.1562,0.3501,0.3496v2.0674      C32.7746,32.47961,32.6179,32.63591,32.4245,32.63591z" style="fill:#E6E6E6;"/></g></g><path d="M17.9289,28.40971v4.3526l-0.1736,0.4571c0,0-0.304,2.4589,2.1113,3.7863    s4.1958,0.8735,4.1958,0.8735s5.8124-0.0339,6.9357-3.5544l-0.774-1.3549l-0.037-0.0915l-0.0105-4.9492    c0,0-1.4383,2.433-6.0126,2.9489C24.164,30.87811,19.001,30.95241,17.9289,28.40971z" style="fill:#A5BC6D;"/><path d="M31.6844,22.11281l-0.7927,3.8423c0,0,0.0971,1.6259,1.334,0.6474    c1.2369-0.9785,1.5986-2.9011,1.7087-3.7105c0.11-0.8095-0.1527-2.2251-1.2589-1.619    C31.5693,21.87921,31.6844,22.11281,31.6844,22.11281z" style="fill:#A5BC6D;"/><path d="M16.4236,22.11281l0.7927,3.8423c0,0-0.0972,1.6259-1.334,0.6474    c-1.2369-0.9785-1.5987-2.9011-1.7087-3.7105c-0.11-0.8095,0.1527-2.2251,1.2589-1.619    C16.5387,21.87921,16.4236,22.11281,16.4236,22.11281z" style="fill:#A5BC6D;"/><path d="M17.6371,11.61141c0,0-0.4231,1.8796-0.7073,4.0992c-0.2841,2.2196-0.4515,2.8127-0.0932,3.5389    c0,0-0.527,3.0446-0.5188,3.0562l0.8637,3.4954c0,0,0.0344,2.8001,1.728,3.9783c1.6935,1.1782,5.1476,2.2376,5.1476,2.2376    s5.1816-0.0458,6.4757-4.673l0.4053-1.5429l0.7463-3.4954c0,0,0.2068-0.9609,0.1454-3.0156    c-0.0614-2.0548,0.5929-1.8793-0.1361-5.0368c0,0-0.8378-1.4656-0.802-2.4049C30.8917,11.84841,24.4387,8.22661,17.6371,11.61141z    " style="fill:#B9D67C;"/><g><path d="M26.7561,22.65551c-0.0483,0-0.0972-0.0098-0.144-0.0303     c-0.1763-0.0801-0.2544-0.2871-0.1748-0.4638c0.041-0.1417-0.3506-0.6885-0.8677-1.1211     c-0.062-0.0518-0.1045-0.1241-0.1196-0.2041c-0.23-1.2305-1.2373-3.21-1.2476-3.2305c-0.0879-0.1719-0.02-0.3828,0.1523-0.4707     c0.1719-0.0899,0.3829-0.0195,0.4707,0.1523c0.042,0.0821,1.003,1.9698,1.2881,3.2969c0.3985,0.3496,1.2588,1.208,0.9615,1.8662     C27.0164,22.57931,26.8894,22.65551,26.7561,22.65551z" style="fill:#A5BC6D;"/></g><g><path d="M28.6425,19.90841c-1.2589,0-2.5301-0.7734-2.5877-0.8086     c-0.1164-0.0722-0.1799-0.2129-0.1603-0.3545c0.0083-0.0605,0.2252-1.4931,2.0033-1.7607l0.5329-0.0029     c0.9561,0.0322,2.4429,1.6982,2.7315,2.0322c0.1228,0.1416,0.1146,0.3633-0.0178,0.4941     c-0.1333,0.1319-0.3411,0.1231-0.4626-0.0195c-0.6406-0.7402-1.7658-1.79-2.2616-1.8076h-0.4768     c-0.8666,0.1338-1.2046,0.6377-1.331,0.9394c0.4356,0.2276,1.4105,0.6719,2.2667,0.5752     c0.1799-0.0136,0.3402,0.1211,0.358,0.3135c0.0182,0.1924-0.1133,0.3643-0.2932,0.3838     C28.8439,19.90351,28.743,19.90841,28.6425,19.90841z" style="fill:#A5BC6D;"/></g><g><path d="M21.1858,26.46991c-0.1567,0.001-0.2998-0.1064-0.3394-0.2656     c-0.0463-0.1875,0.0679-0.3769,0.2559-0.4238l2.4697-0.6113c0.0826-0.0196,0.169-0.0098,0.2442,0.0283l0.5825,0.2998     l0.6269-0.1992c0.0572-0.0196,0.1182-0.0225,0.1797-0.0098l2.2935,0.4893c0.189,0.041,0.3096,0.2265,0.269,0.416     c-0.0405,0.1885-0.227,0.3066-0.4155,0.2695l-2.2021-0.4707l-0.6763,0.2158c-0.0884,0.0283-0.1851,0.0196-0.2666-0.0215     l-0.5947-0.3066l-2.3423,0.5801C21.242,26.467,21.2136,26.46991,21.1858,26.46991z" style="fill:#A5BC6D;"/></g><g><path d="M24.1174,22.84891c-0.4467,0-1.039-0.3262-1.1562-0.3936     c0.0112,0.0146-0.0396,0.0703-0.0518,0.0908c-0.1006,0.1651-0.3159,0.2139-0.4819,0.1133     c-0.1641-0.1025-0.2148-0.3184-0.1128-0.4824c0.1982-0.3213,0.6011-0.5391,0.9839-0.335     c0.2319,0.1328,0.6572,0.3223,0.8262,0.3067c0.185-0.0098,0.3569,0.1406,0.3652,0.3339c0.0088,0.1934-0.1411,0.3565-0.334,0.3653     C24.1433,22.84891,24.1301,22.84891,24.1174,22.84891z" style="fill:#A5BC6D;"/></g><g><path d="M24.2893,22.84891c-0.0127,0-0.0259,0-0.0386-0.001c-0.1933-0.0088-0.3427-0.1719-0.3339-0.3653     c0.0083-0.1933,0.1626-0.3486,0.3652-0.3339c0.2056,0.0019,0.5952-0.1748,0.8144-0.3008     c0.396-0.2071,0.7969,0.0097,0.9952,0.3291c0.102,0.164,0.0512,0.3799-0.1128,0.4824c-0.1636,0.1006-0.377,0.0508-0.48-0.1104     c-0.0244-0.0361-0.0698-0.08-0.0913-0.0878C25.3269,22.52271,24.7356,22.84891,24.2893,22.84891z" style="fill:#A5BC6D;"/></g><g><path d="M19.5501,19.90841c-0.108,0-0.2154-0.0049-0.3223-0.0156     c-0.1924-0.0195-0.333-0.1914-0.3135-0.3838c0.0195-0.1914,0.1973-0.3262,0.3828-0.3135     c0.9102,0.0957,1.939-0.3398,2.4107-0.5683c-0.1563-0.3086-0.5572-0.8242-1.5249-0.96l-0.4619,0.0137     c-0.2383,0.0097-0.7837,0.2754-1.585,0.9922c-0.0098,0.0117-0.021,0.0224-0.0327,0.0332     c-0.1465,0.1269-0.3657,0.1133-0.4922-0.0313c-0.126-0.1435-0.1167-0.3662,0.0254-0.4941     c0.8613-0.7764,1.5556-1.1797,2.0635-1.1992l0.5244-0.0108c1.9443,0.2686,2.249,1.6963,2.2612,1.7569     c0.0293,0.1474-0.0386,0.2968-0.1685,0.372C22.2556,19.13501,20.8962,19.90841,19.5501,19.90841z" style="fill:#A5BC6D;"/></g><g><path d="M21.052,20.74631c-0.1318,0-0.2583-0.0752-0.3174-0.2021     c-0.0815-0.1758-0.0049-0.3838,0.1704-0.4649c0.8853-0.4101,0.8877-1.2422,0.8872-1.2773     c-0.0014-0.1924,0.1519-0.3506,0.3443-0.3545c0.1894,0.0371,0.3511,0.1474,0.3559,0.3398     c0.001,0.0537,0.0181,1.3194-1.2934,1.9268C21.1516,20.73651,21.1013,20.74631,21.052,20.74631z" style="fill:#A5BC6D;"/></g><g><path d="M27.3313,20.74631c-0.0493,0-0.0996-0.0098-0.147-0.0322     c-1.3115-0.6074-1.2944-1.8731-1.2934-1.9268c0.0044-0.1933,0.1416-0.333,0.3589-0.3408     c0.1933,0.0049,0.3462,0.165,0.3413,0.3584c-0.0005,0.0322,0.0019,0.8643,0.8872,1.2744     c0.1753,0.0811,0.2519,0.2891,0.1704,0.4649C27.5896,20.67111,27.4631,20.74631,27.3313,20.74631z" style="fill:#A5BC6D;"/></g><g><path d="M21.5667,22.65551c-0.1324,0-0.2588-0.0752-0.3184-0.2031     c-0.3047-0.6563,0.5581-1.5166,0.957-1.8672c0.2871-1.3291,1.2447-3.2178,1.2862-3.2998     c0.0874-0.1719,0.2978-0.2422,0.4707-0.1524c0.1723,0.0869,0.2407,0.2979,0.1533,0.4707     c-0.0103,0.0196-1.0147,2.001-1.2471,3.2334c-0.0146,0.0801-0.0571,0.1524-0.1191,0.2041     c-0.5279,0.4424-0.9048,0.9727-0.8657,1.1182c0.0815,0.1748,0.0053,0.3818-0.17,0.4639     C21.6658,22.6447,21.616,22.65551,21.5667,22.65551z" style="fill:#A5BC6D;"/></g><path d="M32.562,17.67451c0.1566-2.9159,0.3607-3.7076-0.5068-7.2024c0,0-1.1916-1.2257-3.2389-2.1584    l0.0063,0.0464c0.1392,0.8075-0.5437,2.0932-1.0314,2.8869c0.8511,0.2233,1.7447,0.5145,2.6874,0.9042    c0,0,0.1269,1.0986,0.5201,2.8599s0.5825,2.5802,0.2719,4.0906c0,0,0.6204,2.1491,0.4138,3.204c0,0,0.4823-0.7426,1.1069-1.0901    C32.7913,21.2156,32.4053,20.59031,32.562,17.67451z" style="fill:#333333;"/><g><path d="M22.1423,28.6272c-0.1411,0.0009-0.2744-0.086-0.3271-0.2256     c-0.0689-0.1807,0.0225-0.3828,0.2031-0.4512c2.855-1.082,4.3677-0.001,4.4307,0.0459c0.1557,0.1152,0.1885,0.334,0.0732,0.4893     c-0.1142,0.1552-0.332,0.1875-0.4873,0.0752c-0.06-0.042-1.3032-0.8887-3.7685,0.0439     C22.2254,28.62031,22.1834,28.6272,22.1423,28.6272z" style="fill:#A5BC6D;"/></g><g><path d="M18.6052,25.00611c-0.0464,0-0.0932-0.002-0.1411-0.0059     c-1.0669-0.084-2.9243-0.9668-3.1118-2.9004c-0.019-0.1924,0.1221-0.3642,0.3145-0.3828     c0.1953-0.0117,0.3632,0.1221,0.3818,0.3145c0.1714,1.7646,1.8852,2.1279,2.1929,2.2187     c0.3803,0.1123,0.6469,0.0274,0.6889-0.0244c0.1719-0.6728,1.3423-2.5596,1.4751-2.7725c0.1021-0.163,0.3179-0.2138,0.482-0.1113     c0.164,0.1026,0.2143,0.3184,0.1118,0.4824c-0.499,0.7989-1.2832,2.1495-1.398,2.5928     C19.5071,24.77851,19.115,25.00611,18.6052,25.00611z" style="fill:#A5BC6D;"/></g><g><path d="M28.2639,31.30301c-0.0727,0-0.1465-0.0225-0.2094-0.0693     c-0.1539-0.1153-0.1861-0.3331-0.0718-0.4883c0.0312-0.043,0.6899-0.9854-0.0303-2.3975     c-0.0874-0.1728-0.019-0.3828,0.1528-0.4707c0.1744-0.0898,0.3828-0.0195,0.4712,0.1524     c0.9268,1.8183,0.0078,3.081-0.0317,3.1337C28.4758,31.25511,28.3709,31.30301,28.2639,31.30301z" style="fill:#A5BC6D;"/></g><g><path d="M19.8119,31.01091c-0.106,0-0.2105-0.0488-0.2788-0.1396     c-0.0396-0.0528-0.9585-1.3155-0.0318-3.1338c0.0879-0.1719,0.2969-0.2422,0.4712-0.1524     c0.1719,0.0879,0.2403,0.2979,0.1529,0.4707c-0.7217,1.4151-0.0586,2.3584-0.0303,2.3975     c0.1128,0.1562,0.0796,0.375-0.0752,0.4883C19.9574,30.98851,19.8842,31.01091,19.8119,31.01091z" style="fill:#A5BC6D;"/></g><g><path d="M23.8186,38.22871c-0.0415,0-0.083-0.0068-0.1221-0.0215     c-0.2031-0.0761-4.9892-1.8886-6.2631-4.8496l0.4955-0.5953l0.148,0.318c1.0596,2.4648,5.0615,4.1514,5.7603,4.4307     c0.7348-0.2129,5.0851-1.5527,6.2003-4.3456l0.1496-0.287l0.177,0.4163l0.2909,0.1525     c-1.3462,3.3711-6.5283,4.7132-6.7485,4.7708C23.8777,38.22581,23.8479,38.22871,23.8186,38.22871z" style="fill:#8DA053;"/></g><g><path d="M24.5139,17.79611c-0.0957,0-0.1909-0.039-0.2597-0.1152     c-0.064-0.0576-0.1695-0.0069-0.2471,0.0488c-0.1587,0.1113-0.3765,0.0752-0.4883-0.082     c-0.1123-0.1572-0.0762-0.376,0.0811-0.4883c0.518-0.3721,0.9902-0.166,1.1821,0.0615c0.124,0.1485,0.105,0.3692-0.043,0.4932     C24.6736,17.7697,24.5935,17.79611,24.5139,17.79611z" style="fill:#A5BC6D;"/></g><g><g><path d="M20.8225,15.76161c-0.0103,0-0.0205,0-0.0303-0.001c-0.1929-0.0166-0.3355-0.1865-0.3189-0.3789      c0.295-3.4258-0.7685-4.1406-0.7793-4.1474c-0.1596-0.1016-0.2148-0.3145-0.1186-0.4766      c0.0962-0.1631,0.2998-0.2227,0.4648-0.1318c0.1509,0.083,1.4654,0.9218,1.1304,4.8164      C21.155,15.62391,21.0021,15.76161,20.8225,15.76161z" style="fill:#A5BC6D;"/></g><g><path d="M20.1477,13.27721c-0.1255,0-0.2471-0.0664-0.3101-0.1845      c-0.0898-0.17-0.0273-0.3809,0.1416-0.4717c0.0269-0.0147,0.665-0.3467,1.5264-0.208c0.1904,0.0322,0.3193,0.2129,0.2876,0.4033      c-0.0313,0.1904-0.2124,0.3164-0.4029,0.2881c-0.6191-0.1026-1.0757,0.1299-1.0805,0.1328      C20.258,13.26451,20.2023,13.27721,20.1477,13.27721z" style="fill:#A5BC6D;"/></g><g><path d="M20.2258,14.59751c-0.126,0-0.2476-0.0673-0.3101-0.1855      c-0.0898-0.1699-0.0273-0.3799,0.1421-0.4717c0.0264-0.0137,0.6631-0.3447,1.5259-0.206      c0.1904,0.0322,0.3193,0.2128,0.2876,0.4033c-0.0317,0.1904-0.209,0.3183-0.4028,0.2881      c-0.6172-0.1094-1.0762,0.1298-1.0806,0.1328C20.3361,14.58481,20.2805,14.59751,20.2258,14.59751z" style="fill:#A5BC6D;"/></g></g><path d="M40.385,38.27491c0,3.26-32.77,3.26-32.77,0c0.96-1.65,4.73-2.35,6.38-2.55    c0.2-0.03,0.37-0.05,0.5-0.06c0.15-0.02,0.32-0.07,0.49-0.16c0.01,0,0.02-0.01,0.04-0.02c0.23-0.12,0.48-0.29,0.73-0.49    c1.07-0.85,2.17-2.23,2.17-2.23c-0.25,5.04,6.14,5.11,6.14,5.11c6.67-0.13,6.12-5,6.12-5c0.54,0.8,1.77,1.57,2.79,2.1    c0.56,0.29,1.05,0.51,1.34,0.63c0.18,0.08,0.28,0.12,0.28,0.12C38.585,36.25491,40.385,38.27491,40.385,38.27491z" style="fill:#707070;"/><path d="M17.9,8.93421c-1.3627,0.7524-2.1262,1.4777-2.1262,1.4777s-0.554,2.6069-0.5045,4.8207    c0.0493,2.2138,0.3702,4.6734-0.0149,5.9572c0,0,0.6784,0.5614,1.109,1.3003c0,0,0.5991-1.0251,1.0887-3.1009    c0,0-0.7972-0.979-0.0705-3.5673c0.7268-2.5883,0.2448-3.6707,0.2448-3.6707s0.3671-0.248,1.0465-0.5398    c-0.0452-0.3346-0.3162-2.2236-0.744-2.6325L17.9,8.93421z" style="fill:#333333;"/><path d="M28.8163,8.31371c-1.3179-0.6004-2.9873-1.0802-4.932-1.03    c-2.5246,0.0652-4.575,0.8723-5.9843,1.6505l0.0289,0.0447c0.4278,0.4089,0.6988,2.2979,0.744,2.6325    c1.5253-0.6552,4.6771-1.5296,9.1183-0.3644c0.4877-0.7937,1.1706-2.0794,1.0314-2.8869L28.8163,8.31371z" style="fill:#464747;"/><path d="M14.985,35.50491c-0.15,0.12-0.3,0.25-0.44,0.37c-0.36,0.32-0.7,0.68-1,1.07    c-0.61,0.77-1.05,1.68-1.29,2.66c0.12-1,0.46-1.99,1-2.86c0.22-0.36,0.46-0.7,0.74-1.02c0.2-0.03,0.37-0.05,0.5-0.06    C14.645,35.64491,14.815,35.59491,14.985,35.50491z" style="fill:#666666;"/><path d="M35.515,39.34491c-0.13-0.94-0.45-1.85-0.96-2.63c-0.24-0.39-0.53-0.76-0.85-1.09    c-0.22-0.23-0.47-0.46-0.73-0.65c0.56,0.29,1.05,0.51,1.34,0.63c0.22,0.3,0.4,0.62,0.55,0.94    C35.295,37.4249,35.495,38.39491,35.515,39.34491z" style="fill:#666666;"/></g></g></svg>