<?xml version="1.0" ?><svg style="enable-background:new 0 0 48 48.00004;" version="1.1" viewBox="0 0 48 48.00004" xml:space="preserve" xmlns="http://www.w3.org/2000/svg" xmlns:xlink="http://www.w3.org/1999/xlink"><g id="Icons"><g><path d="M14.58915,28.64724c0,0-6.3431,2.3783-8.7575,7.4214c4.4797,1.4023,8.9884,2.2573,13.5109,2.5915    c1.6773,0.1239,3.0511-1.2873,4.7314-1.3053c1.4482-0.0155,3.2026,1.3805,4.6519,1.2615    c4.4824-0.368,8.9681-1.2269,13.4425-2.5509c-2.4145-5.043-8.6121-7.1731-8.6121-7.1731" style="fill:#464747;"/><path d="M28.72585,38.61634c-0.91-3.7401-4.5686-3.878-4.5686-3.878h-0.22c0,0-3.5847,0.0218-4.5947,3.9218    C22.62775,38.92303,25.83825,38.91674,28.72585,38.61634z" style="fill:#FFFFFF;"/><path d="M32.88045,20.01854h-17.613c-3.742-0.0338-5.4729,2.9715-5.4729,2.9715    c4.4796,8.0979,12.5151,10.9722,12.5151,10.9722s0.8017,0.3875,2.0668,0.0914c0.3913-0.0916,1.0552,0.3201,1.4618-0.0914    c0,0,8.0355-2.8743,12.5151-10.9722C38.35335,22.99004,36.62245,19.98474,32.88045,20.01854z" style="fill:#F43735;"/><path d="M20.39625,30.65464c0,0,0.6924,3.6984,3.5403,4.0813c0,0,3.1252,0.0024,3.9717-4.7134    c0,0-2.143,1.2115-3.82,1.0084S20.39625,30.65464,20.39625,30.65464z" style="fill:#FFFFFF;"/><g><path d="M31.75665,20.84334c0,0,0.9828,3.683-1.5614,5.1036c0,0,0.2621-1.2308,0-2.5171     C30.19525,23.42984,31.06775,21.73764,31.75665,20.84334z" style="fill:#D6B6A1;"/><path d="M16.42545,20.84334c0,0-1.0798,3.683,1.4644,5.1036c0,0-0.1459-1.3192,0.1162-2.6055     C18.00605,23.34144,17.11435,21.73764,16.42545,20.84334z" style="fill:#D6B6A1;"/></g><path d="M18.86885,9.87134c-3.1303,1.9019-3.3345,7.0594-3.3187,8.099    c0.0218,1.4416-0.9609,1.4197-0.9609,1.4197l0.939,0.2402c-0.1746,1.1357-0.5023,1.2668-0.5023,1.2668    s0.6116-0.3276,1.0261-0.1529c0.4146,0.1747,1.5925,2.5088,1.5925,2.5088s0.5263,1.2155,1.4041,1.3618l4.4075,0.105    l-1.1555-11.9785C22.30065,12.74124,21.85595,9.56124,18.86885,9.87134z" style="fill:#333333;"/><path d="M32.64825,19.63024l0.9391-0.2402c0,0-0.9828,0.0219-0.961-1.4197    c0.0219-1.4414-0.3057-10.8156-8.3431-8.435l-0.3189,0.0146c-2.2403-0.6636-3.8859-0.4136-5.0955,0.3214    c2.9871-0.3101,3.4318,2.8699,3.4318,2.8699l1.1555,11.9785l5.3654,0.1277c1.2848-0.546,1.7105-1.5945,1.7105-1.5945    s1.1779-2.3341,1.5924-2.5088c0.4146-0.1747,1.0261,0.1529,1.0261,0.1529S32.82295,20.76594,32.64825,19.63024z" style="fill:#464747;"/><path d="M24.12975,13.67674c0,0,2.7679-2.0599,4.2565-0.9012c1.4886,1.1667,1.8185,3.1301,1.2231,4.7393    c0,0,1.1667,5.4877,0.6598,8.0786c-0.4365,2.2248-1.3583,4.5218-4.6255,6.1439c-1.5163,0.7529-3.2689,0-3.2689,0    c-3.4182-1.2691-4.1812-3.9191-4.6178-6.1439c-0.5069-2.5909,0.6518-8.0786,0.6518-8.0786    c-0.5954-1.6092-0.2655-3.5726,1.223-4.7393C21.12035,11.61684,24.12975,13.67674,24.12975,13.67674" style="fill:#F9D9C0;"/><path d="M28.77725,20.56834c-0.34,0.29-0.68,0.46-0.99,0.55c-0.51,0.16-0.97,0.09-1.33-0.05    c-0.59-0.23-0.96-0.64-0.96-0.64C27.25725,17.96834,28.77725,20.56834,28.77725,20.56834z" style="fill:#F4F4F4;"/><path d="M22.62725,20.42834c0,0-0.3,0.33-0.79,0.56c-0.35,0.18-0.82,0.29-1.35,0.17    c-0.36-0.07-0.75-0.25-1.15-0.59C19.33725,20.56834,20.85725,17.96834,22.62725,20.42834z" style="fill:#F4F4F4;"/><g><path d="M19.04895,24.91483c-0.0166,0-0.0332-0.001-0.0498-0.0039     c-1.0269-0.1719-2.033-1.5637-2.0574-1.6194c-0.0655-0.1513,0.0039-0.3281,0.1557-0.3945     c0.1524-0.0635,0.3296,0.0039,0.3946,0.1563c0.1298,0.2959,1.0217,1.1681,1.6057,1.2658     c0.1636,0.0273,0.274,0.1816,0.2466,0.3457C19.31995,24.81134,19.19295,24.91483,19.04895,24.91483z" style="fill:#D6B6A1;"/></g><g><path d="M28.82145,25.14724c-0.1167,0-0.2276-0.0683-0.2759-0.1826     c-0.065-0.1523,0.0058-0.3281,0.1587-0.3936c1.1577-0.4912,1.9407-1.2921,1.9446-1.3008     c0.062-0.1543,0.2378-0.2276,0.3907-0.1661c0.1533,0.0625,0.2275,0.2373,0.165,0.3907c-0.0191,0.0478-0.8827,1.0411-2.266,1.629     C28.90055,25.13943,28.86045,25.14724,28.82145,25.14724z" style="fill:#D6B6A1;"/></g><path d="M21.16175,27.54594c-0.0002,0.0005-0.0005,0.0007-0.0005,0.0007s0.5852,1.8184,2.927,1.6952    c2.3418,0.1232,2.9273-1.6948,2.9273-1.6948l-0.0005-0.0006L21.16175,27.54594z" style="fill:#F43735;"/><path d="M24.08825,26.16044c0,0-1.4785-1.0162-2.9265,1.3855h5.8531    C25.56685,25.14424,24.08825,26.16044,24.08825,26.16044z" style="fill:#DD2A2A;"/><g><g><path d="M24.05675,24.22733c-0.1728,0-0.3457-0.0449-0.5019-0.1338l-0.3443-0.1953      c-0.0107,0.1553-0.1406,0.2783-0.2993,0.2783c-0.1655,0-0.2998-0.1338-0.2998-0.2998v-0.4941      c0-0.1065,0.0566-0.2061,0.1489-0.2598c0.0923-0.0527,0.2061-0.0547,0.2993-0.001l0.7915,0.4502      c0.1241,0.0703,0.2725,0.0703,0.3985,0.0069l0.876-0.462c0.0932-0.0478,0.205-0.0449,0.2949,0.0088      c0.0898,0.0547,0.1445,0.1514,0.1445,0.2569v0.4902c0,0.166-0.1343,0.2998-0.2998,0.2998c-0.1636,0-0.2964-0.1309-0.2998-0.293      l-0.436,0.2295C24.38095,24.18734,24.21885,24.22733,24.05675,24.22733z" style="fill:#D6B6A1;"/></g><g><path d="M29.30045,20.22444c-0.1294,0-0.2486-0.084-0.2871-0.2139      c-0.0391-0.1299-0.1846-0.4346-0.7203-1.0225c-0.122-0.1328-0.312-0.1826-0.4819-0.125l-2.0771,0.6924      c-0.1954,0.0664-0.4156,0.0371-0.5899-0.0781l-0.4795-0.3193c-0.1377-0.0918-0.1748-0.2784-0.083-0.4161      c0.0913-0.1377,0.2769-0.1767,0.416-0.0839l0.4795,0.3193l2.1446-0.6826c0.3969-0.1338,0.8334-0.0186,1.1142,0.289      c0.4702,0.5147,0.7564,0.9375,0.8516,1.2549c0.0478,0.1582-0.042,0.3252-0.2007,0.3731      C29.35805,20.22054,29.32875,20.22444,29.30045,20.22444z" style="fill:#D6B6A1;"/></g><g><path d="M18.86635,20.22444c-0.0283,0-0.0576-0.0039-0.0864-0.0127      c-0.1587-0.0479-0.2486-0.2149-0.2007-0.3731c0.0952-0.3174,0.3813-0.7402,0.851-1.2549      c0.2823-0.3086,0.7198-0.4228,1.1153-0.289l2.0771,0.6924l0.5464-0.3291c0.1382-0.0928,0.3242-0.0547,0.416,0.0839      c0.0918,0.1377,0.0547,0.3243-0.083,0.4161l-0.4795,0.3193c-0.1723,0.1142-0.393,0.1455-0.5903,0.0781l-2.0762-0.6924      c-0.1704-0.0556-0.3603-0.0068-0.4829,0.125c-0.5351,0.5879-0.6806,0.8926-0.7197,1.0225      C19.11485,20.14044,18.99575,20.22444,18.86635,20.22444z" style="fill:#D6B6A1;"/></g><g><path d="M22.27765,23.90864c0,0-0.1811,0.1002-0.4519,0.2965c-0.2658,0.1943-0.6058,0.4799-0.8955,0.8148      c-0.2942,0.3313-0.5128,0.7247-0.6148,1.046c-0.0457,0.1614-0.0802,0.2995-0.0847,0.3991      c-0.0117,0.0994-0.0184,0.1562-0.0184,0.1562s-0.0027-0.0572-0.0073-0.1572c-0.0118-0.1014-0.0008-0.2445,0.019-0.4192      c0.0493-0.346,0.2107-0.7999,0.4631-1.2007c0.4928-0.8159,1.2502-1.4297,1.2502-1.4297l0.0047-0.0037      c0.1293-0.1048,0.3191-0.085,0.4239,0.0444c0.1048,0.1293,0.085,0.3191-0.0444,0.4239      C22.30805,23.89004,22.29235,23.90034,22.27765,23.90864z" style="fill:#D6B6A1;"/></g><g><path d="M26.23915,23.41444c0,0,0.7574,0.6138,1.2502,1.4297c0.2524,0.4008,0.4138,0.8547,0.4631,1.2007      c0.0198,0.1747,0.0309,0.3178,0.0191,0.4192c-0.0047,0.1-0.0074,0.1572-0.0074,0.1572s-0.0067-0.0568-0.0184-0.1562      c-0.0045-0.0996-0.0389-0.2377-0.0846-0.3991c-0.1021-0.3213-0.3207-0.7147-0.6149-1.046      c-0.2897-0.3349-0.6297-0.6205-0.8955-0.8148c-0.2708-0.1963-0.4519-0.2965-0.4519-0.2965      c-0.1457-0.0806-0.1985-0.264-0.1179-0.4097c0.0806-0.1456,0.264-0.1984,0.4097-0.1178      c0.0152,0.0084,0.0294,0.018,0.0426,0.0285L26.23915,23.41444z" style="fill:#D6B6A1;"/></g><g><path d="M23.02505,22.13554c-0.1656,0-0.2998-0.1338-0.2998-0.2998v-2.7207      c0-0.166,0.1342-0.2998,0.2998-0.2998c0.1655,0,0.2998,0.1338,0.2998,0.2998v2.7207      C23.32485,22.00174,23.19055,22.13554,23.02505,22.13554z" style="fill:#D6B6A1;"/></g></g><g><path d="M27.13725,19.84834c-0.44,0-0.8,0.36-0.8,0.8c0,0.16,0.04,0.3,0.12,0.42     c0.36,0.14,0.82,0.21,1.33,0.05c0.1-0.13,0.16-0.29,0.16-0.47C27.94725,20.20834,27.57725,19.84834,27.13725,19.84834z      M26.93725,20.64834c0-0.11,0.09-0.2,0.2-0.2c0.11,0,0.21,0.09,0.21,0.2C27.34725,20.87834,26.93725,20.87834,26.93725,20.64834z     " style="fill:#30302F;"/></g><g><path d="M21.09725,19.84834c-0.44,0-0.8,0.36-0.8,0.8c0,0.19,0.07,0.37,0.19,0.51     c0.53,0.12,1,0.01,1.35-0.17c0.04-0.1,0.07-0.22,0.07-0.34C21.90725,20.20834,21.54725,19.84834,21.09725,19.84834z      M20.89725,20.64834c0-0.11,0.09-0.2,0.2-0.2c0.12,0,0.21,0.09,0.21,0.2C21.30725,20.87834,20.89725,20.87834,20.89725,20.64834z     " style="fill:#30302F;"/></g><g><path d="M24.95615,27.29484c0.0443,0.173,0.2978,0.7739,0.2283,1.508c0,0,0.7439-0.496,0.6447-1.508     C25.72995,26.28294,24.82825,26.79584,24.95615,27.29484z" style="fill:#FFFFFF;"/><path d="M23.18275,27.29484c-0.0443,0.173-0.2978,0.7739-0.2283,1.508c0,0-0.7439-0.496-0.6447-1.508     C22.40895,26.28294,23.31065,26.79584,23.18275,27.29484z" style="fill:#FFFFFF;"/></g></g></g></svg>