<?xml version="1.0" ?><svg id="svg8" style="enable-background:new 0 0 48 48;" version="1.1" viewBox="0 0 48 48" xml:space="preserve" xmlns="http://www.w3.org/2000/svg" xmlns:cc="http://creativecommons.org/ns#" xmlns:dc="http://purl.org/dc/elements/1.1/" xmlns:inkscape="http://www.inkscape.org/namespaces/inkscape" xmlns:rdf="http://www.w3.org/1999/02/22-rdf-syntax-ns#" xmlns:sodipodi="http://sodipodi.sourceforge.net/DTD/sodipodi-0.dtd" xmlns:svg="http://www.w3.org/2000/svg"><style id="style4555" type="text/css">
	.st0{fill:none;stroke:#000000;stroke-width:2;stroke-linejoin:round;}
	.st1{fill:none;stroke:#000000;stroke-linejoin:round;}
</style><defs id="defs4561"/><g id="g1628" transform="translate(0,4.2333334)"><path class="st0" d="M6,23.8c-3,0-3-3-3-3v-5c0,0,0-1,2-1   " id="path1632" style="fill:#d40000;fill-opacity:1"/><path class="st0" d="M42,23.8c3,0,3-3,3-3v-5c0,0,0-1-2-1   " id="path1650" style="fill:#d40000;fill-opacity:1"/><path class="st0" d="M41,7.8c3.8,7-0.9,25-0.9,25   s-4.7,6-16,6H24c-11.3,0-16-6-16-6s-4.7-18-0.9-25C14.1-1.7,37,1.2,41,7.8z" id="path1648" style="fill:#d40000"/><g id="g1132" style="fill:#ffcc00"><path class="st0" d="M24,33.8h-3l-1,1    c0,0-3,0-5-1s-3-7-3-7l-2-1l-1-5.1l2.2-2.1L9.3,12L11,8.8h7l3,3h3" id="path1638" style="fill:#ffcc00"/><path class="st0" d="M24,33.8h3l1,1    c0,0,3,0,5-1c2-1,3-7,3-7l2-1l1-5.1l-2.2-2.1l1.8-6.5L37,8.8h-7l-3,3h-3" id="path1532" style="fill:#ffcc00"/></g><path class="st1" d="m 12.2,19.1 1.8,3.7 h 5.3 l 2.6,-1 v -3" id="path1644" style="fill:#ffffff;stroke:#000000;stroke-linejoin:round"/><path class="st1" d="M11.1,18.8H24" id="path1640"/><path class="st1" d="M14,8.8l2,10" id="path1642"/><path class="st1" d="M24,29.8h-4l-2,1h-5" id="path1646"/><path class="st1" d="M23.2,29.8H28l2,1h5" id="path1660"/><path class="st1" d="M 35.8,19.1 34,22.8 h -5.3 l -2.6,-1 v -3" id="path1538" style="fill:#ffffff;stroke:#000000;stroke-linejoin:round"/><path class="st1" d="M36.9,18.8H24" id="path1534"/><path class="st1" d="M34,8.8l-2,10" id="path1536"/></g></svg>