<?xml version="1.0" ?><svg style="enable-background:new 0 0 48 48;" version="1.1" viewBox="0 0 48 48" xml:space="preserve" xmlns="http://www.w3.org/2000/svg" xmlns:xlink="http://www.w3.org/1999/xlink"><g id="Icons"><g><g><path d="M11.45385,30.10865c-0.9392,0.8778-1.5588-0.8176-2.2511-3.6169     c-0.6923-2.7992,1.5336-1.6511,1.5336-1.6511l1.7839,1.0192L11.45385,30.10865z" style="fill:#F9D9C0;"/></g><g><path d="M36.54615,30.10865c0.9392,0.8778,1.5588-0.8176,2.2511-3.6169     c0.6923-2.7992-1.5336-1.6511-1.5336-1.6511l-2.977,1.428L36.54615,30.10865z" style="fill:#F9D9C0;"/></g><path d="M32.94065,9.53935c-2.0956-1.556-5.0277-2.6623-9.129-2.6803c0,0-4.731-0.1799-8.6344,2.7252    l-1.673,1.5021c-1.7988,1.9787-3.1839,4.8928-3.3908,9.174l2.1227,15.5779l5.1086,5.3066h13.4553l4.8749-5.2616l2.5004-16.6842    c0,0-0.2519-4.614-3.5887-8.1937" style="fill:#F43735;"/><g><path d="M20.39995,24.47415c0,0,1.6818-1.6146-0.1464-2.2125l-4.8046-1.2856l-1.7842,0.8389l0.8892,1.7474     L20.39995,24.47415z" style="fill:#FFFFFF;"/></g><path d="M17.06675,11.18645c-0.8652-0.6053-3.2073-2.4102-3.402-4.3313c0,0-1.3128,4.4279,1.2532,6.6584    c0.1542,0.1341,0.3674,0.1828,0.5672,0.1394c0.5386-0.117,1.5677-0.5048,1.8385-1.7744    C17.37985,11.61485,17.28765,11.34105,17.06675,11.18645z" style="fill:#E6E6E6;"/><path d="M31.04645,11.15985c0.8936-0.6302,3.1721-2.411,3.3642-4.3047c0,0,1.304,4.3986-1.2279,6.6361    c-0.1691,0.1496-0.4064,0.2047-0.6264,0.1541c-0.5399-0.1241-1.5145-0.5134-1.7943-1.7203    C30.69475,11.63495,30.80305,11.33145,31.04645,11.15985z" style="fill:#E6E6E6;"/><g><path d="M34.40245,34.64025c0,0.1-0.01,0.15-0.01,0.15l-2.24,2.46l-2.17,2.38l-3.64-1.29h-5.05l-3.15,1.29     l-2.41-2.36l-2.2-2.16c-0.33-1.37,0-4.21,0-4.21c0.05-0.28,0.12-0.52,0.23-0.72c0.66-1.37,2.3-1.16,2.3-1.16     c2.98,0.03,6.36-1.39,7.53-1.92c0.27-0.12,0.42-0.2,0.42-0.2c0.1,0.09,0.21,0.18,0.33,0.26c1.95,1.39,5.99,1.82,7.19,1.82     c1.26,0,2.2,0.48,2.2,0.48c0.2,0.11,0.35,0.35,0.46,0.67c0.06,0.2,0.11,0.4,0.16,0.61c0.01,0.05,0.02,0.12,0.03,0.18     C34.59245,32.27025,34.45245,34.11025,34.40245,34.64025z" style="fill:#F9D9C0;"/><path d="M34.40245,34.64025c0,0.1-0.01,0.15-0.01,0.15l-2.24,2.46l-0.04,0.03c0,0-0.24-0.52,0-3.57     c0.24-3.05,2.08-3.58,2.08-3.58c0.06,0.2,0.11,0.4,0.16,0.61c0.01,0.05,0.02,0.12,0.03,0.18     C34.59245,32.27025,34.45245,34.11025,34.40245,34.64025z" style="fill:#D6B6A1;"/><path d="M15.73245,37.27025l-2.2-2.16c-0.33-1.37,0-4.21,0-4.21c0.05-0.28,0.12-0.52,0.23-0.72     c0.42,0.18,1.76,0.97,1.96,3.53C15.93245,36.51025,15.76245,37.18025,15.73245,37.27025z" style="fill:#D6B6A1;"/></g><g><path d="M27.35405,24.47415c0,0-1.6818-1.6146,0.1464-2.2125l4.8045-1.2856l1.7844,0.8389l-0.8894,1.7474     L27.35405,24.47415z" style="fill:#FFFFFF;"/></g><g><g><path d="M23.92495,32.71615c-0.0327,0-0.0654-0.0039-0.0971-0.0127l-1.8306-0.4912      c-0.2002-0.0537-0.3188-0.2598-0.2651-0.46c0.0537-0.1982,0.2583-0.3164,0.4594-0.2646l1.7461,0.4687l1.7613-0.3496      c0.1992-0.042,0.4004,0.0908,0.4404,0.295c0.0405,0.2031-0.0918,0.4003-0.2949,0.4414l-1.8467,0.3662      C23.97385,32.71425,23.94945,32.71615,23.92495,32.71615z" style="fill:#D6B6A1;"/></g><g><path d="M19.71505,35.98275c-0.104,0-0.2075-0.043-0.2818-0.1279      c-0.1367-0.1553-0.1215-0.3926,0.0342-0.5293l1.1162-0.9805c0.0684-0.0596,0.1563-0.0928,0.2476-0.0928h6.0391      c0.0942,0,0.1845,0.0352,0.2539,0.0987l1.0654,0.9804c0.1523,0.1407,0.1621,0.378,0.022,0.5303      c-0.1397,0.1524-0.3765,0.1611-0.5298,0.0225l-0.958-0.8819h-5.7515l-1.0098,0.8877      C19.89125,35.95245,19.80295,35.98275,19.71505,35.98275z" style="fill:#D6B6A1;"/></g><g><path d="M24.34245,27.16025l-0.14,3.08c-0.01,0.2-0.18,0.36-0.38,0.36h-0.01      c-0.21-0.01-0.37-0.19-0.36-0.39l0.14-3.11c0.27-0.12,0.42-0.2,0.42-0.2C24.11245,26.99025,24.22245,27.08025,24.34245,27.16025      z" style="fill:#D6B6A1;"/></g></g></g></g></svg>