<?xml version="1.0" ?><svg style="enable-background:new 0 0 48 48;" version="1.1" viewBox="0 0 48 48" xml:space="preserve" xmlns="http://www.w3.org/2000/svg" xmlns:xlink="http://www.w3.org/1999/xlink"><g id="Icons"><g><g><g><path d="M6.54205,19.33163c0,0-0.1236,1.4406,1.444,2.1304c0,0-0.3553,1.2749,0.9613,1.5256      c0,0,1.254,0.6856,1.3377,1.5969l3.2734,1.793l0.9022-4.9155L6.54205,19.33163z" style="fill:#E6E6E6;"/></g><g><path d="M41.45795,19.33163l-5.9281,1.5949l-0.7228,4.1826h2.7175      c0.0836-0.9113,1.5281-2.1215,1.5281-2.1215c1.3167-0.2507,0.9614-1.5256,0.9614-1.5256      C41.58155,20.77223,41.45795,19.33163,41.45795,19.33163z" style="fill:#E6E6E6;"/></g></g><path d="M11.83255,29.87313c-0.903,0.8438-1.4987-0.7861-2.1642-3.4772    c-0.6655-2.691,1.4743-1.5873,1.4743-1.5873l2.0972,1.5689L11.83255,29.87313z" style="fill:#D6B6A1;"/><path d="M35.73975,29.67923c0.903,0.8439,1.9264-0.5922,2.5919-3.2833    c0.6656-2.691-1.9204-1.492-1.9204-1.492l-1.8885,1.4736L35.73975,29.67923z" style="fill:#D6B6A1;"/><path d="M23.70935,7.52013c0,0-12.5171-0.4636-13.1661,12.888l2.0398,14.9741l4.9141,5.0996h12.9344    l4.6823-5.0532l2.4107-16.0405C37.52455,19.38813,36.87555,7.56643,23.70935,7.52013z" style="fill:#1D97FF;"/><path d="M13.38645,22.20493c0.2685-0.5368,0.8096-0.8785,1.4096-0.8935    c1.3369-0.0333,3.7391,0.0334,5.345,0.8093c0,0,1.1514,0.6542,1.1514,1.6748c0,0-0.1046,2.172-2.6692,2.1982    c0,0-3.0356,0.0523-4.1609-0.157c0,0-2.1459-0.628-1.5702-2.6431L13.38645,22.20493z" style="fill:#FFFFFF;"/><path d="M34.54655,22.17953c-0.2606-0.5212-0.7869-0.8521-1.3694-0.8674    c-1.3312-0.0349-3.7554,0.0273-5.3723,0.8086c0,0-1.1515,0.6542-1.1515,1.6748c0,0,0.1047,2.172,2.6693,2.1982    c0,0,3.0356,0.0523,4.1608-0.157c0,0,2.1459-0.628,1.5702-2.6431L34.54655,22.17953z" style="fill:#FFFFFF;"/><path d="M33.96875,34.45853l-2.21,2.48l-2.07,2.32l-3.69-3.17h-4.72l-3.1,3.17l-2.34-2.33v-0.01l-2.14-2.14    c-0.32-1.35,0-4.17,0-4.17c0.05-0.27,0.12-0.51,0.22-0.71c0.64-1.36,2.24-1.15,2.24-1.15c2.92,0.03,6.23-1.39,7.34-1.91    c0.25-0.12,0.39-0.19,0.39-0.19c0.11,0.1,0.23,0.2,0.36,0.28c1.91,1.36,5.79,1.78,6.94,1.78c1.23,0,2.14,0.48,2.14,0.48    c0.2,0.11,0.34,0.35,0.45,0.66c0.04,0.14,0.08,0.29,0.12,0.43C34.23875,31.84853,33.96875,34.45853,33.96875,34.45853z" style="fill:#F9D9C0;"/><path d="M33.96875,34.45853l-2.21,2.48c0,0-0.23-0.53,0-3.55c0.23-3.02,2.02-3.54,2.02-3.54    c0.04,0.14,0.08,0.29,0.12,0.43C34.23875,31.84853,33.96875,34.45853,33.96875,34.45853z" style="fill:#D6B6A1;"/><path d="M15.83875,36.91853l-2.14-2.14c-0.32-1.35,0-4.17,0-4.17c0.05-0.27,0.12-0.51,0.22-0.71    c0.4,0.18,1.71,0.94,1.91,3.49C16.03875,36.09853,15.86875,36.79853,15.83875,36.91853z" style="fill:#D6B6A1;"/><path d="M26.97625,11.90303h-6.0855l-2.8479,7.1946h3.8371l0.4797-1.289h2.9825l0.405,1.289h3.957    L26.97625,11.90303z M22.50955,16.27973l0.3598-2.3059h1.9185l0.3897,2.3059H22.50955z" style="fill:#FFFFFF;"/><g><g><path d="M19.77475,35.53423c-0.104,0-0.2075-0.0429-0.2817-0.1279      c-0.1367-0.1553-0.1216-0.3926,0.0342-0.5283l1.0727-0.9424c0.0684-0.0605,0.1563-0.0937,0.2476-0.0937h5.8057      c0.0942,0,0.1845,0.0351,0.2539,0.0986l1.0244,0.9424c0.1523,0.1406,0.1621,0.3779,0.0219,0.5303      c-0.1391,0.1523-0.3759,0.1621-0.5297,0.0224l-0.917-0.8437h-5.5181l-0.9663,0.8486      C19.95105,35.50403,19.86265,35.53423,19.77475,35.53423z" style="fill:#D6B6A1;"/></g><g><g><path d="M23.82165,32.39463c-0.0327,0-0.0654-0.0039-0.0972-0.0127l-1.7597-0.4727       c-0.2002-0.0537-0.3189-0.2597-0.2652-0.4599c0.0542-0.1983,0.2564-0.3174,0.4595-0.2647l1.6753,0.4502l1.6895-0.3359       c0.2026-0.04,0.4003,0.0908,0.4409,0.2949c0.0405,0.2031-0.0913,0.4004-0.2945,0.4414l-1.7753,0.3526       C23.87045,32.39263,23.84605,32.39463,23.82165,32.39463z" style="fill:#D6B6A1;"/></g><g><path d="M24.24875,26.92853l-0.15,3.07c-0.01,0.2-0.17,0.36-0.37,0.36c-0.01,0-0.01,0-0.02,0       c-0.21-0.01-0.37-0.19-0.36-0.39l0.15-3.13c0.25-0.12,0.39-0.19,0.39-0.19       C23.99875,26.74853,24.11875,26.84853,24.24875,26.92853z" style="fill:#D6B6A1;"/></g></g></g></g></g></svg>