<?xml version="1.0" ?><svg style="enable-background:new 0 0 48 48;" version="1.1" viewBox="0 0 48 48" xml:space="preserve" xmlns="http://www.w3.org/2000/svg" xmlns:xlink="http://www.w3.org/1999/xlink"><g id="Icons"><g><path d="M34.33539,30.26875c0,0-0.45,0.06-1.21,0.14c-2.34,2.61-5.72,4.27-9.51,4.27    c-3.84,0-7.28-1.71-9.63-4.4c0-0.01-0.01-0.01-0.02-0.01c-5.11-1.92-3.09-7.47-3.09-7.47l0.02-0.01    c-0.02-0.29-0.05-0.59-0.05-0.89c0-5.29,3.22-9.83,7.81-11.78c0.89-0.37,1.83-0.64,2.8-0.8c0.7-0.13,1.42-0.19,2.16-0.19    c1.23,0,2.42,0.18,3.55,0.51c0.97,0.27,1.9,0.67,2.76,1.17c3.21,1.82,5.55,5.01,6.24,8.77c0.36,0.79,0.71,1.83,1.04,3.22    C38.57539,28.66875,34.33539,30.26875,34.33539,30.26875z" style="fill:#301F7A;"/><path d="M29.92539,10.80875l-0.08,4.66l-0.01,0.58l-0.06,3.73l-2.85,1.46l0.12-5.77h-5.72l-0.16,5.92    l-2.77-1.6l-0.05-0.03l0.31-9.64c0.89-0.37,1.83-0.64,2.8-0.8l-0.05,3.38h5.71l0.05-3.06    C28.13539,9.90875,29.06539,10.30875,29.92539,10.80875z" style="fill:#6352C1;"/><path d="M19.32679,22.07365c0,0-2.9114-2.9049-6.9614-6.2149c0.24-0.45,0.5-0.88,0.8-1.29    c3.79,2.89,7.44,4.33,7.44,4.33s3.39,3.39,3.39,3.5l3.43-3.62c2.5-0.75,4.85-2.22,6.87-3.85c0.28,0.41,0.53,0.85,0.75,1.3    c-2.18,1.87-3.5627,5.1329-6.3727,5.9829l-4.7321,4.3377C23.94059,26.42935,19.32679,22.07365,19.32679,22.07365z" style="opacity:0.1;"/><g><path d="M23.99769,24.32475c0-0.1143-3.3891-3.5034-3.3891-3.5034s-9.1772-3.6176-13.5183-10.8529     c0,0-1.2948,10.2817,5.3692,17.2122l1.0662,6.8164l4.5696,4.7219l11.6906,0.1523l4.6077-4.8362l1.2185-6.7782     c0,0,6.2833-5.75,5.2932-17.2884c0,0-6.1309,8.53-13.4803,10.7387L23.99769,24.32475z" style="fill:#6352C1;"/><path d="M18.09529,38.71895l-1.1043-8.7435c0,0,3.77,1.2417,5.8263,1.2798l1.1827,0.495l1.064-0.4569     c0,0,3.5033,0.1142,5.8262-1.1044l-1.1043,8.6823" style="fill:#F9D9C0;"/><path d="M27.66299,26.00665c0,0-1.1143-1.0393,0.075-1.4473l3.1279-0.8851l1.174,0.5316l-0.5649,1.1504     L27.66299,26.00665z" style="fill:#FFFFFF;"/><path d="M20.29729,25.97845c0,0,1.0993-1.0552-0.0957-1.4461l-3.1402-0.8403l-1.1663,0.5484l0.5813,1.1421     L20.29729,25.97845z" style="fill:#FFFFFF;"/><g><g><path d="M20.24129,34.60505c-0.1319,0-0.2598-0.0694-0.3281-0.1934       c-0.1006-0.1807-0.0357-0.4092,0.1455-0.5098l1.039-0.5771c0.0557-0.0303,0.1182-0.0469,0.1822-0.0469h5.31       c0.0684,0,0.1358,0.0186,0.1943,0.0547l0.9522,0.5771c0.1772,0.1075,0.2339,0.3379,0.1265,0.5147       c-0.1075,0.1767-0.3384,0.2344-0.5152,0.126l-0.8628-0.5225h-5.1079l-0.9541,0.5303       C20.36529,34.58935,20.30279,34.60505,20.24129,34.60505z" style="fill:#D6B6A1;"/></g><g><path d="M25.08889,35.79445h-2.1064c-0.207,0-0.375-0.168-0.375-0.375s0.168-0.375,0.375-0.375h2.1064       c0.2071,0,0.375,0.168,0.375,0.375S25.29599,35.79445,25.08889,35.79445z" style="fill:#D6B6A1;"/></g></g><g><path d="M23.47539,27.61875l-0.3,3.79l-0.36-0.15c-0.12,0-0.25-0.01-0.38-0.02l0.29-3.67      c0.02-0.21,0.19-0.37,0.4-0.35C23.33539,27.23875,23.48539,27.41875,23.47539,27.61875z" style="fill:#4C439E;"/></g></g></g></g></svg>