<?xml version="1.0" ?><svg style="enable-background:new 0 0 48 48;" version="1.1" viewBox="0 0 48 48" xml:space="preserve" xmlns="http://www.w3.org/2000/svg" xmlns:xlink="http://www.w3.org/1999/xlink"><g id="Icons"><g><g><path d="M11.1241,18.37215c-0.207,0-0.375-0.168-0.375-0.375V7.05725c0-0.2071,0.168-0.375,0.375-0.375     c0.207,0,0.375,0.1679,0.375,0.375v10.9399C11.4991,18.20415,11.3311,18.37215,11.1241,18.37215z" style="fill:#464747;"/></g><polyline points="14.3385,16.09305 9.3977,16.09305 9.3977,32.52665 14.0043,32.52665   " style="fill:#959363;"/><path d="M28.0122,38.51705l2.33,1.6191l8.2601-4.9775l-1.2035-16.5944    c-1.6046-11.7486-12.9521-11.2901-12.9521-11.2901s-10.1082-0.6163-11.9206,11.2901l-1.2608,16.3335l7.9001,5.0209l3.4401-0.7396    L28.0122,38.51705z" style="fill:#4F7F66;"/><path d="M11.4945,18.56425l-0.2292,6.5335c0,0,7.8997,3.2439,7.8997,14.8206l2.0197,1.2836l7.1966,0.1158    l1.961-1.1817c0,0-0.795-10.3676,8.26-14.7375l-0.4585-6.8343H11.4945z" style="fill:#F43735;"/><polyline points="21.1847,41.20195 21.4452,25.96075 14.3385,23.47055 14.3385,21.06785 35.2864,21.06785     35.2864,23.06445 28.6535,25.91005 28.3813,41.31775   " style="fill:#464747;"/><g><path d="M31.8643,23.13385H17.5049c-0.207,0-0.375-0.1679-0.375-0.375c0-0.207,0.168-0.375,0.375-0.375     h14.3594c0.207,0,0.375,0.168,0.375,0.375C32.2393,22.96595,32.0713,23.13385,31.8643,23.13385z" style="fill:#4F7F66;"/></g></g></g></svg>