<?xml version="1.0" ?><svg style="enable-background:new 0 0 48 48;" version="1.1" viewBox="0 0 48 48" xml:space="preserve" xmlns="http://www.w3.org/2000/svg" xmlns:xlink="http://www.w3.org/1999/xlink"><g id="Icons"><g><path d="M35.53107,22.92803l-1.91,9.56c-0.16,0.81-0.47,1.59-0.92,2.28l-1.26,1.95v0.02l-0.32,0.47    c-0.1,0.16-0.21,0.31-0.33,0.45c-0.7,0.92-1.63,1.63-2.71,2.07l-1.53,0.62c-1.66,0.68-3.53,0.64-5.16-0.09l-1.62-0.73    c-1.12-0.5-2.07-1.3-2.76-2.32l-0.08-0.11l-0.58-0.87l-1-1.48c-0.48-0.72-0.82-1.53-0.99-2.38l-1.89-9.4    c-0.2-1-0.16-2.03,0.11-3.01l1.8-6.64c0.2-0.74,0.52-1.43,0.96-2.04c0.17-0.27,0.37-0.52,0.59-0.75c0.44-0.46,0.94-0.86,1.5-1.18    l2.82-1.63c0.55-0.42,3.7-0.54,3.7-0.54c0.96-0.07,2.23,0.21,3.07,0.44c0.53,0.14,1.04,0.35,1.52,0.62l1.83,1.03    c0.64,0.36,1.21,0.83,1.69,1.37c0.21,0.23,0.41,0.49,0.58,0.76c0.35,0.53,0.63,1.12,0.81,1.75l1.94,6.66    C35.69107,20.81803,35.73107,21.88803,35.53107,22.92803z" style="fill:#F43735;"/><g><path d="M23.81337,32.95443c-0.0566,0-0.1133-0.0126-0.1655-0.038l-1.7534-0.8614     c-0.1856-0.0918-0.2622-0.3164-0.1709-0.5019c0.0903-0.1856,0.3144-0.2617,0.5019-0.1719l1.6006,0.7861l1.9038-0.7949     c0.1909-0.082,0.4111,0.0108,0.4907,0.2012c0.0796,0.1914-0.0107,0.4111-0.2016,0.4902l-2.0611,0.8613     C23.91147,32.94473,23.86267,32.95443,23.81337,32.95443z" style="fill:#DB2A2A;"/></g><path d="M23.29847,24.85163l-2.5299-8.0896c-0.0359-0.1147-0.1135-0.2119-0.2176-0.272l-3.4596-1.9989    c-0.27-0.1559-0.6146-0.0167-0.7005,0.2829l-2.2019,7.6783c-0.0187,0.0653-0.0233,0.1337-0.0136,0.2008l0.6156,4.2506    c0.0103,0.0711,0.0364,0.1389,0.0765,0.1986l2.6018,3.8757c0.1563,0.2328,0.4783,0.2822,0.6972,0.1071l3.3612-2.6889    c0.051-0.0408,0.093-0.0915,0.1236-0.1489l1.6127-3.0274C23.32427,25.10673,23.33667,24.97413,23.29847,24.85163z     M17.84577,25.93503l-2.1841-1.0458l1.1997-1.1383l4.4912,1.4766L17.84577,25.93503z" style="fill:#303030;"/><path d="M24.78527,25.21993l1.6127,3.0274c0.0306,0.0574,0.0726,0.1081,0.1236,0.1489l3.3612,2.6889    c0.2189,0.1751,0.5408,0.1257,0.6972-0.1071l2.6018-3.8757c0.0401-0.0597,0.0662-0.1275,0.0765-0.1986l0.6155-4.2506    c0.0098-0.0671,0.0052-0.1355-0.0135-0.2008l-2.2019-7.6783c-0.0859-0.2996-0.4305-0.4388-0.7004-0.2829l-3.4597,1.9989    c-0.1041,0.0601-0.1817,0.1573-0.2176,0.272l-2.5299,8.0896C24.71257,24.97413,24.72487,25.10673,24.78527,25.21993z     M26.69667,25.22753l4.4912-1.4766l1.1997,1.1383l-2.1841,1.0458L26.69667,25.22753z" style="fill:#303030;"/><g><g><path d="M16.28107,13.63803c-0.03,0.01-0.06,0.01-0.09,0.01c-0.17,0-0.32-0.12-0.36-0.29l-0.49-2.08      c0.17-0.27,0.37-0.52,0.59-0.75l0.63,2.66C16.61107,13.38803,16.48107,13.58803,16.28107,13.63803z" style="fill:#DB2A2A;"/></g><g><path d="M32.64107,11.39803l-0.46,1.96c-0.04,0.17-0.19,0.29-0.36,0.29c-0.03,0-0.06,0-0.09-0.01      c-0.2-0.05-0.32-0.25-0.28-0.45l0.61-2.55C32.27107,10.86803,32.47107,11.12803,32.64107,11.39803z" style="fill:#DB2A2A;"/></g><g><path d="M17.79107,33.03803l-0.86,4.06l-0.58-0.87l0.71-3.35c0.04-0.2,0.24-0.32,0.44-0.29      C17.70107,32.63803,17.83107,32.83803,17.79107,33.03803z" style="fill:#DB2A2A;"/></g><g><path d="M31.44107,36.71803v0.02l-0.32,0.47c-0.1,0.16-0.21,0.31-0.33,0.45l-0.53-4.66      c-0.02-0.2,0.12-0.39,0.33-0.41c0.2-0.02,0.39,0.12,0.41,0.33L31.44107,36.71803z" style="fill:#DB2A2A;"/></g></g><g><path d="M19.20887,10.88323c-0.1279,0-0.2529-0.0655-0.3227-0.1836     c-0.1055-0.1787-0.0474-0.4082,0.1303-0.5137c0.1402-0.083,3.4815-2.0195,8.3501-0.665     c0.1997,0.0556,0.3164,0.2626,0.2608,0.4619c-0.0557,0.1992-0.2627,0.3193-0.4619,0.2607     c-4.5469-1.2656-7.7339,0.5684-7.7657,0.5869C19.33977,10.86663,19.27387,10.88323,19.20887,10.88323z" style="fill:#DB2A2A;"/></g><polygon points="26.69667,25.22753 31.18787,23.75093 32.38757,24.88923 30.20347,25.93503   " style="fill:#FFFFFF;"/><polygon points="21.35257,25.22753 16.86137,23.75093 15.66167,24.88923 17.84577,25.93503   " style="fill:#FFFFFF;"/></g></g></svg>