<?xml version="1.0" ?><svg style="enable-background:new 0 0 48 48;" version="1.1" viewBox="0 0 48 48" xml:space="preserve" xmlns="http://www.w3.org/2000/svg" xmlns:xlink="http://www.w3.org/1999/xlink"><g id="Icons"><g><g><path d="M12.27871,20.94955c0,0-1.7272-0.3903-1.8226,1.4222c-0.0953,1.8124-0.3338,2.4325,0,2.7187     c0.3339,0.2862,1.0017,1.0016,1.0494,2.0986s0.2572,3.191,1.7503,1.7147l2.8258-4.6215L12.27871,20.94955z" style="fill:#EAC9B2;"/><path d="M35.72131,20.94955c0,0,1.7271-0.3903,1.8225,1.4222c0.0954,1.8124,0.3339,2.4325,0,2.7187     c-0.3339,0.2862-1.0016,1.0016-1.0493,2.0986s-0.2573,3.191-1.7503,1.7147l-3.8578-3.9316L35.72131,20.94955z" style="fill:#EAC9B2;"/></g><path d="M35.40992,19.10945l-0.71,4.65l-0.63,11.97l-5.68,5.48h-8.93l-5.73-4.91l-0.89-12.75v-6.11    l2.16-1.23l0.63-4.82l7.54,1.12c-1.76,0.83-2.95,2.16-1.18,3.51c1.77,1.34,0.8,2.04,0.8,2.04c1.47-0.25,0.44-0.78,0.43-1.69    c0-0.9-0.63-1.26-0.27-2.82c0.35-1.56,3.42-1.17,3.42-1.17l6.75,0.27l0.51,3.45L35.40992,19.10945z" style="fill:#F9D9C0;"/><g><g><path d="M27.94581,35.40785c-0.0883,0-0.1767-0.0313-0.248-0.0938l-0.6099-0.538l-6.5971-0.1514      l-0.563,0.501c-0.1538,0.1367-0.3916,0.125-0.5293-0.0313c-0.1377-0.1543-0.1236-0.3916,0.0312-0.5293l0.6729-0.5986      c0.0708-0.0635,0.1557-0.0869,0.2578-0.0947l6.8818,0.1572c0.0884,0.0019,0.1729,0.0351,0.2393,0.0937l0.7124,0.6289      c0.1553,0.1368,0.1699,0.3741,0.0332,0.5293C28.15291,35.36485,28.04941,35.40785,27.94581,35.40785z" style="fill:#D6B6A1;"/></g><g><path d="M25.25691,36.79065c-0.0059,0-0.0117,0-0.0176,0l-2.9785-0.1348      c-0.2066-0.0097-0.3667-0.1845-0.3574-0.3916c0.0092-0.207,0.1816-0.3505,0.3916-0.3584l2.9785,0.1348      c0.2065,0.0098,0.3667,0.1846,0.3574,0.3916C25.62211,36.63345,25.45611,36.79065,25.25691,36.79065z" style="fill:#D6B6A1;"/></g><g><path d="M23.82381,30.66375c-0.0528,0-0.1055-0.0108-0.1548-0.0332l-1.8252-0.8272      c-0.1885-0.0859-0.2725-0.3076-0.187-0.4971c0.0859-0.1884,0.3081-0.2705,0.4966-0.1865l1.6811,0.7617l1.7817-0.6953      c0.1905-0.0742,0.4107,0.0205,0.4854,0.2129c0.0757,0.1934-0.02,0.4111-0.2129,0.4863l-1.9287,0.753      C23.91611,30.65495,23.87021,30.66375,23.82381,30.66375z" style="fill:#D6B6A1;"/></g><g><path d="M24.13992,39.12945v2.08h-0.75v-2.08c0-0.21,0.17-0.38,0.38-0.38      C23.96992,38.74945,24.13992,38.91945,24.13992,39.12945z" style="fill:#D6B6A1;"/></g></g><path d="M22.74261,6.93285l-7.2282,1.4065c-1.2013,0.2338-2.1647,1.1313-2.4829,2.3131l-1.3071,4.8552    l0.7883,2.0497l-0.7883,0.9985l1.1562,4.9929l0.2628-4.4673l2.9957-1.6818l-0.4204-4.8494l5.5118,0.7505    c0,0-2.1023,1.3212-1.2614,2.4249s3.7315,2.7329,1.9446,4.0468c0,0,3.3703-1.3568,1.8987-3.3539c0,0-1.788-2.8283,0.8868-2.4802    l1.0351,0.2631l7.1179-1.4268l-0.5782,4.3097l2.4702,2.2073v4.4673l1.7344-4.8877l-0.7884-1.3665l0.3679-2.3125l-0.2628-3.4687    l-0.0863-0.518c-0.2149-1.2896-1.1914-2.3195-2.4678-2.6025l-7.3483-1.6292C24.85671,6.74415,23.78441,6.73015,22.74261,6.93285z" style="fill:#464747;"/></g></g></svg>