<?xml version="1.0" ?><svg id="Layer_1" style="enable-background:new 0 0 48 48;" version="1.1" viewBox="0 0 48 48" xml:space="preserve" xmlns="http://www.w3.org/2000/svg" xmlns:xlink="http://www.w3.org/1999/xlink"><g id="Icons"><g><g><path d="M10.7671,21.60104l-1.8269-3.8527l1.6058,0.2556c0,0-3.1253-5.929-3.3775-7.1697l0.7138,5.459     l-1.6914,0.2681l4.2681,6.1852" style="fill:#FFD24A;"/><path d="M12.4928,26.55664c-1.0442-0.3764-2.1415-1.7027-2.2724-2.8803l-0.0882-0.7946     c-0.1375-1.2372,0.4968-2.3824,1.5185-2.9549" style="fill:#F9D9C0;"/></g><g><path d="M37.3818,21.28694l1.6779-3.5386l-1.6057,0.2556c0,0,3.1253-5.929,3.3775-7.1697l-0.7137,5.459     l1.6913,0.2681l-4.1302,6.1623" style="fill:#FFD24A;"/><path d="M35.8098,26.17314c1.0442-0.3764,1.8389-1.3192,1.9697-2.4968l0.0883-0.7946     c0.1256-1.1309-0.3935-2.1848-1.2639-2.7949L35.33688,19.229l-1.05556,2.78761" style="fill:#F9D9C0;"/></g><path d="M23.8725,7.53654c0,0-10.50747-0.39247-12.19727,10.15316    c-0.18596,1.16056-0.15731,2.34544-0.01355,3.51198l1.73082,14.04486l4.63,4.8h12.18l4.41-4.76l1.68254-12.84231    c0.38581-2.9448-0.03381-5.97271-1.40517-8.60712C33.2574,10.70108,30.07437,7.55656,23.8725,7.53654z M33.5325,34.37654    l-4.04,4.52l-3.47-2.99h-4.44l-2.91,2.99l-4.22-4.22l-0.35-8.78l4.82,1.68l5.06-3.56l4.88,3.81l5.07-1.52L33.5325,34.37654z" style="fill:#F43735;"/><path d="M14.6076,19.91684l6.9252,2.34C21.5328,22.25684,17.3898,27.72064,14.6076,19.91684z" style="fill:#FFFFFF;"/><path d="M33.1772,19.91684l-6.9251,2.34C26.2521,22.25684,30.3952,27.72064,33.1772,19.91684z" style="fill:#FFFFFF;"/><polygon points="33.9325,26.31014 33.5325,34.38014 29.4925,38.89014 26.0225,35.91014 21.5825,35.91014     18.6725,38.89014 14.4525,34.67014 14.1025,25.89014 18.9225,27.57014 23.0925,24.64014 23.8725,24.10014 23.9825,24.02014     28.8625,27.83014   " style="fill:#F9D9C0;"/><g><g><path d="M23.9775,30.97484c-0.0327,0-0.0654-0.0039-0.0971-0.0127l-1.6568-0.4453      c-0.2002-0.0537-0.3188-0.2597-0.2651-0.4599c0.0537-0.1993,0.2622-0.3174,0.4594-0.2647l1.5723,0.4229l1.586-0.3155      c0.2006-0.0429,0.4008,0.0918,0.4409,0.295c0.0405,0.2031-0.0913,0.4003-0.2945,0.4414l-1.6718,0.332      C24.0263,30.97294,24.0019,30.97484,23.9775,30.97484z" style="fill:#D6B6A1;"/></g><g><path d="M20.1675,34.96604c-0.104,0-0.2076-0.0429-0.2818-0.1279      c-0.1367-0.1553-0.1216-0.3916,0.0342-0.5283l1.0103-0.8877c0.0683-0.0606,0.1562-0.0938,0.2475-0.0938h5.4658      c0.0943,0,0.1846,0.0352,0.2539,0.0987l0.9644,0.8877c0.1523,0.1406,0.1621,0.3779,0.022,0.5302      c-0.1397,0.1534-0.3775,0.1612-0.5298,0.0225l-0.8569-0.7891h-5.1778l-0.9043,0.794      C20.3437,34.93584,20.2554,34.96604,20.1675,34.96604z" style="fill:#D6B6A1;"/></g><g><path d="M23.8725,24.10014l-0.18,4.12c-0.01,0.2-0.17,0.36-0.37,0.36c-0.01,0-0.01,0-0.02,0      c-0.2-0.01-0.37-0.19-0.36-0.39l0.15-3.55L23.8725,24.10014z" style="fill:#D6B6A1;"/></g></g></g></g></svg>