<?xml version="1.0" ?><svg id="Layer_1" style="enable-background:new 0 0 48 48;" version="1.1" viewBox="0 0 48 48" xml:space="preserve" xmlns="http://www.w3.org/2000/svg" xmlns:xlink="http://www.w3.org/1999/xlink"><g id="Icons"><g><path d="M19.39449,35.75868l0.9164-2.5652l3.7549-1.349l3.1631,1.3483l1.4641,2.4067    c0,0,0.5445-2.8397,1.9993-0.7248c1.4549,2.1148,1.4327,3.1342,0,4.3178c-1.4326,1.1836-7.9729,2.2882-11.4582,0.9873    c-3.4852-1.3009-3.0085-4.1171-3.0085-4.1171s-0.1199-1.0125,1.0028-0.9697    C17.22839,35.09298,19.01179,32.78108,19.39449,35.75868z" style="fill:#707070;"/><circle cx="23.98929" cy="38.48655" r="3.21972" style="fill:#545454;"/><path d="M12.57249,23.37408l0.1745-8.2815c0,0,1.4001-8.751,11.5117-8.7988    c0,0,8.5683-0.1073,11.1705,9.1106v7.9697H12.57249z" style="fill:#B3B3B3;"/><polygon points="33.95659,14.88208 34.86529,13.75928 35.57499,15.47088 35.57499,23.37408     33.95659,22.18498 32.99409,18.15838   " style="fill:#F43735;"/><polygon points="14.02779,14.88208 13.12219,13.72898 12.55519,15.56168 12.40939,23.37408     14.02779,22.18498   " style="fill:#F43735;"/><path d="M35.48749,25.96448l-5.2867,8.36035c-1.5-0.17-1.57331,1.18965-1.57331,1.18965l-1.42-2.31    l-3.238-1.126l-3.5938,1.342l-0.9982,2.944c-0.33-1.16-2.12-1.57-2.12-1.57l-5.21-8.31l0.46-3.31l1.49-1.01l0.03-7.28l1.84-1.23    l1.28-0.85c0,0,0.4-0.17,1.14-0.36c1.14-0.28,3.09-0.62,5.7-0.49h0.02c2.64-0.13,4.61,0.22,5.74,0.5    c0.73,0.19,1.11,0.35,1.11,0.35l1.28,0.86l1.82,1.22v2.439v4.861l1.5034,1.0473L35.48749,25.96448z" style="fill:#CCCCCC;"/><path d="M11.66739,9.53238l-0.9585,15.3963c0,0-0.2111,7.8753,5.4731,10.8429    c0,0,0.25142-0.10942,0.9615-0.5048c0,0,0.2224-0.7527,0.9351-0.98l-5.5621-8.3185l0.3484-16.4359    C12.86489,9.53238,11.66739,9.53238,11.66739,9.53238z" style="fill:#707070;"/><path d="M31.31749,24.30448l-2.51-0.34c0,0-0.16-8.07,0.94-11.51c0.73,0.19,1.11,0.35,1.11,0.35l1.28,0.86    C32.01749,14.64448,31.11749,21.69448,31.31749,24.30448z" style="fill:#F43735;"/><path d="M19.19749,23.96448l-2.5,0.34c0.2-2.62-0.7-9.7-0.83-10.65l1.28-0.85c0,0,0.4-0.17,1.14-0.36    C19.40749,15.86448,19.19749,23.96448,19.19749,23.96448z" style="fill:#F43735;"/><path d="M36.33339,9.53238l0.9585,15.3963c0,0,0.1273,7.9907-5.5569,10.9583    c0,0-0.0341-0.588-0.8777-0.6202c0,0-0.2224-0.7527-0.9351-0.98l5.5621-8.3185l-0.3484-16.4359    C35.13589,9.53238,36.33339,9.53238,36.33339,9.53238z" style="fill:#707070;"/><path d="M15.56199,24.47028v1.9955l1.1274,1.3587c0,0,3.2035,2.038,6.0481-0.8067l0.5095-1.9955    l-5.0056-1.3192L15.56199,24.47028z" style="fill:#DB2A2A;"/><path d="M32.41649,24.47028v1.9955l-1.1274,1.3587c0,0-3.2033,2.038-6.048-0.8067l-0.5095-1.9955    l5.0056-1.3192L32.41649,24.47028z" style="fill:#DB2A2A;"/><circle cx="23.98931" cy="38.48655" r="1.55875" style="fill:#C9C9C9;"/><g><g><path d="M21.34719,33.94068c-0.0322,0-0.0654-0.0039-0.0986-0.0137      c-0.1997-0.0537-0.3179-0.2598-0.2632-0.46l1.2275-4.5048c0.0542-0.2002,0.2554-0.3233,0.4605-0.2627      c0.1997,0.0537,0.3178,0.2597,0.2632,0.4599l-1.2276,4.5049C21.66359,33.83128,21.51219,33.94068,21.34719,33.94068z" style="fill:#707070;"/></g><g><path d="M26.04649,34.02758c-0.165,0-0.3164-0.1094-0.3618-0.2764l-1.251-4.5918      c-0.0542-0.2002,0.0635-0.4062,0.2632-0.4599c0.2036-0.0596,0.4063,0.0625,0.4605,0.2627l1.2509,4.5918      c0.0542,0.2001-0.0634,0.4062-0.2631,0.4599C26.11199,34.02368,26.07879,34.02758,26.04649,34.02758z" style="fill:#707070;"/></g></g><g><path d="M17.05959,35.26208c0,0,0.9978-1.8045,1.9319-0.5944c0.9341,1.21,0.0857,6.0344-1.7404,2.6138" style="fill:#C9C9C9;"/><circle cx="17.05959" cy="36.28108" r="1.019" style="fill:#F4F4F4;"/></g><g><path d="M30.94209,35.26208c0,0-1.05968-1.84274-1.99378-0.63264     c-0.9341,1.21-0.02392,6.07264,1.80228,2.65204" style="fill:#C9C9C9;"/><circle cx="30.94204" cy="36.28108" r="1.019" style="fill:#F4F4F4;"/></g></g></g></svg>