<?xml version="1.0" ?><svg style="enable-background:new 0 0 48 48;" version="1.1" viewBox="0 0 48 48" xml:space="preserve" xmlns="http://www.w3.org/2000/svg" xmlns:xlink="http://www.w3.org/1999/xlink"><g id="Icons"><g><path d="M14.22025,37.31525c-7.313-0.7261-6.5416-4.1329-6.5416-4.1329l3.8899-10.1139v-5.0829    c0.0661-11.1257,12.4998-10.4769,12.4998-10.4769s11.39-0.1352,12.5095,10.2202v4.9574l3.7503,10.548    c0,0-0.7096,0.6517-0.9802,1.6914c-0.196,0.753,0.3993,1.8831-1.0349,2.2828l-4.1422,1.0076" style="fill:#707070;"/><path d="M14.23845,22.84315l-3.2444,4.7313l3.8159,6.7475c0,0,0.8886,0.4587,2.1643,0.559    c0.8093,0.0636,1.9152-0.751,2.5981,0.4316h8.0773c0,0,2.3255-1.6483,5.4103-0.9906l3.9186-7.0298l-2.7381-4.449H14.23845z" style="fill:#464747;"/><path d="M9.61775,29.75726c0,0-1.7482,2.3515-2.0761,3.8909c-0.3279,1.5394,0.43,2.7024,1.7364,3.2346    c1.3065,0.5321,4.3889,0.9825,4.3889,0.9825L9.61775,29.75726z" style="fill:#464747;"/><path d="M38.20215,29.75726c0,0,1.9309,2.3086,2.2589,3.848c0.3279,1.5394-0.4721,2.9535-1.7785,3.4857    c-1.3065,0.5321-4.5117,1.1251-4.5117,1.1251L38.20215,29.75726z" style="fill:#464747;"/><g><g><path d="M19.82715,36.90886c-0.1738,0-0.3301-0.1216-0.3672-0.2983l-1.5928-7.646      c-0.042-0.2032,0.0879-0.4014,0.2911-0.4439c0.2021-0.04,0.4013,0.0884,0.4433,0.2905l1.5928,7.646      c0.042,0.2032-0.0879,0.4014-0.291,0.4439C19.87795,36.90646,19.85255,36.90886,19.82715,36.90886z" style="fill:#333333;"/></g><g><path d="M27.53805,36.87125c-0.0254,0-0.0507-0.0024-0.0761-0.0078      c-0.2032-0.0425-0.333-0.2407-0.2911-0.4439l1.585-7.6084c0.042-0.2026,0.2432-0.3339,0.4434-0.2905      c0.2031,0.0425,0.333,0.2407,0.291,0.4439l-1.585,7.6084C27.86815,36.74966,27.71195,36.87125,27.53805,36.87125z" style="fill:#333333;"/></g></g><path d="M35.57235,25.17986l-2.962-5.2905c-0.0664-0.1187-0.1914-0.1919-0.3271-0.1919h-16.1651    c-0.1328,0-0.2548,0.0698-0.3222,0.1836l-3.2891,5.5469c-0.1054,0.1782-0.0469,0.4082,0.1309,0.5141    c0.0605,0.0352,0.126,0.0523,0.1914,0.0523c0.1279,0,0.2529-0.0655,0.3223-0.1836l1.5376-2.5928h18.9255l1.3035,2.3281    c0.1005,0.1812,0.3281,0.2451,0.5107,0.1441C35.60945,25.58905,35.67385,25.36056,35.57235,25.17986z M21.86135,20.44745h1.5274    v2.0205h-1.5274V20.44745z M21.11135,22.46795h-1.0342v-2.0205h1.0342V22.46795z M24.13875,20.44745h4.6093v2.0205h-4.6093    V20.44745z M16.33205,20.44745h2.9951v2.0205h-4.1933L16.33205,20.44745z M29.49805,22.46795v-2.0205h2.5655l1.1311,2.0205    H29.49805z" style="fill:#464747;"/><g><path d="M36.97855,27.29215l-3.9186,7.0298c-3.1243-2.2098-5.4103,0.9906-5.4103,0.9906h-8.0773     c-1.6002-2.7814-4.7624-0.9906-4.7624-0.9906l-3.8159-6.7475l-1.3763,2.1828l4.0492,8.108c0,0,0.3547,2.2557,2.7813,2.5527     c0,0,2.5896,0.4974,3.4599-1.6383h7.6653c0,0,0.9907,1.8271,3.6958,1.7137c0,0,2.4272,0.0051,3.4057-3.4608l3.5707-7.6126" style="fill:#707070;"/><circle cx="16.97417" cy="37.17736" r="1.25997" style="fill:#F4F4F4;"/><circle cx="30.77903" cy="37.17736" r="1.25997" style="fill:#F4F4F4;"/></g></g></g></svg>