<?xml version="1.0" ?><svg style="enable-background:new 0 0 48 48;" version="1.1" viewBox="0 0 48 48" xml:space="preserve" xmlns="http://www.w3.org/2000/svg" xmlns:xlink="http://www.w3.org/1999/xlink"><g id="Icons"><g><path d="M32.50755,16.01355c-2.5818-5.0681-8.5076-4.8768-8.5076-4.8768s-5.9256-0.1913-8.5075,4.8768    v8.6924h5.639l1.7759,6.3181h1.7971l2.5922-6.3181h4.8925L32.50755,16.01355z" style="fill:#FFD24A;"/><polygon points="32.37165,28.06095 30.42745,37.73065 27.70745,40.38065 24.33745,40.84065     23.99745,40.89065 23.58745,40.85065 20.32745,40.57065 17.57055,37.72735 15.96305,28.06095 23.29745,31.02065     24.70745,31.02065   " style="fill:#F9D9C0;"/><path d="M11.84555,7.10935c0,0,1.7755,8.4064,8.3701,15.1097c0,0,1.8753,1.7822,2.1016,4.4226    l0.9783,4.3824l-6.8845-2.1916l1.1595,8.8949l-2.6451-3.1524l-0.3986-6.5584C14.52685,28.01655,8.82085,24.99685,11.84555,7.10935    z" style="fill:#464747;"/><path d="M36.15445,7.10935c0,0-1.7755,8.4064-8.3701,15.1097c0,0-1.7373,1.5783-2.1016,4.4226    l-0.9783,4.3824l6.8845-2.1916l-1.1595,8.8949l2.6451-3.1524l0.3986-6.5584C33.47315,28.01655,39.17915,24.99685,36.15445,7.10935    z" style="fill:#464747;"/><g><path d="M16.11775,24.20495l4.6438,1.5691C20.76155,25.77405,17.98335,29.43795,16.11775,24.20495z" style="fill:#FFFFFF;"/></g><g><path d="M32.06685,24.20495l-4.6438,1.5691C27.42305,25.77405,30.20125,29.43795,32.06685,24.20495z" style="fill:#FFFFFF;"/></g><g><g><g><path d="M27.45115,35.60415c-0.0884,0-0.1768-0.0312-0.2481-0.0937l-0.4927-0.4346l-5.4609-0.125       l-0.4512,0.4014c-0.1533,0.1377-0.3916,0.123-0.5293-0.0313c-0.1377-0.1543-0.1235-0.3916,0.0313-0.5293l0.5615-0.499       c0.0708-0.0635,0.1812-0.0879,0.2573-0.0947l5.7452,0.1308c0.0888,0.002,0.1733,0.0352,0.2397,0.0938l0.5952,0.5254       c0.1553,0.1367,0.1699,0.374,0.0332,0.5293C27.65815,35.56115,27.55465,35.60415,27.45115,35.60415z" style="fill:#D6B6A1;"/></g><g><path d="M25.20605,36.75845c-0.0059,0-0.0118,0-0.0176,0l-2.4864-0.1123       c-0.2065-0.0098-0.3667-0.1846-0.3574-0.3916s0.1817-0.3516,0.3916-0.3584l2.4864,0.1123       c0.2065,0.0098,0.3667,0.1846,0.3574,0.3916C25.57125,36.60125,25.40525,36.75845,25.20605,36.75845z" style="fill:#D6B6A1;"/></g></g><g><path d="M24.33745,38.65065v2.19l-0.34,0.05l-0.41-0.04v-2.2c0-0.21,0.17-0.38,0.37-0.38      C24.16745,38.27065,24.33745,38.44065,24.33745,38.65065z" style="fill:#D6B6A1;"/></g></g></g></g></svg>