<?xml version="1.0" ?><svg id="Layer_1" style="enable-background:new 0 0 48 48;" version="1.1" viewBox="0 0 48 48" xml:space="preserve" xmlns="http://www.w3.org/2000/svg" xmlns:xlink="http://www.w3.org/1999/xlink"><g id="Icons"><g><path d="M11.69578,29.85713c0,0,0.3062-1.3886,0.382-2.1533s2.2505,0.345,2.873,0.4284    c0.6225,0.0833,1.652,0.2462,3.0595,0.2518s3.4172-0.4912,4.5976-1.0643c1.1805-0.5731,2.323-0.0172,2.5805,1.1571    c0.158,0.7207,0.526,2.8192-0.6096,3.6521c-0.4698,0.3444-2.0724-0.2029-2.9636-0.0361c-0.4648,0.087-0.9948,0.142-1.5984,0.1569    C15.45738,32.36193,12.47888,31.44833,11.69578,29.85713z" style="fill:#F9D9C0;"/><path d="M11.27018,28.67813c-2.7997-2.6892-2.2358-7.8188-2.2358-7.8188s1.0902-1.2329,1.4221,0.1542    c0.3404,1.3872,1.1612,5.2431,3.1014,5.2431c0,0,1.1956,0.8262,1.919-1.1651l0.7368-2.3646c0,0,2.8051-5.5634,7.1622-3.538    c0,0,2.0805,1.4211,1.0338,4.9953c-1.0552,3.5742-3.4125,4.9103-6.1272,4.7997c0,0-1.4126-0.0852-2.2721-0.3916    c-0.8-0.2808-2.6126-0.3999-3.5487-0.0085" style="fill:#F4F4F4;"/><path d="M9.85468,28.49243c0,0-1.3568-0.1718-1.3568,0.6249c0,0.132,0.0469,0.2608,0.1175,0.3712    c0.2086,0.3262,0.6054,0.4807,0.9673,0.5601c0.2178,0.0478,0.4405,0.0717,0.6631,0.0822    c0.5166,0.0244,1.0094-0.1417,1.4985-0.2881c0.391-0.117,0.7806-0.2414,1.1615-0.3883c0.272-0.105,0.5946-0.2147,0.8138-0.4156    c0.1767-0.162,0.0343-0.277-0.148-0.3334c-0.2016-0.0624-0.4174-0.0835-0.6267-0.1015c-0.3648-0.0315-0.7316-0.0387-1.0976-0.04    c-0.0275-0.0001-0.055-0.0001-0.0825-0.0001C11.55058,28.56383,9.85468,28.49243,9.85468,28.49243z" style="fill:#464747;"/><path d="M7.12598,9.11603c-0.3292-0.2097-0.7556,0.032-0.7493,0.4222    c0.0268,1.6609,0.319,5.3263,2.2163,8.271l2.9925,1.8695l1.5571-6.7281L7.12598,9.11603z" style="fill:#1286DD;"/><path d="M21.61419,32.08792c0,0,6.4609,1.6006,8.7836,9.6666c0,0,4.2708-4.6693,1.1093-14.383    c0,0,6.1952,0.4265,9.4674,6.7375c0,0,3.2804-12.3076-7.4531-18.1337c0,0,2.1651-2.3361,8.102-3.6081    c0,0-5.3231-4.9364-13.9039-4.6744c0,0-0.3911-1.5057-0.956-1.4456c-0.4236,0.0451-1.9917,1.7387-2.4291,1.8108    c-1.312,0.2163-2.2483,0.4827-3.6758,0.9806c0,0-7.8227,1.7347-11.1506,8.466c0,0-1.3283-0.5468-1.3825,2.1467    c-0.0543,2.6934,0.9504,2.7595,0.9504,2.7595s-0.3213-1.5156,0.6837-1.7078c1.0051-0.1921,0.6033,5.9871,3.383,6.5938    c0,0,2.1535,0.8738,3.1543-2.6982c1.0007-3.572,2.3667-4.8142,4.635-5.3679c2.2684-0.5537,3.6942,1.5171,3.7039,2.6602    c0.0098,1.143-0.3949,3.1207-2.2244,5.7128c0,0,3.0566-0.2028,2.1806,2.1402    C23.71598,32.08693,21.61419,32.08792,21.61419,32.08792z" style="fill:#1D97FF;"/><path d="M24.96179,10.24866l-4.25623,3.83093c0,0,2.64283,0.20651,4.67114,1.65924l0.16608-5.22009    C25.55255,10.21204,25.18988,10.04352,24.96179,10.24866z" style="fill:#F9D9C0;"/><path d="M18.01028,30.81513c0,0,4.2854-0.7886,4.3793-1.6178    C22.38958,29.19733,24.84949,31.24273,18.01028,30.81513z" style="fill:#464747;"/><path d="M24.49759,7.99083l-5.8034,4.9579l4.0182-4.5515    C23.10279,8.28663,23.77408,8.14193,24.49759,7.99083z" style="fill:#1286DD;"/><path d="M27.71948,7.69283c0,0,0.3577,6.1412,0,8.9922c0,0,0.9906-4.7486,0.8605-9.0011L27.71948,7.69283z" style="fill:#1286DD;"/><path d="M9.50798,17.50463c0,0,1.1627,0.6547,1.4474,2.324c0,0,0.1577-1.8117-1.1958-2.8081l-0.4656,0.0185    L9.50798,17.50463z" style="fill:#1286DD;"/><path d="M19.98479,20.03013c0,0,3.1108-1.499,4.1585,1.7085    C24.14328,21.73863,23.28898,20.06233,19.98479,20.03013z" style="fill:#FFFFFF;"/></g></g></svg>