<?xml version="1.0" ?><svg id="Layer_1" style="enable-background:new 0 0 48 48;" version="1.1" viewBox="0 0 48 48" xml:space="preserve" xmlns="http://www.w3.org/2000/svg" xmlns:xlink="http://www.w3.org/1999/xlink"><g id="Icons"><g><path d="M39.53613,34.33645c-0.24,4.74-11.92,3.98-11.92,3.98l-7.25-0.22c-11.4,0.01-12.06-2.92-11.89-4.05    c0.04-0.26,0.13-0.43,0.13-0.43l0.09-0.3l3.29-11.19c3.39-6.64,10.2-6.83,10.2-6.83l2.11,0.41l0.91,0.36l2.41-0.74    c5.7-2.4,8.45,6.15,8.45,6.15s2.47,6.56,3.42,12.09c0,0.02-0.44377,0.43957-0.44377,0.45957    C39.08236,34.27602,39.55613,34.10645,39.53613,34.33645z" style="fill:#464747;"/><g><path d="M18.89613,34.19645l2.07-2.56v3.98h-1.44C19.71613,34.62645,18.89613,34.19645,18.89613,34.19645z     " style="fill:#B2B2B2;"/><polygon points="22.48613,29.75645 22.75613,29.59645 22.75613,35.61645 21.71613,35.61645      21.71613,30.70645    " style="fill:#B2B2B2;"/><polygon points="24.09613,28.79645 24.60613,29.10645 24.60613,35.61645 23.50613,35.61645      23.50613,29.14645    " style="fill:#B2B2B2;"/><polygon points="25.69613,29.75645 26.50613,30.78645 26.50613,35.61645 25.35613,35.61645      25.35613,29.55645    " style="fill:#B2B2B2;"/><path d="M29.24613,34.26645c-0.8,0.5-0.78,1.35-0.78,1.35h-1.21v-3.88L29.24613,34.26645z" style="fill:#B2B2B2;"/></g><path d="M21.12303,20.88575c-1.2669-0.4255-3.2678-0.7155-5.1267,0.6419    c-0.1558,0.1138-0.299,0.2484-0.4242,0.3952c-0.5658,0.6629-1.9307,2.587,0.2114,3.658c0,0,3.0422,0.7941,5.3852-0.0292    c0.8952-0.3146,1.564-1.1129,1.6696-2.056c0.0016-0.0139,0.003-0.028,0.0045-0.0421    C22.95733,22.31465,22.20803,21.25025,21.12303,20.88575z" style="fill:#343535;"/><path d="M27.56183,20.88575c1.2669-0.4255,3.2679-0.7155,5.1267,0.6419    c0.1558,0.1138,0.2991,0.2484,0.4243,0.3952c0.5657,0.6629,1.9306,2.587-0.2115,3.658c0,0-3.0422,0.7941-5.3852-0.0292    c-0.8953-0.3146-1.5641-1.1129-1.6696-2.056c-0.0015-0.0139-0.0031-0.028-0.0044-0.0421    C25.72753,22.31465,26.47673,21.25025,27.56183,20.88575z" style="fill:#343535;"/><polygon points="24.15393,26.14665 22.48583,27.58475 22.48583,29.75375 25.69943,29.75375     25.69943,27.67905   " style="fill:#C9C9C9;"/><path d="M29.47273,36.58415l-5.5059,4.8307l-5.4502-4.8606c0,0,0.1374-0.67,1.1857-0.936h8.7679    C28.47023,35.61825,29.94743,35.61825,29.47273,36.58415z" style="fill:#707070;"/><path d="M11.98613,22.12645c0,0,0.0493-12.8077,10.3863-14.1013    c10.702-1.3393,14.92804,8.7665,14.02914,14.3774c0,0-4.20504-6.7174-10.26234-4.2532v0.8942h-3.6672v-0.8221    C22.47203,18.22145,15.61433,16.10005,11.98613,22.12645z" style="fill:#707070;"/><rect height="12.4584" style="fill:#B2B2B2;" width="3.6672" x="22.42443" y="6.58515"/><g><g><path d="M17.92393,35.25775c-0.1211,0-0.2393-0.0586-0.3116-0.167l-2.7294-4.0918      c-0.1153-0.1724-0.0694-0.4053,0.1035-0.5201c0.1709-0.1128,0.4043-0.0688,0.5195,0.104l2.7295,4.0918      c0.1152,0.1724,0.0693,0.4053-0.1035,0.5201C18.06843,35.23715,17.99613,35.25775,17.92393,35.25775z" style="fill:#343535;"/></g><g><path d="M30.14163,35.21425c-0.0751,0-0.1503-0.022-0.2158-0.0684      c-0.1689-0.1191-0.2099-0.353-0.0908-0.5224l2.8496-4.0484c0.1201-0.1704,0.3555-0.2094,0.5225-0.0908      c0.1689,0.1192,0.2099,0.353,0.0908,0.5225l-2.8496,4.0483C30.37503,35.15855,30.25883,35.21425,30.14163,35.21425z" style="fill:#343535;"/></g></g><g><g><path d="M16.84573,27.87245c-0.0527,0-0.1054-0.001-0.1591-0.002      c-0.2071-0.0048-0.3711-0.1767-0.3662-0.3837c0.0048-0.2071,0.1953-0.3682,0.3837-0.3663      c3.5821,0.0684,5.2188-3.04,5.2881-3.1733c0.0967-0.1841,0.3233-0.2539,0.5059-0.1597      c0.1836,0.0953,0.2549,0.3208,0.1601,0.5049C22.58213,24.44035,20.76183,27.87245,16.84573,27.87245z" style="fill:#343535;"/></g><g><path d="M31.86823,27.87245c-3.9101,0-5.6406-3.2861-5.7139-3.4277      c-0.0937-0.1841-0.0214-0.4097,0.1622-0.5044c0.1816-0.0943,0.4091-0.024,0.5048,0.1611c0.0655,0.125,1.6045,3.021,5.0489,3.021      c0.0488,0,0.0976-0.0005,0.1464-0.002c0.2344,0.0039,0.379,0.1592,0.3838,0.3663c0.0049,0.207-0.1591,0.3789-0.3662,0.3837      C31.97863,27.87145,31.92293,27.87245,31.86823,27.87245z" style="fill:#343535;"/></g></g><path d="M13.60613,34.70645c0,0.2-0.17,0.37-0.37,0.37c-1.49,0-3.67-0.67-4.76-1.03    c0.04-0.26,0.22-0.73,0.22-0.73c0.44,0.15,1.07,0.35,1.75,0.54l2.43-8.04c0.06-0.2,0.27-0.31,0.47-0.25    c0.19,0.06,0.31,0.27,0.25,0.47l-2.43,8c0.73,0.17,1.47,0.29,2.07,0.29C13.43613,34.32645,13.60613,34.49645,13.60613,34.70645z" style="fill:#303030;"/><path d="M39.53613,34.33645c-1.17,0.37-2.9,0.84-4.15,0.84c-0.2,0-0.37-0.16-0.37-0.37s0.17-0.38,0.37-0.38    c0.6,0,1.34-0.12,2.07-0.29l-2.43-8c-0.06-0.2,0.06-0.41,0.25-0.47c0.2-0.06,0.41,0.05,0.47,0.25l2.44,8.04    c0.48-0.13,0.93-0.27,1.3-0.39C39.48613,33.58645,39.56294,33.85852,39.53613,34.33645z" style="fill:#303030;"/><circle cx="18.32973" cy="35.19965" r="1.4381" style="fill:#C9C9C9;"/><circle cx="29.85553" cy="35.19965" r="1.4381" style="fill:#C9C9C9;"/></g></g></svg>