<?xml version="1.0" ?><svg style="enable-background:new 0 0 48 48;" version="1.1" viewBox="0 0 48 48" xml:space="preserve" xmlns="http://www.w3.org/2000/svg" xmlns:xlink="http://www.w3.org/1999/xlink"><g id="Icons"><g><g><polyline points="36.4915,21.51905 39.9102,22.70515 39.1094,29.56885 35.0467,30.74525    " style="fill:#CE9E34;"/><polyline points="11.3152,21.76005 8.0898,22.70515 8.8905,29.56885 12.5726,30.96355    " style="fill:#CE9E34;"/><polygon points="17.6959,39.20515 13.6061,38.59325 12.9671,33.11795 16.2042,35.47305    " style="fill:#CE9E34;"/><polygon points="30.8025,39.27805 34.7096,38.59325 35.133,32.82265 32.3333,35.07845    " style="fill:#CE9E34;"/><path d="M28.0359,35.90275h4.13h1.37c0,0,4.37-5.5,3.97-15.36c0,0-1.2884-9.6824-13.2682-10.2073     c0,0-10.3541-1.0143-13.7918,10.5073c-0.03,0.39-0.06,0.78-0.07,1.19c0,0-0.21,4.4,1.35,8.71c0.34,0.94,0.76,1.87,1.28,2.75     c0.52,0.87,1.14,1.69,1.87,2.41h1.42h3.77" style="fill:#FFD24A;"/><path d="M16.3007,35.89865c0,0,0.0508,3.3555,2.1353,4.9316h11.2361c0,0,2.3387-1.0168,2.4912-4.9316" style="fill:#FFD24A;"/><g><path d="M22.0837,32.46065c-0.1163,0-0.2315-0.0542-0.3047-0.1562      c-0.1211-0.168-0.0821-0.4023,0.0859-0.5234l1.8643-1.3404c0.1298-0.0932,0.3076-0.0937,0.4365-0.0005l1.873,1.3404      c0.169,0.1206,0.208,0.3549,0.0869,0.5234c-0.121,0.169-0.3564,0.2061-0.5224,0.0869l-1.6543-1.1841l-1.6465,1.1836      C22.236,32.43775,22.1598,32.46065,22.0837,32.46065z" style="fill:#CE9E34;"/></g><polygon points="15.7246,35.90275 33.4189,35.90275 33.4189,36.63935 16.0157,36.63935    " style="fill:#CE9E34;"/><path d="M27.2306,37.72895h-6.3658c-0.4428,0-0.8018-0.359-0.8018-0.8019v-1.5612     c0-0.4428,0.359-0.8018,0.8018-0.8018h6.3658c0.4428,0,0.8018,0.359,0.8018,0.8018v1.5612     C28.0324,37.36995,27.6734,37.72895,27.2306,37.72895z" style="fill:#AD8027;"/><path d="M10.4441,20.83905c0,0,2.4198-9.7814,13.6036-9.5751     c11.4287,0.2108,13.4582,9.2788,13.4582,9.2788s-0.2918-8.0707-7.2503-11.7916c-6.9584-3.7208-13.6727-0.0424-15.9748,2.5128     C12.2248,13.54605,10.4011,16.11995,10.4441,20.83905z" style="fill:#FFE291;"/><circle cx="23.9478" cy="9.32115" r="0.8389" style="fill:#CE9E34;"/><g><circle cx="18.04202" cy="25.48878" r="4.69015" style="fill:#F4F4F4;"/><circle cx="18.04202" cy="25.48878" r="0.90145" style="fill:#303030;"/><g><g><path d="M16.2167,21.16585v8.64c-0.26-0.11-0.52-0.25-0.75-0.41v-7.82        C15.6967,21.41585,15.9567,21.27585,16.2167,21.16585z" style="fill:#CCCCCC;"/></g><g><path d="M20.7667,21.66585v7.64c-0.23,0.17-0.49,0.31-0.75,0.43v-8.5        C20.2767,21.35585,20.5367,21.49585,20.7667,21.66585z" style="fill:#CCCCCC;"/></g><g><path d="M18.4167,20.81585v1.58c0,0.21-0.17,0.38-0.38,0.38c-0.2,0-0.37-0.17-0.37-0.38v-1.58        c0.13-0.01,0.25-0.02,0.38-0.02C18.1667,20.79585,18.2967,20.79585,18.4167,20.81585z" style="fill:#CCCCCC;"/></g><g><path d="M18.4167,28.57585v1.58c-0.12,0.02-0.25,0.02-0.37,0.02c-0.13,0-0.25-0.01-0.38-0.02v-1.58        c0-0.21,0.17-0.37,0.37-0.37C18.2467,28.20585,18.4167,28.36585,18.4167,28.57585z" style="fill:#CCCCCC;"/></g></g></g><g><circle cx="29.82453" cy="25.48878" r="4.69015" style="fill:#F4F4F4;"/><circle cx="29.82453" cy="25.48878" r="0.90145" style="fill:#303030;"/><g><g><path d="M27.9992,21.16585v8.64c-0.26-0.11-0.52-0.25-0.75-0.41v-7.82        C27.4792,21.41585,27.7392,21.27585,27.9992,21.16585z" style="fill:#CCCCCC;"/></g><g><path d="M32.5492,21.66585v7.64c-0.23,0.17-0.49,0.31-0.75,0.43v-8.5        C32.0592,21.35585,32.3192,21.49585,32.5492,21.66585z" style="fill:#CCCCCC;"/></g><g><path d="M30.1992,20.81585v1.58c0,0.21-0.17,0.38-0.38,0.38c-0.2,0-0.37-0.17-0.37-0.38v-1.58        c0.13-0.01,0.25-0.02,0.38-0.02C29.9492,20.79585,30.0792,20.79585,30.1992,20.81585z" style="fill:#CCCCCC;"/></g><g><path d="M30.1992,28.57585v1.58c-0.12,0.02-0.25,0.02-0.37,0.02c-0.13,0-0.25-0.01-0.38-0.02v-1.58        c0-0.21,0.17-0.37,0.37-0.37C30.0292,28.20585,30.1992,28.36585,30.1992,28.57585z" style="fill:#CCCCCC;"/></g></g></g></g></g></g></svg>