<?xml version="1.0" ?><svg id="Layer_1" style="enable-background:new 0 0 48 48;" version="1.1" viewBox="0 0 48 48" xml:space="preserve" xmlns="http://www.w3.org/2000/svg" xmlns:xlink="http://www.w3.org/1999/xlink"><g id="Icons"><g><polygon points="26.9131,20.90115 26.9131,37.05655 30.9031,37.05655 33.47309,33.60655 33.9331,29.67655     34.3824,26.70875   " style="fill:#1D97FF;"/><path d="M34.6931,18.35655l-7.78,0.12v2.4246l7.4693,5.8076l-0.4493,2.9678    C33.9331,29.67655,38.38309,26.38655,34.6931,18.35655z" style="fill:#1286DD;"/><path d="M22.1331,22.96495v-4.4084l-8.23,0.13c0,0-4.94,5.1,0.48,10.99l0.0045-1.916L22.1331,22.96495z" style="fill:#1286DD;"/><polygon points="13.9607,25.58605 14.3831,29.67655 14.7631,33.60655 17.3531,37.05655 22.1331,37.05655     22.1331,22.96495   " style="fill:#1D97FF;"/><path d="M16.3509,19.02335l-1.9633,4.465l1.7428,4.2722l1.2245,9.2943l3.4511,3.9543h6.9021l3.195-3.9526    l0.8262-8.2544l2.2067-0.9647c0,0,2.3635-5.3563-0.6651-7.8647c0,0-1.7467-0.8725-1.7457-5.0975c0,0-1.167,0.824-3.2741,0.5955    s-2.0951,0.3002-3.5331,2.1345C23.2801,19.43945,20.5811,20.33545,16.3509,19.02335z" style="fill:#F9D9C0;"/><path d="M33.6968,20.37175c3.9355-5.9563,0.3697-9.2901,0.3697-9.2901s-3.5505-6.0981-10.1367-3.4035    c-6.5861,2.6944-8.6071,2.9426-9.7416,2.0917c0,0-4.3667,5.0055,0.7701,10.3236    C21.0962,21.96585,27.2932,22.05535,33.6968,20.37175z" style="fill:#464747;"/><g><g><g><path d="M28.0034,36.51885c-0.0884,0-0.1772-0.0313-0.2485-0.0938l-0.5562-0.4922l-6.0791-0.1386       l-0.5117,0.455c-0.1533,0.1377-0.3906,0.1231-0.5293-0.0312c-0.1377-0.1543-0.1235-0.3916,0.0313-0.5293l0.622-0.5527       c0.0713-0.0635,0.1851-0.0831,0.2574-0.0948l6.3632,0.1446c0.0889,0.0019,0.1739,0.0351,0.2403,0.0937l0.6591,0.583       c0.1553,0.1377,0.1695,0.375,0.0323,0.5293C28.2104,36.47585,28.1069,36.51885,28.0034,36.51885z" style="fill:#D6B6A1;"/></g><g><path d="M25.5166,37.79615c-0.0059,0-0.0117,0-0.0176,0l-2.7539-0.124       c-0.2065-0.0098-0.3667-0.1846-0.3574-0.3916c0.0093-0.207,0.185-0.3643,0.3916-0.3584l2.7539,0.124       c0.2065,0.0098,0.3667,0.1846,0.3574,0.3916C25.8818,37.63895,25.7158,37.79615,25.5166,37.79615z" style="fill:#D6B6A1;"/></g></g><g><path d="M24.1914,32.13115c-0.0527,0-0.1055-0.0108-0.1548-0.0332l-1.6875-0.7647      c-0.1885-0.0859-0.2724-0.3076-0.187-0.4961c0.0864-0.1894,0.3086-0.2724,0.4966-0.1875l1.5434,0.6992l1.6368-0.6386      c0.1909-0.0752,0.4106,0.0205,0.4853,0.2129c0.0757,0.1933-0.02,0.4111-0.2129,0.4863l-1.7837,0.6963      C24.2837,32.12234,24.2378,32.13115,24.1914,32.13115z" style="fill:#D6B6A1;"/></g></g><path d="M33.2709,19.97275c-1.6309-1.4261-1.7457-5.0975-1.7457-5.0975    c-1.56,1.1345-3.5454,0.5318-3.5454,0.5318c-2.3399-0.4963-3.2618,2.1982-3.2618,2.1982    c-2.3399,3.4036-8.3671,1.4181-8.3671,1.4181l-0.5095,1.1992l0.0299,2.1373l10.7936,1.1196l5.1317-0.8864L33.2709,19.97275z" style="fill:#F9D9C0;"/><path d="M26.9114,8.98765c-0.8036,0-1.6544-0.1654-6.5941,1.9144    c-4.9396,2.0798-6.1291-1.1322-6.1291-1.1322s2.1835,2.0932,5.932,0.5238C24.9336,8.27845,26.9114,8.98765,26.9114,8.98765z" style="fill:#303030;"/><g><path d="M14.8482,19.97275c0,0-3.3632,2.5753-0.4606,7.7878c0,0,4.0024,2.2468,6.8596,1.0541     c2.8571-1.1927,2.6022-1.5896,4.728-0.4084c2.1258,1.1811,4.6778,1.2976,7.9608-0.5688c0,0,2.8005-4.9659-0.6651-7.8647     C33.2709,19.97275,23.6402,22.20765,14.8482,19.97275z" style="fill:#FFD24A;"/><path d="M15.5547,22.98925c0,0,8.2622,1.7347,17.2006-0.1177c0,0,0.5587,1.0585,0.4411,1.7642     c0,0-8.304,2.1049-18.0468,0.0492C15.1496,24.68495,15.0625,23.47185,15.5547,22.98925z" style="fill:#F43735;"/></g></g></g></svg>