<?xml version="1.0" ?><svg style="enable-background:new 0 0 48 48;" version="1.1" viewBox="0 0 48 48" xml:space="preserve" xmlns="http://www.w3.org/2000/svg" xmlns:xlink="http://www.w3.org/1999/xlink"><g id="Icons"><g><path d="M11.26003,20.12444c0,0,1.6458-10.0782,12.4953-9.897    c10.9641,0.1832,13.0075,9.4482,13.0075,9.4482v12.7189l-5.646,4.7722l-1.0313,4.0159h-12.1711l-1.4484-4.0159l-4.4986-3.7349    l-0.7074-12.7869" style="fill:#F43735;"/><path d="M18.36073,36.98214l-5.8828-4.4004c0,0-1.6634-10.7917-1.3388-21.0967    c0,0,2.1908-3.489-0.3651-4.6656c0,0-2.272-0.2434-1.0549,4.5439l0.284,12.8609c0,0-3.1644,3.7324,1.0549,8.4387l0.3157,2.1908    l6.5407,6.3289L18.36073,36.98214z" style="fill:#707070;"/><path d="M29.63923,36.98214l5.8828-4.4004c0,0,1.6634-10.7917,1.3388-21.0967    c0,0-2.1908-3.489,0.3651-4.6656c0,0,2.272-0.2434,1.0549,4.5439l-0.284,12.8609c0,0,3.1645,3.7324-1.0549,8.4387l-0.3157,2.1908    l-6.5407,6.3289L29.63923,36.98214z" style="fill:#707070;"/><g><path d="M23.91883,34.15354c-0.0537,0-0.1074-0.0117-0.1572-0.0341l-1.501-0.6934     c-0.1879-0.0869-0.27-0.3105-0.1831-0.498c0.0869-0.1866,0.3111-0.2696,0.4976-0.1836l1.3516,0.625l1.5117-0.6299     c0.1904-0.0811,0.4101,0.0097,0.4902,0.2012c0.0796,0.1914-0.0107,0.4111-0.2021,0.4902l-1.6636,0.6933     C24.01703,34.14384,23.96773,34.15354,23.91883,34.15354z" style="fill:#D32424;"/></g><path d="M21.67283,26.18934c-0.0293-0.3849-0.3439-0.778-0.4938-1.1781    c-0.1496-0.4083-0.3542-0.7997-0.6098-1.1586c-0.5008-0.7282-1.0218-1.3573-1.8497-1.7466    c0.8702,0.2715,1.7077,0.7529,2.3491,1.4554c0.3253,0.3454,0.6055,0.7381,0.8312,1.1625c0.2275,0.4309,0.4048,0.861,0.5179,1.3783    c0.0155,0.0707-0.1454,0.1782-0.1676,0.2418c-0.0418,0.1192,0.0128,0.1775-0.1197,0.2065    c-0.2032,0.0444-0.4039-0.0842-0.4483-0.2874c-0.0036-0.0166-0.0061-0.0332-0.0075-0.0497L21.67283,26.18934z" style="fill:#D32424;"/><path d="M26.32823,26.18934c0.0293-0.3849,0.3438-0.7028,0.4937-1.1029    c0.1497-0.4083,0.3543-0.7996,0.6099-1.1585c0.5007-0.7282,1.0218-1.4326,1.8496-1.8219    c-0.8702,0.2715-1.7077,0.7529-2.349,1.4554c-0.3254,0.3454-0.6056,0.7381-0.8312,1.1625    c-0.2275,0.4309-0.4049,0.861-0.518,1.3783c-0.0154,0.0707,0.1454,0.1782,0.1677,0.2418    c0.0417,0.1192-0.0128,0.1775,0.1197,0.2065c0.2032,0.0444,0.4039-0.0842,0.4483-0.2874    c0.0036-0.0166,0.0061-0.0332,0.0074-0.0497L26.32823,26.18934z" style="fill:#D32424;"/><path d="M10.00313,24.22424l0.2692,4.3748l-0.8045-3.5114    C9.46783,25.08764,9.62643,24.66814,10.00313,24.22424z" style="fill:#565555;"/><path d="M37.99683,24.22424l-0.139,3.8427l0.6695-2.9883    C38.40863,24.79554,38.22053,24.51044,37.99683,24.22424z" style="fill:#565555;"/><path d="M13.93843,22.31744c0,0,6.4508,0.3246,8.4793,3.7731c0,0-0.8925,5.4364-6.5725,3.3673    C15.84523,29.45784,11.05803,27.59164,13.93843,22.31744z" style="fill:#FFFFFF;"/><path d="M34.06153,22.31744c0,0-6.4508,0.3246-8.4793,3.7731c0,0,0.8926,5.4364,6.5725,3.3673    C32.15473,29.45784,36.94193,27.59164,34.06153,22.31744z" style="fill:#FFFFFF;"/></g></g></svg>