<?xml version="1.0" ?><svg style="enable-background:new 0 0 48 48;" version="1.1" viewBox="0 0 48 48" xml:space="preserve" xmlns="http://www.w3.org/2000/svg" xmlns:xlink="http://www.w3.org/1999/xlink"><g id="Icons"><g><path d="M38.78284,19.37687l-1.8321-0.2517l0.0011-0.0106c-0.0006,0.0033-0.0062,0.007-0.0063,0.0103    c-0.03,2.3043-2.6713,0.696-3.3694,2.4031l-2.2123,3.4428l4.4512,3.1922v0.0001v-0.0003l1.6921-0.2866    C37.50714,27.87617,39.90584,25.84527,38.78284,19.37687z" style="fill:#EAC93F;"/><path d="M16.19954,24.68237c-0.6987-1.7068-4.943-3.2529-4.9729-5.5572l-1.8374,0.2517    c0,0-1.6639,4.6404,1.2604,8.4993l1.7067,0.2865l0.0007-0.0008L16.19954,24.68237z" style="fill:#EAC93F;"/><path d="M34.86984,28.77997l-1.41,3.15l-1.93,5.78l-3.04,3.35h-8.81l-3.03-3.56l-1.79-5.48l-1.44-2.91    c-1.82-2.39,1.18-9.86,1.18-9.86c1.63,0.1,9.09,2.08,9.09,2.08l1.11-0.27c2.53-1.76,8.78-1.81,8.78-1.81    C34.84984,24.72997,34.86984,28.77997,34.86984,28.77997z" style="fill:#B0A9DF;"/><path d="M13.89834,11.21937c4.0641-6.006,17.9566-5.0775,20.3754,0.2879c0,0,0.5728,3.5708-2.2483,5.5391    c-2.8211,1.9682-16.5987,0-16.5987,0S13.89834,16.93937,13.89834,11.21937z" style="fill:#1D97FF;"/><path d="M16.30974,22.36387l4.2319,1.5621C20.54164,23.92597,17.70714,27.10877,16.30974,22.36387z" style="fill:#FFFFFF;"/><path d="M31.36384,22.44997l-4.2318,1.5619C27.13204,24.01187,29.96634,27.19467,31.36384,22.44997z" style="fill:#FFFFFF;"/><g><g><path d="M29.04194,34.59207c-0.1104,0-0.2197-0.0488-0.2935-0.1416l-0.6049-0.7617h-7.8414      l-1.0166,0.8203c-0.1611,0.1289-0.3974,0.1045-0.5273-0.0566s-0.1045-0.3975,0.0566-0.5273l1.1197-0.9034      c0.0664-0.0537,0.1499-0.083,0.2353-0.083h8.1548c0.1143,0,0.2227,0.0518,0.2935,0.1416l0.7172,0.9034      c0.129,0.1621,0.1021,0.3984-0.06,0.5273C29.20604,34.56577,29.12394,34.59207,29.04194,34.59207z" style="fill:#9591C6;"/></g><g><path d="M25.34714,35.80107h-2.6099c-0.207,0-0.375-0.1679-0.375-0.375c0-0.207,0.168-0.375,0.375-0.375      h2.6099c0.207,0,0.375,0.168,0.375,0.375C25.72214,35.63317,25.55414,35.80107,25.34714,35.80107z" style="fill:#9591C6;"/></g><g><path d="M24.15984,38.64997v2.41h-0.75v-2.41c0-0.2,0.17-0.37,0.38-0.37      C23.99984,38.27997,24.15984,38.44997,24.15984,38.64997z" style="fill:#9591C6;"/></g><g><path d="M20.66984,23.56997l-4.23-1.56c-0.13-0.05-0.28-0.02-0.39,0.08c-0.1,0.1-0.14,0.24-0.1,0.38      c0.49,1.66,1.23,2.61,2.19,2.83c0.14,0.03,0.28,0.05,0.41,0.05c1.21,0,2.22-1.12,2.27-1.17c0.08-0.1,0.12-0.22,0.09-0.34      C20.87984,23.71997,20.78984,23.61997,20.66984,23.56997z M18.29984,24.56997c-0.54-0.12-1.01-0.66-1.38-1.58l2.91,1.07      C19.44984,24.35997,18.86984,24.69997,18.29984,24.56997z" style="fill:#9591C6;"/></g><g><path d="M31.61984,22.17997c-0.1-0.1-0.25-0.13-0.39-0.08l-4.23,1.56c-0.11,0.04-0.2,0.14-0.23,0.26      c-0.03,0.12,0,0.25,0.08,0.34c0.05,0.05,1.06,1.17,2.27,1.17c0.14,0,0.28-0.01,0.42-0.04c0.96-0.22,1.69-1.17,2.18-2.83      C31.75984,22.41997,31.71984,22.26997,31.61984,22.17997z M29.36984,24.64997c-0.57,0.14-1.15-0.2-1.53-0.5l2.91-1.07      C30.37984,23.98997,29.90984,24.52997,29.36984,24.64997z" style="fill:#9591C6;"/></g><g><path d="M30.28024,31.01007c-0.1416,0-0.2769-0.0801-0.3404-0.2178      c-0.3037-0.6562-1.1884-1.4228-1.9311-1.9755c-0.0376,0.2392-0.1206,0.457-0.2031,0.6093      c-0.0694,0.127-0.2124,0.2071-0.3516,0.1944c-0.0073-0.001-0.9146-0.042-2.1196,0.5468      c-1.5078,0.7344-2.7774-0.1074-2.9356-0.3427c-0.0161,0.0136-0.5571-0.2168-1.3691-0.3301      c-0.4434-0.0606-0.6079-0.3154-0.667-0.4619c-0.0181-0.0449-0.0308-0.0908-0.0396-0.1377      c-0.7041,0.5469-1.3066,1.0898-1.4013,1.3291c-0.0757,0.1924-0.2935,0.2851-0.4868,0.2109      c-0.1924-0.0761-0.2867-0.2939-0.2105-0.4863c0.292-0.7383,2.2539-2.1133,2.644-2.3818      c0.1539-0.1036,0.3594-0.0811,0.4859,0.0537c0.1269,0.1347,0.1352,0.3427,0.0205,0.4883      c-0.1694,0.2158-0.3179,0.5146-0.3164,0.6308h0.0005c0.0107,0,0.0351,0.0068,0.0732,0.0127      c0.5225,0.0713,1.6709,0.3272,1.8902,0.6553c-0.0005-0.001,0-0.001,0-0.001c0.0205-0.001,0.8837,0.6211,1.9829,0.0869      c0.9936-0.4853,1.8149-0.5957,2.2212-0.6181c0.0673-0.2051,0.1171-0.5215-0.1338-0.6846      c-0.1719-0.1123-0.2222-0.3418-0.1123-0.5147c0.1098-0.1738,0.3393-0.2275,0.5127-0.1191      c0.1015,0.0615,2.4868,1.5361,3.1274,2.9209c0.0869,0.1875,0.0049,0.4101-0.1826,0.4971      C30.38664,30.99937,30.33294,31.01007,30.28024,31.01007z" style="fill:#9591C6;"/></g><g><path d="M23.03214,27.57547c-0.207,0-0.375-0.1679-0.375-0.375v-2.6601c0-0.207,0.168-0.375,0.375-0.375      c0.2071,0,0.375,0.168,0.375,0.375v2.6601C23.40714,27.40757,23.23924,27.57547,23.03214,27.57547z" style="fill:#9591C6;"/></g></g><path d="M36.94984,19.10997c0,0.01,0,0.01,0,0.01c-0.03,2.31-0.65,4.45-1.35,6.16l0.22,2.88l0.22,3.02    l-4.51,6.53v-5.92l1.4689-1.9756c0.566-0.7613,0.9294-1.6604,1.0137-2.6053c0.3566-3.9974-0.4326-7.9591-0.4326-7.9591    c-3.08,0.72-7.9,3.02-8.67,3.4c-0.01,0-0.01,0-0.01,0c-0.07,0.03-0.1,0.05-0.1,0.05h-1.43l-8.77-3.45c0,0-0.8052,4.9289-0.59,8.34    c0.1619,2.565,2.64,4.2,2.64,4.2v5.71l-4.51-6.32l0.22-3.02l0.21-2.88c-0.7-1.71-1.31-3.85-1.34-6.15    c-0.36-7,2.38-11.31,2.38-11.31c-0.8,5.51,4.17,7.86,4.17,7.86c0.49-0.99,4.03-2.2,4.03-2.2l-1.7-5.98    c3.68-1.23,7.59-0.05,7.59-0.05l-1.78,6.28c0.82,0.14,2.603,0.5864,4.12,2.09c0.01,0.01,0.01,0.01,0.01,0.01    c0.13-0.05,0.25-0.11,0.37-0.17c0.03-0.02,0.05-0.03,0.08-0.04c5.02-2.49,4.14-7.4,4.07-7.78    C37.70984,11.85997,36.95984,18.99997,36.94984,19.10997z" style="fill:#FFD24A;"/><path d="M23.36754,22.69717v-2.2955l-2.7465-3.8533c-1.1079-0.2-2.0497-0.5017-2.8427-0.8701    c0.0566-0.1555,0.2052-0.3088,0.4198-0.4653l2.8012,0.9628l2.8525,4.0901L23.36754,22.69717z" style="fill:#EAC93F;"/><path d="M30.03984,15.81997c-0.68,0.3-1.48,0.57-2.38,0.73l-2.75,3.85v2.3l-0.01-0.05l-0.47-2.38l2.85-4.09    l2.261-0.8109C29.87694,15.59217,29.97984,15.78997,30.03984,15.81997z" style="fill:#EAC93F;"/></g></g></svg>