<?xml version="1.0" ?><svg style="enable-background:new 0 0 48 48;" version="1.1" viewBox="0 0 48 48" xml:space="preserve" xmlns="http://www.w3.org/2000/svg" xmlns:xlink="http://www.w3.org/1999/xlink"><g id="Icons"><g><path d="M27.28422,38.62822c-3.4807,3.1587-6.6447,0-6.6447,0    C22.87112,36.98692,25.08632,36.96162,27.28422,38.62822z" style="fill:#CCCCCC;"/><path d="M36.48062,17.96772v3.41h-24.98v-2.45c0-0.13,0-0.25,0.01-0.38c0.25-11.39,12.12-10.94,12.12-10.94    C37.05062,7.60772,36.48062,17.96772,36.48062,17.96772z" style="fill:#F4F4F4;"/><path d="M38.53062,30.34772l-4.85,9.13c-1.81,2.12-5.14-0.1-5.14-0.1c-1.86-1.46-4.85-1.35-4.85-1.35    c-3.05,0.07-4.86,1.59-4.86,1.59c-2.66,1.6-4.28-0.33-4.28-0.33l-5.23-9.55c-1.48-4.01,0.91-7.04,1.83-8.02    c0.22-0.22,0.35-0.34,0.35-0.34h24.98c0.15,0.12,0.29,0.25,0.42,0.37C40.71062,25.35772,38.53062,30.34772,38.53062,30.34772z" style="fill:#F4F4F4;"/><ellipse cx="31.48875" cy="37.15722" rx="1.28435" ry="1.2759" style="fill:#464747;"/><path d="M13.31712,26.94972l4.4316,6.6918c0.168,0.2534,0.5188,0.3109,0.754,0.1172    c0.9213-0.7586,3.2061-2.4033,5.6602-2.3669c0,0,2.448-0.0427,5.2219,2.3448c0.2357,0.2028,0.5952,0.1687,0.7711-0.0872    l4.3773-6.369c0,0,0.9038-1.5324-0.5234-2.8927l-2.9879-3.01h-13.5061l-2.6816,2.3398    C14.83422,23.71752,12.55602,25.57912,13.31712,26.94972z" style="fill:#CCCCCC;"/><g><path d="M15.40752,34.87112c-0.1231,0-0.2451-0.0611-0.3164-0.1734l-3.5352-5.5449     c-0.1113-0.1748-0.0596-0.4067,0.1152-0.518c0.1729-0.1104,0.4063-0.0611,0.5176,0.1147l3.5352,5.5449     c0.1113,0.1748,0.0596,0.4068-0.1153,0.5181C15.54612,34.85202,15.47682,34.87112,15.40752,34.87112z" style="fill:#FFFFFF;"/></g><g><path d="M34.81572,31.25882c-0.0635,0-0.127-0.0161-0.1865-0.0493     c-0.1797-0.1031-0.2422-0.3321-0.1387-0.5118l1.668-2.9184c0.1025-0.1802,0.331-0.2407,0.5117-0.1397     c0.1797,0.1031,0.2422,0.3321,0.1386,0.5118l-1.6679,2.9184C35.07252,31.19092,34.94562,31.25882,34.81572,31.25882z" style="fill:#FFFFFF;"/></g><g><path d="M33.51592,33.45412c-0.0596,0-0.1201-0.0142-0.1768-0.044     c-0.1826-0.0976-0.2519-0.3247-0.1543-0.5073l0.5586-1.0473c0.0967-0.1841,0.3233-0.253,0.5078-0.1548     c0.1826,0.0976,0.252,0.3247,0.1543,0.5073l-0.5586,1.0474C33.77952,33.38232,33.64972,33.45412,33.51592,33.45412z" style="fill:#FFFFFF;"/></g><path d="M12.27062,21.37332c0,0,1.3693,4.5088,4.9472,4.5367c0,0,2.528,0.1516,4.1386-1.3705    c0,0,2.6435-2.1644,5.3753-0.1418c0,0,3.4727,2.7445,6.5646,0.7089c1.1442-0.636,2.3708-2.4184,2.759-3.7333H12.27062z" style="fill:#464747;"/><path d="M36.48062,21.37772v-0.38h-4.62v-1.7h4.62v-0.75h-24.97c-0.01,0.13-0.01,0.25-0.01,0.38v0.37h5.62    v1.68l-5.62-0.01v0.41c0,0-0.13,0.12-0.35,0.34l25.75,0.03C36.77062,21.62772,36.63062,21.49772,36.48062,21.37772z     M22.72062,19.29772h8.39v1.7l-8.39-0.01V19.29772z M19.55062,19.29772h2.42v1.69l-2.42-0.01V19.29772z M17.87062,19.29772h0.93    v1.68h-0.93V19.29772z" style="fill:#CCCCCC;"/></g></g></svg>