<?xml version="1.0" ?><svg id="Layer_1" style="enable-background:new 0 0 48 48;" version="1.1" viewBox="0 0 48 48" xml:space="preserve" xmlns="http://www.w3.org/2000/svg" xmlns:xlink="http://www.w3.org/1999/xlink"><g id="Icons"><g><path d="M13.37945,19.81803l-0.7013-1.6831c0,0-0.4675-1.1922-0.5143-1.2857    c-0.0468-0.0935-0.6779-1.6364-0.6779-1.6364l-0.7714,0.1169v0.8649l1.0818,3.333l0.4244,0.8489c0,0-0.3495,0.2624-0.3495,0.3745    c0,0.1122-0.1728,0.5494,0.1757,0.6992c0.3486,0.1497,0.8979,2.8963,0.9977,2.9212c0.1,0.025,0.5993,4.719,0.5993,4.719    l-0.2497,0.8739c0,0,0,1.573,0.1249,1.6229c0.1248,0.05,0.4744,0.1998,0.4744,0.1998s0.2996,3.1255,0.5992,3.4206    c0.2996,0.2952,0.2746,1.3982,0.2746,1.3982l0.8739,0.849c0,0,0.2497,0.824,0.5493,1.0236    c0.2996,0.1998,1.0487,0.7491,1.4482,1.0987c0.3994,0.3495,1.9975,1.0986,2.1972,1.0986s1.0586,0.3245,1.548,0.699    c0.4894,0.3746,3.096,1.1236,4.1947,0.5743c1.0985-0.5492,2.397-1.2234,2.9712-1.2234c0.5743,0,1.2983-0.6741,1.5481-0.8239    c0.2496-0.1499,2.6965-1.8227,2.9212-1.8976c0.2247-0.0749,0.8239-1.4732,0.8239-2.0474c0-0.5743,0.1748-1.2734,0.1748-1.2734    l0.5743-0.7989c0,0,0.5243-1.3234,0.5243-1.4233s-0.1997-0.9238-0.1997-0.9238l0.9987-3.5205l0.2247-1.6729l1.3732-3.4955v-1.598    l1.4232-3.0711l-0.1996-0.3495h-0.5244l-0.7741-0.1249l-1.4481,1.6479l-0.2996-0.6741c0,0-0.1248-1.3234,0.0999-1.648    c0.2247-0.3245-0.1498-0.724-0.1498-0.724l-0.05-0.2996c0,0,0.2996-1.0237,0.4744-1.1985    c0.1748-0.1747,0.3246-0.7491,0.1249-1.1236c-0.1998-0.3745-0.6742-1.4481-0.6742-1.4481l-0.799,0.8489    c0,0-0.5243,1.1485-0.6242,1.3982c-0.0998,0.2497-0.2996,0.799-0.2996,0.8988c0,0.1-1.1985,1.4232-1.1985,1.4232    s-0.3995-0.1747,0.05-0.9987c0.4494-0.8239,0.7241-2.1723,0.7241-2.1723l-0.8989-0.724l-0.0749-1.2734l-0.4744,0.2247    l0.0749-2.4468l-0.441-0.9489c0,0-0.8823-0.3495-1.2318-0.3495c-0.3496,0-0.9738,0.3495-0.9738,0.3495    s-0.2239,0.5685-0.2247,0.7242c-0.0009,0.1556-1.1985,3.096-1.1985,3.096l-0.3246,1.6978l-0.5992,1.1486l-0.7741,0.025    l-0.3495,0.6491c0,0-0.1249,0.6742-0.3246,0.6742s-0.5743,0.0749-0.6492-0.874c-0.0749-0.9487-0.1289-2.5966-0.1289-2.5966    s-0.4204-0.9488-0.4454-1.0237c-0.0249-0.0749-0.1747-0.4994-0.3744-0.1998c-0.1998,0.2997-0.3247,0.9238-0.3745,1.0238    c-0.05,0.0998-0.5744,0.3495-0.5993,0.1498c-0.025-0.1998-0.025-1.9975,0.0249-2.1723c0.05-0.1747-0.1747-0.6741-0.1747-0.774    s0.0749-1.1735,0.0749-1.1735l-0.9239-0.8489l-1.6229-0.9738l-0.9487-0.3246l-0.3496,0.3246l0.5743,1.7228l-0.9239,0.9987    l0.3745,3.9201l0.4494,0.749l-0.3158,2.2721c0,0-0.4332,0.025-0.5331-0.025c-0.0998-0.0499-0.3495-0.0249-0.4245,0.0749    c-0.0749,0.1-0.1247,0.2247-0.1996,0.5244c-0.075,0.2996-0.874,0.6741-0.874,0.6741s-0.9238-0.9987-0.9487-1.1985    c-0.0251-0.1997-0.7241-0.9238-0.7241-0.9238l-1.1236-2.2472l-0.774-0.2496c0,0-1.1985,0.4494-1.2235,0.749    c-0.0249,0.2997,0.025,0.6742,0.025,0.6742l0.4494,0.6991L13.37945,19.81803z" style="fill:#C2733A;"/><path d="M39.03995,18.17783l-1.43,3.07v1.6l-1.37,3.5l-0.22,1.67l-1,3.52c0,0,0.2,0.82,0.2,0.92    s-0.53,1.43-0.53,1.43l-0.57,0.8c0,0-0.18,0.69-0.18,1.27c0,0.57-0.6,1.97-0.82,2.05c-0.23,0.07-2.67,1.74-2.92,1.89    c-0.25,0.15-0.98,0.83-1.55,0.83c-0.4,0-1.13,0.32-1.92,0.7h-0.01c-0.31,0.16-0.63,0.32-0.94,0.47c-0.03,0.02-0.07,0.03-0.1,0.05    c-1.1,0.55-3.71-0.2-4.2-0.57c-0.03-0.02-0.06-0.05-0.1-0.07c-0.04-0.03-0.08-0.05-0.12-0.08c-0.24-0.15-0.51-0.28-0.75-0.38    h-0.01c-0.26-0.11-0.47-0.17-0.56-0.17c-0.2,0-1.8-0.75-2.2-1.1c-0.4-0.35-1.15-0.9-1.45-1.1c-0.3-0.2-0.55-1.02-0.55-1.02    l-0.87-0.85c0,0,0.02-1.11-0.28-1.4c-0.2-0.2-0.4-1.63-0.51-2.58c-0.05-0.41-0.08-0.73-0.09-0.82c0-0.01,0-0.02,0-0.02    s-0.35-0.15-0.47-0.2c-0.13-0.05-0.13-1.62-0.13-1.62l0.25-0.88c0,0-0.5-4.69-0.6-4.72c-0.1-0.02-0.64-2.77-0.99-2.92    c-0.35-0.15-0.18-0.58-0.18-0.7c0-0.11,0.35-0.37,0.35-0.37l-0.42-0.85l-1.09-3.33v-0.87l0.78-0.11c0,0,0.63,1.54,0.67,1.63    c0.05,0.09,0.52,1.29,0.52,1.29l0.22,0.53l0.48,1.15l-0.11-1.21l-0.3-3.18l-0.45-0.69c0,0-0.05-0.38-0.02-0.68    c0.02-0.3,1.22-0.75,1.22-0.75l0.77,0.25l1.13,2.25c0,0,0.7,0.72,0.72,0.92c0.02,0.16,0.64,0.85,0.87,1.11l0.01,0.01    c0.04,0.05,0.07,0.08,0.07,0.08s0.35-0.16,0.61-0.37c0.13-0.09,0.24-0.2,0.26-0.3c0.08-0.3,0.13-0.43,0.2-0.53    c0.06-0.07,0.2-0.1,0.31-0.1c0.05,0,0.09,0.01,0.12,0.03c0.1,0.05,0.53,0.02,0.53,0.02l0.04-0.31v-0.01l0.28-1.95l-0.45-0.75    l-0.38-3.92l0.93-1l-0.58-1.72l0.35-0.32l0.95,0.32l1.62,0.97l0.93,0.85c0,0-0.08,1.08-0.08,1.18s0.23,0.6,0.18,0.77    c-0.03,0.11-0.04,0.86-0.04,1.45c0,0.35,0,0.64,0.01,0.72c0.03,0.2,0.55-0.05,0.6-0.15c0.02-0.04,0.06-0.18,0.1-0.34l0.01-0.02    c0.07-0.22,0.15-0.49,0.27-0.66c0.2-0.3,0.35,0.12,0.37,0.2c0.03,0.07,0.45,1.02,0.45,1.02s0.05,1.65,0.12,2.6    c0.01,0.12,0.03,0.21,0.05,0.3v0.01c0.12,0.62,0.43,0.56,0.6,0.56c0.04,0,0.08-0.03,0.11-0.07c0.14-0.17,0.22-0.6,0.22-0.6    l0.35-0.65l0.77-0.02l0.6-1.15l0.33-1.7c0,0,1.19-2.94,1.19-3.1c0-0.15,0.23-0.72,0.23-0.72s0.62-0.35,0.97-0.35    c0.35,0,1.23,0.35,1.23,0.35l0.45,0.95l-0.04,1.24l-0.04,1.2l0.3-0.14l0.18-0.08l0.07,1.27l0.9,0.73c0,0-0.28,1.35-0.73,2.17    c-0.25,0.47-0.23,0.73-0.16,0.87c0.04,0.1,0.11,0.13,0.11,0.13s0.41-0.45,0.74-0.85c0,0,0,0,0-0.01c0.26-0.28,0.46-0.53,0.46-0.57    c0-0.09,0.2-0.64,0.3-0.89s0.63-1.4,0.63-1.4l0.8-0.85c0,0,0.47,1.07,0.67,1.45c0.2,0.37,0.05,0.95-0.12,1.12    c-0.18,0.18-0.48,1.2-0.48,1.2l0.05,0.3c0,0,0.38,0.4,0.15,0.72c-0.22,0.33-0.1,1.65-0.1,1.65l0.14,0.3v0.01l0.16,0.36l0.42-0.47    l1.03-1.17l0.77,0.12h0.53L39.03995,18.17783z" style="fill:#C2733A;"/><circle cx="21.85195" cy="22.6227" r="0.45707" style="fill:#303030;"/><circle cx="24.51335" cy="39.6745" r="0.45702" style="fill:#303030;"/><circle cx="28.56195" cy="24.87588" r="0.3225" style="fill:#303030;"/><g><path d="M26.83185,37.41953c-0.395,0-1.3531-0.0391-2.5396-0.0889     c-0.5151-0.0224-0.9614-0.041-1.1767-0.0469c-0.1709-0.0068-0.3853-0.0009-0.6236,0.0039     c-0.7085,0.0137-1.5913,0.0313-2.1841-0.1562c-0.6685-0.2116-1.3399-0.4142-2.0107-0.6186     c-0.2077-0.0633-0.4155-0.1265-0.6233-0.1897c-0.1306-0.0397-0.2729-0.0525-0.3965-0.1133     c-0.1086-0.0534-0.1529-0.1714-0.1948-0.2794c-0.0281-0.0727-0.0452-0.1548-0.0165-0.2301     c0.1363-0.3569,0.5965-0.1636,0.8477-0.0872c0.3524,0.1071,0.7048,0.2144,1.0571,0.322c0.5214,0.1592,1.043,0.318,1.5631,0.4815     c0.4756,0.1494,1.3238,0.1337,1.9434,0.121c0.2524-0.0048,0.4809-0.0107,0.6601-0.0039c0.2168,0.0059,0.667,0.0254,1.1866,0.0469     c0.9912,0.042,2.3496,0.1094,2.602,0.0869c0.3511-0.0166,2.0581-0.2773,2.7295-0.4824c0.6958-0.2129,1.5112-0.5732,1.6895-0.7197     c0.0776-0.1446,0.2436-0.2237,0.4116-0.1895c0.2021,0.0449,0.3301,0.2442,0.2856,0.4463     c-0.1133,0.5147-1.688,1.0332-2.1679,1.1797c-0.7095,0.2168-2.4664,0.4932-2.9122,0.5156     C26.92995,37.41853,26.88605,37.41953,26.83185,37.41953z" style="fill:#A05828;"/></g><g><path d="M29.08035,31.36213c0,0,1.7168,0.458,2.8121,0c0,0-0.5178,2.2105-1.9317,1.3144     C28.54675,31.78033,29.08035,31.36213,29.08035,31.36213z" style="fill:#D59B4A;"/><ellipse cx="31.71095" cy="30.35885" rx="0.4821" ry="0.73735" style="fill:#FFFFFF;"/><path d="M30.43705,28.49813c0,0-1.6636-0.0647-1.8091,1.3426c-0.1456,1.4073,0.8249,1.197,1.3911,0.6147     C30.58515,29.87303,30.63245,28.72893,30.43705,28.49813z" style="fill:#FFFFFF;"/><path d="M28.40825,30.73403c0.0883,1.2868,1.0676,2.2677,2.187,2.1907     c1.1195-0.0769,1.9553-1.1825,1.8668-2.4693c-0.0884-1.287-1.0675-2.2677-2.1871-2.1908     c-0.0113,0.0007-0.0333,0.0026-0.0333,0.0026c-0.0112,0.0018-0.0633,0.0055-0.1439,0.0215     c-0.015,0.0026-0.04429,0.0087-0.0435,0.0099c-0.01027-0.01569-0.20917,0.06126-0.22913,0.06875     c-0.10012,0.03755-0.19692,0.08391-0.2892,0.13791c-0.24792,0.14509-0.46016,0.34521-0.63005,0.57613     C28.55419,29.55945,28.36732,30.13759,28.40825,30.73403z M31.66815,30.83613c-0.1783,0-0.3229-0.187-0.3229-0.4177     s0.1446-0.4178,0.3229-0.4178s0.3228,0.1871,0.3228,0.4178S31.84645,30.83613,31.66815,30.83613z M29.26745,31.76663     c0.8354,0.7215,2.3355,0,2.3355,0C30.36865,33.45653,29.26745,31.76663,29.26745,31.76663z M28.73285,30.17943l0.0203-0.0961     c0.3441-1.1558,1.1684-1.4416,1.4292-1.5046c0.05,0.1462,0.0807,0.3042,0.0807,0.4725c0,0.7026-0.4718,1.2722-1.0539,1.2722     C29.03665,30.32343,28.87635,30.26833,28.73285,30.17943z" style="fill:#303030;"/><g><g><path d="M31.91775,34.24273c-0.0063,0-0.0122,0-0.0185,0c-2.6241-0.1269-3.4661-2.3662-3.491-3.5087       c-0.0044-0.2061,0.2605-0.3321,0.467-0.337c0.229,0.0225,0.378,0.1582,0.3843,0.3653       c0.00109,0.0399,0.01558,0.41654,0.16903,0.87823c0.04246,0.12775-0.32105,0.08131-0.25466,0.21675       c0.0664,0.13544,0.56272,0.45276,0.65838,0.58524c0.38489,0.53301,1.02815,0.99883,2.10304,1.05017       c0.207,0.0108,0.3662,0.1865,0.3564,0.3926C32.28205,34.08653,32.11645,34.24273,31.91775,34.24273z" style="fill:#303030;"/></g></g></g><g><path d="M18.99466,32.67653c-1.4139,0.8961-1.9317-1.3144-1.9317-1.3144c1.0953,0.458,2.8121,0,2.8121,0     S20.40866,31.78033,18.99466,32.67653z" style="fill:#D59B4A;"/><ellipse cx="17.24446" cy="30.35885" rx="0.4821" ry="0.73735" style="fill:#FFFFFF;"/><path d="M18.93636,30.45543c0.5662,0.5823,1.5367,0.7926,1.3911-0.6147     c-0.1455-1.4073-1.8091-1.3426-1.8091-1.3426C18.32296,28.72893,18.37026,29.87303,18.93636,30.45543z" style="fill:#FFFFFF;"/><path d="M20.4842,29.97839c-0.00768-0.03233-0.01681-0.06444-0.02784-0.0963     c-0.04657-0.13455-0.09931-0.26668-0.16213-0.39453c-0.10357-0.21079-0.23244-0.40987-0.38988-0.58453     c-0.21969-0.2437-0.49526-0.43718-0.80527-0.54705c-0.01759-0.00624-0.18917-0.07049-0.19791-0.05736     c0.0008-0.0012-0.0285-0.0073-0.0435-0.0099c-0.0806-0.016-0.1327-0.0197-0.1439-0.0215c0,0-0.022-0.0019-0.0333-0.0026     c-1.1196-0.0769-2.0987,0.9038-2.1871,2.1908c-0.0885,1.2868,0.7473,2.3924,1.8668,2.4693     c1.1194,0.077,2.0987-0.9039,2.187-2.19071c0.00919-0.13327-0.00265-0.26861-0.01515-0.40128     C20.52075,30.21315,20.51177,30.09438,20.4842,29.97839z M16.96446,30.41843c0-0.2307,0.1445-0.4178,0.3228-0.4178     s0.3229,0.1871,0.3229,0.4178s-0.1446,0.4177-0.3229,0.4177S16.96446,30.64913,16.96446,30.41843z M17.35246,31.76663     c0,0,1.5001,0.7215,2.3355,0C19.68796,31.76663,18.58676,33.45653,17.35246,31.76663z M19.74626,30.32343     c-0.5821,0-1.0539-0.5696-1.0539-1.2722c0-0.1683,0.0307-0.3263,0.0807-0.4725c0.2608,0.063,1.0851,0.3488,1.4292,1.5046     l0.0203,0.0961C20.07906,30.26833,19.91876,30.32343,19.74626,30.32343z" style="fill:#303030;"/><g><g><path d="M16.66365,33.88533c-0.0098-0.2061,0.1494-0.3818,0.3564-0.3926       c1.07489-0.05135,1.71815-0.51717,2.10304-1.05017c0.09566-0.13247,0.59198-0.44979,0.65838-0.58524       c0.0664-0.13544-0.29712-0.08901-0.25466-0.21675c0.15346-0.4617,0.16795-0.83834,0.16903-0.87823       c0.0063-0.2071,0.1553-0.3428,0.3843-0.3653c0.2065,0.0049,0.4714,0.1309,0.467,0.337       c-0.0249,1.1425-0.8669,3.3818-3.491,3.5087c-0.0063,0-0.0122,0-0.0185,0       C16.83895,34.24273,16.67336,34.08653,16.66365,33.88533z" style="fill:#303030;"/></g></g></g><g><path d="M38.80405,15.88243h-1.0491l1.4036-1.3682c0.1484-0.1445,0.1513-0.3818,0.0068-0.5303     c-0.1445-0.1474-0.3818-0.1523-0.5303-0.0068l-1.8418,1.7959c-0.0268,0.0264-0.0498,0.0566-0.0678,0.0899l-1.2095,2.2285l0,0     l-0.6699,1.2343c-0.0987,0.1817-0.0313,0.4092,0.1508,0.5079c0.0567,0.0312,0.1182,0.0459,0.1783,0.0459     c0.1333,0,0.2622-0.0713,0.33-0.1963l0.6697-1.2342l0.0003-0.0002l0.9855-1.8164h1.6434c0.207,0,0.375-0.168,0.375-0.375     C39.17905,16.05043,39.01105,15.88243,38.80405,15.88243z" style="fill:#C2733A;"/><path d="M12.89385,20.31213l-2.1387-0.9014l-0.581-0.7021c-0.0664-0.0801-0.1631-0.129-0.2666-0.1348     l-0.7817-0.0469c-0.2007-0.0254-0.3843,0.1445-0.397,0.3516c-0.0122,0.207,0.1455,0.3847,0.352,0.3965l0.6192,0.0371     l0.5356,0.6474c0.0386,0.0459,0.0879,0.083,0.1436,0.1065l2.2236,0.9375c0.0474,0.0195,0.0967,0.0293,0.1455,0.0293     c0.146,0,0.2852-0.086,0.3457-0.2295C13.17415,20.61293,13.08475,20.39313,12.89385,20.31213z" style="fill:#C2733A;"/><path d="M17.18005,13.93123l-0.2989-3.7422c-0.0093-0.1142-0.0708-0.2187-0.1665-0.2822l-0.173-0.115     l0.7204-1.3694c0.0962-0.1836,0.0259-0.4101-0.1572-0.5068c-0.1836-0.0957-0.4097-0.0244-0.5069,0.1572l-0.6845,1.3013     l-1.4947-0.9937c-0.1728-0.1133-0.4052-0.0674-0.52,0.1045c-0.1143,0.1729-0.0674,0.4053,0.105,0.5205l2.144,1.4258l0.291,3.6445     c0.0049,0.0547,0.0215,0.1094,0.0494,0.1573l1.9204,3.3271c0.0693,0.1201,0.1953,0.1875,0.3252,0.1875     c0.0634,0,0.1279-0.0166,0.187-0.0498c0.1792-0.1035,0.2407-0.333,0.1372-0.5127L17.18005,13.93123z" style="fill:#C2733A;"/><path d="M26.18685,6.30133c0.0381-0.2041-0.0962-0.3994-0.2993-0.4375     c-0.2036-0.042-0.4004,0.0957-0.438,0.2989l-0.3779,2.0156c-0.0113,0.0615-0.0074,0.124,0.0112,0.1826l0.9116,2.8691     l-1.9531,4.1241c-0.0889,0.1865-0.0088,0.4101,0.1782,0.499c0.0518,0.0244,0.1065,0.0361,0.1602,0.0361     c0.1406,0,0.2754-0.0791,0.3393-0.2148l2.0161-4.2569c0.0406-0.0849,0.0474-0.1836,0.0186-0.2734l-0.9277-2.9199     L26.18685,6.30133z" style="fill:#C2733A;"/></g><g><path d="M21.29995,40.96783c0-0.01,0-0.01,0-0.02l-0.35-1.38v-1.26c0-0.21-0.17-0.38-0.37-0.38     c-0.21,0-0.38,0.17-0.38,0.38l0.01,1.35l0.29,1.19h0.01c0.24,0.1,0.51,0.23,0.75,0.38c0.04,0.03,0.08,0.05,0.12,0.08l-0.08-0.32     C21.29995,40.98783,21.29995,40.96783,21.29995,40.96783z" style="fill:#A05828;"/><path d="M26.97995,39.46783c-0.2-0.07-0.41,0.04-0.47,0.24l-0.73,2.19c0.31-0.15,0.63-0.31,0.94-0.47h0.01     l0.49-1.49C27.27995,39.73783,27.17995,39.52783,26.97995,39.46783z" style="fill:#A05828;"/><path d="M15.15995,32.20783l-1.17-0.4c0.01,0.09,0.04,0.41,0.09,0.82l0.84,0.29     c0.04,0.01,0.08,0.02,0.12,0.02c0.16,0,0.31-0.1,0.36-0.25C15.46995,32.48783,15.35995,32.27783,15.15995,32.20783z" style="fill:#A05828;"/></g><circle cx="21.85195" cy="22.6227" r="0.45707" style="fill:#A05828;"/><circle cx="24.51335" cy="39.6745" r="0.45702" style="fill:#A05828;"/><circle cx="28.56195" cy="24.87588" r="0.3225" style="fill:#A05828;"/><g><g><path d="M15.41995,26.19783c0.02,0.2-0.12,0.39-0.32,0.42h-0.06c-0.18,0-0.34-0.13-0.37-0.32l-0.48-3.49      l-1.4-3.71c-0.06-0.15-0.02-0.33,0.11-0.43l0.48,1.15l-0.11-1.21c0.1,0.04,0.18,0.11,0.21,0.21l1.43,3.79L15.41995,26.19783z" style="fill:#A05828;"/></g><g><path d="M19.26995,22.59783c0.01,0.2-0.14,0.38-0.35,0.4h-0.03c-0.19,0-0.35-0.15-0.37-0.35l-0.17-2.15      l-1.13-2.65c0.04,0.05,0.07,0.08,0.07,0.08s0.35-0.16,0.61-0.37l1.14,2.63c0.03,0.05,0.05,0.11,0.05,0.16L19.26995,22.59783z" style="fill:#A05828;"/></g><g><path d="M20.19995,19.21783c0.04,0.21-0.09,0.4-0.29,0.44c-0.03,0.01-0.05,0.01-0.07,0.01      c-0.18,0-0.34-0.12-0.37-0.3l-0.8-2.74c0.05,0,0.09,0.01,0.12,0.03c0.1,0.05,0.53,0.02,0.53,0.02l0.04-0.31L20.19995,19.21783z" style="fill:#A05828;"/></g><g><path d="M23.77995,12.46783l-0.16,3.23c0,0.04-0.01,0.07-0.01,0.11l-0.41,1.69      c-0.04,0.17-0.19,0.29-0.36,0.29c-0.03,0-0.06,0-0.09-0.01c-0.2-0.05-0.32-0.25-0.27-0.45l0.38-1.64l0.18-3.29      c0-0.05,0.01-0.11,0.03-0.16c0,0.35,0,0.64,0.01,0.72c0.03,0.2,0.55-0.05,0.6-0.15      C23.69995,12.76783,23.73995,12.62783,23.77995,12.46783z" style="fill:#A05828;"/></g><g><path d="M18.89335,25.60313c-0.207,0-0.375-0.168-0.375-0.375v-1.2051c0-0.207,0.168-0.375,0.375-0.375      s0.375,0.168,0.375,0.375v1.2051C19.26835,25.43513,19.10035,25.60313,18.89335,25.60313z" style="fill:#A05828;"/></g><g><path d="M25.75995,16.40783l-0.14,2.31l-0.18,5.32c-0.01,0.2-0.18,0.36-0.38,0.36h-0.01      c-0.21-0.01-0.37-0.18-0.36-0.39l0.18-5.38l0.18-2.71c0.12,0.62,0.43,0.56,0.6,0.56      C25.68995,16.47783,25.72995,16.44783,25.75995,16.40783z" style="fill:#A05828;"/></g><g><path d="M32.31995,11.71783l-1.14,2.39l-0.66,2.66l-0.23,4.98c-0.01,0.2-0.18,0.35-0.38,0.35h-0.01      c-0.21-0.01-0.37-0.18-0.36-0.39l0.24-5.04l0.69-2.79c0.01-0.03,0.02-0.06,0.03-0.09l1.44-3c0.03-0.05,0.07-0.1,0.12-0.13      l-0.04,1.2L32.31995,11.71783z" style="fill:#A05828;"/></g><g><path d="M32.66995,20.04783l0.69,3.91c0.04,0.2-0.1,0.4-0.3,0.43c-0.02,0.01-0.04,0.01-0.07,0.01      c-0.17,0-0.33-0.13-0.36-0.31l-0.71-3.97c-0.01-0.03-0.01-0.07,0-0.11l0.66-3.33c0.04,0.1,0.11,0.13,0.11,0.13      s0.41-0.45,0.74-0.85c0.02,0.06,0.03,0.12,0.02,0.18L32.66995,20.04783z" style="fill:#A05828;"/></g><g><path d="M33.13455,26.86483c-0.2041,0-0.3716-0.1641-0.375-0.3682l-0.0185-1.0576      c-0.0035-0.207,0.1611-0.3779,0.3686-0.3818c0.002,0,0.0044,0,0.0064,0c0.2041,0,0.3715,0.164,0.375,0.3681l0.0185,1.0577      c0.0034,0.207-0.1611,0.3779-0.3686,0.3818C33.13895,26.86483,33.13655,26.86483,33.13455,26.86483z" style="fill:#A05828;"/></g><g><path d="M36.58995,19.33783l-1.09,2.02l-0.12,1.43c-0.02,0.19-0.18,0.34-0.37,0.34h-0.04      c-0.2-0.02-0.36-0.2-0.34-0.41l0.13-1.51c0.01-0.05,0.02-0.1,0.05-0.14l1.12-2.08l0.16,0.36l0.42-0.47      C36.63995,18.99783,36.66995,19.18783,36.58995,19.33783z" style="fill:#A05828;"/></g></g></g></g></svg>