<?xml version="1.0" ?><svg style="enable-background:new 0 0 48 48;" version="1.1" viewBox="0 0 48 48" xml:space="preserve" xmlns="http://www.w3.org/2000/svg" xmlns:xlink="http://www.w3.org/1999/xlink"><g id="Icons"><g><path d="M10.88535,24.57731l-2.6727,2.23c0,0-1.3516,6.0679,3.5372,9.9215l3.2472-0.3365" style="fill:#07C8E6;"/><path d="M38.01775,25.05301l1.7696,1.7543c0,0,1.3516,6.0679-3.5372,9.9215l-2.6833-0.1401" style="fill:#07C8E6;"/><path d="M38.01775,25.02841c0,4.4433-1.2,8.0925-3.6791,10.8354    c-0.4797,0.5307-6.7385,0.5618-9.0834,0.5618c-2.3718,0-9.9425,0.794-10.2591,0.4827c-2.9339-2.8844-4.7889-7.1371-4.7889-11.8799    c0-8.6888,6.2256-15.7325,13.9053-15.7325C31.79215,9.29591,38.01775,16.33961,38.01775,25.02841z" style="fill:#1D97FF;"/><path d="M33.73935,26.52691c0,0,3.1381,2.3455,2.775,5.6215c0,0-0.7631,4.5876-5.2163,5.5212l0.8313-1.4027    L33.73935,26.52691z" style="fill:#07649E;"/><path d="M27.98935,13.88051l0.04,4.2l-1.38,3.28c-0.14,0.33-0.39,0.59-0.7,0.72    c-0.18,0.09-0.38,0.14-0.59,0.14l-3.81,0.04c-0.27,0-0.53-0.07-0.75-0.21c-0.27-0.16-0.48-0.41-0.6-0.71l-1.1-3.02l-0.05-4.52    l-0.85,0.01l0.26-2.16c0,0,3.57-2.22,5.85-2.35l0.66-0.58l3.57,3.26l0.1723,1.8466L27.98935,13.88051z" style="fill:#07C8E6;"/><path d="M14.28985,26.52691c0,0-3.1382,2.3455-2.775,5.6215c0,0,0.7631,4.5876,5.2163,5.5212    l-0.8313-1.4027L14.28985,26.52691z" style="fill:#07649E;"/><path d="M25.94935,17.31051v4.77c-0.18,0.09-0.38,0.14-0.59,0.14l-3.81,0.04c-0.27,0-0.53-0.07-0.75-0.21    v-4.55L25.94935,17.31051z" style="fill:#62E8EF;"/><path d="M19.06145,13.75551l1.1259,3.9283c0,0-0.0317,0.6499,1.2204,0.7096c1.252,0.0597,4.2684,0,4.2684,0    s0.8759,0.0265,1.3858-1.7274c0.613-2.1086,0.9231-2.7826,0.9231-2.7826L19.06145,13.75551z" style="fill:#71F2FF;"/><path d="M18.42605,11.93561l10.1143,0.0407l-0.5229-3.4304c-0.1631-1.0697-1.1037-1.8821-2.1792-1.8821    h-4.9304c-1.0231,0-1.8621,0.7371-1.9867,1.7455L18.42605,11.93561z" style="fill:#71F2FF;"/><path d="M14.66285,28.95271c0,0-2.7795,3.4542,0.9745,5.8594l0.7441-2.9297L14.66285,28.95271z" style="fill:#034768;"/><path d="M33.31195,28.94001c0,0,2.6154,3.4288-0.9819,5.9214L33.31195,28.94001z" style="fill:#034768;"/><path d="M33.73935,26.52691l-1.61,9.74c0,0-0.74,2.11-3,3.03l-2.7597,1.4219    c-0.7031,0.3623-1.4733,0.5847-2.2636,0.6171c-0.0089,0.0003-0.2027,0.0004-0.2107,0.0001    c-0.7924-0.0322-1.5647-0.2559-2.2693-0.62l-2.7467-1.4191c-2.27-0.92-3-3.03-3-3.03l-1.62-9.74    c2.5877-3.2005,7.5805,0.3544,9.7414,5.1692C25.94605,26.71241,31.51425,23.65961,33.73935,26.52691z" style="fill:#F9D9C0;"/><path d="M33.73935,26.53051l-0.21,1.25c-2.35-2.45-7.64,0.57-9.53,5.41c-2.11-4.7-6.9-8.19-9.53-5.4    l-0.21-1.26c2.59-3.2,7.58,0.35,9.74,5.17C25.94935,26.71051,31.50935,23.66051,33.73935,26.53051z" style="opacity:0.1;"/><g><g><path d="M26.58275,37.45241h-4.7935c-0.0722,0-0.1435-0.0205-0.2041-0.0605l-0.5991-0.3887      c-0.1738-0.1123-0.2231-0.3447-0.1103-0.5186c0.1128-0.1728,0.3452-0.2226,0.5185-0.1103l0.5059,0.3281h4.5615l0.6626-0.4785      c0.1694-0.1211,0.4033-0.083,0.5239,0.084c0.1211,0.168,0.0835,0.4023-0.0844,0.5234l-0.7613,0.5498      C26.73855,37.42801,26.66135,37.45241,26.58275,37.45241z" style="fill:#D6B6A1;"/></g><g><path d="M24.79275,39.07941h-1.771c-0.2071,0-0.375-0.168-0.375-0.375c0-0.2071,0.1679-0.375,0.375-0.375      h1.771c0.207,0,0.375,0.1679,0.375,0.375C25.16775,38.91141,24.99975,39.07941,24.79275,39.07941z" style="fill:#D6B6A1;"/></g></g></g></g></svg>