<?xml version="1.0" ?><svg style="enable-background:new 0 0 48 48;" version="1.1" viewBox="0 0 48 48" xml:space="preserve" xmlns="http://www.w3.org/2000/svg" xmlns:xlink="http://www.w3.org/1999/xlink"><g id="Icons"><g><polygon points="16.6232,18.65255 15.6736,25.49455 19.0276,27.16965 19.435,30.83615 20.0329,32.84995     27.2428,32.84995 28.6952,31.30465 29.1819,27.22055 31.3768,24.61835 31.3768,18.99605 25.582,19.70445 25.109,21.42965     24.0001,21.88885 23.1333,21.49925 22.4377,19.84865   " style="fill:#F9D9C0;"/><path d="M20.0329,30.81485c0,0.918,1.5738,3.6393,1.5738,3.6393c1.4098,3.4097-1.5738,5.3112-1.5738,5.3112    c0.3279-1.377-2.6228-3.7703-3.3769-4.2293c-0.7541-0.459-0.918-2.4917-0.918-2.4917c0.0984,0.9508-0.9568,1.672-0.9568,1.672    c0.2563-0.3606-0.0596-1.9671-0.453-3.1802c-0.3934-1.213,0.7874-3.4757,0.7874-3.4757l1.6906-0.6474l1.6787,1.0962    L20.0329,30.81485z" style="fill:#FFDD4D;"/><path d="M16.6232,24.61835v-6.3429l-1.2322-1.4152l-2.0135-2.8645l-7.2129-2.1967l0.4262,1.7705    l1.1147,0.3279l0.459,1.5409l0.8852,0.2951l0.3934,1.5409l1.1482,0.295l0.4256,1.7705l3.7643,1.5737l0.2369,3.0491l-0.6244,0.4918    l0.2295,3.1146c0,0,2.3745,2.3743,3.9773,3.9387l0.7632-2.5863l-0.7632-3.2004L16.6232,24.61835z" style="fill:#F4F4F4;"/><path d="M27.9671,30.81485c0,0.918-1.5738,3.6393-1.5738,3.6393    c-1.4098,3.4097,1.5738,5.3112,1.5738,5.3112c-0.3279-1.377,2.6228-3.7703,3.3769-4.2293c0.7541-0.459,0.918-2.4917,0.918-2.4917    c-0.0984,0.9508,0.9568,1.672,0.9568,1.672c-0.2563-0.3606,0.0596-1.9671,0.453-3.1802c0.3934-1.213-0.7873-3.4757-0.7873-3.4757    l-2.1183,0.1576L27.9671,30.81485z" style="fill:#FFDD4D;"/><path d="M34.6226,13.99575l-1.9199,2.8099l-1.3259,1.9478v5.8649l-1.9536,1.0895l-0.6487,3.1728    l0.6487,2.604c1.6024-1.5647,3.9536-3.9156,3.9536-3.9156l0.2294-3.1146l-0.6243-0.4918l0.2369-3.0491l3.7644-1.5737    l0.4255-1.7705l1.1481-0.295l0.3935-1.5409l0.8852-0.2951l0.459-1.5409l1.1148-0.3279l0.4261-1.7705L34.6226,13.99575z" style="fill:#F4F4F4;"/><path d="M27.9671,26.51995c0,0,0,6.1965,0,6.3276c0,0.0446,0.6305-0.5567,1.4561-1.3629v-5.7768    L27.9671,26.51995z" style="fill:#E2E1E0;"/><path d="M24.1543,21.78845l-1.2104-0.2389l-0.5062-1.7009l-6.8644-1.6621    c-0.0044-0.5681-0.7569-0.6409-0.6805-1.1401c0.974-6.3616,8.0001-7.2985,8.0001-7.2985l1.107-1.5133l1.1072,1.5133    c0,0,7.0261,0.9369,8.0002,7.2985c0.0764,0.4992-1.5109,0.5745-1.5153,1.1426l-5.9724,1.6596l-0.5106,1.581l-1.1089,0.4592" style="fill:#C9C9C9;"/><polygon points="33.1062,17.04615 23.9999,18.40625 14.8938,17.04615 14.7816,18.64625 22.2296,20.06105     22.5575,22.06105 24,22.65115 25.4559,21.97995 25.7704,20.06105 33.2185,18.64625   " style="fill:#9E9E9E;"/><path d="M19.9887,39.12195c0,0,1.3625-1.4684,0.2553-3.9179c0,0,1.7251,2.3637-0.2111,4.5613    C20.0594,39.54645,20.0611,39.33035,19.9887,39.12195z" style="fill:#EAC93F;"/><path d="M28.021,39.09145c0,0-1.3745-1.4379-0.2673-3.8874c0,0-1.7251,2.3637,0.2111,4.5613    C27.9383,39.54645,27.9486,39.29975,28.021,39.09145z" style="fill:#EAC93F;"/><g><g><path d="M21.289,29.85615c-0.0933,0-0.1865-0.0342-0.2593-0.1045      c-0.1499-0.1425-0.1548-0.3798-0.0117-0.5302l0.6958-0.7266c0.0708-0.0732,0.1689-0.1152,0.271-0.1152h3.5259      c0.0996,0,0.1948,0.04,0.2651,0.1103l0.6152,0.6162c0.1465,0.1465,0.1465,0.3838,0,0.5303      c-0.1464,0.1475-0.3837,0.1445-0.5302-0.001l-0.5054-0.5058h-3.2105l-0.5849,0.6113      C21.4863,29.81715,21.3876,29.85615,21.289,29.85615z" style="fill:#DDBBA4;"/></g><g><path d="M24.3759,30.35615h-1.4526c-0.2071,0-0.375-0.1679-0.375-0.375c0-0.207,0.1679-0.375,0.375-0.375      h1.4526c0.207,0,0.375,0.168,0.375,0.375C24.7509,30.18825,24.5829,30.35615,24.3759,30.35615z" style="fill:#DDBBA4;"/></g><g><path d="M23.7074,27.05145c-0.0542,0-0.1083-0.0117-0.1586-0.0351l-1.1402-0.5332      c-0.188-0.0879-0.2685-0.3115-0.1811-0.499c0.0883-0.1875,0.3125-0.2666,0.4985-0.1807l0.9966,0.4658l1.251-0.4766      c0.1933-0.0722,0.4101,0.0235,0.4838,0.2168c0.0738,0.1934-0.0234,0.4102-0.2172,0.4844l-1.3995,0.5332      C23.7978,27.04365,23.7529,27.05145,23.7074,27.05145z" style="fill:#DDBBA4;"/></g></g><path d="M18.6005,31.50775c0.814,0.7946,1.4324,1.384,1.4324,1.3398c0-0.1311,0-6.3276,0-6.3276    l-1.4324-0.7989V31.50775z" style="fill:#E2E1E0;"/><g><polygon points="7.7055,13.89745 12.0249,15.06175 7.8789,14.47955    " style="fill:#E6E6E6;"/><polygon points="9.0504,15.73505 13.3697,16.89925 9.1978,16.31345    " style="fill:#E6E6E6;"/><polygon points="10.5905,17.56565 14.9099,18.72995 10.7352,18.16785    " style="fill:#E6E6E6;"/></g><g><polygon points="40.2888,13.90095 35.9694,15.06515 40.1154,14.48305    " style="fill:#E6E6E6;"/><polygon points="38.9439,15.73845 34.6246,16.90275 38.7965,16.31695    " style="fill:#E6E6E6;"/><polygon points="37.4037,17.56915 33.0844,18.73335 37.2591,18.17135    " style="fill:#E6E6E6;"/></g></g></g></svg>