<?xml version="1.0" ?><svg style="enable-background:new 0 0 48 48;" version="1.1" viewBox="0 0 48 48" xml:space="preserve" xmlns="http://www.w3.org/2000/svg" xmlns:xlink="http://www.w3.org/1999/xlink"><g id="Icons"><g><path d="M24.02405,7.61052c0,0-6.878-0.8102-10.8615,11.0052c0,0-2.5841,5.3784-3.4483,6.8741    c-0.8642,1.4956-3.4898,5.2845-3.2904,7.7439c0.1994,2.4595,2.8251,5.9161,9.705,7.1126c0,0,1.4624,0.2991,5.1516-0.4985    c3.6892-0.7977,4.1212,0.0664,5.4839,0.2326c1.3626,0.1662,6.1487,0.7977,9.7049-1.2297c3.5563-2.0274,5.8828-3.523,4.8857-7.1126    c0,0-0.9638-2.6921-2.4927-5.0186s-3.3569-6.5142-4.8192-9.8711C32.58065,13.49162,29.89185,7.71182,24.02405,7.61052z" style="fill:#606060;"/><path d="M39.00675,34.69852c-1.29,3.49-7.04,3.77-9.92,3.77l-10.3-0.01c-3.26,0.09-8.67-0.27-9.97-3.76    c-0.76-2.03,0.39-3.99,1.66-5.41c0.4-0.45,0.8-0.84,1.16-1.16c0.48-0.44,0.89-0.76,1.1-0.94c0.9-0.77,4.06-3.49,4.82-6.82    c0.1069-0.4556,0.6835-0.3995,0.8803-0.8435c0.3279-0.74,0.3471-1.9623,0.8522-2.6074c0.2694-0.3441,0.5575-0.6691,0.8575-0.9691    c1.2-1.19,2.58-1.99,3.68-1.99h0.17c1.4309,0.0065,3.3271,1.3334,4.6871,3.1476c0.392,0.5229,0.0591,1.7982,0.338,2.3821    c0.2481,0.5192,1.1221,0.3426,1.2449,0.8803c0.77,3.33,3.92,6.05,4.82,6.82    C35.98675,27.94852,40.30675,31.20852,39.00675,34.69852z" style="fill:#464747;"/><path d="M32.86674,25.00852l-1.39,4.93c-4.31-0.8-6.02-6.46-6.02-6.46c-1.42,0.86-3.05,0.09-3.05,0.09    c-1.22,6.25-5.69,6.31-5.86,6.31l-1.35-5.14c0,0,1.56-2.06,2.44-4.67c0.15-0.45,0.31-0.85,0.46-1.2    c0.0604-0.1209,0.6367-0.073,0.6905-0.1819c0.0619-0.1254-0.3993-0.4057-0.3405-0.5181c0.48-0.9,0.86-1.27,0.86-1.27    c4.66,1.35,9.37,0.21,9.37,0.21c0.3,0.38,0.56,0.79,0.79,1.23c0.064,0.1132-0.4262,0.4006-0.3707,0.515    c0.0572,0.118,0.6599,0.0631,0.7107,0.185c0.08,0.18,0.16,0.36,0.23,0.55C31.02675,23.15852,32.86674,25.00852,32.86674,25.00852z    " style="fill:#B2B2B2;"/><path d="M23.91365,21.17782c0,0-2.1916-0.107-3.0154-0.3657c-0.5461-0.1713-2.1438-0.5981-2.1105,0.0831    c0.0332,0.6814-0.0167,1.9111,1.7946,1.612c1.8115-0.2991,4.3374-0.4064,6.4978,0.0461c2.1603,0.4524,2.1769-0.8604,2.2101-1.2924    c0.0333-0.4321-0.1662-0.7977-1.2297-0.6149C26.99705,20.82882,25.72655,21.31592,23.91365,21.17782z" style="fill:#464747;"/><g><path d="M29.80675,19.03852c-1.75,0.37-3.51,0.5-5.13,0.5c-2.94,0-5.42-0.43-6.58-0.67     c0.13-0.26,0.24-0.49,0.35-0.7c1.88,0.37,6.49,1.07,11.02,0.17C29.59675,18.56852,29.70675,18.79852,29.80675,19.03852z" style="fill:#464747;"/></g><path d="M31.48095,29.94212c-2.8576-1.1971-6.0276-6.467-6.0276-6.467    c-1.4129,0.7912-2.9959,0.0025-2.9959,0.0025c-2.756,5.2707-5.9071,6.3988-5.9071,6.3988s2.9788,3.6921,3.4402,5.8548    l1.8503,0.0536l0.4824-0.8518l3.2635,0.0407l0.695,0.8111h1.7587C28.27525,34.37262,29.48305,31.58202,31.48095,29.94212z" style="fill:#707070;"/><g><path d="M25.04955,26.34602h-2.4737c-0.207,0-0.375-0.168-0.375-0.375c0-0.207,0.168-0.375,0.375-0.375     h2.4737c0.207,0,0.375,0.168,0.375,0.375C25.42455,26.17802,25.25655,26.34602,25.04955,26.34602z" style="fill:#464747;"/></g></g></g></svg>