<?xml version="1.0" ?><svg style="enable-background:new 0 0 48 48;" version="1.1" viewBox="0 0 48 48" xml:space="preserve" xmlns="http://www.w3.org/2000/svg" xmlns:xlink="http://www.w3.org/1999/xlink"><g id="Icons"><g><path d="M37.02718,22.64873c-0.0271-0.0437-0.0313-0.0503,0.0632-0.323    c0.1074-0.3079,0.2865-0.8248,0.3929-1.755c0.0751-0.6575-0.1805-1.0385-0.4081-1.2437c-0.5725-0.515-1.5568-0.4684-2.0799-0.3972    l-0.4836-3.2818c-0.0012-0.0081-0.0809-0.6537-0.0826-0.6618c0.7163-1.0888,0.6263-1.5807,0.312-2.9482    c-0.296-1.2865-0.6142-2.6125-1.7335-3.3137c-0.7655-0.4785-1.6293-0.7162-2.5098-0.7353    c-7.4893-2.5835-12.1301-0.0856-12.3311,0.0268c-0.1488-0.0135-0.2923-0.0449-0.4445-0.0449c-2.726,0-4.3038,2.163-4.3038,4.889    c0,0.9445-0.3083,1.2253,0.1531,1.9767c-0.0375,0.0483-0.1255,0.7476-0.1349,0.8114l-0.4827,3.2752    c-0.5331-0.0675-1.4746-0.095-2.0291,0.4038c-0.2275,0.2052-0.4831,0.5862-0.408,1.2437c0.1064,0.9302,0.2855,1.4471,0.3928,1.755    c0.0946,0.2727,0.0903,0.2793,0.0632,0.323c-0.1335,0.2138-0.9482,2.04-0.2955,2.9455c0.1734,0.2413,0.5046,0.4845,1.1269,0.4304    l0.0684,0.2375l-0.9516,6.4572c-0.018,0.1216,0.0266,0.2442,0.1183,0.3259l3.7845,3.3616l2.5155,3.069    c0.0541,0.0665,0.1301,0.1121,0.2147,0.1273l3.4582,0.7396c0.2845,0.1758,1.5029-0.1267,2.8393-0.1267    c0.0618,0,0.2327,0.2453,0.2911,0.2329c0.0604,0.0019,0.5314,0.0046,0.5314,0.0046c1.2466-0.0627,1.9921,0.0526,2.2605-0.1108    l3.4598-0.7396c0.0845-0.0152,0.1605-0.0608,0.2147-0.1273l2.5027-3.0433c0.0285-0.0219,0.0546-0.0475,0.0774-0.0761l0.2342-0.209    c0.0504-0.0152,0.0979-0.0408,0.1383-0.0769l3.3991-3.0253c0.0917-0.0817,0.1364-0.2043,0.1183-0.3259l-0.9516-6.4572    l0.0684-0.2375c0.6252,0.0551,0.953-0.1891,1.1269-0.4304C37.97548,24.68873,37.16068,22.86253,37.02718,22.64873z" style="fill:#F43735;"/><path d="M22.24828,12.60803c0,0.41-0.05,0.81-0.15,1.19c-0.06,0.25-0.15,0.49-0.25,0.71    c-0.73,1.66-2.38,2.81-4.3,2.81c-2.6,0-4.71-2.11-4.71-4.71c0-1.41,0.62-2.67,1.6-3.53c0.19-0.17,0.4-0.33,0.62-0.46    c0.14-0.09,0.28-0.17,0.43-0.24c0.22-0.11,0.46-0.21,0.7-0.28c0.43-0.13,0.89-0.2,1.36-0.2    C20.14828,7.89803,22.24828,10.00803,22.24828,12.60803z" style="fill:#F95555;"/><path d="M31.61828,17.19803c-0.31,0.07-0.64,0.11-0.95,0.11c-0.26,0.01-0.52,0-0.77-0.04    c-1.88-0.26-3.47-1.65-3.92-3.61c-0.59-2.53,1-5.05,3.53-5.64c1.37-0.31,2.74,0.01,3.8,0.77c0.21,0.15,0.41,0.32,0.59,0.5    c0.11,0.11,0.22,0.23,0.32,0.36c0.16,0.19,0.31,0.41,0.42,0.63c0.24,0.39,0.4,0.82,0.51,1.28    C35.72828,14.08803,34.14828,16.60803,31.61828,17.19803z" style="fill:#F95555;"/><polyline points="15.16868,18.77863 16.06508,20.36453 20.20198,20.36453 21.20178,18.77863   " style="fill:#FFFFFF;"/><polyline points="32.23368,18.77863 31.33738,20.36453 27.20038,20.36453 26.20068,18.77863   " style="fill:#FFFFFF;"/><g><g><path d="M22.09828,13.79803c-0.06,0.25-0.15,0.49-0.25,0.71l-1.45-0.29c-0.2-0.04-0.33-0.24-0.29-0.44      c0.04-0.21,0.24-0.34,0.45-0.3L22.09828,13.79803z" style="fill:#DB2A2A;"/></g><g><path d="M17.14828,11.11803c-0.05,0.03-0.1,0.04-0.15,0.04c-0.14,0-0.28-0.08-0.34-0.22l-1.17-2.56      c0.22-0.11,0.46-0.21,0.7-0.28l1.15,2.53C17.41828,10.81803,17.33828,11.03803,17.14828,11.11803z" style="fill:#DB2A2A;"/></g><g><path d="M16.29828,12.46803c-0.04,0.02-0.09,0.03-0.14,0.03c-0.15,0-0.29-0.08-0.35-0.23l-1.37-3.19      c0.19-0.17,0.4-0.33,0.62-0.46l1.44,3.36C16.57828,12.16803,16.48828,12.38803,16.29828,12.46803z" style="fill:#DB2A2A;"/></g><g><path d="M30.66828,17.30803c-0.26,0.01-0.52,0-0.77-0.04l-0.26-1.46c-0.04-0.2,0.1-0.4,0.3-0.44      c0.21-0.03,0.4,0.1,0.44,0.31L30.66828,17.30803z" style="fill:#DB2A2A;"/></g><g><path d="M34.63828,10.27803l-2.19,1.68c-0.07,0.05-0.15,0.08-0.23,0.08c-0.11,0-0.22-0.05-0.3-0.15      c-0.12-0.16-0.09-0.4,0.07-0.53l2.23-1.71C34.37828,9.83803,34.52828,10.05803,34.63828,10.27803z" style="fill:#DB2A2A;"/></g><g><path d="M33.89828,9.28803l-2.96,2.16c-0.06,0.05-0.14,0.07-0.22,0.07c-0.11,0-0.23-0.05-0.3-0.16      c-0.12-0.16-0.09-0.4,0.08-0.52l2.81-2.05C33.51828,8.93803,33.71828,9.10803,33.89828,9.28803z" style="fill:#DB2A2A;"/></g></g><path d="M26.93448,40.34273l-1.3888-6.1883h-3.551l-0.9825,6.1883c0,0,1.9127,0.9105,3.2911,0.8296    C25.68158,41.09143,26.93448,40.34273,26.93448,40.34273z" style="fill:#303030;"/><g><g><path d="M22.54658,19.15373h-7.688c-0.1181,0-0.229-0.0557-0.2998-0.1504l-0.6206-0.8272      c-0.1245-0.165-0.0908-0.4004,0.0747-0.5244c0.166-0.125,0.4014-0.0908,0.5249,0.0752l0.5083,0.6768h7.2686l0.31-0.6202      c0.0928-0.1835,0.3184-0.2607,0.503-0.1669c0.1855,0.0918,0.2607,0.3173,0.1679,0.5029l-0.4135,0.8271      C22.81858,19.07363,22.68868,19.15373,22.54658,19.15373z" style="fill:#DB2A2A;"/></g><g><path d="M20.20188,20.73963h-4.1367c-0.1353,0-0.2598-0.0732-0.3267-0.1904l-0.8965-1.586      c-0.1015-0.1806-0.0381-0.4091,0.1421-0.5107c0.1782-0.1035,0.4087-0.04,0.5113,0.1416l0.7885,1.3955h3.711l0.8896-1.4111      c0.1104-0.1758,0.3413-0.2276,0.5176-0.1172c0.1748,0.1103,0.2275,0.3418,0.1172,0.5176l-1,1.5859      C20.45038,20.67323,20.33078,20.73963,20.20188,20.73963z" style="fill:#DB2A2A;"/></g><g><path d="M32.54418,19.15373h-7.688c-0.1421,0-0.272-0.0801-0.3355-0.2071l-0.4135-0.8271      c-0.0928-0.1856-0.0176-0.4111,0.1679-0.5029c0.1856-0.0948,0.4102-0.0166,0.503,0.1669l0.31,0.6202h7.2686l0.5083-0.6768      c0.1235-0.166,0.3584-0.2012,0.5249-0.0752c0.1655,0.124,0.1992,0.3594,0.0747,0.5244l-0.6206,0.8272      C32.77318,19.09803,32.66228,19.15373,32.54418,19.15373z" style="fill:#DB2A2A;"/></g><g><path d="M31.33758,20.73963h-4.1372c-0.1289,0-0.2485-0.0664-0.3174-0.1748l-0.9995-1.5859      c-0.1103-0.1758-0.0576-0.4073,0.1177-0.5176c0.1748-0.1104,0.4072-0.0586,0.5171,0.1172l0.8892,1.4111h3.7114l0.7881-1.3955      c0.1025-0.1807,0.33-0.2441,0.5112-0.1416c0.1802,0.1016,0.2437,0.3301,0.1421,0.5107l-0.896,1.586      C31.59738,20.66643,31.47288,20.73963,31.33758,20.73963z" style="fill:#DB2A2A;"/></g><g><path d="M33.30608,31.14133c-0.0562,0-0.1133-0.0127-0.1675-0.04      c-8.4087-4.208-17.9971-0.5866-18.0825-0.5495c-0.1899,0.084-0.4111-0.0039-0.4937-0.1943      c-0.0825-0.1895,0.004-0.4102,0.1939-0.4932c0.0879-0.0391,9.9878-3.804,18.7183,0.5671      c0.185,0.0927,0.2602,0.3174,0.1674,0.5029C33.57608,31.06523,33.44378,31.14133,33.30608,31.14133z" style="fill:#DB2A2A;"/></g><g><path d="M21.47778,31.14103c-0.1519,0-0.2949-0.0928-0.3511-0.2442      c-0.0728-0.1933,0.0259-0.4101,0.2197-0.4824c0.0952-0.0361,2.3467-0.8555,4.6411,0c0.1939,0.0723,0.2925,0.2891,0.2198,0.4824      c-0.0718,0.1953-0.2862,0.293-0.4825,0.2207c-2.0351-0.7627-4.0957-0.0078-4.1157,0      C21.56568,31.13323,21.52118,31.14103,21.47778,31.14103z" style="fill:#DB2A2A;"/></g><g><path d="M22.61598,25.39393c-0.0127,0-0.0249-0.001-0.0376-0.002      c-0.2061-0.0205-0.3565-0.2041-0.336-0.4101l0.3447-3.4483c0.0201-0.206,0.2046-0.3496,0.4102-0.3359      c0.2061,0.0205,0.3564,0.2041,0.3359,0.4102l-0.3447,3.4482C22.96948,25.24943,22.80638,25.39393,22.61598,25.39393z" style="fill:#DB2A2A;"/></g></g><polygon points="10.82998,32.93023 12.96208,19.21613 13.66898,23.07073 15.58238,25.19103     14.82378,36.40683 14.42198,36.12743   " style="fill:#303030;"/><polygon points="37.16918,32.93093 35.03778,19.21613 34.33088,23.07073 32.41758,25.19103     33.11168,36.43253 33.57798,36.12743   " style="fill:#303030;"/></g></g></svg>