<?xml version="1.0" ?><svg style="enable-background:new 0 0 48 48;" version="1.1" viewBox="0 0 48 48" xml:space="preserve" xmlns="http://www.w3.org/2000/svg" xmlns:xlink="http://www.w3.org/1999/xlink"><g id="Icons"><g><path d="M37.46549,29.76774c0,0-1.12,1.35-0.58,2.04c0,0-0.74,0.83-1.24,0.26c0,0-0.2,2.3-2.43,2.97    l-17.44,0.73c-1.31-0.67-2.91-2.97-3.1-2.9c-0.18,0.07-1.37-0.63-1.37-0.63c0.18-0.62-0.67-3.07-0.67-3.07    c-0.89-1.1-1-3.29-0.85-3.81c0.15-0.52-0.08-3.94-0.08-3.94c-0.44-1.79,1.23-5.66,1.23-5.66c0.11-1.61,2.56-4.24,3.3-4.65    c0.74-0.4,2.59-2.85,2.59-2.85c2.1-2.37,5.69-1.29,6.77-0.89c0.2,0.08,0.32,0.13,0.32,0.13s0.16-0.07,0.43-0.16    c1.36-0.46,5.68-1.59,8.02,1.8c0,0,2.94,4.09,3.28,4.36c0.34,0.27,2.16,2.46,2.19,3.93c0,0,0.41,2.65,0.5,4.61    c0.01,0.27,0.02,0.53,0.02,0.76c0,0.47-0.03,0.85-0.11,1.08c0,0-0.15,2,0.11,2.37    C38.35549,26.24774,38.54549,28.97774,37.46549,29.76774z" style="fill:#755C45;"/><path d="M14.44929,31.18794c0,0-2.0742,0.8994-2.371-1.4178c0,0-0.3106-1.5059-0.4865-2.3899l1.3993,1.1641    c0,0,3.7153-4.2537,3.7332-1.5435c0.018,2.7102,0.0718,2.5666,0.0718,2.5666l-0.7897,1.6159L14.44929,31.18794" style="fill:#E2BEA6;"/><path d="M34.14599,30.38914c0,0,1.6925,0.6634,2.1491-0.9339c0,0,0.2071-3.2981,0.2299-4.153    c0,0-1.6837,1.7015-3.5839,2.1127l-0.6664,1.7584L34.14599,30.38914" style="fill:#E2BEA6;"/><g><path d="M13.92549,27.82774c0,0,0.03,0.2,0.08,0.54c-0.3,0.27-0.64,0.45-1.02,0.45h-0.06     c-1.38-0.07-2.15-2.22-2.23-2.47l-0.86-1.78c0-0.51-0.02-1.19-0.05-1.79l1.6,3.29c0.27,0.78,0.92,1.97,1.58,2     c0.38,0.02,0.78-0.45,1.1-0.99C13.98549,27.52774,13.92549,27.82774,13.92549,27.82774z" style="fill:#5B4431;"/></g><g><path d="M33.98369,27.27454c-0.1699,0-0.3232-0.1162-0.3642-0.2881     c-0.0479-0.2012,0.0762-0.4033,0.2773-0.4521c0.0235-0.0049,2.3867-0.5918,2.6211-2.2842     c0.0283-0.2051,0.2227-0.3545,0.4219-0.3203c0.2061,0.0283,0.3486,0.2168,0.3203,0.4218     c-0.3037,2.2041-3.0723,2.8848-3.1894,2.9131C34.04139,27.27164,34.01208,27.27454,33.98369,27.27454z" style="fill:#5B4431;"/></g><g><path d="M24.34549,7.33774l-0.23,7.88c-0.12,0.03-0.24,0.08-0.37,0.13c0,0-0.21-0.08-0.57-0.16     c-0.5-0.62-1.8-1.8-4.12-1.08c-2.1,0.65-2.82,1.38-3.4,1.97c-0.31,0.33-0.61,0.63-1.07,0.82c-0.04,0.02-0.09,0.02-0.14,0.02     c-0.14,0-0.28-0.08-0.34-0.23c-0.08-0.19,0.01-0.41,0.2-0.49c0.31-0.12,0.52-0.34,0.82-0.64c0.6-0.62,1.43-1.46,3.71-2.17     c2.28-0.7,3.77,0.19,4.56,0.94l0.2-6.96c0.2,0.08,0.32,0.13,0.32,0.13S24.07549,7.42774,24.34549,7.33774z" style="fill:#5B4431;"/></g><g><path d="M38.35549,22.79774c-0.11,0.01-0.21,0.01-0.32,0.01c-1.21,0-2.34-0.42-2.4-0.44     c-0.2-0.08-0.3-0.29-0.22-0.49c0.07-0.19,0.29-0.29,0.48-0.22c0.02,0.01,1.29,0.48,2.44,0.38     C38.34549,22.30774,38.35549,22.56774,38.35549,22.79774z" style="fill:#5B4431;"/></g><g><g><path d="M33.84119,18.84384c-0.0245,0-0.0498-0.0019-0.0752-0.0078      c-0.6104-0.125-1.2227-0.8066-2.0694-1.75c-0.5722-0.6387-1.2216-1.3623-2.0234-2.0967      c-1.7647-1.6132-4.3887-0.7568-4.416-0.747c-0.1934,0.0625-0.4092-0.0391-0.4746-0.2354      c-0.0664-0.1953,0.0381-0.4082,0.2334-0.4746c0.125-0.0439,3.0654-1.0146,5.1631,0.9043      c0.8291,0.7588,1.5205,1.5293,2.0761,2.1484c0.6934,0.7735,1.293,1.4415,1.6612,1.5166      c0.2031,0.0411,0.3339,0.2393,0.292,0.4424C34.17219,18.72184,34.01599,18.84384,33.84119,18.84384z" style="fill:#5B4431;"/></g><g><path d="M36.21809,19.54604c-0.042,0-0.084-0.0069-0.126-0.0215l-0.9091-0.3232      c-0.1944-0.0694-0.2969-0.2842-0.2276-0.4795c0.0694-0.1953,0.2832-0.295,0.4795-0.2276l0.9092,0.3233      c0.1943,0.0693,0.2969,0.2841,0.2275,0.4795C36.51689,19.45034,36.37239,19.54604,36.21809,19.54604z" style="fill:#5B4431;"/></g><g><path d="M18.23469,9.54404c-0.0996,0-0.2002-0.04-0.2734-0.1191      c-0.1416-0.1504-0.1338-0.3877,0.0176-0.5293c2.1709-2.0371,5.914-0.1416,6.0722-0.0596      c0.1836,0.0947,0.2559,0.3203,0.1612,0.5049c-0.0948,0.1846-0.3233,0.2549-0.5049,0.1611      c-0.0342-0.0175-3.4317-1.7304-5.2168-0.0595C18.41829,9.51084,18.32649,9.54404,18.23469,9.54404z" style="fill:#5B4431;"/></g><g><path d="M16.63609,11.49524c-0.0908,0-0.1817-0.0322-0.2529-0.0986      c-0.1534-0.1397-0.1631-0.377-0.0235-0.5293l0.7461-0.8155c0.1387-0.1533,0.3789-0.163,0.5293-0.0234      c0.1533,0.1397,0.1631,0.377,0.0234,0.5293l-0.746,0.8154C16.83919,11.45424,16.73759,11.49524,16.63609,11.49524z" style="fill:#5B4431;"/></g><g><path d="M32.84999,13.76864c-0.4434-0.3232-1.9415-1.457-3.2657-2.9433      c-1.0664-1.1953-4.414-0.6807-5.6142-0.3789c-0.1983,0.0449-0.4043-0.0713-0.4541-0.2735      c-0.0508-0.2002,0.0713-0.4043,0.2724-0.4541c0.1934-0.0488,4.7696-1.1709,6.3565,0.6075      c1.2744,1.4306,2.7187,2.5244,3.1318,2.8252L32.84999,13.76864z" style="fill:#5B4431;"/></g></g><g><path d="M13.92519,27.82354c0,0,0.8505,5.9212,1.2082,6.6262c0,0,0.5774,1.5418,1.3067,2.1615     c0,0,1.8048,2.2063,2.9365,2.95c1.1318,0.7436,2.1881,1.7352,4.9798,1.6609c0,0,3.3702,0.1983,4.9546-1.884     c0,0,3.3511-3.2475,3.6529-3.9416s1.1066-2.2558,1.1821-5.0074l0.2514-3.7432c0.2052-0.6472-0.0961-2.6013-0.6953-3.1651     c-0.5993-0.5638-0.8727-2.3413-0.8727-2.3413s-2.0696-1.4572-3.07-3.5494c-1.0003-2.0923-3.291-3.3385-6.0146-2.2396     c0,0-4.9767-1.7694-6.5714,1.8853c-1.5948,3.6548-2.0531,5.2591-2.2971,6.0916     C14.63229,24.15994,13.92519,27.82354,13.92519,27.82354z" style="fill:#F9D9C0;"/><g><g><path d="M23.91639,32.18374c-0.0303,0-0.0606-0.0039-0.0909-0.0108l-1.8095-0.4492       c-0.8584-0.1689-1.0479-1.0215-0.961-1.5517c0.0332-0.2032,0.2168-0.3428,0.4307-0.3096       c0.2041,0.0332,0.3418,0.2246,0.3096,0.4287c-0.0147,0.1025-0.0664,0.6113,0.3838,0.7002l1.7373,0.4307l1.7177-0.4268       c0.0469-0.0234,0.3369-0.1807,0.3994-0.377c0.0098-0.0322,0.0411-0.1308-0.0742-0.3134       c-0.1113-0.1748-0.0595-0.4073,0.1153-0.5176c0.1738-0.1123,0.4062-0.0606,0.5175,0.1152       c0.252,0.3985,0.2227,0.7354,0.1543,0.9483c-0.1826,0.5634-0.8115,0.8291-0.8828,0.8574l-1.8564,0.4648       C23.97689,32.17984,23.94659,32.18374,23.91639,32.18374z" style="fill:#D6B6A1;"/></g><g><path d="M27.63709,35.40934c-0.0762,0-0.1524-0.0225-0.2188-0.0703l-0.6338-0.4551h-5.1025       l-0.8369,0.4199c-0.1836,0.0928-0.4102,0.0195-0.503-0.167c-0.0927-0.1846-0.0185-0.4102,0.167-0.5029l0.916-0.46       c0.0518-0.0264,0.1094-0.04,0.168-0.04h5.3115c0.0782,0,0.1553,0.0244,0.2188,0.0703l0.7324,0.5254       c0.168,0.1211,0.207,0.3554,0.0859,0.5234C27.86849,35.35464,27.75329,35.40934,27.63709,35.40934z" style="fill:#D6B6A1;"/></g><g><path d="M24.14589,36.70424c-1.1241,0-2.044-0.291-2.1016-0.3106       c-0.1973-0.0634-0.3047-0.2744-0.2412-0.4716c0.0635-0.1963,0.2763-0.3008,0.4717-0.2422       c0.0195,0.0068,1.9209,0.6035,3.4267,0.0088c0.1904-0.0743,0.4102,0.0185,0.4863,0.2109       c0.0762,0.1924-0.0185,0.4102-0.2109,0.4863C25.37339,36.62414,24.73179,36.70424,24.14589,36.70424z" style="fill:#D6B6A1;"/></g><g><path d="M22.74739,28.14464c-0.207,0-0.375-0.168-0.375-0.375v-2.7598       c0-0.04,0.0059-0.0791,0.0186-0.1162c0.0371-0.1699-0.1426-0.6259-1.1192-1.0224c-0.4599-0.0957-1.9883-0.3223-2.7724-0.0088       c-0.1953,0.0742-0.4112-0.0186-0.4873-0.21c-0.0762-0.1924,0.0175-0.4101,0.2099-0.4873       c1.1602-0.4619,3.1875-0.0273,3.2715-0.0078c1.6934,0.6836,1.6768,1.6123,1.6289,1.8897v2.7226       C23.12239,27.97664,22.95439,28.14464,22.74739,28.14464z" style="fill:#D6B6A1;"/></g><g><path d="M25.86659,24.83024c-0.1221,0-0.2422-0.0596-0.3135-0.17       c-0.1133-0.1728-0.0655-0.4052,0.1084-0.5185c0.0693-0.0459,1.7431-1.1152,4.2783-0.9932       c0.207,0.0108,0.3662,0.1865,0.3564,0.3936c-0.0107,0.206-0.1562,0.3662-0.3935,0.3564       c-2.2998-0.1211-3.8154,0.8613-3.8311,0.8701C26.00819,24.81064,25.93689,24.83024,25.86659,24.83024z" style="fill:#D6B6A1;"/></g></g></g><g><path d="M15.67549,20.91774c-0.24,0.64-0.41,1.13-0.54,1.53c-1.16,0.9-2.37,1.3-3.13,1.3     c-0.21,0-0.38-0.17-0.38-0.38c0-0.2,0.17-0.37,0.38-0.37C12.67549,22.99774,14.33549,22.42774,15.67549,20.91774z" style="fill:#5B4431;"/><path d="M16.39549,19.08774c-0.18,0.43-0.34,0.82-0.48,1.18c-1.26,0.75-3.07,1.58-4.82,1.58     c-0.47,0-0.93-0.06-1.38-0.19c0-0.15-0.01-0.24-0.01-0.24c-0.04-0.18-0.06-0.37-0.06-0.59     C11.94549,21.77774,15.03549,19.99774,16.39549,19.08774z" style="fill:#5B4431;"/></g></g></g></svg>