<?xml version="1.0" ?><svg style="enable-background:new 0 0 48 48;" version="1.1" viewBox="0 0 48 48" xml:space="preserve" xmlns="http://www.w3.org/2000/svg" xmlns:xlink="http://www.w3.org/1999/xlink"><g id="Icons"><g><polygon points="35.47431,17.53743 31.31431,40.05743 29.85431,41.96743 17.46431,41.96743     15.88431,40.19743 12.88431,18.40743   " style="fill:#F9D9C0;"/><g><g><path d="M23.97431,38.84743v3.12h-0.75v-3.12c0-0.2,0.17-0.37,0.38-0.37      C23.80431,38.47743,23.97431,38.64743,23.97431,38.84743z" style="fill:#D6B6A1;"/></g><g><path d="M28.32601,34.15253h-9.3198c-0.2071,0-0.375-0.168-0.375-0.375      c0-0.2071,0.1679-0.375,0.375-0.375h9.3198c0.207,0,0.375,0.1679,0.375,0.375      C28.70101,33.98453,28.53301,34.15253,28.32601,34.15253z" style="fill:#D6B6A1;"/></g><g><path d="M25.05741,36.03583h-2.9155c-0.207,0-0.375-0.168-0.375-0.375c0-0.2071,0.168-0.375,0.375-0.375      h2.9155c0.2071,0,0.375,0.1679,0.375,0.375C25.43241,35.86783,25.26451,36.03583,25.05741,36.03583z" style="fill:#D6B6A1;"/></g></g><g style="opacity:0.1;"><polygon points="20.47431,39.88743 20.52431,40.96743 16.79431,41.21743 15.89431,40.20743    "/><polygon points="21.99431,23.79743 14.04431,21.04743 14.02431,19.94743 22.10431,22.75743    "/><polygon points="26.58431,29.17743 26.72431,30.17743 23.91431,32.02743 21.44431,30.26743 21.54431,29.25743 23.91431,30.94743         "/><polygon points="25.99431,23.84743 25.84431,22.80743 33.81431,20.25743 33.75431,21.35743    "/><polygon points="31.21431,40.18743 30.40431,41.24743 27.21431,41.15743 27.28431,40.07743    "/></g><path d="M23.91721,6.04403c0,0-14.5675-0.9345-14.5675,14.0728l1.2094,20.4495l9.9662-0.6837    l-0.5497-12.9184l-5.8433-1.1303l-0.1099-5.882l8.0808,2.8035l-0.6597,6.4317l2.4737,1.7592l2.8068-1.8542l-0.8827-6.2817    l7.9738-2.5543l-0.3298,6.0469l-5.4506,1.2917l-0.8245,12.4786l10.0103,0.2732l1.4292-21.0542    C38.64971,19.29233,38.97951,6.59383,23.91721,6.04403z" style="fill:#D62B69;"/></g></g></svg>