<svg xmlns="http://www.w3.org/2000/svg" viewBox="0 0 48 48"><path fill="#f9d9c0" d="M11.454 30.109c-.94.877-1.559-.818-2.251-3.617-.693-2.8 1.533-1.651 1.533-1.651l1.784 1.019-1.066 4.249zM36.546 30.109c.94.877 1.559-.818 2.251-3.617.693-2.8-1.533-1.651-1.533-1.651l-2.977 1.428 2.26 3.84z"/><path fill="#f43735" d="M32.94 9.54c-2.095-1.557-5.027-2.663-9.128-2.68 0 0-4.731-.18-8.635 2.724l-1.673 1.502c-1.799 1.98-3.184 4.893-3.39 9.174l2.122 15.578 5.109 5.307H30.8l4.875-5.262 2.5-16.684s-.252-4.614-3.588-8.194"/><path fill="#fff" d="M20.4 24.474s1.682-1.614-.146-2.212l-4.805-1.286-1.784.839.889 1.747 5.846.912z"/><path fill="#e6e6e6" d="M17.067 11.186c-.865-.605-3.208-2.41-3.402-4.33 0 0-1.313 4.427 1.253 6.658a.655.655 0 0 0 .567.139c.539-.117 1.568-.505 1.839-1.774a.666.666 0 0 0-.257-.693zM31.046 11.16c.894-.63 3.173-2.411 3.365-4.305 0 0 1.304 4.399-1.228 6.636a.71.71 0 0 1-.627.154c-.54-.124-1.514-.513-1.794-1.72a.73.73 0 0 1 .284-.765z"/><path fill="#f9d9c0" d="M34.402 34.64c0 .1-.01.15-.01.15l-2.24 2.46-2.17 2.38-3.64-1.29h-5.05l-3.15 1.29-2.41-2.36-2.2-2.16c-.33-1.37 0-4.21 0-4.21.05-.28.12-.52.23-.72.66-1.37 2.3-1.16 2.3-1.16 2.98.03 6.36-1.39 7.53-1.92.27-.12.42-.2.42-.2.1.09.21.18.33.26 1.95 1.39 5.99 1.82 7.19 1.82 1.26 0 2.2.48 2.2.48.2.11.35.35.46.67.06.2.11.4.16.61.01.05.02.12.03.18.21 1.35.07 3.19.02 3.72z"/><path fill="#d6b6a1" d="M34.402 34.64c0 .1-.01.15-.01.15l-2.24 2.46-.04.03s-.24-.52 0-3.57 2.08-3.58 2.08-3.58c.06.2.11.4.16.61.01.05.02.12.03.18.21 1.35.07 3.19.02 3.72zM15.732 37.27l-2.2-2.16c-.33-1.37 0-4.21 0-4.21.05-.28.12-.52.23-.72.42.18 1.76.97 1.96 3.53.21 2.8.04 3.47.01 3.56z"/><g><path fill="#fff" d="M27.354 24.474s-1.682-1.614.146-2.212l4.805-1.286 1.784.839-.89 1.747-5.845.912z"/></g><g><path fill="#d6b6a1" d="M23.925 32.716a.363.363 0 0 1-.097-.013l-1.83-.49a.375.375 0 0 1 .194-.725l1.746.468 1.76-.35a.374.374 0 1 1 .146.737l-1.846.366a.362.362 0 0 1-.073.007zM19.715 35.983a.375.375 0 0 1-.248-.657l1.117-.98a.377.377 0 0 1 .247-.094h6.04c.094 0 .184.035.253.099l1.066.98a.376.376 0 0 1-.508.553l-.958-.882h-5.752l-1.01.888a.374.374 0 0 1-.247.093zM24.342 27.16l-.14 3.08c-.01.2-.18.36-.38.36h-.01a.378.378 0 0 1-.36-.39l.14-3.11c.27-.12.42-.2.42-.2.1.09.21.18.33.26z"/></g></svg>