<?xml version="1.0" ?><svg style="enable-background:new 0 0 48 48;" version="1.1" viewBox="0 0 48 48" xml:space="preserve" xmlns="http://www.w3.org/2000/svg" xmlns:xlink="http://www.w3.org/1999/xlink"><g id="Icons"><g><path d="M25.33701,39.31624c-0.1981,0-0.2248,0.8276-0.2254,0.9953    c-0.0009,0.2925,0.002,0.7298,0.0041,1.0038c0.0011,0.1469,0.1259,0.2713,0.2967,0.2969l0,0    c0.0575,0.0086,0.1108,0.028,0.1566,0.0586c0.2111,0.1408,0.9433,0.5587,2.0371,0.4323c1.3088-0.1512,1.1937-0.2326,1.1937-0.2326    s0.072-0.9888-0.5177-1.2214c-0.4016-0.1585-0.5564-0.263-0.6052-0.4054c-0.0464-0.1354-0.0532-0.8444-0.2198-0.8444" style="fill:#464747;"/><path d="M22.56851,39.58224c0.1981,0,0.1811,0.5616,0.1817,0.7293    c0.0009,0.2925-0.002,0.7298-0.0041,1.0038c-0.0012,0.1469-0.126,0.2713-0.2967,0.2969l0,0    c-0.0575,0.0086-0.1108,0.028-0.1567,0.0586c-0.211,0.1408-0.9432,0.5587-2.037,0.4323    c-1.3088-0.1512-1.1938-0.2326-1.1938-0.2326s-0.0719-0.9888,0.5178-1.2214c0.4016-0.1585,0.5564-0.263,0.6052-0.4054    c0.0464-0.1354,0.0637-0.7613,0.2303-0.7613" style="fill:#464747;"/><path d="M29.62701,36.62244c0,0-0.9277,1.9456-1.1628,3.0751c-0.0366,0.1758-0.198,0.2966-0.3776,0.2966    h-2.7235c0,0-0.613-0.0838-0.6125-0.8582c0.0005-0.7743,0-1.4742,0-1.4742S28.34811,37.83994,29.62701,36.62244z" style="fill:#3D9BE2;"/><path d="M18.59141,36.85504c0,0,0.8583,1.6792,1.1095,2.7779c0.0491,0.2146,0.2413,0.3612,0.4614,0.3612    h2.6541c0,0,0.6131-0.0838,0.6126-0.8582c-0.0006-0.7743,0-1.2412,0-1.2412S20.28661,36.78624,18.59141,36.85504z" style="fill:#3D9BE2;"/><path d="M14.58961,36.45594l0.291,0.9666c0,0-0.607,1.7263-0.2198,2.5845    c0.3872,0.8582,1.1314,0.7544,1.1314,0.7544s0.3573,0.7198,0.908,0.7497c0.5508,0.03,1.0551-1.1149,1.0551-1.1149    s0.5806-0.2017,0.1883-1.2432c-0.3922-1.0415-0.8322-1.6289-0.8621-2.5788l-1.2464-0.6326L14.58961,36.45594z" style="fill:#464747;"/><path d="M33.39691,36.45594l-0.265,0.9666c0,0,0.607,1.7263,0.2198,2.5845s-1.1313,0.7544-1.1313,0.7544    s-0.3573,0.7198-0.9081,0.7497c-0.5507,0.03-1.0551-1.1149-1.0551-1.1149s-0.5805-0.2017-0.1883-1.2432    c0.3923-1.0415,0.8061-1.6289,0.836-2.5788l1.2841-0.4847L33.39691,36.45594z" style="fill:#464747;"/><path d="M15.95141,24.63514c0,0-4.0369,4.7918-1.3618,11.8208l2.4919,0.1183l0.3083-0.5223    c0,0,1.7819-3.4843,2.0025-5.4472v-3.1967L15.95141,24.63514z" style="fill:#FFD24A;"/><path d="M32.12081,24.73854c0,0,3.9512,4.6884,1.2761,11.7174l-2.492,0.1183l-0.3082-0.5223    c0,0,0.4646-0.6292,0.2366-3.2921c0,0-1.2258-0.3597-1.4463-2.3227v-2.7905L32.12081,24.73854z" style="fill:#FFD24A;"/><path d="M16.00611,22.82924l3.609,4.8779l8.9631-0.551l3.5426-4.3269v-7.6921    c0-4.4618-3.617-8.0788-8.0788-8.0788l0,0c-4.4568,0-8.0717,3.6092-8.0788,8.0659L16.00611,22.82924z" style="fill:#FFD24A;"/><path d="M28.19241,13.91914c0.1119-0.1254,0.2754-0.197,0.4475-0.197h3.326h0.3356    c0.3442,0,0.6196,0.2865,0.6196,0.6447v0.8237c0,0.3582-0.2754,0.6447-0.6196,0.6447h-0.1807h-3.4809    c-0.1463,0-0.284-0.0537-0.3872-0.1433" style="fill:#464747;"/><path d="M20.00781,13.88324c-0.1119-0.0984-0.2582-0.1611-0.413-0.1611h-3.4885h-0.284    c-0.3442,0-0.6282,0.2865-0.6282,0.6447v0.8237c0,0.3582,0.284,0.6447,0.6282,0.6447h0.1291h3.6434    c0.129,0,0.2495-0.0358,0.3528-0.1074" style="fill:#464747;"/><g><g><path d="M24.16031,7.78054c-0.063,0-0.127-0.0176-0.1846-0.0537      c-0.1626-0.1016-0.2138-0.3145-0.1133-0.4786c0.044-0.0703,1.1119-1.7353,4.064-1.3017      c0.1914,0.0293,0.3233,0.207,0.2949,0.3984c-0.0283,0.1914-0.2114,0.3155-0.3974,0.2949      c-2.48-0.3691-3.3311,0.9229-3.3662,0.9776C24.39081,7.72294,24.27651,7.78054,24.16031,7.78054z" style="fill:#30302F;"/></g><g><path d="M24.16571,7.78144c-0.1187,0-0.2329-0.0595-0.2984-0.166      c-0.0337-0.0537-0.8862-1.3447-3.3647-0.9756c-0.1909,0.0206-0.3692-0.1035-0.3975-0.2949s0.1035-0.3691,0.2949-0.3984      c2.3116-0.3428,3.4683,0.6045,3.8819,1.0674c0.5669-0.2012,1.9634-0.6162,2.9145-0.2364      c0.1797,0.0723,0.2671,0.2754,0.1949,0.4551c-0.0718,0.1797-0.2759,0.2647-0.4546,0.1953      c-0.7735-0.3086-2.1651,0.1319-2.6368,0.3272C24.25601,7.77364,24.21061,7.78144,24.16571,7.78144z" style="fill:#30302F;"/></g><g><path d="M24.16031,7.78144c-0.0444,0-0.0898-0.0078-0.1338-0.0263      c-0.4717-0.1963-1.8667-0.6367-2.6367-0.3272c-0.1782,0.0694-0.3828-0.0156-0.4551-0.1953      c-0.0718-0.1797,0.0156-0.3828,0.1953-0.4551c1.1944-0.4746,3.0855,0.2979,3.1651,0.3311      c0.1782,0.0742,0.2627,0.2783,0.1889,0.457C24.42841,7.70044,24.29801,7.78144,24.16031,7.78144z" style="fill:#30302F;"/></g></g><g><g><path d="M31.77031,32.37884c-0.1768,0-0.3286-0.1337-0.3477-0.3134      c-0.0019-0.0205-0.2207-2.085-0.5219-2.8819c-0.0679-0.1816,0.0229-0.3828,0.2041-0.4511      c0.1806-0.0694,0.3828,0.0234,0.4511,0.2031c0.3326,0.8818,0.5538,2.9687,0.563,3.0576      c0.0201,0.1924-0.1196,0.3643-0.3115,0.3838C31.79471,32.37884,31.78251,32.37884,31.77031,32.37884z" style="fill:#EFBC3F;"/></g><g><path d="M16.31381,32.30064c-0.0123,0-0.0245,0-0.0372-0.0019      c-0.1918-0.0196-0.3315-0.1915-0.3115-0.3838c0.0093-0.0889,0.2305-2.1758,0.5625-3.0567      c0.0694-0.1806,0.271-0.2724,0.4512-0.2041c0.1807,0.0674,0.272,0.2696,0.2041,0.4502      c-0.3013,0.7988-0.5195,2.8623-0.5215,2.8828C16.64241,32.16684,16.49051,32.30064,16.31381,32.30064z" style="fill:#EFBC3F;"/></g></g><path d="M19.85641,14.27974h8.7218c0,0-2.1476-4.4263-4.8743-3.9096    C23.70391,10.37014,20.28561,11.24134,19.85641,14.27974z" style="fill:#EFBC3F;"/><path d="M24.03781,9.51974c-2.91,0-5.26,2.45-5.26,5.48c0,3.02,2.35,5.47,5.26,5.47    c2.9,0,5.26-2.45,5.26-5.47C29.29781,11.96974,26.93781,9.51974,24.03781,9.51974z M24.03781,19.17974    c-2.22,0-4.03-1.87-4.03-4.18c0-2.32,1.81-4.19,4.03-4.19s4.02,1.87,4.02,4.19    C28.05781,17.30974,26.25781,19.17974,24.03781,19.17974z" style="fill:#D5D5D5;"/><path d="M28.05781,14.99974c0,2.31-1.8,4.18-4.02,4.18s-4.03-1.87-4.03-4.18c0-0.25,0.02-0.49,0.06-0.72    h7.94C28.03781,14.51974,28.05781,14.74974,28.05781,14.99974z" style="fill:#FFFFFF;"/><path d="M25.66681,14.99354c0,0.9402-0.7314,1.6923-1.635,1.6923c-0.895,0-1.6264-0.7521-1.6264-1.6923    c0-0.2596,0.0602-0.5104,0.1721-0.7342h2.9172C25.60651,14.48314,25.66681,14.73394,25.66681,14.99354z" style="fill:#30302F;"/><g><path d="M32.12081,31.94984h-1.2173c-0.7419,0-1.3433-0.6014-1.3433-1.3433v-3.0635l-0.6572,0.0339     l-0.7357-0.3805l0.1996-0.8385h-8.7207l0.0537,0.7838l-0.4053,0.2146l-0.6951,0.2902v2.7906     c0,0.8354-0.6773,1.5127-1.5127,1.5127h-1.1107c0,0-1.1327,5.9907,8.0943,6.1264     C32.86381,38.20544,32.12081,31.94984,32.12081,31.94984z" style="fill:#50ABFE;"/><polygon points="20.55461,27.33024 19.64621,26.35794 16.00621,22.82924 15.95141,24.63514      18.59951,27.64654 19.41771,28.45854    " style="fill:#3D9BE2;"/><polygon points="28.63281,28.44634 29.56021,27.54304 32.12081,24.73854 32.12081,22.82924      28.36691,26.35794 27.45521,27.26644    " style="fill:#3D9BE2;"/></g><circle cx="28.65861" cy="27.25306" r="0.29083" style="fill:#30302F;"/><circle cx="19.49601" cy="27.25306" r="0.29083" style="fill:#30302F;"/></g></g></svg>