<svg xmlns="http://www.w3.org/2000/svg" viewBox="0 0 48 48"><path fill="#301f7a" d="M34.335 30.269s-.45.06-1.21.14c-2.34 2.61-5.72 4.27-9.51 4.27-3.84 0-7.28-1.71-9.63-4.4 0-.01-.01-.01-.02-.01-5.11-1.92-3.09-7.47-3.09-7.47l.02-.01c-.02-.29-.05-.59-.05-.89 0-5.29 3.22-9.83 7.81-11.78.89-.37 1.83-.64 2.8-.8.7-.13 1.42-.19 2.16-.19 1.23 0 2.42.18 3.55.51.97.27 1.9.67 2.76 1.17 3.21 1.82 5.55 5.01 6.24 8.77.36.79.71 1.83 1.04 3.22 1.37 5.87-2.87 7.47-2.87 7.47z"/><path fill="#6352c1" d="M29.925 10.809l-.08 4.66-.01.58-.06 3.73-2.85 1.46.12-5.77h-5.72l-.16 5.92-2.77-1.6-.05-.03.31-9.64c.89-.37 1.83-.64 2.8-.8l-.05 3.38h5.71l.05-3.06c.97.27 1.9.67 2.76 1.17z"/><path d="M19.327 22.074s-2.912-2.905-6.962-6.215c.24-.45.5-.88.8-1.29 3.79 2.89 7.44 4.33 7.44 4.33s3.39 3.39 3.39 3.5l3.43-3.62c2.5-.75 4.85-2.22 6.87-3.85.28.41.53.85.75 1.3-2.18 1.87-3.562 5.133-6.372 5.983l-4.732 4.337c0-.12-4.614-4.475-4.614-4.475z" opacity=".1"/><path fill="#6352c1" d="M23.998 24.325c0-.115-3.39-3.504-3.39-3.504S11.432 17.204 7.09 9.968c0 0-1.295 10.282 5.37 17.213l1.066 6.816 4.57 4.722 11.69.152 4.608-4.836 1.218-6.778s6.283-5.75 5.293-17.289c0 0-6.13 8.53-13.48 10.74l-3.427 3.617z"/><path fill="#f9d9c0" d="M18.095 38.719l-1.104-8.744s3.77 1.242 5.826 1.28L24 31.75l1.064-.457s3.503.115 5.826-1.104l-1.104 8.682"/><path fill="#fff" d="M27.663 26.007s-1.114-1.04.075-1.448l3.128-.885 1.174.532-.565 1.15-3.812.65zM20.297 25.978s1.1-1.055-.095-1.446l-3.14-.84-1.167.548.581 1.143 3.821.595z"/><path fill="#d6b6a1" d="M20.241 34.605a.375.375 0 0 1-.183-.703l1.04-.577a.381.381 0 0 1 .182-.047h5.31a.37.37 0 0 1 .194.055l.952.577a.375.375 0 1 1-.388.64l-.863-.522h-5.108l-.954.53a.382.382 0 0 1-.182.047zM25.089 35.794h-2.107a.375.375 0 0 1 0-.75h2.107a.375.375 0 0 1 0 .75z"/><g><path fill="#4c439e" d="M23.475 27.619l-.3 3.79-.36-.15c-.12 0-.25-.01-.38-.02l.29-3.67c.02-.21.19-.37.4-.35.21.02.36.2.35.4z"/></g></svg>