<?xml version="1.0" ?><svg style="enable-background:new 0 0 48 48;" version="1.1" viewBox="0 0 48 48" xml:space="preserve" xmlns="http://www.w3.org/2000/svg" xmlns:xlink="http://www.w3.org/1999/xlink"><g id="Icons"><g><polygon points="39.53465,25.08735 37.65605,24.42815 33.09565,26.62565 36.95155,30.39815     38.64945,30.39815   " style="fill:#DB2A2A;"/><polygon points="9.97565,24.42815 8.46535,25.28415 9.35065,30.39815 11.04855,30.39815 10.23215,24.42815       " style="fill:#DB2A2A;"/><polygon points="27.21595,24.58125 32.55055,38.72695 32.56415,38.73205 32.56415,38.72695     36.08415,35.95045 36.95155,30.39815 37.65605,24.42815   " style="fill:#F43735;"/><polygon points="9.99185,24.54155 10.62915,29.04825 11.91595,35.95045 15.03625,38.72695     22.65625,26.24855   " style="fill:#F43735;"/><polygon points="32.97535,24.44735 14.61365,24.52265 15.03625,38.72695 15.02415,39.30105     16.82205,41.21865 30.76615,41.21865 32.56415,39.61415 32.56415,38.73205 32.55055,38.72695   " style="fill:#DB2A2A;"/><path d="M18.68715,7.56275c-3.6442,1.1189-7.9771,3.8254-8.9367,10.3529c0-0.01,0.01-0.01,0.02-0.02    c0.18-0.17,1.8-1.53,5.9-1.61c3.2374-0.074,4.294,1.3978,4.6253,2.1665l0.9613-1.3004c0,0,2.5412-3.3858,2.0056-6.0558    C22.90705,9.32345,19.83755,8.08945,18.68715,7.56275z" style="fill:#F43735;"/><path d="M29.21465,7.73065l0.188-0.1282c-1.5188-0.4816-3.291-0.7824-5.3722-0.8168    c0,0-2.4556-0.1095-5.3433,0.7771c2.8832,1.3202,2.5699,9.589,2.5699,9.589l-0.9613,1.3004    c0.1159,0.269,0.1447,0.4535,0.1447,0.4535l6.78-0.09c0,0-0.0283-0.2724-0.002-0.6705l-0.6475-0.9934    c0,0,2.7322-2.1539,3.1784-4.6428C30.09455,10.58355,27.93855,8.28105,29.21465,7.73065z" style="fill:#DB2A2A;"/><path d="M29.40265,7.60245l-0.188,0.1282c-1.1599,0.5002-1.8156,2.0844-2.1846,3.8145    c-0.5619,2.6341-0.4591,5.6066-0.4591,5.6066l0.6475,0.9934c0.0777-1.1701,0.6332-3.4354,3.812-3.1295    c4.14,0.41,7.09,4.27,7.27,4.51c0.01,0.01,0.01,0.01,0.01,0.01s0,0,0-0.01v-0.01    C38.30195,19.03095,38.02755,10.33745,29.40265,7.60245z" style="fill:#F43735;"/><path d="M38.36045,20.00565l-0.13,0.85l-1.1334,8.3098c-1.59,0.7799-2.7366,2.0902-3.3766,3.4602    c-1.14,2.45-1.58,5.31-1.58,5.31l-1.59,0.71l-2.77-0.09l-1.5-0.95l-5.84-0.21l-1.19,1.01l-2.15,0.22l-1.53-1.53    c-0.1-2.03-1.06-3.36-1.51-4.55c-0.84-2.19-1.91-3.07-1.91-3.07l-1.52-0.43l-1.15-8.12l-0.13-0.92c0,0,0-0.17,0.03-0.45    c0.04-0.38,0.13-0.97,0.37-1.64c0-0.01,0.01-0.01,0.02-0.02c0.5-1.43,1.65-3.21,4.24-4.07c4.71-1.57,6.49,0.94,7.25,3.33h5.31    c2.75-8.44,11.01-1.83,11.74,2.36v0.01c0,0.01,0,0.01,0,0.01C38.34045,19.69565,38.36045,19.85565,38.36045,20.00565z" style="fill:#FFDD4D;"/><path d="M13.31135,23.83375c0,0,4.7841,0.8338,7.1321,0.7475l-1.262,1.6673    c0,0-3.0525-0.0863-5.5766-0.6037L13.31135,23.83375z" style="fill:#FFFFFF;"/><path d="M34.34795,23.83375c0,0-4.784,0.8338-7.132,0.7475l1.262,1.6673c0,0,3.0525-0.0863,5.5765-0.6037    L34.34795,23.83375z" style="fill:#FFFFFF;"/><path d="M38.31045,19.53565c0,0,0,0,0-0.01h-0.01l-2.71,3.55l-1.33,0.39c-0.22,0.04-4.79,0.82-7.03,0.74    c-0.01,0-0.01,0.01-0.02,0.01l-6.77-0.01c-0.01,0-0.01,0-0.01,0c-2.24,0.08-6.81-0.7-7.03-0.74l-1.33-0.39l-2.69-3.52    c-0.03,0.28-0.03,0.45-0.03,0.45l0.13,0.92l2.07,2.7c0.04,0.07,0.11,0.11,0.19,0.14l1.24,0.36l0.25,1.58    c0.03,0.15,0.15,0.27,0.3,0.31c2.53,0.51,5.51,0.6,5.64,0.61h0.01c0.12,0,0.23-0.06,0.3-0.15l1.15-1.52l6.4,0.01l1.15,1.51    c0.07,0.09,0.18,0.15,0.3,0.15c0,0,0,0,0.01,0c0.12-0.01,3.11-0.1,5.64-0.61c0.15-0.04,0.27-0.16,0.29-0.31l0.26-1.58l1.24-0.36    c0.08-0.03,0.14-0.07,0.19-0.14l2.12-2.77l0.13-0.85C38.36045,19.85565,38.34045,19.69565,38.31045,19.53565z M19.00045,25.86565    c-0.68-0.03-3.02-0.15-5.07-0.54l-0.17-1.04c1.16,0.19,3.96,0.62,5.93,0.67L19.00045,25.86565z M33.73045,25.32565    c-2.05,0.39-4.39,0.51-5.07,0.54l-0.69-0.91c1.97-0.05,4.77-0.48,5.92-0.67L33.73045,25.32565z" style="fill:#DB2A2A;"/><path d="M14.05735,32.55185c0,0,0.8386,2.3016,0.9336,4.7785l1.8865,1.8876v-2.504    C16.87745,36.71395,15.23905,34.03995,14.05735,32.55185z" style="fill:#EFBC3F;"/><polygon points="28.73545,35.07665 18.97945,35.07665 16.87745,36.71395 16.87745,39.21795     16.87745,39.21805 19.24095,39.21805 20.57285,38.06005 25.89155,38.06045 27.21595,39.37765 30.55185,39.37765     30.59065,36.56395   " style="fill:#FFD24A;"/><path d="M30.59065,36.56395l-0.0388,2.8137l2.075-1.4227c0,0,0.4281-3.1656,1.0959-5.3335    L30.59065,36.56395z" style="fill:#EFBC3F;"/></g></g></svg>