<?xml version="1.0" ?><svg style="enable-background:new 0 0 48 48;" version="1.1" viewBox="0 0 48 48" xml:space="preserve" xmlns="http://www.w3.org/2000/svg" xmlns:xlink="http://www.w3.org/1999/xlink"><g id="Icons"><g><path d="M24.55045,40.02014c-0.0106,0.0425,0,1.7084,0,1.7084l0.2866,0.0531    c0,0,0.5838,0.5732,1.5498,0.4352c0.9659-0.138,0.881-0.2123,0.881-0.2123s0.0531-0.9023-0.3821-1.1146    c-0.4352-0.2122-0.4893-0.4728-0.4681-0.7381" style="fill:#464747;"/><path d="M23.32505,40.15184c0.0106,0.0424,0,1.5767,0,1.5767l-0.2866,0.0531    c0,0-0.5838,0.5732-1.5497,0.4352c-0.966-0.138-0.8811-0.2123-0.8811-0.2123s-0.053-0.9023,0.3822-1.1146    c0.4352-0.2122,0.5027-0.433,0.4815-0.6983" style="fill:#464747;"/><path d="M15.85205,36.73864c0,0-0.0402,2.0651-0.049,2.9663c-0.0087,0.9012,0.2753,1.3643,0.7842,0.8323    c0,0,1.9642,2.2863,1.9004-0.0025c0,0,0.9625-0.2796,0.2736-1.4434c-0.6888-1.1638-1.3714-0.6717-1.0756-2.3512l-0.8717-0.4686    L15.85205,36.73864z" style="fill:#464747;"/><path d="M32.02815,36.73864c0,0,0.16,2.0651,0.1688,2.9663c0.0087,0.9012-0.2753,1.3643-0.7842,0.8323    c0,0-1.9643,2.2863-1.9005-0.0025c0,0-0.9625-0.2796-0.2736-1.4434s1.2517-0.6717,0.956-2.3512l0.992-0.3165L32.02815,36.73864z" style="fill:#464747;"/><path d="M30.32075,27.01464l-0.1261,9.7255l1.8335-0.0015    C32.02815,36.73864,31.99855,30.22144,30.32075,27.01464z" style="fill:#EFBC3F;"/><path d="M17.77585,26.68274l-0.0902,10.0574l-1.8336-0.0015    C15.85205,36.73864,16.09805,29.88964,17.77585,26.68274z" style="fill:#EFBC3F;"/><path d="M29.81995,35.61854c0,0.6987,0.2038,1.3295-0.3255,1.7855    c-0.6023,0.5188-1.5757,0.7767-2.2923,0.9214l-1.9,1.2525c-0.2643,0-0.3408,0.1706-0.3408-0.0938l-0.3067-1.1331l-0.6134-0.1619    l-0.4772-0.1022l-0.7923,0.5112c0,0.2643-0.9116,1.0309-0.9116,1.0309c-0.1907,0-0.7242-1.3717-0.7242-1.3717    c-0.7073-0.1429-2.0886-0.3184-2.6887-0.8328c-0.5358-0.4644-0.8501-1.1359-0.8501-1.8432l0.0114-22.6749    c0,0-0.0455-1.6519,0.3134-2.3408c2.2904-4.3966,9.9095-4.5657,11.8408,0c0.4658,0.8548,0.5658,2.3408,0.5658,2.3408    l-0.0072,21.0607L29.81995,35.61854z" style="fill:#FFD24A;"/><path d="M19.63315,29.88034v2.3826c0,0-0.2614,1.7297-2.036,1.7038c0,0-1.2605,3.3407,2.9791,4.7151    l0.6249,1.3842c0.0653,0.1446,0.2092,0.2377,0.3678,0.2379c0.1588,0.0002,0.3176,0.0004,0.4763,0.0006    c0.2884,0.0004,0.5768,0.0007,0.8653,0.0011c0.0842,0.0001,0.1684,0.0002,0.2526,0.0003    c0.0674,0.0001,0.1697,0.0164,0.2247-0.0245c0.1404-0.1043,0.1679-0.3537,0.1872-0.511c0.0455-0.3721,0.0261-0.753-0.0027-1.1255    c-0.0008-0.0103-0.0082-0.1202-0.0099-0.1202h0.8001l0.0325,1.4292c0,0-0.0589,0.3497,0.6905,0.3497c0.7494,0,1.1873,0,1.1873,0    s0.4914,0.0615,1.076-1.6218c0,0,2.6659-0.4211,2.8993-2.5211l0.0726-2.194c0,0-2.6572,0.1868-2.1775-4.0864H19.63315z" style="fill:#50ABFE;"/><path d="M30.32075,25.22244c-1.1288,1.5931-3.9078,5.5295-3.9078,5.6581l1.0787,0.8501    c0.0786-0.1,1.9361-2.8433,2.8291-4.165" style="fill:#3D9BE2;"/><path d="M17.60425,25.17244c1.1002,1.5574,3.9436,5.5795,3.9436,5.7081l-1.0788,0.8501    c-0.0786-0.1-1.9932-2.9219-2.8648-4.2221v-0.0072c-0.0714-0.1-0.0377-0.0948-0.0949-0.1734" style="fill:#3D9BE2;"/><g><circle cx="26.86825" cy="14.77372" r="2.70458" style="fill:#FFFFFF;"/><circle cx="21.05812" cy="14.77372" r="2.63955" style="fill:#FFFFFF;"/><path d="M26.86305,11.32124c-1.2118,0-2.2878,0.6372-2.8937,1.5878     c-0.6163-0.9506-1.6923-1.5878-2.9145-1.5878c-1.9117,0-3.4473,1.5461-3.4473,3.4577c0,1.9012,1.5356,3.4473,3.4473,3.4473     c1.2222,0,2.2982-0.6372,2.9145-1.5878c0.6059,0.9506,1.6819,1.5878,2.8937,1.5878c1.9117,0,3.4577-1.5461,3.4577-3.4473     C30.32075,12.86734,28.77475,11.32124,26.86305,11.32124z M21.05485,17.21294c-1.3475,0-2.434-1.0864-2.434-2.434     s1.0865-2.4444,2.434-2.4444c1.3476,0,2.4444,1.0968,2.4444,2.4444S22.40245,17.21294,21.05485,17.21294z M26.86305,17.21294     c-1.3476,0-2.434-1.0864-2.434-2.434s1.0864-2.4444,2.434-2.4444c1.3475,0,2.4444,1.0968,2.4444,2.4444     S28.21055,17.21294,26.86305,17.21294z" style="fill:#D5D5D5;"/><circle cx="26.14528" cy="14.96537" r="0.91145" style="fill:#30302F;"/><circle cx="21.41517" cy="14.96537" r="0.91145" style="fill:#30302F;"/></g><circle cx="27.41085" cy="30.60532" r="0.30613" style="fill:#30302F;"/><circle cx="20.53882" cy="30.60532" r="0.30615" style="fill:#30302F;"/><g><path d="M23.51865,24.84424c-0.8408,0-1.4741-0.1533-1.5313-0.167     c-0.1875-0.0469-0.3012-0.2373-0.2543-0.4248c0.0463-0.1865,0.2373-0.3008,0.4238-0.2549     c0.0278,0.0059,2.7851,0.667,4.2685-0.9277c0.1324-0.1407,0.354-0.1504,0.4947-0.0176c0.1416,0.1308,0.1499,0.3525,0.018,0.4941     C25.95515,24.60304,24.57335,24.84424,23.51865,24.84424z" style="fill:#EFBC3F;"/></g><g><g><path d="M23.96345,8.11274c-0.0278,0-0.0561-0.0039-0.0845-0.0107      c-0.1557-0.0391-0.2656-0.1777-0.2656-0.3389v-1.3564c0-0.1934,0.1568-0.3496,0.3501-0.3496      c0.1934,0,0.3501,0.1562,0.3501,0.3496v0.332c0.3657-0.3672,0.8872-0.7578,1.5757-0.9619      c0.1855-0.0557,0.3804,0.0508,0.4351,0.2363c0.0551,0.1856-0.0508,0.3799-0.2359,0.4356      c-1.2075,0.3574-1.8096,1.4668-1.8154,1.4775C24.21105,8.04244,24.09095,8.11274,23.96345,8.11274z" style="fill:#30302F;"/></g><g><path d="M23.96395,8.11274c-0.1255,0-0.2471-0.0674-0.3101-0.1855      c-0.0058-0.0117-0.6083-1.1211-1.8159-1.4785c-0.185-0.0557-0.291-0.25-0.2358-0.4356c0.0547-0.1855,0.2495-0.2929,0.435-0.2363      c1.4976,0.4443,2.2066,1.7676,2.2364,1.8232c0.0893,0.1709,0.0239,0.3819-0.1465,0.4717      C24.07475,8.10004,24.01915,8.11274,23.96395,8.11274z" style="fill:#30302F;"/></g></g></g></g></svg>