<svg xmlns="http://www.w3.org/2000/svg" viewBox="0 0 48 48"><path fill="#ffd24a" d="M10.767 21.601L8.94 17.748l1.606.256s-3.125-5.93-3.377-7.17l.713 5.46-1.691.267 4.268 6.186"/><path fill="#f9d9c0" d="M12.493 26.557c-1.044-.377-2.142-1.703-2.273-2.88l-.088-.795a3.006 3.006 0 0 1 1.519-2.955"/><path fill="#ffd24a" d="M37.382 21.287l1.678-3.539-1.606.256s3.125-5.93 3.377-7.17l-.713 5.46 1.691.267-4.13 6.163"/><path fill="#f9d9c0" d="M35.81 26.173a3.005 3.005 0 0 0 1.97-2.497l.088-.794a3.005 3.005 0 0 0-1.264-2.795l-1.267-.858-1.056 2.788"/><path fill="#f43735" d="M23.872 7.537S13.365 7.144 11.675 17.69c-.186 1.16-.157 2.345-.013 3.512l1.73 14.045 4.63 4.8h12.18l4.41-4.76 1.683-12.843c.386-2.945-.034-5.972-1.405-8.607-1.633-3.136-4.816-6.28-11.018-6.3zm9.66 26.84l-4.04 4.52-3.47-2.99h-4.44l-2.91 2.99-4.22-4.22-.35-8.78 4.82 1.68 5.06-3.56 4.88 3.81 5.07-1.52-.4 8.07z"/><path fill="#fff" d="M14.608 19.917l6.925 2.34s-4.143 5.464-6.925-2.34zM33.177 19.917l-6.925 2.34s4.143 5.464 6.925-2.34z"/><path fill="#f9d9c0" d="M33.932 26.31l-.4 8.07-4.04 4.51-3.469-2.98h-4.441l-2.91 2.98-4.219-4.22-.351-8.78 4.82 1.68 4.171-2.93.779-.54.111-.08 4.88 3.81z"/><g><path fill="#d6b6a1" d="M23.977 30.975a.363.363 0 0 1-.097-.013l-1.656-.445a.375.375 0 0 1 .194-.725l1.572.423 1.586-.315a.376.376 0 0 1 .146.736l-1.671.332a.372.372 0 0 1-.073.007zM20.168 34.966a.374.374 0 0 1-.248-.656l1.01-.888a.372.372 0 0 1 .248-.094h5.465c.095 0 .185.036.254.099l.965.888a.376.376 0 0 1-.508.552l-.857-.789H21.32l-.904.794a.37.37 0 0 1-.247.094zM23.872 24.1l-.18 4.12c-.01.2-.17.36-.37.36h-.02a.385.385 0 0 1-.36-.39l.15-3.55.78-.54z"/></g></svg>