<?xml version="1.0" ?><svg style="enable-background:new 0 0 48 48;" version="1.1" viewBox="0 0 48 48" xml:space="preserve" xmlns="http://www.w3.org/2000/svg" xmlns:xlink="http://www.w3.org/1999/xlink"><g id="Icons"><g><path d="M37.1167,19.07626c-0.36,1.33-4.31,0.75-4.31,2.78l-4.34,10.58v4.67    c-2.23,2.22-3.76-0.48-3.76-0.48c-1.61,0.07-2.78-0.24-3.56-0.58l-6.51-13.69c0,0-2.57-1.07-2.83-3.2    c-0.2-1.68,1.4578-3.7992,0.8578-5.0192c-0.01,0-0.2919-0.0439,0.2192-0.3203l0.333-0.4805c2.74-5.99,8.58-5.83,10.13-5.68    c0.24,0.02,0.38,0.05,0.38,0.05s0.13-0.03,0.37-0.06c1.44-0.2,6.89-0.51,11.03,5.37v0.03    C35.1267,13.04626,37.8067,16.54626,37.1167,19.07626z" style="fill:#72502A;"/><path d="M41.3667,20.22626c0,0,0,0,0,0.01c-0.01,0.04-0.02,0.07-0.03,0.11c0,0-0.01,0.05-0.04,0.13    c-0.08,0.32-0.3,1.15-0.44,1.96v0.01c-0.12,0.68-0.19,1.35-0.08,1.68c0.24,0.76,0.51,3.42-0.26,4.66v0.01    c-0.07,0.12-0.15,0.22-0.24,0.31c-0.15,0.14-0.31,0.42-0.5,0.79c-1.14,2.22-3.08,7.62-6.93,4.48c0,0-1.17,1.67-2.55,2.29    l-0.69-1.03c-0.4,0.64-0.78,1.12-1.14,1.47v-4.67l4.34-10.58c-0.01-5.91,2.32-8.81,2.32-8.81c0.31-0.39,0.67-0.67,1.07-0.75    c0,0,3.12-0.8,4.2,2.19c0.05,0.14,0.1,0.28,0.14,0.43c0,0,0.06,0.09,0.16,0.27    C41.0867,15.87626,41.9667,17.83626,41.3667,20.22626z" style="fill:#5E3F1F;"/><path d="M21.1467,36.04626c-0.81-0.35-1.19-0.72-1.19-0.72c-0.33-0.33-2.24,1.68-2.51,1.3v0.02    c-1.38-0.61-2.29-2.27-2.29-2.27c-3.77,3.07-5.7-2.03-6.86-4.33v-0.01c-0.21-0.44-0.4-0.77-0.57-0.93    c-0.03-0.03-0.05-0.05-0.07-0.08v-0.01c-0.97-1.11-0.68-4.08-0.43-4.89c0.1-0.31,0.04-0.91-0.07-1.55c0,0,0,0,0-0.01    c-0.1-0.64-0.26-1.29-0.37-1.73c0-0.01,0-0.01,0-0.01c-0.03-0.15-0.07-0.26-0.09-0.35c-0.02-0.08-0.03-0.13-0.03-0.13    c-0.65-2.39,0.2-4.36,0.61-5.11c0.1-0.21,0.18-0.32,0.18-0.32c0.03-0.13,0.07-0.25,0.12-0.37c1.06-3.06,4.23-2.25,4.23-2.25    c0.57,0.11,1.02,0.62,1.38,1.34l0.01-0.03c0,0.01,0,0.02,0.01,0.02c1.38,2.77,1.43,8.73,1.43,8.73L21.1467,36.04626z" style="fill:#5E3F1F;"/><path d="M14.6789,23.65956c0,0-0.6733,9.5943,3.6469,14.0267c0,0,2.116,2.8848,5.4002,2.7434    c0,0,6.7208,0.6103,8.9103-9.631c0,0,1.199-5.7637,0.1748-8.9421c0,0-7.4606-1.8642-9.0851-5.996c0,0-1.9011,5.4738-9.0851,6.4979    L14.6789,23.65956z" style="fill:#F9D9C0;"/><g><path d="M24.0967,7.64626v8.96c-0.14-0.24-0.27-0.49-0.37-0.75c0,0-0.11,0.32-0.38,0.81v-9.01     c0.24,0.02,0.38,0.05,0.38,0.05S23.8567,7.67626,24.0967,7.64626z" style="fill:#5E3F1F;"/></g><g><path d="M11.5867,15.36626c0.29-0.43,0.24-0.75,0.15-0.94c-0.21-0.45-0.78-0.53-0.89-0.54     c-0.22-0.03-0.39,0.13-0.41,0.33c-0.02,0.21,0.13,0.39,0.33,0.42c0.13,0.01,0.27,0.07,0.29,0.1c0,0,0,0.06-0.09,0.21     c-0.22,0.25-1.75,0.05-3.39-0.4c-0.05,0.12-0.09,0.24-0.12,0.37c0,0-0.08,0.11-0.18,0.32c0.88,0.25,2.11,0.55,3.05,0.55     C10.9067,15.78626,11.3767,15.67626,11.5867,15.36626z" style="fill:#422A15;"/><path d="M10.4967,24.38626h0.05c0.18,0,0.34-0.14,0.37-0.33c0.03-0.2-0.12-0.39-0.33-0.42     c-1.98-0.25-3.22-1.84-3.8-2.8c0.11,0.44,0.27,1.09,0.37,1.73c0,0.01,0,0.01,0,0.01     C7.9267,23.41626,9.0267,24.19626,10.4967,24.38626z" style="fill:#422A15;"/><path d="M11.3825,24.16886c-0.0566,0.1992,0.0586,0.4067,0.2578,0.4639l0.9053,0.2583     c0.0342,0.0097,0.0684,0.0141,0.1025,0.0141c0.1631,0,0.3135-0.1074,0.3604-0.272c0.0566-0.1992-0.0586-0.4067-0.2578-0.4638     l-0.9053-0.2583C11.6481,23.85396,11.4392,23.96966,11.3825,24.16886z" style="fill:#422A15;"/><path d="M13.5808,31.69666c-1.2732,0.1596-2.4678-0.471-3.3033-1.0885     c0.7468,0.1688,1.5225,0.2781,2.2192,0.2781c0.37,0,0.73-0.04,1.05-0.11c0.2-0.05,0.33-0.25,0.28-0.45     c-0.05-0.2-0.25-0.33-0.45-0.28c-1.18,0.28-2.95-0.12-4.37-0.57c-0.0016-0.0003-0.003-0.0011-0.0046-0.0014     c-0.0542-0.0303-0.1132-0.0453-0.1743-0.0464c-0.0037-0.0001-0.0067-0.0022-0.0111-0.0022c-0.44-0.14-0.83-0.28-1.16-0.4     c0.02,0.03,0.04,0.05,0.07,0.08c0.17,0.16,0.36,0.49,0.57,0.93v0.01c0.1059,0.0289,0.2126,0.0667,0.3275,0.0963     c0.3927,0.4317,2.2493,2.3305,4.5396,2.3305c0.1689,0,0.3398-0.0103,0.5127-0.0322c0.205-0.0264,0.3505-0.2144,0.3242-0.42     C13.9743,31.81586,13.8005,31.67666,13.5808,31.69666z" style="fill:#422A15;"/></g><g><g><path d="M40.6967,15.18626c-0.86,0.27-2.12,0.6-3.07,0.6c-0.56,0-1.01-0.11-1.21-0.42      c-0.29-0.43-0.24-0.75-0.15-0.94c0.21-0.45,0.78-0.53,0.89-0.54c0.22-0.03,0.39,0.13,0.41,0.34c0.02,0.2-0.13,0.39-0.34,0.41      c-0.12,0.01-0.26,0.07-0.28,0.11c0,0,0,0.06,0.09,0.2c0.21,0.25,1.75,0.04,3.36-0.46c0.05,0.14,0.1,0.28,0.14,0.43      C40.5367,14.91626,40.5967,15.00626,40.6967,15.18626z" style="fill:#422A15;"/></g><g><path d="M41.3667,20.23626c-0.01,0.04-0.02,0.07-0.03,0.11c0,0-0.01,0.05-0.04,0.13      c-0.08,0.32-0.3,1.15-0.44,1.96v0.01c-0.76,0.9-1.86,1.75-3.35,1.94h-0.05c-0.19,0-0.35-0.14-0.37-0.33      c-0.03-0.2,0.12-0.39,0.32-0.42C39.7267,23.34626,40.9667,21.09626,41.3667,20.23626z" style="fill:#422A15;"/></g><g><path d="M35.3512,24.90516c-0.1631,0-0.3134-0.1074-0.3603-0.272      c-0.0567-0.1992,0.0586-0.4067,0.2578-0.4638l0.9053-0.2583c0.1963-0.0586,0.4052,0.0586,0.4629,0.2578      c0.0566,0.1992-0.0586,0.4067-0.2579,0.4638l-0.9052,0.2583C35.4196,24.90076,35.3854,24.90516,35.3512,24.90516z" style="fill:#422A15;"/></g><g><path d="M40.5167,28.79626c-0.07,0.12-0.15,0.22-0.24,0.31c-0.15,0.14-0.31,0.42-0.5,0.79      c-0.09,0.04-0.18,0.07-0.28,0.11c-0.5,0.18-1.07,0.36-1.65,0.51c-0.81,0.21-1.65,0.36-2.41,0.36c-0.35,0-0.68-0.03-0.98-0.1      c-0.21-0.05-0.33-0.25-0.28-0.45c0.04-0.2,0.25-0.33,0.45-0.28C36.3267,30.44626,39.2267,29.34626,40.5167,28.79626z" style="fill:#422A15;"/></g><g><path d="M34.8366,32.47306c-0.169,0-0.3399-0.0103-0.5127-0.0322      c-0.2051-0.0264-0.3506-0.2144-0.3242-0.42c0.0263-0.205,0.1992-0.3496,0.4199-0.3242      c2.3516,0.3037,4.4551-2.1162,4.4756-2.1406c0.1347-0.1587,0.3701-0.1768,0.5293-0.041      c0.1572,0.1342,0.1758,0.3711,0.041,0.5283C39.3756,30.14886,37.359,32.47306,34.8366,32.47306z" style="fill:#422A15;"/></g></g><g><g><path d="M13.0464,15.87286c-0.0615,0-0.124-0.0151-0.1816-0.0469      c-0.1807-0.1006-0.2471-0.3286-0.1465-0.5097c0.1006-0.1812,3.1349-5.0898,6.7902-5.4209      c0.2294-0.019,0.3886,0.1343,0.4072,0.3399c0.0195,0.206-0.1328,0.3887-0.3389,0.4072c-3.2578,0.2949-6.1798,4.996-6.2023,5.037      C13.3062,15.80306,13.1782,15.87286,13.0464,15.87286z" style="fill:#5E3F1F;"/></g><g><path d="M14.2143,20.35826c-0.0322,0-0.0517-0.0005-0.0605-0.0005      c-0.2061-0.0073-0.3672-0.1806-0.3604-0.3872c0.0059-0.2026,0.1729-0.3628,0.375-0.3628c0.0069,0,0.001,0,0.0303,0.0005      c0.2334,0,2.9406-0.0561,5.0783-2.1953c0.1465-0.1465,0.3848-0.1465,0.5313,0c0.1455,0.1465,0.1464,0.3838,0,0.5303      C17.4967,20.25476,14.6411,20.35826,14.2143,20.35826z" style="fill:#5E3F1F;"/></g><g><path d="M20.5514,16.85486c-0.0908,0-0.1816-0.0327-0.2539-0.0991      c-0.1523-0.1401-0.1621-0.3774-0.0224-0.5298l0.7255-0.7886c0.1407-0.1523,0.378-0.1626,0.5303-0.0219      c0.1524,0.1401,0.1621,0.3774,0.0225,0.5297l-0.7256,0.7886C20.7536,16.81436,20.653,16.85486,20.5514,16.85486z" style="fill:#5E3F1F;"/></g><g><path d="M34.594,15.25156c-0.1114,0-0.2217-0.0493-0.2959-0.144      c-0.0166-0.022-2.066-2.4968-3.8824-3.1946c-0.1934-0.0742-0.2901-0.2915-0.2149-0.4848      c0.0743-0.1934,0.2901-0.2891,0.4844-0.2154c2.0108,0.773,4.1295,3.3372,4.2047,3.4329      c0.1269,0.1631,0.0986,0.3989-0.0655,0.5264C34.7561,15.22576,34.675,15.25156,34.594,15.25156z" style="fill:#5E3F1F;"/></g><g><path d="M28.653,11.19276c-0.043,0-0.0859-0.0073-0.1279-0.0225l-0.8623-0.3134      c-0.1954-0.0708-0.295-0.2862-0.2247-0.4805c0.0713-0.1948,0.2872-0.2935,0.4805-0.2246l0.8623,0.3135      c0.1953,0.0708,0.2949,0.2861,0.2246,0.4804C28.9499,11.09806,28.8063,11.19276,28.653,11.19276z" style="fill:#5E3F1F;"/></g></g><g><g><path d="M23.7262,30.49256c-0.041,0-0.082-0.0068-0.1211-0.02l-1.8613-0.6358      c-0.1963-0.0668-0.3008-0.2802-0.2334-0.476c0.0664-0.1958,0.2783-0.3013,0.4756-0.2339l1.7324,0.5918l1.5078-0.5864      c0.1953-0.0747,0.4102,0.021,0.4854,0.2138c0.0752,0.1929-0.0205,0.4102-0.2139,0.4854l-1.6357,0.6357      C23.818,30.48426,23.7721,30.49256,23.7262,30.49256z" style="fill:#D6B6A1;"/></g><g><path d="M23.6667,35.01696c-0.0254,0-0.0518-0.0024-0.0772-0.0078l-3.1973-0.6709      c-0.1767-0.0371-0.3017-0.1948-0.2978-0.3755c0.0039-0.1806,0.1367-0.3325,0.3144-0.3618      c0.4268-0.0698,1.1221-0.248,1.3321-0.4258c0.0888-0.0591,1.0703-0.6479,1.8691-0.1626      c0.3389-0.1582,0.9746-0.3081,1.7207,0.1978c0.2256,0.0903,1.0733,0.417,1.5498,0.4389      c0.1895,0.0088,0.3428,0.1578,0.3565,0.3472c0.0136,0.1895-0.1162,0.3594-0.3028,0.3955l-3.1963,0.6182      C23.7145,35.01456,23.6901,35.01696,23.6667,35.01696z M21.9928,33.90756l1.6768,0.3521l1.5381-0.2979      c-0.1221-0.0478-0.2071-0.0844-0.2364-0.0966c-0.7031-0.4698-1.1484-0.1167-1.1523-0.1133      c-0.1465,0.1206-0.3594,0.1118-0.4961-0.0191c-0.4004-0.3833-1.1396,0.0455-1.1465,0.0498      C22.1247,33.82706,22.0622,33.86856,21.9928,33.90756z" style="fill:#D6B6A1;"/></g><g><path d="M23.8346,36.51356c-1.0742,0-2.0273-0.3105-2.0879-0.3306      c-0.1963-0.0654-0.3027-0.2773-0.2373-0.4736c0.0645-0.1968,0.2754-0.3027,0.4737-0.2383      c0.0185,0.0069,1.9804,0.6436,3.2099,0.0215c0.1826-0.0918,0.4102-0.02,0.5039,0.165c0.0928,0.1846,0.0196,0.4107-0.166,0.504      C25.0085,36.42616,24.4049,36.51356,23.8346,36.51356z" style="fill:#D6B6A1;"/></g></g></g></g></svg>