<svg xmlns="http://www.w3.org/2000/svg" viewBox="0 0 48 48"><path fill="#ffd24a" d="M32.508 16.014C29.926 10.945 24 11.137 24 11.137s-5.926-.192-8.508 4.877v8.692h5.64l1.775 6.318h1.797l2.593-6.318h4.892l.319-8.692z"/><path fill="#f9d9c0" d="M32.372 28.061l-1.945 9.67-2.72 2.65-3.37.46-.34.05-.41-.04-3.26-.28-2.756-2.844-1.608-9.666 7.334 2.96h1.41z"/><path fill="#464747" d="M11.846 7.11s1.775 8.406 8.37 15.11c0 0 1.875 1.781 2.101 4.422l.979 4.382-6.885-2.192 1.16 8.895-2.646-3.152-.398-6.558s-5.706-3.02-2.681-20.908zM36.154 7.11s-1.775 8.406-8.37 15.11c0 0-1.737 1.577-2.101 4.422l-.979 4.382 6.885-2.192-1.16 8.895 2.646-3.152.398-6.558s5.706-3.02 2.681-20.908z"/><path fill="#fff" d="M16.118 24.205l4.644 1.57s-2.779 3.663-4.644-1.57zM32.067 24.205l-4.644 1.57s2.778 3.663 4.644-1.57z"/><path fill="#d6b6a1" d="M27.451 35.604a.375.375 0 0 1-.248-.094l-.493-.434-5.46-.125-.452.401a.375.375 0 0 1-.498-.56l.562-.5a.465.465 0 0 1 .257-.094l5.745.13a.374.374 0 0 1 .24.095l.595.525a.375.375 0 0 1-.248.656zM25.206 36.758h-.018l-2.486-.112c-.206-.01-.367-.184-.357-.391s.181-.352.391-.359l2.487.112a.375.375 0 0 1-.017.75z"/><g><path fill="#d6b6a1" d="M24.337 38.65v2.19l-.34.05-.41-.04v-2.2c0-.21.17-.38.37-.38.21 0 .38.17.38.38z"/></g></svg>