<svg xmlns="http://www.w3.org/2000/svg" viewBox="0 0 48 48"><path fill="#464747" d="M23.907 8.99s-4.632-.088-7.861.984l-1.754-3.997-1.434 21.608-.295 6.823a2.556 2.556 0 0 0 .823 1.992l5.9 5.426 9.148.197 6.27-6.357c.51-.517.775-1.227.73-1.951l-1.71-27.738-2.027 3.955s-5.878-1.013-7.79-.942z"/><path fill="#fff" d="M15.957 21.688l5.901 2.205h-5.011zM31.888 21.688l-5.9 2.205h5.011z"/><path fill="#f9d9c0" d="M32 28.156l.61 7.11-5.15 4.94-3.15-.05-.75-.01-3.38-.06-5.2-4.96.57-7-.76-1.72 9.05 2.67 9.06-2.67z"/><path fill="#333" d="M24.27 27.006l-.03 1.95-.4.12-.35-.1.03-1.98c0-.21.17-.37.37-.37h.01c.2 0 .37.17.37.38z"/><path fill="#d6b6a1" d="M27.694 32.962a.376.376 0 0 1-.248-.093l-.554-.49-6.057-.14-.51.455a.375.375 0 1 1-.498-.56l.62-.552a.415.415 0 0 1 .258-.095l6.341.144a.374.374 0 0 1 .24.094l.657.581a.375.375 0 0 1-.249.656zM25.216 34.236H25.2l-2.744-.124a.375.375 0 0 1-.358-.392c.01-.207.197-.36.392-.358l2.744.124a.375.375 0 0 1-.017.75zM24.38 37.476l-.07 2.68-.75-.01.07-2.71c.02-.21.19-.38.4-.35.21.01.36.19.35.39z"/></svg>