<svg xmlns="http://www.w3.org/2000/svg" viewBox="0 0 48 48"><path fill="#f43735" d="M37.027 22.649c-.027-.044-.031-.05.063-.323.108-.308.287-.825.393-1.755.075-.658-.18-1.039-.408-1.244-.572-.515-1.557-.468-2.08-.397l-.483-3.282-.083-.662c.716-1.089.626-1.58.312-2.948-.296-1.286-.614-2.612-1.733-3.314a4.907 4.907 0 0 0-2.51-.735c-7.49-2.583-12.13-.086-12.331.027-.15-.014-.293-.045-.445-.045-2.726 0-4.304 2.163-4.304 4.889 0 .944-.308 1.225.153 1.977-.037.048-.125.747-.134.811l-.483 3.275c-.533-.067-1.475-.095-2.03.404-.227.205-.482.586-.407 1.244.106.93.285 1.447.393 1.755.094.272.09.279.063.323-.134.214-.948 2.04-.296 2.945.174.242.505.485 1.127.43l.069.238-.952 6.457a.365.365 0 0 0 .118.326l3.785 3.362 2.515 3.069a.36.36 0 0 0 .215.127l3.458.74c.285.176 1.503-.127 2.84-.127.061 0 .232.245.29.233.061.002.532.005.532.005 1.247-.063 1.992.052 2.26-.111l3.46-.74a.36.36 0 0 0 .215-.127l2.503-3.043a.45.45 0 0 0 .077-.077l.234-.209a.365.365 0 0 0 .139-.076l3.399-3.026a.365.365 0 0 0 .118-.326l-.952-6.457.069-.237c.625.055.953-.19 1.127-.43.652-.906-.162-2.732-.296-2.946z"/><path fill="#f95555" d="M22.248 12.608c0 .41-.05.81-.15 1.19-.06.25-.15.49-.25.71a4.692 4.692 0 0 1-4.3 2.81c-2.6 0-4.71-2.11-4.71-4.71 0-1.41.62-2.67 1.6-3.53.19-.17.4-.33.62-.46.14-.09.28-.17.43-.24.22-.11.46-.21.7-.28a4.703 4.703 0 0 1 6.06 4.51zM31.618 17.198c-.31.07-.64.11-.95.11-.26.01-.52 0-.77-.04a4.68 4.68 0 0 1-3.92-3.61c-.59-2.53 1-5.05 3.53-5.64a4.72 4.72 0 0 1 4.71 1.63c.16.19.31.41.42.63.24.39.4.82.51 1.28.58 2.53-1 5.05-3.53 5.64z"/><path fill="#fff" d="M15.169 18.779l.896 1.586h4.137l1-1.586M32.234 18.779l-.897 1.586H27.2l-.999-1.586"/><path fill="#db2a2a" d="M22.098 13.798c-.06.25-.15.49-.25.71l-1.45-.29a.38.38 0 0 1 .16-.74l1.54.32zM17.148 11.118c-.05.03-.1.04-.15.04a.37.37 0 0 1-.34-.22l-1.17-2.56c.22-.11.46-.21.7-.28l1.15 2.53c.08.19 0 .41-.19.49zM16.298 12.468a.32.32 0 0 1-.14.03c-.15 0-.29-.08-.35-.23l-1.37-3.19c.19-.17.4-.33.62-.46l1.44 3.36c.08.19-.01.41-.2.49zM30.668 17.308c-.26.01-.52 0-.77-.04l-.26-1.46c-.04-.2.1-.4.3-.44.21-.03.4.1.44.31l.29 1.63zM34.638 10.278l-2.19 1.68a.4.4 0 0 1-.23.08c-.11 0-.22-.05-.3-.15-.12-.16-.09-.4.07-.53l2.23-1.71c.16.19.31.41.42.63zM33.898 9.288l-2.96 2.16a.34.34 0 0 1-.22.07c-.11 0-.23-.05-.3-.16a.37.37 0 0 1 .08-.52l2.81-2.05c.21.15.41.32.59.5z"/><path fill="#303030" d="M26.934 40.343l-1.388-6.189h-3.551l-.983 6.189s1.913.91 3.291.83c1.379-.082 2.631-.83 2.631-.83z"/><g><path fill="#db2a2a" d="M22.547 19.154h-7.688a.374.374 0 0 1-.3-.15l-.62-.828a.374.374 0 1 1 .599-.45l.508.678h7.269l.31-.62a.375.375 0 0 1 .67.336l-.413.827a.375.375 0 0 1-.335.207z"/><path fill="#db2a2a" d="M20.202 20.74h-4.137a.377.377 0 0 1-.327-.19l-.896-1.587a.375.375 0 0 1 .653-.369l.789 1.396h3.71l.89-1.411a.375.375 0 1 1 .635.4l-1 1.586a.376.376 0 0 1-.317.175zM32.544 19.154h-7.688a.375.375 0 0 1-.335-.207l-.414-.827a.374.374 0 0 1 .168-.503.374.374 0 0 1 .503.167l.31.62h7.269l.508-.677a.374.374 0 1 1 .6.45l-.621.826a.374.374 0 0 1-.3.15z"/><path fill="#db2a2a" d="M31.338 20.74H27.2a.376.376 0 0 1-.317-.175l-1-1.586a.375.375 0 0 1 .635-.4l.89 1.41h3.71l.789-1.395a.375.375 0 1 1 .653.37l-.896 1.585a.377.377 0 0 1-.326.19zM33.306 31.141a.37.37 0 0 1-.167-.04c-8.41-4.208-17.998-.586-18.083-.55a.375.375 0 1 1-.3-.688c.088-.038 9.988-3.803 18.719.568a.375.375 0 0 1-.169.71z"/><path fill="#db2a2a" d="M21.478 31.141a.374.374 0 0 1-.132-.727c.096-.036 2.347-.855 4.641 0a.375.375 0 0 1-.262.704c-2.035-.763-4.096-.008-4.116 0a.387.387 0 0 1-.131.023zM22.616 25.394l-.038-.002a.375.375 0 0 1-.336-.41l.345-3.448a.38.38 0 0 1 .41-.336c.206.02.357.204.336.41l-.345 3.448a.375.375 0 0 1-.372.338z"/></g><path fill="#303030" d="M10.83 32.93l2.132-13.714.707 3.855 1.913 2.12-.758 11.216-.402-.28zM37.169 32.931l-2.131-13.715-.707 3.855-1.913 2.12.694 11.242.466-.306z"/></svg>