<?xml version="1.0" ?><svg id="svg8" style="enable-background:new 0 0 48 48;" version="1.1" viewBox="0 0 48 48" xml:space="preserve" xmlns="http://www.w3.org/2000/svg" xmlns:cc="http://creativecommons.org/ns#" xmlns:dc="http://purl.org/dc/elements/1.1/" xmlns:inkscape="http://www.inkscape.org/namespaces/inkscape" xmlns:rdf="http://www.w3.org/1999/02/22-rdf-syntax-ns#" xmlns:sodipodi="http://sodipodi.sourceforge.net/DTD/sodipodi-0.dtd" xmlns:svg="http://www.w3.org/2000/svg"><style id="style4667" type="text/css">
	.st0{fill:none;stroke:#000000;stroke-width:2;stroke-linecap:round;stroke-linejoin:round;}
	.st1{fill:none;stroke:#000000;stroke-linecap:round;stroke-linejoin:round;}
	.st2{fill:none;stroke:#000000;}
	.st3{fill:none;stroke:#000000;stroke-linecap:round;}
	.st4{stroke:#000000;stroke-linecap:round;stroke-linejoin:round;}
</style><defs id="defs4673"/><g id="g2224" style="display:inline"><path class="st0" d="M 19.9,6.1 C 8.9,6.1 7,10.2 7,14.1 V 34 c 0,3.9 3.1,7 7,7 h 19.9 c 3.9,0 7,-3.1 7,-7 V 14.1 c 0,-3.9 -3.1,-5 -7,-5 l 3,-3 c 0,0 -7,-2 -19,4 z" id="path2192" style="fill:#008000;stroke:#000000;stroke-width:2;stroke-linecap:round;stroke-linejoin:round"/><path class="st0" d="M 7,27 C 7,27 4,27 4,24 4,21 7,21 7,21" id="path2194" style="fill:#008000;stroke:#000000;stroke-width:2;stroke-linecap:round;stroke-linejoin:round"/><path class="st0" d="m 41,27 c 0,0 3,0 3,-3 0,-3 -3,-3 -3,-3" id="path2196" style="fill:#008000;stroke:#000000;stroke-width:2;stroke-linecap:round;stroke-linejoin:round"/><path class="st1" d="m 7,24 3,-2 v -5 c 0,0 4,0 8,-3 l -1,3 c 0,0 6,0 11,-4 l -1,3 c 0,0 6,1 11,-3 v 9 l 3,2 V 12.387098 c 0,0 -0.539973,-2.221599 -2.357645,-2.5582051 C 36.824684,9.492287 34.939691,8.6171117 34.939691,8.6171117 l 1.952314,-2.8948106 c 0,0 -8.078541,-0.4039271 -10.30014,0.7405329 -2.221599,1.14446 -7.943899,2.9621318 -7.943899,2.9621318 l 1.009818,-3.43338 c 0,0 -5.520337,0 -9.021038,2.1542776 C 7.1360447,10.300141 7.2033659,13.464236 7.2033659,13.464236 Z" id="path2198" style="fill:#006300;stroke:#000000;stroke-linecap:round;stroke-linejoin:round"/><g id="g1116" style="fill:#ffffff"><path class="st2" d="m 23.7,36.2 c 0,0 4,0 7,1 0,0 3,-3 2,-5 -1,-2 -4,-3 -9,-3" id="path2200" style="fill:#ffffff;stroke:#000000"/><path class="st2" d="m 23.7,36.2 c 0,0 -4,0 -7,1 0,0 -3,-3 -2,-5 1,-2 4,-3 9,-3" id="path2202" style="fill:#ffffff;stroke:#000000"/></g><g id="g1128" transform="translate(0,0.11300124)"><path class="st2" d="m 14.7,34.5 c 0,0 3,-2 9,-2 6,0 9,2 9,2" id="path2204" style="fill:none;stroke:#000000"/><g id="g1121"><path class="st3" d="m 23.7,33.5 v -2" id="path2206" style="fill:none;stroke:#000000;stroke-linecap:round"/><path class="st3" d="M 18.5,34.2 17.9,32.3" id="path2208" style="fill:none;stroke:#000000;stroke-linecap:round"/><path class="st3" d="m 28.9,34.2 0.6,-1.9" id="path2210" style="fill:none;stroke:#000000;stroke-linecap:round"/></g></g><path class="st3" d="m 23.9,27 c 0,0 1.1,0 1.1,-0.9 0,-1 -1.8,-1.3 -1.8,-1.3" id="path2212" style="fill:none;stroke:#000000;stroke-linecap:round"/><path class="st3" d="m 23,21 c 0,0 0,2 1,2 1,0 1,-2 1,-2" id="path2214" style="fill:none;stroke:#000000;stroke-linecap:round"/><path class="st3" d="m 26.6,23 c 0,0 3.7,-1.9 7.4,-2.9" id="path2216" style="fill:none;stroke:#000000;stroke-linecap:round"/><path class="st3" d="m 21.4,23 c 0,0 -3.7,-1.9 -7.4,-2.9" id="path2218" style="fill:none;stroke:#000000;stroke-linecap:round"/><circle class="st4" cx="31" cy="23" id="circle2220" r="1" style="stroke:#000000;stroke-linecap:round;stroke-linejoin:round"/><circle class="st4" cx="17" cy="23" id="circle2222" r="1" style="stroke:#000000;stroke-linecap:round;stroke-linejoin:round"/><path class="st0" d="m 20.149287,5.9549357 c -11.0000002,0 -12.9000002,4.1000003 -12.9000002,8.0000003 v 19.9 c 0,3.9 3.1000002,7 7.0000002,7 h 19.899999 c 3.9,0 7,-3.1 7,-7 v -19.9 c 0,-3.9 -3.1,-5.0000003 -7,-5.0000003 l 3,-3 c 0,0 -6.999999,-2 -18.999999,4 z" id="path2192-3" style="display:inline;fill:none;stroke:#000000;stroke-width:2;stroke-linecap:round;stroke-linejoin:round"/></g></svg>