<?xml version="1.0" ?><svg id="svg8" style="enable-background:new 0 0 48 48;" version="1.1" viewBox="0 0 48 48" xml:space="preserve" xmlns="http://www.w3.org/2000/svg" xmlns:cc="http://creativecommons.org/ns#" xmlns:dc="http://purl.org/dc/elements/1.1/" xmlns:inkscape="http://www.inkscape.org/namespaces/inkscape" xmlns:rdf="http://www.w3.org/1999/02/22-rdf-syntax-ns#" xmlns:sodipodi="http://sodipodi.sourceforge.net/DTD/sodipodi-0.dtd" xmlns:svg="http://www.w3.org/2000/svg"><style id="style4758" type="text/css">
	.st0{fill:none;stroke:#000000;stroke-width:2;stroke-linecap:round;stroke-linejoin:round;}
	.st1{fill:none;stroke:#000000;stroke-linecap:round;stroke-linejoin:round;}
</style><defs id="defs4764"/><g id="g2016" style="display:inline"><path d="M 6,23.340239 V 7.3402384 L 7.9645834,6.3339884 21,13.340239 l 9,1 11.964583,-2.00625 L 44,13.340239 v 18 l -2,1 -13,-2 -2,-1 v -1 l -19,10 -2.0354166,-1.00625 z" id="path5726" style="fill:#cccccc;stroke:#000000;stroke-width:2;stroke-linecap:butt;stroke-linejoin:miter;stroke-opacity:1"/><path class="st1" d="m 43.964583,14.333989 -8,1" id="path2076" style="fill:none;stroke:#000000;stroke-linecap:round;stroke-linejoin:round"/><polyline class="st1" id="polyline4773" points="21.7,18.7 9.7,12.2 7,8.6 6.7,8.2   " style="fill:#cccccc;stroke:#000000;stroke-linecap:round;stroke-linejoin:round" transform="translate(0.26458337,-1.8660116)"/><path class="st1" d="m 9.9645834,10.333989 v 12" id="path2080" style="fill:none;stroke:#000000;stroke-linecap:round;stroke-linejoin:round"/><path class="st1" d="m 5.9645834,20.333989 h 4 l 2.9999996,-2 v -2" id="path2090" style="fill:none;stroke:#000000;stroke-linecap:round;stroke-linejoin:round"/><line class="st1" id="line4777" style="fill:#cccccc;stroke:#000000;stroke-linecap:round;stroke-linejoin:round" x1="21.964584" x2="14.964583" y1="18.33399" y2="18.33399"/><path class="st1" d="m 15.964583,22.333989 9,-2" id="path2094" style="fill:#cccccc;stroke:#000000;stroke-linecap:round;stroke-linejoin:round"/><path class="st1" d="m 43.964583,19.333989 -3,1 v 2" id="path2096" style="fill:none;stroke:#000000;stroke-linecap:round;stroke-linejoin:round"/><line class="st1" id="line4781" style="fill:#cccccc;stroke:#000000;stroke-linecap:round;stroke-linejoin:round" x1="40.964584" x2="29.964584" y1="20.33399" y2="20.33399"/><path class="st1" d="m 43.964583,30.333989 -8,-1" id="path2137" style="fill:none;stroke:#000000;stroke-linecap:round;stroke-linejoin:round"/><path class="st1" d="m 6.9645834,38.333989 3,-4 12.9999996,-7 h 2" id="path2139" style="fill:#cccccc;stroke:#000000;stroke-linecap:round;stroke-linejoin:round"/><path class="st1" d="m 9.9645834,34.333989 v -12" id="path2141" style="fill:none;stroke:#000000;stroke-linecap:round;stroke-linejoin:round"/><path class="st1" d="m 5.9645834,24.333989 h 4 l 2.9999996,2 v 2" id="path2143" style="fill:none;stroke:#000000;stroke-linecap:round;stroke-linejoin:round"/><path class="st1" d="m 14.964583,26.333989 h 7 l 1,1" id="path2145" style="fill:#cccccc;stroke:#000000;stroke-linecap:round;stroke-linejoin:round"/><path class="st1" d="m 15.964583,22.333989 9,2" id="path2147" style="fill:#cccccc;stroke:#000000;stroke-linecap:round;stroke-linejoin:round"/><path class="st1" d="m 43.964583,25.333989 -3,-1 v -2" id="path2149" style="fill:none;stroke:#000000;stroke-linecap:round;stroke-linejoin:round"/><line class="st1" id="line4794" style="fill:#cccccc;stroke:#000000;stroke-linecap:round;stroke-linejoin:round" x1="40.964584" x2="29.964584" y1="24.33399" y2="24.33399"/><path class="st0" d="m 21,32.340239 1,2 -1,6 3,1 h 2 l 3,-1 -1,-6 2,-3 v -0.6 -6.4 -4 -6.4 -0.6 c 0,-0.5 -0.5,-1 -1,-1 h -2 c -0.5,0 -1,0.5 -1,1 v 1.5 4.5 1 4 5.5" id="path4797" style="fill:#a05a2c;stroke:#000000;stroke-width:2;stroke-linecap:round;stroke-linejoin:round"/><path class="st0" d="m 26,12.340239 v 7 c 0,0.6 -0.5,1 -1,1 h -2 c -0.5,0 -1,-0.4 -1,-1 v -7 c 0,-0.5 0.5,-1 1,-1 h 2 c 0.5,0 1,0.4 1,1 z" id="path4799" style="fill:#a05a2c;stroke:#000000;stroke-width:2;stroke-linecap:round;stroke-linejoin:round"/></g></svg>