<?xml version="1.0" ?><svg id="svg8" style="enable-background:new 0 0 48 48;" version="1.1" viewBox="0 0 48 48" xml:space="preserve" xmlns="http://www.w3.org/2000/svg" xmlns:cc="http://creativecommons.org/ns#" xmlns:dc="http://purl.org/dc/elements/1.1/" xmlns:inkscape="http://www.inkscape.org/namespaces/inkscape" xmlns:rdf="http://www.w3.org/1999/02/22-rdf-syntax-ns#" xmlns:sodipodi="http://sodipodi.sourceforge.net/DTD/sodipodi-0.dtd" xmlns:svg="http://www.w3.org/2000/svg"><style id="style4615" type="text/css">
	.st0{fill:none;stroke:#000000;stroke-width:2;stroke-linecap:round;stroke-linejoin:round;}
	.st1{fill:none;stroke:#000000;}
</style><defs id="defs4621"/><g id="layer3"><path class="st0" d="m 38,25 8,-5 V 9 l -14,8 -8.908836,7.370267 z" id="path1600" style="fill:#d40000"/><path class="st0" d="M 10,25 2,20 V 9 l 14,8 5.74474,5.014026 z" id="path1606" style="fill:#d40000"/><path class="st0" d="M24,10.9c-0.4,0-2.1,5.5-3.1,8.4c-2.1-1-4.4-2.2-4.6-2   c-0.2,0.2,1,2.5,2,4.6c-3,1-8.4,2.7-8.4,3.1c0,0.4,5.5,2.1,8.4,3.1c-1,2.1-2.2,4.4-2,4.6c0.2,0.2,2.5-1,4.6-2c1,3,2.7,8.4,3.1,8.4   s2.1-5.5,3.1-8.4c2.1,1,4.4,2.2,4.6,2c0.2-0.2-1-2.5-2-4.6c3-1,8.4-2.7,8.4-3.1s-5.5-2.1-8.4-3.1c1-2.1,2.2-4.4,2-4.6   c-0.2-0.2-2.5,1-4.6,2C26.1,16.3,24.4,10.9,24,10.9z" id="path1593" style="fill:#ff9300;fill-opacity:1"/><path class="st1" d="M31.6,22.3L46,15l0,0" id="path1604"/><path class="st1" d="M16.4,22.3L2,15l0,0" id="path1608"/></g></svg>