<?xml version="1.0" ?><svg id="svg8" style="enable-background:new 0 0 48 48;" version="1.1" viewBox="0 0 48 48" xml:space="preserve" xmlns="http://www.w3.org/2000/svg" xmlns:cc="http://creativecommons.org/ns#" xmlns:dc="http://purl.org/dc/elements/1.1/" xmlns:inkscape="http://www.inkscape.org/namespaces/inkscape" xmlns:rdf="http://www.w3.org/1999/02/22-rdf-syntax-ns#" xmlns:sodipodi="http://sodipodi.sourceforge.net/DTD/sodipodi-0.dtd" xmlns:svg="http://www.w3.org/2000/svg"><style id="style4634" type="text/css">
	.st0{fill:none;stroke:#000000;stroke-width:2;stroke-linecap:round;stroke-linejoin:round;}
	.st1{fill:none;stroke:#000000;stroke-linecap:round;stroke-linejoin:round;}
	.st2{fill:#FFFFFF;stroke:#000000;stroke-linecap:round;stroke-linejoin:round;}
</style><defs id="defs4640"/><g id="g1620"><path class="st0" d="M 36.6,39.3 C 31.4,45 24.1,45 24.1,45 H 23.9 C 23.9,45 16.2,44.7 11,39 11,39 5.0459456,21.437381 5.5219782,19.247631 5.9980108,17.057881 22.278326,8.7749134 22.278326,8.7749134 l 14.185772,3.1418156 3.427434,11.519989 z" id="path1633" style="fill:#ffb380"/><path class="st0" d="M 34.1,6 C 29,2 14.8,0 7.5,8.5 0.2,17 3.1,27.3 5.1,35.3 6.8,42.1 3,45 3,45 l 0.033661,0.03366 C 3.0336606,45.033661 6.2,47 10.1,40.2 12.8,35.5 7.3,24.4 11,18 14.7,11.6 22,14 27.2,15.8 L 34,6" id="path1626" style="fill:#be7f00;stroke:#000000;stroke-width:2;stroke-linecap:round;stroke-linejoin:round;fill-opacity:1"/><path class="st0" d="m 34,6 c 2,0 5.2,0.9 7.2,3.4 3.8,4.6 2.6,16.5 0.6,24.5 -1.7,6.8 2.982188,11.11683 2.982188,11.11683 C 44.782188,45.01683 39.9,45 37.8,41.5 34,35 40.6,25 36,19 34.1,16.5 31,15 27.2,15.8 Z" id="path1637" style="fill:#be7f00;stroke:#000000;stroke-width:2;stroke-linecap:round;stroke-linejoin:round;fill-opacity:1"/><path class="st1" d="M26,24c0,0,5-4,7-2" id="path1011"/><circle cx="30" cy="27" id="path1013" r="2"/><path class="st1" d="M31,26c0,0,1,0,1-1" id="path1015"/><path class="st1" d="M31.5,26.7c0,0,0.9,0.5,1.4-0.4" id="path1021"/><path class="st1" d="M22,24c0,0-5-4-7-2" id="path1034"/><circle cx="18" cy="27" id="circle1036" r="2"/><path class="st1" d="M17,26c0,0-1,0-1-1" id="path1038"/><path class="st1" d="M16.5,26.7c0,0-0.9,0.5-1.4-0.4" id="path1040"/><path class="st2" d="M23.6,32.2c0,0,1.1-0.1,1.1-1.2c0-1.1-1.5-1.3-1.5-1.3" id="path1042" style="fill:none"/><path class="st1" d="M19.1,36.7c0,0,1,2,5,2s5-2,5-2S24.1,35.4,19.1,36.7z" id="path1044" style="fill:#ffffff"/><path class="st1" d="M29,13c0,0-7-6-14-3" id="path1046"/><path class="st1" d="M30,12c0,0,4-2,6,1" id="path1048"/><path class="st1" d="M10,40c0,0-0.3-5.8-2-10   c-2-5-1-9-1-9" id="path1050"/><path class="st1" d="M40,28c0,0-5,11,0,15" id="path1052"/></g></svg>