<svg xmlns="http://www.w3.org/2000/svg" viewBox="0 0 48 48"><path fill="#f43735" d="M35.531 22.928l-1.91 9.56a6.48 6.48 0 0 1-.92 2.28l-1.26 1.95v.02l-.32.47c-.1.16-.21.31-.33.45-.7.92-1.63 1.63-2.71 2.07l-1.53.62a6.56 6.56 0 0 1-5.16-.09l-1.62-.73c-1.12-.5-2.07-1.3-2.76-2.32l-.08-.11-.58-.87-1-1.48c-.48-.72-.82-1.53-.99-2.38l-1.89-9.4c-.2-1-.16-2.03.11-3.01l1.8-6.64c.2-.74.52-1.43.96-2.04.17-.27.37-.52.59-.75.44-.46.94-.86 1.5-1.18l2.82-1.63c.55-.42 3.7-.54 3.7-.54.96-.07 2.23.21 3.07.44.53.14 1.04.35 1.52.62l1.83 1.03c.64.36 1.21.83 1.69 1.37.21.23.41.49.58.76.35.53.63 1.12.81 1.75l1.94 6.66c.3 1.01.34 2.08.14 3.12z"/><path fill="#db2a2a" d="M23.813 32.954a.378.378 0 0 1-.165-.038l-1.754-.861a.375.375 0 0 1 .331-.674l1.601.786 1.904-.795a.374.374 0 1 1 .289.692l-2.061.861a.37.37 0 0 1-.145.03z"/><path fill="#303030" d="M23.298 24.852l-2.53-8.09a.48.48 0 0 0-.217-.272l-3.46-1.999a.48.48 0 0 0-.7.283l-2.202 7.678a.48.48 0 0 0-.014.201l.616 4.25a.48.48 0 0 0 .076.2l2.602 3.875a.48.48 0 0 0 .697.107l3.362-2.689a.48.48 0 0 0 .123-.149l1.613-3.027a.48.48 0 0 0 .034-.368zm-5.452 1.083l-2.184-1.046 1.2-1.138 4.49 1.477-3.506.707zM24.785 25.22l1.613 3.027a.48.48 0 0 0 .124.15l3.36 2.688a.48.48 0 0 0 .698-.107l2.602-3.876a.48.48 0 0 0 .076-.198l.616-4.25a.478.478 0 0 0-.014-.202l-2.202-7.678a.48.48 0 0 0-.7-.283l-3.46 1.999a.48.48 0 0 0-.217.272l-2.53 8.09a.48.48 0 0 0 .034.368zm1.912.008l4.49-1.477 1.2 1.138-2.184 1.046-3.506-.707z"/><path fill="#db2a2a" d="M16.281 13.638c-.03.01-.06.01-.09.01-.17 0-.32-.12-.36-.29l-.49-2.08c.17-.27.37-.52.59-.75l.63 2.66c.05.2-.08.4-.28.45zM32.641 11.398l-.46 1.96c-.04.17-.19.29-.36.29-.03 0-.06 0-.09-.01a.384.384 0 0 1-.28-.45l.61-2.55c.21.23.41.49.58.76zM17.791 33.038l-.86 4.06-.58-.87.71-3.35c.04-.2.24-.32.44-.29.2.05.33.25.29.45zM31.441 36.718v.02l-.32.47c-.1.16-.21.31-.33.45l-.53-4.66a.37.37 0 0 1 .33-.41c.2-.02.39.12.41.33l.44 3.8z"/><g><path fill="#db2a2a" d="M19.209 10.883a.374.374 0 0 1-.193-.697c.14-.083 3.482-2.02 8.35-.665a.375.375 0 1 1-.2.723c-4.547-1.266-7.734.568-7.766.586a.368.368 0 0 1-.191.053z"/></g><path fill="#fff" d="M26.697 25.228l4.491-1.477 1.2 1.138-2.185 1.046zM21.353 25.228l-4.492-1.477-1.199 1.138 2.184 1.046z"/></svg>