<svg xmlns="http://www.w3.org/2000/svg" viewBox="0 0 48 48"><path fill="#db2a2a" d="M39.535 25.087l-1.879-.659-4.56 2.198 3.856 3.772h1.697zM9.976 24.428l-1.511.856.886 5.114h1.698l-.817-5.97z"/><path fill="#f43735" d="M27.216 24.581l5.335 14.146.013.005v-.005l3.52-2.777.868-5.552.704-5.97zM9.992 24.542l.637 4.506 1.287 6.902 3.12 2.777 7.62-12.478z"/><path fill="#db2a2a" d="M32.975 24.447l-18.361.076.422 14.204-.012.574 1.798 1.918h13.944l1.798-1.605v-.882l-.013-.005z"/><path fill="#f43735" d="M18.687 7.563c-3.644 1.119-7.977 3.825-8.937 10.353 0-.01.01-.01.02-.02.18-.17 1.8-1.53 5.9-1.61 3.238-.074 4.294 1.397 4.626 2.166l.961-1.3s2.541-3.386 2.006-6.056c-.356-1.773-3.425-3.007-4.576-3.533z"/><path fill="#db2a2a" d="M29.215 7.73l.188-.128c-1.52-.481-3.291-.782-5.373-.816 0 0-2.455-.11-5.343.777 2.883 1.32 2.57 9.589 2.57 9.589l-.961 1.3c.116.27.144.454.144.454l6.78-.09s-.028-.273-.002-.67l-.647-.994s2.732-2.154 3.178-4.643c.346-1.925-1.81-4.228-.534-4.778z"/><path fill="#f43735" d="M29.403 7.602l-.188.129c-1.16.5-1.816 2.084-2.185 3.814-.562 2.634-.459 5.607-.459 5.607l.647.993c.078-1.17.634-3.435 3.812-3.13 4.14.41 7.09 4.27 7.27 4.51l.01.01v-.02c-.008-.484-.282-9.178-8.907-11.913z"/><path fill="#ffdd4d" d="M38.36 20.006l-.13.85-1.133 8.31a7.33 7.33 0 0 0-3.377 3.46c-1.14 2.45-1.58 5.31-1.58 5.31l-1.59.71-2.77-.09-1.5-.95-5.84-.21-1.19 1.01-2.15.22-1.53-1.53c-.1-2.03-1.06-3.36-1.51-4.55-.84-2.19-1.91-3.07-1.91-3.07l-1.52-.43-1.15-8.12-.13-.92s0-.17.03-.45c.04-.38.13-.97.37-1.64 0-.01.01-.01.02-.02.5-1.43 1.65-3.21 4.24-4.07 4.71-1.57 6.49.94 7.25 3.33h5.31c2.75-8.44 11.01-1.83 11.74 2.36v.02c.03.16.05.32.05.47z"/><path fill="#fff" d="M13.311 23.834s4.784.834 7.132.747l-1.262 1.668s-3.052-.087-5.576-.604l-.294-1.811zM34.348 23.834s-4.784.834-7.132.747l1.262 1.668s3.052-.087 5.576-.604l.294-1.811z"/><path fill="#db2a2a" d="M38.31 19.536v-.01h-.01l-2.71 3.55-1.33.39c-.22.04-4.79.82-7.03.74-.01 0-.01.01-.02.01l-6.77-.01h-.01c-2.24.08-6.81-.7-7.03-.74l-1.33-.39-2.69-3.52c-.03.28-.03.45-.03.45l.13.92 2.07 2.7c.04.07.11.11.19.14l1.24.36.25 1.58c.03.15.15.27.3.31 2.53.51 5.51.6 5.64.61h.01c.12 0 .23-.06.3-.15l1.15-1.52 6.4.01 1.15 1.51c.07.09.18.15.3.15h.01c.12-.01 3.11-.1 5.64-.61.15-.04.27-.16.29-.31l.26-1.58 1.24-.36a.38.38 0 0 0 .19-.14l2.12-2.77.13-.85c0-.15-.02-.31-.05-.47zM19 25.866c-.68-.03-3.02-.15-5.07-.54l-.17-1.04c1.16.19 3.96.62 5.93.67l-.69.91zm14.73-.54c-2.05.39-4.39.51-5.07.54l-.69-.91c1.97-.05 4.77-.48 5.92-.67l-.16 1.04z"/><path fill="#efbc3f" d="M14.057 32.552s.839 2.301.934 4.778l1.886 1.888v-2.504s-1.638-2.674-2.82-4.162z"/><path fill="#ffd24a" d="M28.735 35.077h-9.756l-2.102 1.637v2.504h2.364l1.332-1.158h5.319l1.324 1.318h3.336l.039-2.814z"/><path fill="#efbc3f" d="M30.59 36.564l-.038 2.814 2.075-1.423s.428-3.166 1.096-5.334l-3.132 3.943z"/></svg>