<svg xmlns="http://www.w3.org/2000/svg" viewBox="0 0 48 48"><path fill="#e6e6e6" d="M6.542 19.332s-.124 1.44 1.444 2.13c0 0-.355 1.275.961 1.526 0 0 1.254.685 1.338 1.597l3.273 1.793.903-4.916-7.919-2.13zM41.458 19.332l-5.928 1.595-.723 4.182h2.718c.083-.911 1.528-2.121 1.528-2.121 1.316-.251.961-1.526.961-1.526 1.568-.69 1.444-2.13 1.444-2.13z"/><path fill="#d6b6a1" d="M11.833 29.873c-.903.844-1.5-.786-2.165-3.477s1.475-1.587 1.475-1.587l2.097 1.569-1.407 3.495zM35.74 29.68c.903.843 1.926-.593 2.592-3.284.665-2.691-1.92-1.492-1.92-1.492l-1.89 1.474 1.218 3.301z"/><path fill="#1d97ff" d="M23.71 7.52s-12.518-.463-13.167 12.888l2.04 14.974 4.914 5.1h12.935l4.682-5.053 2.41-16.04S36.877 7.565 23.71 7.52z"/><path fill="#fff" d="M13.386 22.205c.269-.537.81-.879 1.41-.894 1.337-.033 3.74.034 5.345.81 0 0 1.151.654 1.151 1.675 0 0-.104 2.172-2.669 2.198 0 0-3.035.052-4.16-.157 0 0-2.147-.628-1.57-2.643l.493-.99zM34.547 22.18a1.573 1.573 0 0 0-1.37-.868c-1.331-.035-3.755.027-5.372.809 0 0-1.152.654-1.152 1.675 0 0 .105 2.172 2.67 2.198 0 0 3.035.052 4.16-.157 0 0 2.146-.628 1.57-2.643l-.506-1.014z"/><path fill="#f9d9c0" d="M33.969 34.459l-2.21 2.48-2.07 2.32-3.69-3.17h-4.72l-3.1 3.17-2.34-2.33v-.01l-2.14-2.14c-.32-1.35 0-4.17 0-4.17.05-.27.12-.51.22-.71.64-1.36 2.24-1.15 2.24-1.15 2.92.03 6.23-1.39 7.34-1.91.25-.12.39-.19.39-.19.11.1.23.2.36.28 1.91 1.36 5.79 1.78 6.94 1.78 1.23 0 2.14.48 2.14.48.2.11.34.35.45.66l.12.43c.34 1.57.07 4.18.07 4.18z"/><path fill="#d6b6a1" d="M33.969 34.459l-2.21 2.48s-.23-.53 0-3.55c.23-3.02 2.02-3.54 2.02-3.54l.12.43c.34 1.57.07 4.18.07 4.18zM15.839 36.919l-2.14-2.14c-.32-1.35 0-4.17 0-4.17.05-.27.12-.51.22-.71.4.18 1.71.94 1.91 3.49.21 2.71.04 3.41.01 3.53z"/><path fill="#fff" d="M26.976 11.903h-6.085l-2.848 7.195h3.837l.48-1.29h2.982l.405 1.29h3.957l-2.728-7.195zM22.51 16.28l.36-2.306h1.918l.39 2.306H22.51z"/><g><path fill="#d6b6a1" d="M19.775 35.534a.374.374 0 0 1-.248-.656l1.073-.942a.373.373 0 0 1 .248-.094h5.805c.094 0 .185.035.254.099l1.025.942a.376.376 0 0 1-.508.553l-.917-.844h-5.518l-.967.849a.37.37 0 0 1-.247.093zM23.822 32.395a.364.364 0 0 1-.098-.013l-1.76-.473a.375.375 0 0 1 .195-.724l1.675.45 1.69-.336a.375.375 0 0 1 .146.736l-1.775.353a.38.38 0 0 1-.073.007zM24.249 26.929l-.15 3.07c-.01.2-.17.36-.37.36h-.02a.378.378 0 0 1-.36-.39l.15-3.13c.25-.12.39-.19.39-.19.11.1.23.2.36.28z"/></g></svg>