<svg xmlns="http://www.w3.org/2000/svg" viewBox="0 0 48 48"><path fill="#f43735" d="M35.283 28.856c-.02.22-.04.33-.04.33s-.01.03-.01.08c-.06.41-.16.82-.29 1.22-.25.72-.51 1.39-.8 2.01-.02.04-.04.09-.06.14-.67 1.48-1.42 2.7-2.22 3.72-1.33 1.72-2.75 2.82-4.01 3.53-.23.13-.45.25-.67.35-1.79.86-3.11.91-3.11.91-1.03-.03-2.06-.38-3.06-.94a7.9 7.9 0 0 1-.66-.41c-1.3-.87-2.54-2.09-3.62-3.44 0 0-.01-.01-.03-.04-1.13-1.43-1.488-3.285-2.158-4.725-.06-.11-.287-.295-.337-.405-.29-.64-.482-1.099-.642-1.639-.11-.38-.184-.867-.254-1.317 0 0-.067-.396-.067-.406-.62-3.52.067-9.932.067-9.932.03-.44-.07-1.484-.05-1.554.04-.24.244-.169.304-.389.01-.05.243-.348.253-.388.42-1.5.374-3.175 1.134-4.185.01-.02.02-.03.03-.04v-.01c1.35-1.79 3.08-2.86 4.67-3.51.24-.1.48-.18.71-.26 2.06-.7 3.71-.7 3.71-.7 1.22-.02 2.31.11 3.28.37.25.06.49.13.72.21 1.97.67 3.42 1.83 4.47 3.1 0 .01.01.02.01.02 1.47 1.78 2.16 3.75 2.46 4.83.03.12.06.23.08.35.07.29.1.47.1.47.02.14.04.28.05.42.06.36.1.74.14 1.14.03.3.05.6.07.89.03.3.05.59.06.88.04.57.06 1.13.07 1.67.08 3.25-.16 6.24-.3 7.65z"/><path fill="#303030" d="M14.982 11.33s2.46 9.038 8.782 15.084c0 0 7.158-6.122 8.26-16.217 0 0 2.763 1.162 3.362 7.564.6 6.402-.144 11.426-.144 11.426s-1.196 4.894-3.381 7.165l-8.01-6.928-7.12 6.928s-2.978-3.174-3.915-8.05c-.938-4.876-.13-11.816.281-13.062.411-1.246 1.885-3.91 1.885-3.91z"/><path fill="#fff" d="M15.024 17.369s1.59 6.906 7.578 10.206l-4.828 4.44s-5.072-4.44-2.75-14.646zM32.862 17.369s-1.589 6.906-7.578 10.206l4.828 4.44s5.073-4.44 2.75-14.646z"/><g fill="#303030"><path d="M31.313 15.996l-.56-.28-3.97-2.04 1.29-6.24c-.23-.08-.47-.15-.72-.21l-1.29 6.25-4.54-.13-1.16-5.79c-.23.08-.47.16-.71.26l1.12 5.56c-.01.01-.02.01-.02.01l-4.06 2.55-.6.38c-.17.11-.23.35-.12.52.07.11.2.18.32.18.07 0 .14-.02.2-.06l.52-.33 3.91-2.46.97 4.83-2.64 1.77-.57.39c-.18.11-.22.35-.11.52a.388.388 0 0 0 .52.1l.56-.38 2.4-1.61 1.23 6.16.11.54c.04.18.19.3.37.3s.33-.12.37-.3l.1-.51.01-.01 1.28-6.21 2.57 1.41.59.32c.18.1.41.03.5-.15.1-.18.04-.41-.14-.51l-.55-.3-2.81-1.54.94-4.55 3.87 1.99.48.24c.19.09.41.02.51-.16.09-.19.02-.41-.17-.51zm-7.54 8.54l-1-5h2.03l-1.03 5zm1.19-5.75h-2.34l-.95-4.69 4.23.13-.94 4.56zM30.463 33.676a.368.368 0 0 0-.53 0l-.54.54-2.6 2.58-.96-2.79 1.81-1.3.38-.28c.16-.12.2-.35.08-.52a.38.38 0 0 0-.52-.09l-.53.38-1.48 1.07-1.16-3.35v-.01l-.21-.6c-.05-.16-.21-.25-.36-.26-.16.01-.3.11-.35.27l-.2.65v.01l-1.02 3.4-1.5-.95-.53-.33a.383.383 0 0 0-.52.12c-.11.18-.05.41.12.52l.37.23 1.84 1.16-.81 2.71-2.54-2.4-.45-.42a.377.377 0 0 0-.53.01c-.14.15-.14.39.01.53l.43.41 2.84 2.67-.65 2.16c.22.15.44.29.66.41l.71-2.35h4.64l.82 2.38c.22-.1.44-.22.67-.35l-.79-2.3 2.9-2.88.5-.5c.15-.15.15-.39 0-.53zm-6.59-3.03l1.01 2.92h-1.88l.87-2.92zm-1.93 6.46l.84-2.79h2.36l.96 2.79h-4.16z"/></g></svg>