<svg xmlns="http://www.w3.org/2000/svg" width="24" height="24"><path fill="none" d="M-1-1h582v402H-1z"/><g><path fill="#fff" d="M17 3.196V.5a.5.5 0 0 0-.5-.5h-3a.5.5 0 0 0-.451.284l-.82 1.714h-.057L12 2C5.935 2 1 6.935 1 13c0 1.879.488 3.74 1.412 5.383a.499.499 0 1 0 .887-.03l1.127-2.356a.501.501 0 0 0 .021-.38A7.98 7.98 0 0 1 4 13a8.01 8.01 0 0 1 6.75-7.908L2.049 23.284A.5.5 0 0 0 2.5 24h3a.5.5 0 0 0 .46-.303L8.83 17h4.67v.5a.5.5 0 0 0 .813.39l2.5-2a.5.5 0 0 0 0-.78l-2.5-2a.5.5 0 0 0-.813.39v.5h-3.227L13.5 6.83v4.67a.5.5 0 0 0 .188.39l2.5 2A.5.5 0 0 0 17 13.5V6.77A7.96 7.96 0 0 1 20 13a7.985 7.985 0 0 1-3 6.235V17.5a.5.5 0 0 0-.813-.39l-2.5 2A.5.5 0 0 0 14 20h1.864A7.946 7.946 0 0 1 12 21a7.952 7.952 0 0 1-3.01-.59.502.502 0 0 0-.648.266l-.788 1.84a.499.499 0 0 0 .27.658A10.93 10.93 0 0 0 12 24c6.065 0 11-4.935 11-11 0-4.107-2.345-7.92-6-9.804z"/></g></svg>